g BananosHeroHand
v 0.001334243 -0.0004388856 -0.0001931756
v 4.705195E-05 -0.002239249 -0.00063279
v 0.0008312784 -0.002238989 -0.0005431865
v 0 -0.003012724 0
v 0.0009024223 -0.002239249 6.980047E-05
v 0.001452374 -0.0004388856 0.0008189238
v 0.0006773033 -0.002239041 0.0006354564
v 4.702953E-05 -0.002239041 0.0007486711
v 0.001086974 -0.0004388858 0.001769499
v 0.001524225 0.0004849743 0.0008189238
v 0.001139915 0.0009338211 0.001939449
v 6.347871E-05 -0.0004388857 -0.0003219011
v -0.001163711 -0.0004388856 -0.0001931759
v 0.001398875 0.0004849743 -0.0002521761
v -0.0007069587 -0.002238989 -0.0005431867
v 6.347871E-05 0.0004849744 -0.0003809014
v 0.001629482 0.001838369 0.0008189238
v 0.001217482 0.002050598 0.001738649
v 0.001493505 0.001838369 -0.0004491508
v 6.347871E-05 0.002332695 -0.0006498263
v 6.347871E-05 0.002332695 0.0008189235
v 6.347778E-05 0.002332695 0.001868724
v -0.001397232 0.0004849744 -0.0003809016
v -0.001540965 0.002332694 -0.0006498264
v -0.001397233 0.0004849744 0.0008189235
v -0.001540965 0.002332695 0.0008189232
v 6.347778E-05 0.001023645 0.002163699
v -0.001253819 0.002332695 0.001650574
v -0.001110086 0.0009117197 0.001884248
v 6.347778E-05 -0.0004388857 0.001959748
v -0.001038234 -0.0004388856 0.001722674
v -0.0006085341 -0.002238936 0.0006075664
v -0.0008083199 -0.002239266 6.980033E-05
v -0.001325388 -0.0004388856 0.0008189235
v -0.002235708 0.0002823076 0.0008189232
v -0.002235707 0.0002823076 -0.0003219014
v -0.00160028 0.001235784 -0.0003809016
v -0.001600281 0.001235784 0.0008189232
vt 0.10026 0.344002
vt 0.10026 0.344002
vt 0.10026 0.344002
vt 0.10026 0.344002
vt 0.10026 0.344002
vt 0.10026 0.344002
vt 0.10026 0.344002
vt 0.10026 0.344002
vt 0.10026 0.344002
vt 0.10026 0.344002
vt 0.10026 0.344002
vt 0.10026 0.344002
vt 0.10026 0.344002
vt 0.10026 0.344002
vt 0.10026 0.344002
vt 0.10026 0.344002
vt 0.10026 0.344002
vt 0.10026 0.344002
vt 0.10026 0.344002
vt 0.10026 0.344002
vt 0.10026 0.344002
vt 0.10026 0.344002
vt 0.10026 0.344002
vt 0.10026 0.344002
vt 0.10026 0.344002
vt 0.10026 0.344002
vt 0.10026 0.344002
vt 0.10026 0.344002
vt 0.10026 0.344002
vt 0.10026 0.344002
vt 0.10026 0.344002
vt 0.10026 0.344002
vt 0.10026 0.344002
vt 0.10026 0.344002
vt 0.10026 0.344002
vt 0.10026 0.344002
vt 0.10026 0.344002
vt 0.10026 0.344002
vn 0.7389176 -0.09455014 -0.6671289
vn -0.0009407454 -0.2488782 -0.9685344
vn 0.5994374 -0.3854446 -0.7015036
vn -0.0283684 -0.9992913 -0.02473895
vn 0.8377068 -0.5406505 0.07709987
vn 0.9662572 -0.2129846 0.144861
vn 0.5287175 -0.6283187 0.5706781
vn -0.01158043 -0.6235813 0.7816728
vn 0.6001314 -0.317311 0.7342724
vn 0.9891099 -0.07246156 0.1281055
vn 0.6137493 -0.01195156 0.7894105
vn 0.01213242 0.03259638 -0.999395
vn -0.5417618 -0.3275284 -0.7740926
vn 0.7044703 -0.1198502 -0.699541
vn -0.5956271 -0.3606256 -0.7177587
vn 0.03563231 -0.124163 -0.9916219
vn 0.8625891 0.4980168 0.08899136
vn 0.5954961 0.5905651 0.544626
vn 0.667525 0.4102342 -0.6213841
vn 0.1482343 0.6654543 -0.7315718
vn 0.1482834 0.9888197 -0.01574317
vn 0.07488273 0.7662477 0.6381669
vn -0.06360846 -0.08511812 -0.9943383
vn -0.5927262 0.518793 -0.6160596
vn -0.6155955 0.01148326 0.7879786
vn -0.7554893 0.6447886 0.1161186
vn -0.01041837 0.03502577 0.999332
vn -0.5559145 0.6272677 0.5454303
vn -0.6469482 -0.02467318 0.7621346
vn -0.01294306 -0.3462109 0.9380674
vn -0.6290689 -0.3151623 0.710595
vn -0.5559781 -0.6124339 0.5619724
vn -0.8615912 -0.5056583 0.04438663
vn -0.8733137 -0.4091583 0.2644101
vn -0.8063949 -0.1447858 0.5733796
vn -0.8008286 -0.1700819 -0.5742348
vn 0.150751 0.7959977 -0.5862268
vn 0.1347297 0.8251055 0.5486791
g BananosHeroHand_0
f 3/3/3 2/2/2 1/1/1
f 3/3/3 4/4/4 2/2/2
f 3/3/3 1/1/1 5/5/5
f 5/5/5 4/4/4 3/3/3
f 1/1/1 6/6/6 5/5/5
f 7/7/7 4/4/4 5/5/5
f 5/5/5 6/6/6 7/7/7
f 8/8/8 4/4/4 7/7/7
f 6/6/6 9/9/9 7/7/7
f 7/7/7 9/9/9 8/8/8
f 10/10/10 6/6/6 1/1/1
f 11/11/11 9/9/9 6/6/6
f 10/10/10 11/11/11 6/6/6
f 2/2/2 12/12/12 1/1/1
f 13/13/13 12/12/12 2/2/2
f 14/14/14 1/1/1 12/12/12
f 14/14/14 10/10/10 1/1/1
f 2/2/2 4/4/4 15/15/15
f 15/15/15 13/13/13 2/2/2
f 16/16/16 12/12/12 13/13/13
f 16/16/16 14/14/14 12/12/12
f 17/17/17 10/10/10 14/14/14
f 18/18/18 11/11/11 10/10/10
f 17/17/17 18/18/18 10/10/10
f 19/19/19 14/14/14 16/16/16
f 19/19/19 17/17/17 14/14/14
f 20/20/20 19/19/19 16/16/16
f 17/17/17 19/19/19 20/20/20
f 18/18/18 17/17/17 21/21/21
f 21/21/21 17/17/17 20/20/20
f 18/18/18 22/22/22 11/11/11
f 22/22/22 18/18/18 21/21/21
f 20/20/20 16/16/16 23/23/23
f 23/23/23 16/16/16 13/13/13
f 21/21/21 20/20/20 24/24/24
f 24/24/24 20/20/20 23/23/23
f 24/24/24 23/23/23 25/25/25
f 26/26/26 21/21/21 24/24/24
f 22/22/22 21/21/21 26/26/26
f 26/26/26 24/24/24 25/25/25
f 22/22/22 27/27/27 11/11/11
f 11/11/11 27/27/27 9/9/9
f 28/28/28 22/22/22 26/26/26
f 22/22/22 28/28/28 27/27/27
f 28/28/28 26/26/26 29/29/29
f 28/28/28 29/29/29 27/27/27
f 26/26/26 25/25/25 29/29/29
f 27/27/27 30/30/30 9/9/9
f 27/27/27 29/29/29 30/30/30
f 9/9/9 30/30/30 8/8/8
f 29/29/29 31/31/31 30/30/30
f 8/8/8 30/30/30 31/31/31
f 29/29/29 25/25/25 31/31/31
f 32/32/32 8/8/8 31/31/31
f 32/32/32 4/4/4 8/8/8
f 33/33/33 4/4/4 32/32/32
f 32/32/32 31/31/31 33/33/33
f 15/15/15 4/4/4 33/33/33
f 31/31/31 34/34/34 33/33/33
f 33/33/33 34/34/34 15/15/15
f 25/25/25 34/34/34 31/31/31
f 34/34/34 13/13/13 15/15/15
f 35/35/35 34/34/34 25/25/25
f 36/36/36 13/13/13 34/34/34
f 35/35/35 36/36/36 34/34/34
f 36/36/36 37/37/37 13/13/13
f 37/37/37 36/36/36 35/35/35
f 37/37/37 23/23/23 13/13/13
f 38/38/38 35/35/35 25/25/25
f 38/38/38 25/25/25 23/23/23
f 38/38/38 37/37/37 35/35/35
f 37/37/37 38/38/38 23/23/23
