g BanjoDiskColor
v -0.1301759 0.02326437 0.0539192
v -0.1301759 0.03889775 0.0539192
v -0.09964633 0.03889775 0.09960981
v -0.09964631 0.02326439 0.09960989
v -0.1408965 0.02326437 2.336688E-05
v -0.0539556 0.03889776 0.1301394
v -0.1408965 0.03889774 2.336502E-05
v -0.0539556 0.0232644 0.1301394
v -0.1301759 0.02326437 -0.05387247
v -5.972572E-05 0.03889779 0.14086
v -0.1301759 0.03889773 -0.05387247
v -5.972665E-05 0.02326442 0.14086
v -0.09964636 0.02326437 -0.09956316
v 0.05383615 0.03889779 0.1301394
v -0.09964636 0.03889775 -0.09956316
v 0.05383614 0.02326442 0.1301394
v -0.05395565 0.02326438 -0.1300928
v 0.09952686 0.03889781 0.09960981
v -0.05395564 0.03889775 -0.1300928
v 0.09952684 0.02326444 0.09960981
v -5.977973E-05 0.0232644 -0.1408133
v 0.1300564 0.03889779 0.05391912
v -5.977042E-05 0.03889777 -0.1408133
v 0.1300564 0.02326444 0.05391912
v 0.05383609 0.02326442 -0.1300928
v 0.140777 0.03889781 2.328167E-05
v 0.0538361 0.03889778 -0.1300928
v 0.140777 0.02326445 2.32826E-05
v 0.09952684 0.02326442 -0.09956324
v 0.1300564 0.0388978 -0.05387256
v 0.09952683 0.03889778 -0.09956317
v 0.1300564 0.02326444 -0.05387256
vt 0.973689 0.4042544
vt 0.973689 0.4042544
vt 0.973689 0.4042544
vt 0.973689 0.4042544
vt 0.973689 0.4042544
vt 0.973689 0.4042544
vt 0.973689 0.4042544
vt 0.973689 0.4042544
vt 0.973689 0.4042544
vt 0.973689 0.4042544
vt 0.973689 0.4042544
vt 0.973689 0.4042544
vt 0.973689 0.4042544
vt 0.973689 0.4042544
vt 0.973689 0.4042544
vt 0.973689 0.4042544
vt 0.973689 0.4042544
vt 0.973689 0.4042544
vt 0.973689 0.4042544
vt 0.973689 0.4042544
vt 0.973689 0.4042544
vt 0.973689 0.4042544
vt 0.973689 0.4042544
vt 0.973689 0.4042544
vt 0.973689 0.4042544
vt 0.973689 0.4042544
vt 0.973689 0.4042544
vt 0.973689 0.4042544
vt 0.973689 0.4042544
vt 0.973689 0.4042544
vt 0.973689 0.4042544
vt 0.973689 0.4042544
vn -0.9238803 0 0.3826815
vn -0.9238803 0 0.3826815
vn -0.7071068 0 0.7071068
vn -0.7071068 0 0.7071068
vn -1 0 0
vn -0.3826815 0 0.9238803
vn -1 0 0
vn -0.3826815 0 0.9238803
vn -0.9238803 0 -0.3826815
vn 0 0 1
vn -0.9238803 0 -0.3826815
vn 0 0 1
vn -0.7071068 0 -0.7071068
vn 0.3826815 0 0.9238803
vn -0.7071068 0 -0.7071068
vn 0.3826815 0 0.9238803
vn -0.3826815 0 -0.9238803
vn 0.7071068 0 0.7071068
vn -0.3826815 0 -0.9238803
vn 0.7071068 0 0.7071068
vn 0 0 -1
vn 0.9238803 0 0.3826815
vn 0 0 -1
vn 0.9238803 0 0.3826815
vn 0.3826815 0 -0.9238803
vn 1 0 0
vn 0.3826815 0 -0.9238803
vn 1 0 0
vn 0.7071068 0 -0.7071068
vn 0.9238803 0 -0.3826815
vn 0.7071068 0 -0.7071068
vn 0.9238803 0 -0.3826815
g BanjoDiskColor_0
f 3/3/3 2/2/2 1/1/1
f 4/4/4 3/3/3 1/1/1
f 1/1/1 2/2/2 5/5/5
f 6/6/6 3/3/3 4/4/4
f 2/2/2 7/7/7 5/5/5
f 8/8/8 6/6/6 4/4/4
f 5/5/5 7/7/7 9/9/9
f 10/10/10 6/6/6 8/8/8
f 7/7/7 11/11/11 9/9/9
f 12/12/12 10/10/10 8/8/8
f 9/9/9 11/11/11 13/13/13
f 14/14/14 10/10/10 12/12/12
f 11/11/11 15/15/15 13/13/13
f 16/16/16 14/14/14 12/12/12
f 13/13/13 15/15/15 17/17/17
f 18/18/18 14/14/14 16/16/16
f 15/15/15 19/19/19 17/17/17
f 20/20/20 18/18/18 16/16/16
f 17/17/17 19/19/19 21/21/21
f 22/22/22 18/18/18 20/20/20
f 19/19/19 23/23/23 21/21/21
f 24/24/24 22/22/22 20/20/20
f 21/21/21 23/23/23 25/25/25
f 26/26/26 22/22/22 24/24/24
f 23/23/23 27/27/27 25/25/25
f 28/28/28 26/26/26 24/24/24
f 25/25/25 27/27/27 29/29/29
f 30/30/30 26/26/26 28/28/28
f 27/27/27 31/31/31 29/29/29
f 32/32/32 30/30/30 28/28/28
f 29/29/29 31/31/31 32/32/32
f 31/31/31 30/30/30 32/32/32
