g BasicGib
v -0.06765921 -0.09616768 0.007876083
v -0.04897398 -0.01475269 0.02525274
v 0.07099416 -0.01475269 0.03250428
v 0.05729137 0.04090375 0.007159665
v -0.0009267628 -0.02808827 -0.001558572
v 0.04877238 -0.01887304 0.0219797
v 0.05729137 0.04090375 0.007159665
v 0.07180922 0.06666237 0.02887581
v 0.002075009 0.04484731 -0.07883106
v 0.04877238 -0.01887304 0.0219797
v -0.0009267628 -0.02808827 -0.001558572
v -0.05075955 -0.08930212 -0.003677666
v -0.04897398 -0.01475269 0.02525274
v 0.002075009 0.04484731 0.05154417
v 0.07669511 0.04484731 0.03245601
v 0.07099416 -0.01475269 0.03250428
v 0.002075009 0.04484731 0.05154417
v 0.05858509 0.06252545 0.0515833
v 0.07180922 0.06666237 0.05159245
v 0.07669511 0.04484731 0.03245601
v -0.06765921 -0.09616768 -0.01309095
v -0.05075955 -0.08930212 -0.003677666
v -0.0009267628 -0.02808827 -0.001558572
v -0.04897398 -0.01475269 -0.05686663
v -0.06765921 -0.09616768 0.007876083
v 0.07099416 -0.01475269 0.03250428
v 0.04877238 -0.01887304 0.0219797
v -0.05075955 -0.08930212 -0.003677666
v 0.07669511 0.04484731 0.03245601
v 0.07180922 0.06666237 0.05159245
v 0.07180922 0.06666237 0.02887581
v 0.05729137 0.04090375 0.007159665
v 0.07099416 -0.01475269 0.03250428
v 0.07669511 0.04484731 0.03245601
v 0.05729137 0.04090375 0.007159665
v 0.04877238 -0.01887304 0.0219797
v -0.0009267628 -0.02808827 -0.001558572
v 0.05729137 0.04090375 0.007159665
v 0.002075009 0.04484731 -0.07883106
v -0.04897398 -0.01475269 -0.05686663
v -0.05075955 -0.08930212 -0.003677666
v -0.06765921 -0.09616768 -0.01309095
v -0.06765921 -0.09616768 0.007876083
v -0.06250875 -0.07372618 -0.00849288
v -0.04897398 -0.01475269 -0.03627697
v -0.04897398 -0.01475269 -0.05686663
v 0.002075009 0.04484731 -0.07883106
v -0.04897398 -0.01475269 0.003590271
v -0.04897398 -0.01475269 0.02525274
v 0.002075009 0.04484731 -0.06089982
v 0.07180922 0.06666237 0.02887581
v 0.002075009 0.04484731 0.02882947
v 0.002075009 0.04484731 0.05154417
v 0.05536018 0.06151658 0.02886488
v 0.07180922 0.06666237 0.05159245
v 0.05858509 0.06252545 0.0515833
vt 0.02999046 0.9650879
vt 0.02999046 0.965088
vt 0.02999046 0.965088
vt 0.02999046 0.9650879
vt 0.02999046 0.9650879
vt 0.02999046 0.9650879
vt 0.02999046 0.9650879
vt 0.02999046 0.9650879
vt 0.02999046 0.965088
vt 0.02999046 0.9650879
vt 0.02999046 0.9650879
vt 0.02999046 0.9650879
vt 0.02999046 0.965088
vt 0.02999046 0.965088
vt 0.02999046 0.965088
vt 0.02999046 0.965088
vt 0.02999046 0.965088
vt 0.02999046 0.9650879
vt 0.02999046 0.9650879
vt 0.02999046 0.965088
vt 0.02999046 0.9650879
vt 0.02999046 0.9650879
vt 0.02999046 0.9650879
vt 0.02999046 0.965088
vt 0.02999046 0.9650879
vt 0.02999046 0.965088
vt 0.02999046 0.9650879
vt 0.02999046 0.9650879
vt 0.02999046 0.965088
vt 0.02999046 0.9650879
vt 0.02999046 0.9650879
vt 0.02999046 0.9650879
vt 0.02999046 0.965088
vt 0.02999046 0.965088
vt 0.02999046 0.9650879
vt 0.02999046 0.9650879
vt 0.02999046 0.9650879
vt 0.02999046 0.9650879
vt 0.02999046 0.965088
vt 0.02999046 0.965088
vt 0.02999046 0.9650879
vt 0.02999046 0.9650879
vt 0.02999046 0.9650879
vt 0.02999046 0.9650879
vt 0.02999046 0.965088
vt 0.02999046 0.965088
vt 0.02999046 0.965088
vt 0.02999046 0.965088
vt 0.02999046 0.965088
vt 0.02999046 0.965088
vt 0.02999046 0.9650879
vt 0.02999046 0.965088
vt 0.02999046 0.965088
vt 0.02999046 0.965088
vt 0.02999046 0.9650879
vt 0.02999046 0.9650879
vn -0.05917282 -0.1953588 0.9789451
vn -0.05917282 -0.1953588 0.9789451
vn -0.05917282 -0.1953588 0.9789451
vn 0.452703 -0.274818 -0.8482541
vn 0.452703 -0.274818 -0.8482541
vn 0.452703 -0.274818 -0.8482541
vn 0.8409477 -0.01802528 -0.540816
vn 0.8409477 -0.01802528 -0.540816
vn 0.8409477 -0.01802528 -0.540816
vn 0.4532847 -0.3404914 -0.8237709
vn 0.4532847 -0.3404914 -0.8237709
vn 0.4532847 -0.3404914 -0.8237709
vn 0.05892254 -0.2413127 0.968657
vn 0.05892254 -0.2413127 0.968657
vn 0.05892254 -0.2413127 0.968657
vn 0.05892254 -0.2413127 0.968657
vn 0.1940529 -0.6219902 0.7585984
vn 0.1940529 -0.6219902 0.7585984
vn 0.1940529 -0.6219902 0.7585984
vn 0.1940529 -0.6219902 0.7585984
vn 0.5967661 -0.4754654 -0.6463768
vn 0.5967661 -0.4754654 -0.6463768
vn 0.5967661 -0.4754654 -0.6463768
vn 0.5967661 -0.4754654 -0.6463768
vn 0.5572718 -0.7968476 -0.2334138
vn 0.5572718 -0.7968476 -0.2334138
vn 0.5572718 -0.7968476 -0.2334138
vn 0.5572718 -0.7968476 -0.2334138
vn 0.913629 0.1421122 -0.3809018
vn 0.913629 0.1421122 -0.3809018
vn 0.913629 0.1421122 -0.3809018
vn 0.913629 0.1421122 -0.3809018
vn 0.6615009 -0.1697769 -0.730474
vn 0.6615009 -0.1697769 -0.730474
vn 0.6615009 -0.1697769 -0.730474
vn 0.6615009 -0.1697769 -0.730474
vn 0.6210991 -0.5818464 -0.5250627
vn 0.6210991 -0.5818464 -0.5250627
vn 0.6210991 -0.5818464 -0.5250627
vn 0.6210991 -0.5818464 -0.5250627
vn 0.5712049 -0.7078412 -0.415555
vn -0.4774719 -0.7116452 -0.5153461
vn -0.5746838 -0.736926 0.3559194
vn -0.9746636 0.2236758 0
vn -0.8929513 0.4501532 0
vn -0.4664196 0.003082404 -0.8845583
vn 0.03509709 0.4144813 -0.9093807
vn -0.8929513 0.4501532 0
vn -0.7107034 0.2446429 0.6595836
vn -0.5504178 0.8348893 0
vn 0.5111042 0.7901407 -0.3383047
vn -0.5504178 0.8348893 0
vn -0.3963886 0.5076326 0.7649739
vn -0.2985669 0.9543887 0
vn 0.498748 0.5570095 0.6640715
vn -0.1251878 0.3981779 0.9087257
g BasicGib_0
f 3/3/3 2/2/2 1/1/1
f 6/6/6 5/5/5 4/4/4
f 9/9/9 8/8/8 7/7/7
f 12/12/12 11/11/11 10/10/10
f 15/15/15 14/14/14 13/13/13
f 16/16/16 15/15/15 13/13/13
f 19/19/19 18/18/18 17/17/17
f 20/20/20 19/19/19 17/17/17
f 23/23/23 22/22/22 21/21/21
f 24/24/24 23/23/23 21/21/21
f 27/27/27 26/26/26 25/25/25
f 28/28/28 27/27/27 25/25/25
f 31/31/31 30/30/30 29/29/29
f 32/32/32 31/31/31 29/29/29
f 35/35/35 34/34/34 33/33/33
f 36/36/36 35/35/35 33/33/33
f 39/39/39 38/38/38 37/37/37
f 40/40/40 39/39/39 37/37/37
f 43/43/43 42/42/42 41/41/41
f 42/42/42 43/43/43 44/44/44
f 44/44/44 45/45/45 42/42/42
f 45/45/45 46/46/46 42/42/42
f 47/47/47 46/46/46 45/45/45
f 48/48/48 44/44/44 43/43/43
f 44/44/44 48/48/48 45/45/45
f 49/49/49 48/48/48 43/43/43
f 50/50/50 47/47/47 45/45/45
f 50/50/50 45/45/45 48/48/48
f 51/51/51 47/47/47 50/50/50
f 52/52/52 48/48/48 49/49/49
f 52/52/52 50/50/50 48/48/48
f 53/53/53 52/52/52 49/49/49
f 54/54/54 51/51/51 50/50/50
f 54/54/54 50/50/50 52/52/52
f 54/54/54 52/52/52 53/53/53
f 55/55/55 51/51/51 54/54/54
f 56/56/56 54/54/54 53/53/53
f 56/56/56 55/55/55 54/54/54
