g BasicObstacleBlue
v 0.1787319 0.004393697 0.5814867
v 0.1787319 0.004393697 0.6257522
v 0.1787319 0.6400162 0.6257522
v 0.1787319 0.6400162 0.5814867
v 0.1787319 0.004393697 -0.5936573
v 0.1600467 0.7214312 0.5814867
v 0.1600467 0.7214312 0.6257522
v 0.1787319 0.6400162 -0.5936573
v 0.1787319 0.004393697 -0.6257522
v 0.1787319 0.6400162 -0.6257522
v 0.1600467 0.7214312 -0.6257522
v 0.1600467 0.7214312 -0.5936573
v 0.1089977 0.7810312 -0.6257522
v 0.1089977 0.7810312 -0.5936573
v 0.03926346 0.8028463 -0.6257522
v 0.1089977 0.7810312 0.5814867
v 0.1089977 0.7810312 0.6257522
v 0.03926346 0.8028463 -0.5936573
v 0.03926346 0.8028463 0.5814867
v 0.03926346 0.8028463 0.6257522
v -0.03926346 0.8028463 0.6257522
v -0.03926346 0.8028463 -0.5936573
v -0.03926346 0.8028463 -0.6257522
v -0.1089977 0.7810312 -0.6257522
v -0.03926346 0.8028463 0.5814867
v -0.1089977 0.7810312 -0.5936573
v -0.1600467 0.7214312 -0.6257522
v -0.1089977 0.7810312 0.5814867
v -0.1089977 0.7810312 0.6257522
v -0.1600467 0.7214312 -0.5936573
v -0.1787319 0.6400162 -0.6257522
v -0.1600467 0.7214312 0.5814867
v -0.1600467 0.7214312 0.6257522
v -0.1787319 0.6400162 -0.5936573
v -0.1787319 0.6400162 0.5814867
v -0.1787319 0.6400162 0.6257522
v -0.1787319 0.004393697 0.6257522
v -0.1787319 0.004393697 0.5814867
v -0.1787319 0.004393697 -0.5936573
v -0.1787319 0.004393697 -0.6257522
v -0.1787319 0.004393697 0.5814867
v -0.1787319 0.004393697 0.6257522
v 0.1787319 0.004393697 0.6257522
v 0.1787319 0.004393697 0.5814867
v -0.1787319 0.004393697 -0.5936573
v 0.1787319 0.004393697 -0.5936573
v -0.1787319 0.004393697 -0.6257522
v 0.1787319 0.004393697 -0.6257522
v -0.1787319 0.004393697 -0.6257522
v 0.1787319 0.004393697 -0.6257522
v 0.1787319 0.6400162 -0.6257522
v 0.1600467 0.7214312 -0.6257522
v 0.1089977 0.7810312 -0.6257522
v 0.03926346 0.8028463 -0.6257522
v -0.03926346 0.8028463 -0.6257522
v -0.1089977 0.7810312 -0.6257522
v -0.1600467 0.7214312 -0.6257522
v -0.1787319 0.6400162 -0.6257522
v 0.1600467 0.7214312 0.6257522
v 0.1787319 0.6400162 0.6257522
v 0.1787319 0.004393697 0.6257522
v -0.1787319 0.004393697 0.6257522
v 0.1089977 0.7810312 0.6257522
v 0.03926346 0.8028463 0.6257522
v -0.03926346 0.8028463 0.6257522
v -0.1089977 0.7810312 0.6257522
v -0.1600467 0.7214312 0.6257522
v -0.1787319 0.6400162 0.6257522
vt 0.02999046 0.965088
vt 0.02999046 0.965088
vt 0.02999046 0.9650879
vt 0.02999046 0.9650879
vt 0.02999046 0.965088
vt 0.02999046 0.965088
vt 0.02999046 0.965088
vt 0.02999046 0.9650879
vt 0.02999046 0.965088
vt 0.02999046 0.965088
vt 0.02999046 0.965088
vt 0.02999046 0.965088
vt 0.02999046 0.965088
vt 0.02999046 0.965088
vt 0.02999046 0.9650879
vt 0.02999046 0.9650879
vt 0.02999046 0.9650879
vt 0.02999046 0.9650879
vt 0.02999046 0.9650879
vt 0.02999046 0.965088
vt 0.02999046 0.9650879
vt 0.02999046 0.9650879
vt 0.02999046 0.965088
vt 0.02999046 0.9650879
vt 0.02999046 0.9650879
vt 0.02999046 0.965088
vt 0.02999046 0.965088
vt 0.02999046 0.965088
vt 0.02999046 0.965088
vt 0.02999046 0.965088
vt 0.02999046 0.9650879
vt 0.02999046 0.965088
vt 0.02999046 0.965088
vt 0.02999046 0.9650879
vt 0.02999046 0.9650879
vt 0.02999046 0.965088
vt 0.02999046 0.965088
vt 0.02999046 0.965088
vt 0.02999046 0.965088
vt 0.02999046 0.965088
vt 0.02999046 0.965088
vt 0.02999046 0.965088
vt 0.02999046 0.965088
vt 0.02999046 0.965088
vt 0.02999046 0.965088
vt 0.02999046 0.965088
vt 0.02999046 0.965088
vt 0.02999046 0.965088
vt 0.02999046 0.965088
vt 0.02999046 0.965088
vt 0.02999046 0.9650879
vt 0.02999046 0.965088
vt 0.02999046 0.965088
vt 0.02999046 0.965088
vt 0.02999046 0.9650879
vt 0.02999046 0.9650879
vt 0.02999046 0.965088
vt 0.02999046 0.965088
vt 0.02999046 0.965088
vt 0.02999046 0.965088
vt 0.02999046 0.965088
vt 0.02999046 0.965088
vt 0.02999046 0.9650879
vt 0.02999046 0.9650879
vt 0.02999046 0.965088
vt 0.02999046 0.965088
vt 0.02999046 0.965088
vt 0.02999046 0.9650879
vn 0.7071068 -0.7071068 0
vn 0.5773503 -0.5773503 0.5773503
vn 0.7261205 0.08225011 0.6826301
vn 0.9936455 0.112555 0
vn 0.7071068 -0.7071068 0
vn 0.8929513 0.4501532 0
vn 0.6731411 0.3393478 0.6570572
vn 0.9936455 0.112555 0
vn 0.5773503 -0.5773503 -0.5773503
vn 0.7261205 0.08225011 -0.6826301
vn 0.6731411 0.3393478 -0.6570572
vn 0.8929513 0.4501532 0
vn 0.4182938 0.6345211 -0.6499333
vn 0.5504178 0.8348893 0
vn 0.1114548 0.7296751 -0.6746496
vn 0.5504178 0.8348893 0
vn 0.4182938 0.6345211 0.6499333
vn 0.1510068 0.9885328 0
vn 0.1510068 0.9885328 0
vn 0.1114548 0.7296751 0.6746496
vn -0.1114548 0.7296751 0.6746496
vn -0.1510068 0.9885328 0
vn -0.1114548 0.7296751 -0.6746496
vn -0.4182938 0.6345211 -0.6499333
vn -0.1510068 0.9885328 0
vn -0.5504178 0.8348893 0
vn -0.6731411 0.3393478 -0.6570572
vn -0.5504178 0.8348893 0
vn -0.4182938 0.6345211 0.6499333
vn -0.8929513 0.4501532 0
vn -0.7261205 0.08225011 -0.6826301
vn -0.8929513 0.4501532 0
vn -0.6731411 0.3393478 0.6570572
vn -0.9936455 0.112555 0
vn -0.9936455 0.112555 0
vn -0.7261205 0.08225011 0.6826301
vn -0.5773503 -0.5773503 0.5773503
vn -0.7071068 -0.7071068 0
vn -0.7071068 -0.7071068 0
vn -0.5773503 -0.5773503 -0.5773503
vn 0 -1 0
vn 0 -1 0
vn 0 -1 0
vn 0 -1 0
vn 0 -1 0
vn 0 -1 0
vn 0 -1 0
vn 0 -1 0
vn 0 0 -1
vn 0 0 -1
vn 0 0 -1
vn 0 0 -1
vn 0 0 -1
vn 0 0 -1
vn 0 0 -1
vn 0 0 -1
vn 0 0 -1
vn 0 0 -1
vn 0 0 1
vn 0 0 1
vn 0 0 1
vn 0 0 1
vn 0 0 1
vn 0 0 1
vn 0 0 1
vn 0 0 1
vn 0 0 1
vn 0 0 1
g BasicObstacleBlue_0
f 3/3/3 2/2/2 1/1/1
f 4/4/4 3/3/3 1/1/1
f 4/4/4 1/1/1 5/5/5
f 3/3/3 4/4/4 6/6/6
f 7/7/7 3/3/3 6/6/6
f 8/8/8 4/4/4 5/5/5
f 8/8/8 5/5/5 9/9/9
f 10/10/10 8/8/8 9/9/9
f 8/8/8 10/10/10 11/11/11
f 4/4/4 8/8/8 12/12/12
f 12/12/12 8/8/8 11/11/11
f 6/6/6 4/4/4 12/12/12
f 12/12/12 11/11/11 13/13/13
f 14/14/14 12/12/12 13/13/13
f 6/6/6 12/12/12 14/14/14
f 14/14/14 13/13/13 15/15/15
f 7/7/7 6/6/6 16/16/16
f 16/16/16 6/6/6 14/14/14
f 17/17/17 7/7/7 16/16/16
f 18/18/18 14/14/14 15/15/15
f 16/16/16 14/14/14 18/18/18
f 17/17/17 16/16/16 19/19/19
f 19/19/19 16/16/16 18/18/18
f 20/20/20 17/17/17 19/19/19
f 21/21/21 20/20/20 19/19/19
f 22/22/22 18/18/18 15/15/15
f 23/23/23 22/22/22 15/15/15
f 23/23/23 24/24/24 22/22/22
f 25/25/25 19/19/19 18/18/18
f 25/25/25 21/21/21 19/19/19
f 22/22/22 25/25/25 18/18/18
f 24/24/24 26/26/26 22/22/22
f 22/22/22 26/26/26 25/25/25
f 24/24/24 27/27/27 26/26/26
f 25/25/25 28/28/28 21/21/21
f 26/26/26 28/28/28 25/25/25
f 28/28/28 29/29/29 21/21/21
f 27/27/27 30/30/30 26/26/26
f 26/26/26 30/30/30 28/28/28
f 27/27/27 31/31/31 30/30/30
f 28/28/28 32/32/32 29/29/29
f 30/30/30 32/32/32 28/28/28
f 32/32/32 33/33/33 29/29/29
f 31/31/31 34/34/34 30/30/30
f 30/30/30 34/34/34 32/32/32
f 32/32/32 35/35/35 33/33/33
f 34/34/34 35/35/35 32/32/32
f 35/35/35 36/36/36 33/33/33
f 36/36/36 35/35/35 37/37/37
f 35/35/35 38/38/38 37/37/37
f 35/35/35 34/34/34 38/38/38
f 34/34/34 39/39/39 38/38/38
f 34/34/34 31/31/31 39/39/39
f 31/31/31 40/40/40 39/39/39
f 43/43/43 42/42/42 41/41/41
f 44/44/44 43/43/43 41/41/41
f 44/44/44 41/41/41 45/45/45
f 46/46/46 44/44/44 45/45/45
f 46/46/46 45/45/45 47/47/47
f 48/48/48 46/46/46 47/47/47
f 51/51/51 50/50/50 49/49/49
f 49/49/49 52/52/52 51/51/51
f 49/49/49 53/53/53 52/52/52
f 49/49/49 54/54/54 53/53/53
f 49/49/49 55/55/55 54/54/54
f 49/49/49 56/56/56 55/55/55
f 49/49/49 57/57/57 56/56/56
f 49/49/49 58/58/58 57/57/57
f 61/61/61 60/60/60 59/59/59
f 59/59/59 62/62/62 61/61/61
f 59/59/59 63/63/63 62/62/62
f 63/63/63 64/64/64 62/62/62
f 64/64/64 65/65/65 62/62/62
f 65/65/65 66/66/66 62/62/62
f 66/66/66 67/67/67 62/62/62
f 67/67/67 68/68/68 62/62/62
