g BigRocketColor
v -0.1493499 0.562059 0.1026107
v -0.1840671 0.5981081 0.1265647
v -0.03983757 0.5981081 0.2198226
v -0.03221934 0.562059 0.1783465
v -0.1786405 0.562059 -0.0338605
v 0.1280492 0.5981081 0.1838702
v 0.1041235 0.562059 0.1491491
v -0.2201343 0.5981081 -0.04147978
v -0.1028211 0.562059 -0.1510657
v 0.2215139 0.5981081 0.03957607
v 0.1800274 0.562059 0.03196612
v -0.1267736 0.5981081 -0.1858014
v 0.0337441 0.562059 -0.1802647
v 0.1856228 0.5981081 -0.128214
v 0.1508798 0.562059 -0.1042984
v 0.04138697 0.5981081 -0.2217558
v -0.03745745 0.6325101 0.2068635
v 0.1205735 0.6325101 0.1730217
v -0.03003848 0.7349037 0.1664692
v -0.17322 0.6325101 0.1190803
v 0.2085515 0.6325101 0.03719834
v 0.1681466 0.7349037 0.0297868
v 0.1747673 0.6325101 -0.1207416
v -0.2071699 0.6325101 -0.03909914
v 0.03899881 0.6325101 -0.2087921
v -0.1192899 0.6325101 -0.1749484
v 0.14093 0.7349037 -0.09744979
v 0.03155477 0.7349037 -0.1683833
v -0.09596278 0.7349037 -0.1411189
v -0.166759 0.7349037 -0.03167853
v -0.139409 0.7349037 0.09575102
v -0.09926318 0.8150856 0.06805084
v -0.1187769 0.8150856 -0.02286762
v -0.0682652 0.8150856 -0.1009511
v 0.02271603 0.8150856 -0.1204038
v 0.1007531 0.8150856 -0.06979411
v -0.01519309 0.9362819 -0.0239846
v 0.02376899 0.9362819 -0.01680228
v 0.1201716 0.8150856 0.02098668
v 0.06960356 0.8150856 0.09905529
v 0.0057799 0.9362819 -0.02846882
v 0.02824534 0.9362819 0.004124504
v 0.0007218699 0.9362818 -0.000935433
v -0.02683705 0.9362819 -0.005984787
v 0.0165884 0.9362819 0.02212088
v -0.004350428 0.9362819 0.02660486
v -0.02233875 0.9362819 0.01497373
v -0.02122952 0.8150856 0.1185069
v 0.09727143 0.7349037 0.1392063
vn -0.534691 -0.7601951 0.369065
vn -0.8031836 -0.2182149 0.554327
vn -0.1761588 -0.2182147 0.95987
vn -0.1172565 -0.7601227 0.6391122
vn -0.638975 -0.7602572 -0.1171317
vn 0.5538256 -0.2182098 0.8035308
vn 0.3687957 -0.7600841 0.5350345
vn -0.9598879 -0.2182118 -0.1760649
vn -0.3687049 -0.7602992 -0.5347914
vn 0.9597929 -0.218211 0.1765831
vn 0.6389579 -0.7601817 0.117714
vn -0.553951 -0.2182111 -0.803444
vn 0.1178354 -0.7602687 -0.638832
vn 0.8037505 -0.2182419 -0.553494
vn 0.5350732 -0.7601873 -0.3685267
vn 0.1769482 -0.2182097 -0.9597259
vn -0.1681011 0.3643107 0.9159802
vn 0.5284989 0.3643063 0.7667919
vn -0.1621185 0.4395999 0.8834419
vn -0.7664174 0.3643939 0.5289816
vn 0.9158547 0.3644009 0.1685888
vn 0.8833258 0.4396639 0.1625773
vn 0.7669529 0.3644018 -0.5281995
vn -0.9159432 0.3644607 -0.1679779
vn 0.1688613 0.3644572 -0.915782
vn -0.5285695 0.364496 -0.7666531
vn 0.7397214 0.4396578 -0.5094244
vn 0.1628536 0.439729 -0.8832424
vn -0.5098016 0.4397588 -0.7394015
vn -0.8834053 0.4397189 -0.1619953
vn -0.7391986 0.4396555 0.5101847
vn -0.6819496 0.5598121 0.4706963
vn -0.8149864 0.5598759 -0.1494528
vn -0.4702965 0.5599306 -0.6821283
vn 0.1502446 0.5598999 -0.8148243
vn 0.6824359 0.5598105 -0.469993
vn -0.2957916 0.8534986 -0.4290077
vn 0.429127 0.8535237 -0.2955456
vn 0.8149267 0.5598158 0.1500024
vn 0.470302 0.559693 0.6823194
vn 0.09451655 0.8534872 -0.5124707
vn 0.5125124 0.8534754 0.09439655
vn 0 1 0
vn -0.5125423 0.8535047 -0.09396914
vn 0.2957599 0.8534644 0.4290974
vn -0.09406086 0.8534757 0.5125737
vn -0.4288882 0.8534733 0.2960376
vn -0.1495738 0.5597191 0.8150719
vn 0.5097625 0.4395683 0.7395417
g BigRocketColor_0
f 3/3/3 2/2/2 1/1/1
f 4/4/4 3/3/3 1/1/1
f 1/1/1 2/2/2 5/5/5
f 6/6/6 3/3/3 4/4/4
f 7/7/7 6/6/6 4/4/4
f 2/2/2 8/8/8 5/5/5
f 5/5/5 8/8/8 9/9/9
f 10/10/10 6/6/6 7/7/7
f 11/11/11 10/10/10 7/7/7
f 8/8/8 12/12/12 9/9/9
f 9/9/9 12/12/12 13/13/13
f 14/14/14 10/10/10 11/11/11
f 15/15/15 14/14/14 11/11/11
f 13/13/13 16/16/16 15/15/15
f 12/12/12 16/16/16 13/13/13
f 16/16/16 14/14/14 15/15/15
f 3/3/3 17/17/17 2/2/2
f 6/6/6 18/18/18 3/3/3
f 18/18/18 17/17/17 3/3/3
f 17/17/17 18/18/18 19/19/19
f 17/17/17 20/20/20 2/2/2
f 2/2/2 20/20/20 8/8/8
f 20/20/20 17/17/17 19/19/19
f 10/10/10 21/21/21 6/6/6
f 21/21/21 18/18/18 6/6/6
f 18/18/18 21/21/21 22/22/22
f 23/23/23 21/21/21 10/10/10
f 14/14/14 23/23/23 10/10/10
f 21/21/21 23/23/23 22/22/22
f 8/8/8 24/24/24 12/12/12
f 20/20/20 24/24/24 8/8/8
f 16/16/16 25/25/25 14/14/14
f 25/25/25 23/23/23 14/14/14
f 12/12/12 26/26/26 16/16/16
f 24/24/24 26/26/26 12/12/12
f 26/26/26 25/25/25 16/16/16
f 23/23/23 25/25/25 27/27/27
f 23/23/23 27/27/27 22/22/22
f 25/25/25 26/26/26 28/28/28
f 25/25/25 28/28/28 27/27/27
f 26/26/26 24/24/24 29/29/29
f 26/26/26 29/29/29 28/28/28
f 24/24/24 20/20/20 30/30/30
f 24/24/24 30/30/30 29/29/29
f 20/20/20 31/31/31 30/30/30
f 31/31/31 20/20/20 19/19/19
f 30/30/30 31/31/31 32/32/32
f 31/31/31 19/19/19 32/32/32
f 29/29/29 30/30/30 33/33/33
f 33/33/33 30/30/30 32/32/32
f 28/28/28 29/29/29 34/34/34
f 34/34/34 29/29/29 33/33/33
f 27/27/27 28/28/28 35/35/35
f 35/35/35 28/28/28 34/34/34
f 22/22/22 27/27/27 36/36/36
f 36/36/36 27/27/27 35/35/35
f 37/37/37 34/34/34 33/33/33
f 34/34/34 37/37/37 35/35/35
f 38/38/38 36/36/36 35/35/35
f 39/39/39 22/22/22 36/36/36
f 36/36/36 38/38/38 39/39/39
f 22/22/22 39/39/39 40/40/40
f 41/41/41 38/38/38 35/35/35
f 37/37/37 41/41/41 35/35/35
f 38/38/38 42/42/42 39/39/39
f 38/38/38 41/41/41 42/42/42
f 39/39/39 42/42/42 40/40/40
f 41/41/41 37/37/37 43/43/43
f 41/41/41 43/43/43 42/42/42
f 44/44/44 37/37/37 33/33/33
f 37/37/37 44/44/44 43/43/43
f 42/42/42 43/43/43 45/45/45
f 42/42/42 45/45/45 40/40/40
f 43/43/43 46/46/46 45/45/45
f 43/43/43 44/44/44 46/46/46
f 45/45/45 46/46/46 40/40/40
f 47/47/47 44/44/44 33/33/33
f 44/44/44 47/47/47 46/46/46
f 32/32/32 47/47/47 33/33/33
f 46/46/46 47/47/47 32/32/32
f 48/48/48 46/46/46 32/32/32
f 46/46/46 48/48/48 40/40/40
f 19/19/19 48/48/48 32/32/32
f 48/48/48 19/19/19 40/40/40
f 19/19/19 49/49/49 40/40/40
f 49/49/49 22/22/22 40/40/40
f 18/18/18 49/49/49 19/19/19
f 49/49/49 18/18/18 22/22/22
