g BombGib_cell.007
v 0.0001125709 -0.0009469096 0.00340659
v 0.0004581945 -0.001368053 0.00340659
v 0.0004576494 -0.001367389 0.004159417
v 0.0001926145 -0.0009150272 -0.002931065
v 0.0002507165 -0.0001675876 -0.002997273
v -0.0004047071 -0.000465608 -0.002998675
v 0.0006595888 -0.0003998915 0.002771712
v 0.001102543 -0.0009396331 0.002771712
v 0.0004581945 -0.001368053 0.00340659
v 0.0001125709 -0.0009469096 0.00340659
v 0.0001125707 4.903492E-05 0.002771712
v 3.16792E-05 -7.202793E-05 0.002891204
v 1.008611E-05 0.0001038141 0.002771712
v 0.001647516 0.0005880356 0.0001578475
v 0.002265268 -0.0001646979 0.0001578473
v 0.002023974 -0.0003264014 0.001115518
v 0.001442097 0.0003826171 0.001115518
v 0.001108515 4.903462E-05 0.001998112
v 0.001865062 -0.0004328479 0.001473396
v 0.00163134 -0.0005880299 0.001998111
v 0.001102543 -0.0009396331 0.002771712
v 0.0008887799 0.001210714 0.0001578475
v 0.0006595888 -0.0003998915 0.002771712
v 0.0007273834 0.0009691673 0.001115518
v 2.314441E-05 0.001673406 0.0001578476
v -8.802764E-05 0.001405013 0.001115518
v -0.0008250902 0.001930715 0.0001578477
v -0.0008655736 0.001932084 0.0001924376
v -0.0009209671 0.001933988 0.0002396669
v 0.0004652897 0.000576916 0.001998112
v 0.0001125707 4.903492E-05 0.002771712
v -0.0002307495 0.0009489568 0.001998112
v 1.008611E-05 0.0001038141 0.002771712
v -0.0002558779 0.0009997867 0.001936107
v -0.0009371761 0.0018525 0.0005135576
v -0.001043408 0.001920307 0.0003245197
v -0.0006229631 0.001567285 0.001115518
v -0.0003736374 0.001181221 0.001673976
v 0.001716878 0.0006573975 -0.0008380964
v 0.002346682 -0.000110021 -0.0008380965
v 0.002265268 -0.0001646979 0.0001578473
v 0.001647516 0.0005880356 0.0001578475
v 0.0009432771 0.001292275 -0.0008380963
v 0.0008887799 0.001210714 0.0001578475
v 0.0001316689 0.001726089 -0.0008380962
v 5.720295E-05 0.001755631 -0.0007457776
v 2.314441E-05 0.001673406 0.0001578476
v -0.0008250902 0.001930715 0.0001578477
v -0.0007794062 0.001921693 0.000110638
v -0.001000507 -0.0005427281 0.001684834
v -0.0007731683 -0.001945968 0.002464854
v 0.000391168 -0.00127991 0.001586066
v -0.0006054748 0.0001557858 0.0001850804
v -0.00136715 0.0001930933 0.0007379228
v -0.002004712 0.0005845989 -0.0002682445
v -0.001328125 0.0005156911 -0.0009291584
v 0.000231073 -0.0003643041 0.0001850805
v 0.0009841841 -0.001022105 -0.0001470642
v 0.0009928205 -0.001016474 -0.0002513616
v 0.001012524 -0.001003121 -0.001183613
v -0.0004608991 0.0002778038 -0.0009071053
v -0.0008033845 0.0002490831 -0.001802332
v 0.0003690579 -0.0002777918 -0.001056427
v 0.0004145526 -0.0006449264 -0.002193418
v 0.0007165647 -0.00116368 -0.002468254
v 0.0001926145 -0.0009150272 -0.002931065
v -0.0004047071 -0.000465608 -0.002998675
v -7.995285E-05 -0.0002390963 -0.002193418
v 0.0002507165 -0.0001675876 -0.002997273
v 0.0001926145 -0.0009150272 -0.002931065
v 0.001512099 0.0004115111 -0.002551746
v 0.001111904 0.0006370105 -0.002815819
v 0.0004576494 -0.001367389 0.004159417
v -0.0007731683 -0.001945968 0.002464854
v -0.001000507 -0.0005427281 0.001684834
v 0.0001125709 -0.0009469096 0.00340659
v 3.16792E-05 -7.202793E-05 0.002891204
v -0.00136715 0.0001930933 0.0007379228
v 1.008611E-05 0.0001038141 0.002771712
v -0.0002307495 0.0009489568 0.001998112
v -0.002004712 0.0005845989 -0.0002682445
v -0.0003736374 0.001181221 0.001673976
v -0.0002558779 0.0009997867 0.001936107
v 0.0007614107 0.001278795 -0.00183404
v 0.0009432771 0.001292275 -0.0008380963
v 0.0001316689 0.001726089 -0.0008380962
v 0.0008887799 0.001210715 -0.00183404
v 0.001716878 0.0006573975 -0.0008380964
v 0.0008541333 0.001158863 -0.002039621
v 0.001647516 0.0005880361 -0.00183404
v 0.002346682 -0.000110021 -0.0008380965
v 0.002265084 -0.0001644732 -0.001834041
v 0.001512099 0.0004115111 -0.002551746
v 0.001111904 0.0006370105 -0.002815819
v 0.002220626 -0.0001942048 -0.00201036
v 0.001512099 0.0004115111 -0.002551746
v 0.0001926145 -0.0009150272 -0.002931065
v 0.0007165647 -0.00116368 -0.002468254
v 0.002220626 -0.0001942048 -0.00201036
v -0.0008655736 0.001932084 0.0001924376
v -0.0009209671 0.001933988 0.0002396669
v -0.001043408 0.001920307 0.0003245197
v -0.002004712 0.0005845989 -0.0002682445
v -0.001328125 0.0005156911 -0.0009291584
v -0.0007794062 0.001921693 0.000110638
v -0.0008250902 0.001930715 0.0001578477
v 0.0001316689 0.001726089 -0.0008380962
v 5.720295E-05 0.001755631 -0.0007457776
v -0.001328125 0.0005156911 -0.0009291584
v -0.0008033845 0.0002490831 -0.001802332
v 0.0007614107 0.001278795 -0.00183404
v 0.0008541333 0.001158863 -0.002039621
v 0.001111904 0.0006370105 -0.002815819
v 0.0002507165 -0.0001675876 -0.002997273
v -0.0004047071 -0.000465608 -0.002998675
v 0.001865062 -0.0004328479 0.001473396
v 0.0009928205 -0.001016474 -0.0002513616
v 0.0009841841 -0.001022105 -0.0001470642
v 0.000391168 -0.00127991 0.001586066
v 0.00163134 -0.0005880299 0.001998111
v -0.0007731683 -0.001945968 0.002464854
v 0.001102543 -0.0009396331 0.002771712
v 0.0004581945 -0.001368053 0.00340659
v 0.0004576494 -0.001367389 0.004159417
v -0.0003736374 0.001181221 0.001673976
v -0.002004712 0.0005845989 -0.0002682445
v -0.001043408 0.001920307 0.0003245197
v -0.0006229631 0.001567285 0.001115518
v -0.0009371761 0.0018525 0.0005135576
v 0.002220626 -0.0001942048 -0.00201036
v 0.0007165647 -0.00116368 -0.002468254
v 0.001012524 -0.001003121 -0.001183613
v 0.002265084 -0.0001644732 -0.001834041
v 0.002346682 -0.000110021 -0.0008380965
v 0.0009928205 -0.001016474 -0.0002513616
v 0.002265268 -0.0001646979 0.0001578473
v 0.001865062 -0.0004328479 0.001473396
v 0.002023974 -0.0003264014 0.001115518
vt 0.04088265 0.4653869
vt 0.03245122 0.465549
vt 0.1893871 0.462531
vt 0.09249434 0.468502
vt 0.09249434 0.468502
vt 0.09249434 0.468502
vt 0.1554904 0.4753922
vt 0.1554904 0.4753922
vt 0.1554904 0.4753922
vt 0.1554904 0.4753922
vt 0.1554904 0.4753922
vt 0.1554904 0.4753922
vt 0.1554904 0.4753922
vt 0.08658845 0.4581667
vt 0.08658845 0.4581667
vt 0.08658845 0.4581667
vt 0.08658845 0.4581667
vt 0.08658845 0.4581667
vt 0.08658845 0.4581667
vt 0.08658845 0.4581667
vt 0.08658845 0.4581667
vt 0.08658845 0.4581667
vt 0.08658845 0.4581667
vt 0.08658845 0.4581667
vt 0.08658845 0.4581667
vt 0.08658845 0.4581667
vt 0.08658845 0.4581667
vt 0.08658846 0.4581667
vt 0.08658845 0.4581667
vt 0.08658845 0.4581667
vt 0.08658845 0.4581667
vt 0.08658845 0.4581667
vt 0.08658845 0.4581667
vt 0.08658845 0.4581667
vt 0.08658845 0.4581667
vt 0.08658846 0.4581667
vt 0.08658845 0.4581667
vt 0.08658845 0.4581667
vt 0.08658845 0.4606275
vt 0.08658845 0.4606275
vt 0.08658845 0.4606275
vt 0.08658845 0.4606275
vt 0.08658845 0.4606275
vt 0.08658845 0.4606275
vt 0.08658846 0.4606275
vt 0.08658846 0.4606275
vt 0.08658845 0.4606275
vt 0.08658845 0.4606275
vt 0.08658845 0.4606274
vt 0.1569668 0.4667794
vt 0.1569668 0.4667794
vt 0.1569668 0.4667794
vt 0.1569668 0.4667794
vt 0.1569668 0.4667794
vt 0.1569668 0.4667794
vt 0.1569668 0.4667794
vt 0.1569668 0.4667794
vt 0.1569668 0.4667794
vt 0.1569668 0.4667794
vt 0.1569668 0.4667794
vt 0.1569668 0.4667794
vt 0.1569668 0.4667794
vt 0.1569668 0.4667794
vt 0.1569668 0.4667794
vt 0.1569668 0.4667794
vt 0.1569668 0.4667794
vt 0.1569668 0.4667794
vt 0.1569668 0.4667794
vt 0.09249434 0.468502
vt 0.09249434 0.468502
vt 0.09249434 0.468502
vt 0.09249434 0.468502
vt 0.09249434 0.468502
vt 0.09249434 0.468502
vt 0.09249434 0.468502
vt 0.09249434 0.468502
vt 0.09249434 0.468502
vt 0.09249434 0.468502
vt 0.09249434 0.468502
vt 0.09249434 0.468502
vt 0.09249434 0.468502
vt 0.09249434 0.468502
vt 0.09249434 0.468502
vt 0.03245122 0.465549
vt 0.03245122 0.465549
vt 0.03245122 0.465549
vt 0.03245122 0.465549
vt 0.03245122 0.465549
vt 0.03245122 0.465549
vt 0.03245122 0.465549
vt 0.03245122 0.465549
vt 0.03245122 0.465549
vt 0.03245122 0.465549
vt 0.03245122 0.465549
vt 0.03245122 0.465549
vt 0.09249434 0.468502
vt 0.09249434 0.468502
vt 0.09249434 0.468502
vt 0.09249434 0.468502
vt 0.09249434 0.468502
vt 0.09249434 0.468502
vt 0.09249434 0.468502
vt 0.09249434 0.468502
vt 0.09249434 0.468502
vt 0.09249434 0.468502
vt 0.09249434 0.468502
vt 0.09249434 0.468502
vt 0.09249434 0.468502
vt 0.09249434 0.468502
vt 0.09249434 0.468502
vt 0.09249434 0.468502
vt 0.09249434 0.468502
vt 0.09249434 0.468502
vt 0.09249434 0.468502
vt 0.09249434 0.468502
vt 0.09249434 0.468502
vt 0.09249434 0.468502
vt 0.09249434 0.468502
vt 0.09249434 0.468502
vt 0.09249434 0.468502
vt 0.09249434 0.468502
vt 0.09249434 0.468502
vt 0.09249434 0.468502
vt 0.09249434 0.468502
vt 0.09249434 0.468502
vt 0.09249434 0.468502
vt 0.09249434 0.468502
vt 0.09249434 0.468502
vt 0.09249434 0.468502
vt 0.09249434 0.468502
vt 0.09249434 0.468502
vt 0.09249434 0.468502
vt 0.09249434 0.468502
vt 0.09249434 0.468502
vt 0.09249434 0.468502
vt 0.09249434 0.468502
vt 0.09249434 0.468502
vt 0.09249434 0.468502
vn -0.04736635 0.5705326 0.8199079
vn 0.9268374 -0.09277835 0.3638193
vn 0.450254 -0.006317534 0.8928781
vn 0.04374327 -0.09152313 -0.9948418
vn 0.04374327 -0.09152313 -0.9948418
vn 0.04374327 -0.09152313 -0.9948418
vn 0.5021433 0.5021433 0.7040626
vn 0.7917597 -0.2943272 0.5352458
vn 0.9268374 -0.09277835 0.3638193
vn -0.04736635 0.5705326 0.8199079
vn 0.3945282 0.5904647 0.7040589
vn -0.2510228 0.4791254 0.8410865
vn -0.2569395 0.5706749 0.7799438
vn 0.6936837 0.6936837 0.1939226
vn 0.9813659 -0.1272333 0.1439882
vn 0.9459679 -0.1537244 0.2855055
vn 0.6539058 0.6539058 0.3805448
vn 0.5892607 0.5892607 0.5527599
vn 0.9094213 -0.229629 0.3467325
vn 0.8757483 -0.2362491 0.4210123
vn 0.7917597 -0.2943272 0.5352458
vn 0.5450153 0.8156919 0.1939202
vn 0.5021433 0.5021433 0.7040626
vn 0.5137554 0.7689242 0.3805404
vn 0.3754112 0.906346 0.1939162
vn 0.3538681 0.8543801 0.3805418
vn -0.1151478 0.9720881 -0.2044156
vn -0.1391361 0.9716333 -0.1912321
vn -0.1587289 0.9727907 -0.1687697
vn 0.4629725 0.6929023 0.5527593
vn 0.3945282 0.5904647 0.7040589
vn -0.2334382 0.666866 0.7076697
vn -0.2569395 0.5706749 0.7799438
vn -0.2536471 0.6927303 0.6751206
vn -0.3203974 0.7859168 0.5288481
vn -0.5528913 0.8272921 0.09949357
vn -0.2943881 0.7707621 0.5650322
vn -0.3325095 0.6931884 0.6394742
vn 0.7071068 0.7071068 0
vn 0.9929796 -0.1182322 -0.003570771
vn 0.9813659 -0.1272333 0.1439882
vn 0.6936837 0.6936837 0.1939226
vn 0.5555732 0.8314676 0
vn 0.5450153 0.8156919 0.1939202
vn 0.02353049 0.9474456 -0.3190503
vn -0.00622598 0.9583737 -0.285449
vn 0.3754112 0.906346 0.1939162
vn -0.1151478 0.9720881 -0.2044156
vn -0.113868 0.948849 -0.294482
vn -0.9164352 -0.3918685 -0.08115096
vn -0.606872 -0.7903528 0.08395801
vn -0.02813841 -0.9224639 -0.3850568
vn -0.3937246 -0.8737566 -0.285535
vn -0.8275408 -0.5534437 0.09421422
vn -0.9595259 -0.1748754 -0.2207459
vn -0.7178409 -0.2750081 -0.6395897
vn -0.5963786 -0.752302 -0.279954
vn -0.1608643 -0.9787056 -0.1275073
vn -0.09256549 -0.993988 -0.05847527
vn -0.1470418 -0.9879392 0.04852564
vn -0.418477 -0.908216 0.004547337
vn -0.8863988 -0.334429 -0.320085
vn -0.6394715 -0.7672254 0.04941079
vn -0.666896 -0.6789204 0.3071103
vn -0.02111926 -0.946491 -0.3220383
vn -0.2226694 -0.7993333 -0.558108
vn -0.8008944 -0.2592637 -0.539769
vn -0.5113155 -0.7972786 0.3207853
vn 0.3957734 -0.1673709 -0.9029675
vn 0.3957734 -0.1673709 -0.9029675
vn 0.3957734 -0.1673709 -0.9029675
vn 0.3957734 -0.1673709 -0.9029675
vn -0.7936176 0.249691 0.5548202
vn -0.7936176 0.249691 0.5548202
vn -0.7936176 0.249691 0.5548202
vn -0.7936176 0.249691 0.5548202
vn -0.7936176 0.249691 0.5548202
vn -0.7936176 0.249691 0.5548202
vn -0.7936176 0.249691 0.5548202
vn -0.7936176 0.249691 0.5548202
vn -0.7936176 0.249691 0.5548202
vn -0.7936176 0.249691 0.5548202
vn -0.7936176 0.249691 0.5548202
vn 0.02301174 0.9047216 -0.4253815
vn 0.5555732 0.8314676 0
vn 0.02353049 0.9474456 -0.3190503
vn 0.5452331 0.8152402 -0.1952035
vn 0.7071068 0.7071068 0
vn 0.0855159 0.8502149 -0.5194436
vn 0.6930311 0.6939772 -0.1952011
vn 0.9929796 -0.1182322 -0.003570771
vn 0.9803263 -0.127111 -0.1510072
vn 0.6667859 0.2959458 -0.6839683
vn 0.2160436 0.5258719 -0.8226687
vn 0.8789161 -0.2098485 -0.4283339
vn 0.4784974 -0.2856709 -0.8303207
vn 0.4784974 -0.2856709 -0.8303207
vn 0.4784974 -0.2856709 -0.8303207
vn 0.4784974 -0.2856709 -0.8303207
vn -0.5056594 0.6292782 -0.5901843
vn -0.5056594 0.6292782 -0.5901843
vn -0.5056594 0.6292782 -0.5901843
vn -0.5056594 0.6292782 -0.5901843
vn -0.5056594 0.6292782 -0.5901843
vn -0.4910167 0.6337292 -0.5977373
vn -0.4910167 0.6337292 -0.5977373
vn -0.4634421 0.6649883 -0.5856721
vn -0.4634421 0.6649883 -0.5856721
vn -0.4634421 0.6649883 -0.5856721
vn -0.4634421 0.6649883 -0.5856721
vn -0.4634421 0.6649883 -0.5856721
vn -0.4634421 0.6649883 -0.5856721
vn -0.4634421 0.6649883 -0.5856721
vn -0.4634421 0.6649883 -0.5856721
vn -0.4634421 0.6649883 -0.5856721
vn 0.4854916 -0.8739944 -0.02077383
vn 0.4854916 -0.8739944 -0.02077383
vn 0.4854916 -0.8739944 -0.02077383
vn 0.4854916 -0.8739944 -0.02077383
vn 0.4854916 -0.8739944 -0.02077383
vn 0.4854916 -0.8739944 -0.02077383
vn 0.4854916 -0.8739944 -0.02077383
vn 0.4854916 -0.8739944 -0.02077383
vn 0.4854916 -0.8739944 -0.02077383
vn -0.7737799 0.3087223 0.5531322
vn -0.7737799 0.3087223 0.5531322
vn -0.7737799 0.3087223 0.5531322
vn -0.7737799 0.3087223 0.5531322
vn -0.7737799 0.3087223 0.5531322
vn 0.5540199 -0.8324887 -0.00495996
vn 0.5540199 -0.8324887 -0.00495996
vn 0.5540199 -0.8324887 -0.00495996
vn 0.5540199 -0.8324887 -0.00495996
vn 0.5540199 -0.8324887 -0.00495996
vn 0.5540199 -0.8324887 -0.00495996
vn 0.5540199 -0.8324887 -0.00495996
vn 0.5540199 -0.8324887 -0.00495996
vn 0.5540199 -0.8324887 -0.00495996
g BombGib_cell.007_0
f 3/3/3 2/2/2 1/1/1
f 6/6/6 5/5/5 4/4/4
f 9/9/9 8/8/8 7/7/7
f 10/10/10 9/9/9 7/7/7
f 10/10/10 7/7/7 11/11/11
f 12/12/12 10/10/10 11/11/11
f 12/12/12 11/11/11 13/13/13
f 16/16/16 15/15/15 14/14/14
f 17/17/17 16/16/16 14/14/14
f 16/16/16 17/17/17 18/18/18
f 19/19/19 16/16/16 18/18/18
f 18/18/18 20/20/20 19/19/19
f 21/21/21 20/20/20 18/18/18
f 17/17/17 14/14/14 22/22/22
f 23/23/23 21/21/21 18/18/18
f 24/24/24 17/17/17 22/22/22
f 18/18/18 17/17/17 24/24/24
f 24/24/24 22/22/22 25/25/25
f 26/26/26 24/24/24 25/25/25
f 26/26/26 25/25/25 27/27/27
f 27/27/27 28/28/28 26/26/26
f 28/28/28 29/29/29 26/26/26
f 23/23/23 18/18/18 30/30/30
f 30/30/30 18/18/18 24/24/24
f 30/30/30 24/24/24 26/26/26
f 31/31/31 23/23/23 30/30/30
f 31/31/31 30/30/30 32/32/32
f 33/33/33 31/31/31 32/32/32
f 34/34/34 32/32/32 30/30/30
f 26/26/26 34/34/34 30/30/30
f 29/29/29 35/35/35 26/26/26
f 36/36/36 35/35/35 29/29/29
f 35/35/35 37/37/37 26/26/26
f 34/34/34 26/26/26 37/37/37
f 38/38/38 34/34/34 37/37/37
f 41/41/41 40/40/40 39/39/39
f 42/42/42 41/41/41 39/39/39
f 42/42/42 39/39/39 43/43/43
f 44/44/44 42/42/42 43/43/43
f 44/44/44 43/43/43 45/45/45
f 45/45/45 46/46/46 44/44/44
f 46/46/46 47/47/47 44/44/44
f 48/48/48 47/47/47 46/46/46
f 49/49/49 48/48/48 46/46/46
f 52/52/52 51/51/51 50/50/50
f 52/52/52 50/50/50 53/53/53
f 53/53/53 50/50/50 54/54/54
f 55/55/55 53/53/53 54/54/54
f 56/56/56 53/53/53 55/55/55
f 57/57/57 52/52/52 53/53/53
f 58/58/58 52/52/52 57/57/57
f 59/59/59 58/58/58 57/57/57
f 57/57/57 60/60/60 59/59/59
f 61/61/61 53/53/53 56/56/56
f 57/57/57 53/53/53 61/61/61
f 62/62/62 61/61/61 56/56/56
f 63/63/63 57/57/57 61/61/61
f 57/57/57 63/63/63 60/60/60
f 61/61/61 62/62/62 63/63/63
f 60/60/60 63/63/63 64/64/64
f 65/65/65 60/60/60 64/64/64
f 65/65/65 64/64/64 66/66/66
f 66/66/66 64/64/64 67/67/67
f 62/62/62 68/68/68 63/63/63
f 67/67/67 68/68/68 62/62/62
f 64/64/64 63/63/63 68/68/68
f 64/64/64 68/68/68 67/67/67
f 71/71/71 70/70/70 69/69/69
f 72/72/72 71/71/71 69/69/69
f 75/75/75 74/74/74 73/73/73
f 73/73/73 76/76/76 75/75/75
f 76/76/76 77/77/77 75/75/75
f 77/77/77 78/78/78 75/75/75
f 77/77/77 79/79/79 78/78/78
f 79/79/79 80/80/80 78/78/78
f 80/80/80 81/81/81 78/78/78
f 80/80/80 82/82/82 81/81/81
f 80/80/80 83/83/83 82/82/82
f 86/86/86 85/85/85 84/84/84
f 85/85/85 87/87/87 84/84/84
f 85/85/85 88/88/88 87/87/87
f 84/84/84 87/87/87 89/89/89
f 88/88/88 90/90/90 87/87/87
f 89/89/89 87/87/87 90/90/90
f 88/88/88 91/91/91 90/90/90
f 91/91/91 92/92/92 90/90/90
f 89/89/89 90/90/90 93/93/93
f 93/93/93 90/90/90 92/92/92
f 93/93/93 94/94/94 89/89/89
f 95/95/95 93/93/93 92/92/92
f 98/98/98 97/97/97 96/96/96
f 99/99/99 98/98/98 96/96/96
f 102/102/102 101/101/101 100/100/100
f 103/103/103 102/102/102 100/100/100
f 100/100/100 104/104/104 103/103/103
f 104/104/104 100/100/100 105/105/105
f 100/100/100 106/106/106 105/105/105
f 105/105/105 108/108/108 107/107/107
f 109/109/109 105/105/105 107/107/107
f 110/110/110 109/109/109 107/107/107
f 110/110/110 107/107/107 111/111/111
f 110/110/110 111/111/111 112/112/112
f 110/110/110 112/112/112 113/113/113
f 110/110/110 113/113/113 114/114/114
f 114/114/114 115/115/115 110/110/110
f 118/118/118 117/117/117 116/116/116
f 116/116/116 119/119/119 118/118/118
f 116/116/116 120/120/120 119/119/119
f 120/120/120 121/121/121 119/119/119
f 120/120/120 122/122/122 121/121/121
f 122/122/122 123/123/123 121/121/121
f 123/123/123 124/124/124 121/121/121
f 127/127/127 126/126/126 125/125/125
f 125/125/125 128/128/128 127/127/127
f 128/128/128 129/129/129 127/127/127
f 132/132/132 131/131/131 130/130/130
f 130/130/130 133/133/133 132/132/132
f 133/133/133 134/134/134 132/132/132
f 134/134/134 135/135/135 132/132/132
f 134/134/134 136/136/136 135/135/135
f 136/136/136 137/137/137 135/135/135
f 136/136/136 138/138/138 137/137/137
