g BombGib_cell.005
v 0.002257273 -0.0007085045 -0.0004803451
v 0.003091024 7.289797E-05 -0.0003038188
v 0.002734092 -8.775942E-05 -0.0009629665
v 0.001077356 0.001396125 0.002689747
v 0.0006283754 0.001440346 0.002689747
v 0.0001005482 0.001518738 0.002421658
v 0.001096493 0.001492333 0.001693803
v 0.0001005483 0.001590425 0.001693803
v -0.0008953941 0.00149233 0.001693803
v -0.0008916341 0.001473426 0.001889488
v -0.001237594 0.001388525 0.001693803
v 0.002054163 0.001201827 0.001693803
v 0.002051758 0.00119602 0.001757619
v 0.002103243 0.001175593 0.001693803
v 0.001198055 0.001365478 0.002631499
v 0.001140738 0.001376899 0.002689747
v 0.001077356 0.001396125 0.002689747
v 0.001140738 0.001376899 0.002689747
v 0.001074035 0.001379432 0.002745855
v 0.0006283754 0.001440346 0.002689747
v 0.0009347441 0.001364325 0.002840883
v -0.0008953941 0.00149233 0.001693803
v -0.001237594 0.001388525 0.001693803
v -0.001839834 0.001169882 0.001342778
v -0.0008762572 0.001396122 0.0006978592
v 0.0001005483 0.001590425 0.001693803
v 0.0001005483 0.001492333 0.0006978592
v 0.001096493 0.001492333 0.001693803
v 0.001077356 0.001396126 0.0006978592
v 0.002054163 0.001201827 0.001693803
v 0.002016625 0.001111202 0.000697859
v 0.002103243 0.001175593 0.001693803
v 0.002733405 0.000728075 0.000697859
v 0.002841815 0.0005879778 0.0004578657
v 0.0001005486 0.001201825 -0.0002598113
v 0.001020681 0.001111202 -0.0002598113
v 0.001905454 0.0008428092 -0.0002598113
v 0.002720864 0.0004069631 -0.0002598114
v 0.003084519 0.0001085195 -0.0002598114
v 0.003091024 7.289797E-05 -0.0003038188
v 0.002734092 -8.775942E-05 -0.0009629665
v 0.002507276 -2.509497E-05 -0.001142406
v 0.002458771 1.471207E-05 -0.001142406
v 0.002438774 -1.521483E-05 -0.001186264
v 0.00172492 0.0004069634 -0.001142406
v 0.002133238 -1.226515E-06 -0.001347508
v 0.00156687 2.53962E-05 -0.001645655
v 0.000928646 0.0006485109 -0.001142406
v 0.0001005497 0.0007300667 -0.001142406
v 0.0008047874 2.583221E-05 -0.001916007
v 0.0009150683 -7.621199E-06 -0.001916007
v 0.0007952556 -2.208702E-05 -0.001956104
v 0.000100549 9.519175E-05 -0.001916007
v 0.0001005488 -0.0001607056 -0.002126017
v -0.0006036898 2.583042E-05 -0.001916007
v -0.0005311688 -0.0003387572 -0.002221078
v -0.0007275472 0.0006485067 -0.001142406
v -0.001280865 -0.0001795883 -0.001916007
v -0.001124386 -0.0005573621 -0.002251582
v -0.0008195837 0.0011112 -0.0002598113
v -0.001523821 0.0004069604 -0.001142406
v -0.001904953 -0.0005131705 -0.001916007
v -0.001699093 -0.0008212627 -0.002220101
v -0.001704356 0.0008428071 -0.0002598113
v -0.002257671 1.470968E-05 -0.001142406
v -0.002451971 -0.0009620963 -0.001916007
v -0.002296448 -0.001156764 -0.002116988
v -0.001815526 0.001111198 0.000697859
v -0.002305957 0.0008490575 0.000697859
v -0.001980006 0.00108533 0.001256144
v -0.002580102 0.0004972599 9.820116E-05
v -0.002519767 0.0004069613 -0.0002598114
v -0.002713408 0.0002480438 -0.0002598114
v -0.002914893 -0.0005302264 -0.001142406
v -0.002611278 -0.001156211 -0.001916007
v -0.002891552 -0.001170164 -0.001661571
v -0.002296448 -0.001156764 -0.002116988
v -0.002554718 -0.001156735 -0.001952336
v -0.0006185664 -6.201243E-05 0.00173275
v 2.266396E-05 -2.514668E-05 0.002062356
v 0.0004909915 -1.954153E-05 0.001693803
v -0.0002374714 -8.260905E-05 0.00100277
v -0.001178717 -0.0003180665 0.0009421334
v 0.0008496097 -0.0001188563 0.001208591
v -0.001085501 -0.0006512399 3.25521E-05
v -0.001521798 -0.0008695452 6.538142E-05
v -0.001417738 -0.001685755 -0.0008896874
v -0.000201771 -0.0004450959 3.255295E-05
v -0.0008539404 -0.001210276 -0.0008091795
v -0.0007489891 -0.001463651 -0.00103338
v -0.000142747 -0.001044379 -0.00080918
v -0.0001184702 -0.001250835 -0.0009799118
v 0.0006132733 -0.001089451 -0.0008195442
v 0.0008167524 -0.0004708066 0.0001388045
v 0.001390265 -0.0005010797 0.0003983086
v 0.001116621 -0.001061601 -0.0006137158
v 0.001601489 -0.001044384 -0.0003162153
v 0.001116621 -0.001061601 -0.0006137158
v 0.001601489 -0.001044384 -0.0003162153
v 0.002257273 -0.0007085045 -0.0004803451
v 0.0006132733 -0.001089451 -0.0008195442
v -0.0001184702 -0.001250835 -0.0009799118
v -0.002296448 -0.001156764 -0.002116988
v -0.0007489891 -0.001463651 -0.00103338
v -0.001417738 -0.001685755 -0.0008896874
v -0.001699093 -0.0008212627 -0.002220101
v -0.001124386 -0.0005573621 -0.002251582
v -0.0005311688 -0.0003387572 -0.002221078
v 0.0001005488 -0.0001607056 -0.002126017
v 0.0007952556 -2.208702E-05 -0.001956104
v 0.0009150683 -7.621199E-06 -0.001916007
v 0.00156687 2.53962E-05 -0.001645655
v 0.002133238 -1.226515E-06 -0.001347508
v 0.002438774 -1.521483E-05 -0.001186264
v 0.002507276 -2.509497E-05 -0.001142406
v 0.002734092 -8.775942E-05 -0.0009629665
v -0.001417738 -0.001685755 -0.0008896874
v -0.002611278 -0.001156211 -0.001916007
v -0.002891552 -0.001170164 -0.001661571
v -0.002554718 -0.001156735 -0.001952336
v -0.002296448 -0.001156764 -0.002116988
v 0.001198055 0.001365478 0.002631499
v 0.0008496097 -0.0001188563 0.001208591
v 0.0004909915 -1.954153E-05 0.001693803
v 2.266396E-05 -2.514668E-05 0.002062356
v 0.0009347441 0.001364325 0.002840883
v 0.001140738 0.001376899 0.002689747
v 0.001074035 0.001379432 0.002745855
v -0.001521798 -0.0008695452 6.538142E-05
v -0.001417738 -0.001685755 -0.0008896874
v -0.002891552 -0.001170164 -0.001661571
v -0.002914893 -0.0005302264 -0.001142406
v -0.001178717 -0.0003180665 0.0009421334
v -0.002713408 0.0002480438 -0.0002598114
v -0.0006185664 -6.201243E-05 0.00173275
v -0.001980006 0.00108533 0.001256144
v -0.002580102 0.0004972599 9.820116E-05
v -0.002305957 0.0008490575 0.000697859
v 0.0006283754 0.001440346 0.002689747
v 0.0009347441 0.001364325 0.002840883
v 2.266396E-05 -2.514668E-05 0.002062356
v 0.0001005482 0.001518738 0.002421658
v -0.0008916341 0.001473426 0.001889488
v -0.0006185664 -6.201243E-05 0.00173275
v -0.001980006 0.00108533 0.001256144
v -0.001237594 0.001388525 0.001693803
v -0.001839834 0.001169882 0.001342778
v 0.003091024 7.289797E-05 -0.0003038188
v 0.002257273 -0.0007085045 -0.0004803451
v 0.001601489 -0.001044384 -0.0003162153
v 0.001390265 -0.0005010797 0.0003983086
v 0.003084519 0.0001085195 -0.0002598114
v 0.002841815 0.0005879778 0.0004578657
v 0.0008496097 -0.0001188563 0.001208591
v 0.002733405 0.000728075 0.000697859
v 0.002103243 0.001175593 0.001693803
v 0.001198055 0.001365478 0.002631499
v 0.002051758 0.00119602 0.001757619
vt 0.09446293 0.4678865
vt 0.09446293 0.4678865
vt 0.09446293 0.4678865
vt 0.08658845 0.4606275
vt 0.08658845 0.4606275
vt 0.08658845 0.4606275
vt 0.08658845 0.4606275
vt 0.08658845 0.4606275
vt 0.08658845 0.4606275
vt 0.08658845 0.4606275
vt 0.08658845 0.4606275
vt 0.08658845 0.4606275
vt 0.08658845 0.4606275
vt 0.08658845 0.4606275
vt 0.08658845 0.4606275
vt 0.08658844 0.4606275
vt 0.08658845 0.4581667
vt 0.08658844 0.4581667
vt 0.08658845 0.4581667
vt 0.08658845 0.4581667
vt 0.08658845 0.4581667
vt 0.03245122 0.465549
vt 0.03245122 0.4655491
vt 0.03245122 0.465549
vt 0.03245122 0.465549
vt 0.03245122 0.465549
vt 0.03245122 0.465549
vt 0.03245122 0.465549
vt 0.03245122 0.465549
vt 0.03245122 0.465549
vt 0.03245122 0.465549
vt 0.03245122 0.465549
vt 0.03245122 0.465549
vt 0.03245122 0.4655491
vt 0.03245122 0.465549
vt 0.03245122 0.465549
vt 0.03245122 0.465549
vt 0.03245122 0.465549
vt 0.03245122 0.465549
vt 0.03245122 0.465549
vt 0.03245122 0.465549
vt 0.03245122 0.465549
vt 0.03245122 0.465549
vt 0.03245122 0.465549
vt 0.03245122 0.465549
vt 0.03245123 0.465549
vt 0.03245122 0.465549
vt 0.03245122 0.465549
vt 0.03245122 0.465549
vt 0.03245122 0.465549
vt 0.03245122 0.465549
vt 0.03245122 0.465549
vt 0.03245122 0.465549
vt 0.03245122 0.4655491
vt 0.03245122 0.465549
vt 0.03245122 0.465549
vt 0.03245122 0.465549
vt 0.03245122 0.465549
vt 0.03245122 0.465549
vt 0.03245122 0.465549
vt 0.03245122 0.465549
vt 0.03245122 0.465549
vt 0.03245122 0.4655491
vt 0.03245122 0.465549
vt 0.03245122 0.465549
vt 0.03245122 0.465549
vt 0.03245123 0.4655491
vt 0.03245122 0.465549
vt 0.03245122 0.465549
vt 0.03245122 0.465549
vt 0.03245122 0.465549
vt 0.03245122 0.465549
vt 0.03245122 0.4655491
vt 0.03245122 0.465549
vt 0.03245122 0.465549
vt 0.03245122 0.465549
vt 0.03245122 0.465549
vt 0.03245122 0.4655491
vt 0.1579512 0.4680098
vt 0.1579512 0.4680098
vt 0.1579512 0.4680098
vt 0.1579512 0.4680098
vt 0.1579512 0.4680098
vt 0.1579512 0.4680098
vt 0.1579512 0.4680098
vt 0.1579512 0.4680098
vt 0.1579512 0.4680098
vt 0.1579512 0.4680098
vt 0.1579512 0.4680098
vt 0.1579512 0.4680098
vt 0.1579512 0.4680098
vt 0.1579512 0.4680098
vt 0.1579512 0.4680098
vt 0.1579512 0.4680098
vt 0.1579512 0.4680098
vt 0.1579512 0.4680098
vt 0.1579512 0.4680098
vt 0.09446293 0.4678865
vt 0.09446293 0.4678865
vt 0.09446293 0.4678865
vt 0.09446293 0.4678865
vt 0.09446293 0.4678865
vt 0.09446293 0.4678865
vt 0.09446293 0.4678865
vt 0.09446293 0.4678865
vt 0.09446293 0.4678865
vt 0.09446293 0.4678865
vt 0.09446293 0.4678865
vt 0.09446293 0.4678865
vt 0.09446293 0.4678865
vt 0.09446293 0.4678865
vt 0.09446293 0.4678865
vt 0.09446293 0.4678865
vt 0.09446293 0.4678865
vt 0.09446293 0.4678865
vt 0.09446293 0.4678865
vt 0.09446293 0.4678865
vt 0.09446293 0.4678865
vt 0.09446293 0.4678865
vt 0.09446293 0.4678865
vt 0.09446293 0.4678865
vt 0.09446293 0.4678865
vt 0.09446293 0.4678865
vt 0.09446293 0.4678865
vt 0.09446293 0.4678865
vt 0.09446293 0.4678865
vt 0.09446293 0.4678865
vt 0.09446293 0.4678865
vt 0.09446293 0.4678865
vt 0.09446293 0.4678865
vt 0.09446293 0.4678865
vt 0.09446293 0.4678865
vt 0.09446293 0.4678865
vt 0.09446293 0.4678865
vt 0.09446293 0.4678865
vt 0.09446293 0.4678865
vt 0.09446293 0.4678865
vt 0.09446293 0.4678865
vt 0.09446293 0.4678865
vt 0.09446293 0.4678865
vt 0.09446293 0.4678865
vt 0.09446293 0.4678865
vt 0.09446293 0.4678865
vt 0.09446293 0.4678865
vt 0.09446293 0.4678865
vt 0.09446293 0.4678865
vt 0.09446293 0.4678865
vt 0.09446293 0.4678865
vt 0.09446293 0.4678865
vt 0.09446293 0.4678865
vt 0.09446293 0.4678865
vt 0.09446293 0.4678865
vt 0.09446293 0.4678865
vt 0.09446293 0.4678865
vt 0.09446293 0.4678865
vt 0.09446293 0.4678865
vt 0.09446293 0.4678865
vt 0.09446293 0.4678865
vn 0.6920249 -0.6918228 -0.2061139
vn 0.6920249 -0.6918228 -0.2061139
vn 0.6920249 -0.6918228 -0.2061139
vn 0.1913839 0.9621686 0.1939169
vn -0.2623446 0.6195128 0.7398508
vn -0.3079414 0.6339808 0.7093944
vn 0.1950772 0.9807879 0
vn 0 1 0
vn -0.1950772 0.9807879 0
vn -0.4341022 0.5966464 0.6749581
vn -0.5509704 0.5915004 0.5886925
vn 0.3826815 0.9238803 0
vn 0.7254084 0.2785783 0.6294258
vn 0.8419127 0.2255701 0.4902053
vn 0.7232156 0.2813573 0.6307117
vn 0.710399 0.29088 0.6408759
vn 0.1913839 0.9621686 0.1939169
vn 0.710399 0.29088 0.6408759
vn 0.5745263 0.2887739 0.7658519
vn -0.2623446 0.6195128 0.7398508
vn 0.2218459 0.216505 0.9507418
vn -0.1950772 0.9807879 0
vn -0.5509704 0.5915004 0.5886925
vn -0.5952523 0.5808166 0.5552717
vn -0.1913839 0.9621686 -0.1939169
vn 0 1 0
vn 0 0.9810172 -0.1939206
vn 0.1950772 0.9807879 0
vn 0.1913839 0.9621686 -0.1939169
vn 0.3826815 0.9238803 0
vn 0.3754112 0.906346 -0.1939162
vn 0.8419127 0.2255701 0.4902053
vn 0.9106013 0.2219661 0.3486208
vn 0.9366742 0.1854365 0.2970769
vn 0 0.9247627 -0.3805441
vn 0.1803984 0.906997 -0.3805427
vn 0.3538948 0.8543709 -0.3805377
vn 0.5137554 0.7689242 -0.3805404
vn 0.9850309 0.06708074 0.1587903
vn 0.9931371 -0.112278 -0.03274649
vn 0.7537882 -0.1192376 -0.6462088
vn 0.5983966 -0.0171825 -0.8010158
vn 0.4629725 0.6929023 -0.5527593
vn 0.4856179 -0.02133276 -0.8739108
vn 0.3188952 0.769908 -0.5527638
vn 0.4650488 -0.02508663 -0.8849295
vn 0.4090521 0.02398828 -0.9121957
vn 0.1625746 0.8173287 -0.5527597
vn 0 0.8333439 -0.5527549
vn 0.1385268 0.6965101 -0.7040483
vn 0.3715103 0.01706024 -0.9282721
vn 0.2736062 -0.0464505 -0.9607195
vn 0 0.7101521 -0.7040483
vn 0.1948955 -0.04089571 -0.9799711
vn -0.1385268 0.6965101 -0.7040483
vn 0.1125558 -0.05090648 -0.9923406
vn -0.1625746 0.8173287 -0.5527597
vn -0.2717489 0.6560855 -0.7040627
vn 0.02307208 -0.09237987 -0.9954565
vn -0.1803984 0.906997 -0.3805427
vn -0.3188952 0.769908 -0.5527638
vn -0.3952852 0.5893876 -0.7045367
vn -0.055819 -0.1363583 -0.9890859
vn -0.3538681 0.8543801 -0.3805418
vn -0.4642271 0.6922054 -0.5525801
vn -0.5012516 0.5025334 -0.7044196
vn -0.2695103 -0.3795606 -0.8850412
vn -0.3754112 0.906346 -0.1939162
vn -0.9121464 0.2968565 0.2826042
vn -0.8066614 0.3037913 0.5069597
vn -0.93516 0.2632255 0.2370403
vn -0.5144306 0.7683805 -0.3807263
vn -0.9806697 0.1568986 0.1169186
vn -0.995449 0.08994047 -0.03149595
vn -0.5867357 -0.3462733 -0.7320082
vn -0.8871976 -0.3805763 -0.2608489
vn -0.2695103 -0.3795606 -0.8850412
vn -0.4993575 -0.4000476 -0.7685076
vn -0.2958212 -0.7395989 0.6045521
vn -0.05636884 -0.7512591 0.6575958
vn 0.2660354 -0.8924716 0.3643071
vn 0.0756862 -0.9703398 0.2295916
vn -0.1969673 -0.8440233 0.4988271
vn 0.2173314 -0.8579723 0.4654574
vn 0.326281 -0.8168164 0.4757641
vn -0.09164931 -0.7601735 0.6432237
vn 0.02111906 -0.9786181 0.2045985
vn 0.06531143 -0.8840238 0.4628566
vn 0.2874582 -0.6765445 0.6779789
vn 0.3619289 -0.9228744 0.1315689
vn 0.06100813 -0.7365533 0.6736225
vn 0.242355 -0.9596843 0.1423733
vn 0.1091064 -0.9939513 0.0125129
vn -0.1579349 -0.8799492 0.4480468
vn 0.1140507 -0.8271654 0.5502636
vn 0.03006127 -0.9989498 -0.03457809
vn 0.206825 -0.9695783 0.1309251
vn 0.2819431 -0.7447976 -0.6048014
vn 0.2819431 -0.7447976 -0.6048014
vn 0.2971593 -0.7186643 -0.6286637
vn 0.2819431 -0.7447976 -0.6048014
vn 0.2819431 -0.7447976 -0.6048014
vn 0.2819431 -0.7447976 -0.6048014
vn 0.2819431 -0.7447976 -0.6048014
vn 0.2819431 -0.7447976 -0.6048014
vn 0.2819431 -0.7447976 -0.6048014
vn 0.2971593 -0.7186643 -0.6286637
vn 0.2971593 -0.7186643 -0.6286637
vn 0.2971593 -0.7186643 -0.6286637
vn 0.2971593 -0.7186643 -0.6286637
vn 0.2971593 -0.7186643 -0.6286637
vn 0.2971593 -0.7186643 -0.6286637
vn 0.2971593 -0.7186643 -0.6286637
vn 0.2987949 -0.7181489 -0.6284773
vn 0.2987949 -0.7181489 -0.6284773
vn 0.2987949 -0.7181489 -0.6284773
vn -0.1912478 -0.9450369 -0.2651969
vn -0.1912478 -0.9450369 -0.2651969
vn -0.1912478 -0.9450369 -0.2651969
vn -0.1912478 -0.9450369 -0.2651969
vn -0.1780949 -0.9435759 -0.2791895
vn 0.5042321 -0.6456674 0.5734663
vn 0.5042321 -0.6456674 0.5734663
vn 0.5042321 -0.6456674 0.5734663
vn 0.5042321 -0.6456674 0.5734663
vn 0.5042321 -0.6456674 0.5734663
vn 0.5042321 -0.6456674 0.5734663
vn 0.5042321 -0.6456674 0.5734663
vn -0.6158065 -0.5352548 0.5781736
vn -0.6158065 -0.5352548 0.5781736
vn -0.6158065 -0.5352548 0.5781736
vn -0.6158065 -0.5352548 0.5781736
vn -0.6158065 -0.5352548 0.5781736
vn -0.6158065 -0.5352548 0.5781736
vn -0.6158065 -0.5352548 0.5781736
vn -0.6158065 -0.5352548 0.5781736
vn -0.6158065 -0.5352548 0.5781736
vn -0.6158065 -0.5352548 0.5781736
vn -0.4554237 -0.1734128 0.8732223
vn -0.4554237 -0.1734128 0.8732223
vn -0.4554237 -0.1734128 0.8732223
vn -0.4554237 -0.1734128 0.8732223
vn -0.4554237 -0.1734128 0.8732223
vn -0.4554237 -0.1734128 0.8732223
vn -0.4554237 -0.1734128 0.8732223
vn -0.4554237 -0.1734128 0.8732223
vn -0.4554237 -0.1734128 0.8732223
vn 0.4633785 -0.6546041 0.5973055
vn 0.4633785 -0.6546041 0.5973055
vn 0.4633785 -0.6546041 0.5973055
vn 0.4633785 -0.6546041 0.5973055
vn 0.4633785 -0.6546041 0.5973055
vn 0.4633785 -0.6546041 0.5973055
vn 0.4633785 -0.6546041 0.5973055
vn 0.4633785 -0.6546041 0.5973055
vn 0.4633785 -0.6546041 0.5973055
vn 0.4633785 -0.6546041 0.5973055
vn 0.4633785 -0.6546041 0.5973055
g BombGib_cell.005_0
f 3/3/3 2/2/2 1/1/1
f 6/6/6 5/5/5 4/4/4
f 6/6/6 4/4/4 7/7/7
f 7/7/7 8/8/8 6/6/6
f 6/6/6 8/8/8 9/9/9
f 10/10/10 6/6/6 9/9/9
f 10/10/10 9/9/9 11/11/11
f 12/12/12 7/7/7 4/4/4
f 4/4/4 13/13/13 12/12/12
f 13/13/13 14/14/14 12/12/12
f 4/4/4 15/15/15 13/13/13
f 4/4/4 16/16/16 15/15/15
f 19/19/19 18/18/18 17/17/17
f 19/19/19 17/17/17 20/20/20
f 21/21/21 19/19/19 20/20/20
f 24/24/24 23/23/23 22/22/22
f 24/24/24 22/22/22 25/25/25
f 22/22/22 26/26/26 25/25/25
f 26/26/26 27/27/27 25/25/25
f 26/26/26 28/28/28 27/27/27
f 28/28/28 29/29/29 27/27/27
f 28/28/28 30/30/30 29/29/29
f 30/30/30 31/31/31 29/29/29
f 30/30/30 32/32/32 31/31/31
f 32/32/32 33/33/33 31/31/31
f 31/31/31 33/33/33 34/34/34
f 27/27/27 29/29/29 35/35/35
f 29/29/29 31/31/31 36/36/36
f 29/29/29 36/36/36 35/35/35
f 37/37/37 31/31/31 34/34/34
f 31/31/31 37/37/37 36/36/36
f 34/34/34 38/38/38 37/37/37
f 34/34/34 39/39/39 38/38/38
f 38/38/38 39/39/39 40/40/40
f 38/38/38 40/40/40 41/41/41
f 38/38/38 41/41/41 42/42/42
f 42/42/42 43/43/43 38/38/38
f 44/44/44 43/43/43 42/42/42
f 38/38/38 43/43/43 45/45/45
f 45/45/45 43/43/43 44/44/44
f 37/37/37 38/38/38 45/45/45
f 45/45/45 44/44/44 46/46/46
f 46/46/46 47/47/47 45/45/45
f 37/37/37 45/45/45 48/48/48
f 36/36/36 37/37/37 48/48/48
f 48/48/48 45/45/45 47/47/47
f 36/36/36 48/48/48 49/49/49
f 35/35/35 36/36/36 49/49/49
f 50/50/50 48/48/48 47/47/47
f 47/47/47 51/51/51 50/50/50
f 52/52/52 50/50/50 51/51/51
f 48/48/48 50/50/50 53/53/53
f 53/53/53 50/50/50 52/52/52
f 49/49/49 48/48/48 53/53/53
f 54/54/54 53/53/53 52/52/52
f 55/55/55 53/53/53 54/54/54
f 49/49/49 53/53/53 55/55/55
f 56/56/56 55/55/55 54/54/54
f 35/35/35 49/49/49 57/57/57
f 57/57/57 49/49/49 55/55/55
f 58/58/58 55/55/55 56/56/56
f 57/57/57 55/55/55 58/58/58
f 59/59/59 58/58/58 56/56/56
f 60/60/60 35/35/35 57/57/57
f 27/27/27 35/35/35 60/60/60
f 25/25/25 27/27/27 60/60/60
f 61/61/61 57/57/57 58/58/58
f 60/60/60 57/57/57 61/61/61
f 62/62/62 58/58/58 59/59/59
f 61/61/61 58/58/58 62/62/62
f 63/63/63 62/62/62 59/59/59
f 25/25/25 60/60/60 64/64/64
f 64/64/64 60/60/60 61/61/61
f 65/65/65 61/61/61 62/62/62
f 64/64/64 61/61/61 65/65/65
f 66/66/66 62/62/62 63/63/63
f 65/65/65 62/62/62 66/66/66
f 67/67/67 66/66/66 63/63/63
f 68/68/68 25/25/25 64/64/64
f 25/25/25 68/68/68 24/24/24
f 24/24/24 68/68/68 69/69/69
f 70/70/70 24/24/24 69/69/69
f 71/71/71 69/69/69 68/68/68
f 71/71/71 68/68/68 64/64/64
f 64/64/64 72/72/72 71/71/71
f 72/72/72 64/64/64 65/65/65
f 71/71/71 72/72/72 73/73/73
f 73/73/73 72/72/72 74/74/74
f 72/72/72 65/65/65 74/74/74
f 74/74/74 65/65/65 66/66/66
f 74/74/74 66/66/66 75/75/75
f 76/76/76 74/74/74 75/75/75
f 75/75/75 66/66/66 77/77/77
f 78/78/78 75/75/75 77/77/77
f 81/81/81 80/80/80 79/79/79
f 81/81/81 79/79/79 82/82/82
f 83/83/83 82/82/82 79/79/79
f 84/84/84 81/81/81 82/82/82
f 82/82/82 83/83/83 85/85/85
f 86/86/86 85/85/85 83/83/83
f 85/85/85 86/86/86 87/87/87
f 84/84/84 82/82/82 88/88/88
f 88/88/88 82/82/82 85/85/85
f 89/89/89 85/85/85 87/87/87
f 88/88/88 85/85/85 89/89/89
f 90/90/90 89/89/89 87/87/87
f 91/91/91 89/89/89 90/90/90
f 91/91/91 88/88/88 89/89/89
f 92/92/92 91/91/91 90/90/90
f 93/93/93 91/91/91 92/92/92
f 94/94/94 84/84/84 88/88/88
f 94/94/94 88/88/88 91/91/91
f 93/93/93 94/94/94 91/91/91
f 95/95/95 84/84/84 94/94/94
f 96/96/96 94/94/94 93/93/93
f 95/95/95 94/94/94 97/97/97
f 94/94/94 96/96/96 97/97/97
f 100/100/100 99/99/99 98/98/98
f 100/100/100 98/98/98 101/101/101
f 100/100/100 101/101/101 102/102/102
f 100/100/100 102/102/102 103/103/103
f 102/102/102 104/104/104 103/103/103
f 103/103/103 104/104/104 105/105/105
f 100/100/100 103/103/103 106/106/106
f 106/106/106 107/107/107 100/100/100
f 100/100/100 107/107/107 108/108/108
f 108/108/108 109/109/109 100/100/100
f 109/109/109 110/110/110 100/100/100
f 110/110/110 111/111/111 100/100/100
f 111/111/111 112/112/112 100/100/100
f 112/112/112 113/113/113 100/100/100
f 100/100/100 113/113/113 114/114/114
f 114/114/114 115/115/115 100/100/100
f 115/115/115 116/116/116 100/100/100
f 119/119/119 118/118/118 117/117/117
f 118/118/118 120/120/120 117/117/117
f 120/120/120 121/121/121 117/117/117
f 124/124/124 123/123/123 122/122/122
f 122/122/122 125/125/125 124/124/124
f 122/122/122 126/126/126 125/125/125
f 122/122/122 127/127/127 126/126/126
f 127/127/127 128/128/128 126/126/126
f 131/131/131 130/130/130 129/129/129
f 129/129/129 132/132/132 131/131/131
f 129/129/129 133/133/133 132/132/132
f 133/133/133 134/134/134 132/132/132
f 133/133/133 135/135/135 134/134/134
f 135/135/135 136/136/136 134/134/134
f 136/136/136 137/137/137 134/134/134
f 136/136/136 138/138/138 137/137/137
f 141/141/141 140/140/140 139/139/139
f 139/139/139 142/142/142 141/141/141
f 142/142/142 143/143/143 141/141/141
f 143/143/143 144/144/144 141/141/141
f 143/143/143 145/145/145 144/144/144
f 143/143/143 146/146/146 145/145/145
f 146/146/146 147/147/147 145/145/145
f 150/150/150 149/149/149 148/148/148
f 148/148/148 151/151/151 150/150/150
f 148/148/148 152/152/152 151/151/151
f 152/152/152 153/153/153 151/151/151
f 153/153/153 154/154/154 151/151/151
f 153/153/153 155/155/155 154/154/154
f 155/155/155 156/156/156 154/154/154
f 156/156/156 157/157/157 154/154/154
f 156/156/156 158/158/158 157/157/157
