g BombGib_cell.008
v -0.003799704 0.0002934128 0.00184547
v -0.003821993 0.0002033573 0.0010637
v -0.004116704 0.0006461668 0.001628576
v 0.002021483 -0.0007414073 0.0010637
v 0.001732444 -0.0008959019 0.0010637
v 0.001725449 -0.0008790133 0.001249298
v 0.000546465 -3.862157E-05 -0.002150144
v 0.0001416511 -5.63705E-05 -0.002177099
v -4.117198E-05 -0.0001375389 -0.002100136
v 0.001732444 -0.0008959019 0.0010637
v 0.002021483 -0.0007414073 0.0010637
v 0.002591834 -0.0003894166 0.00063963
v 0.002560541 -0.0003425837 6.775598E-05
v 0.003166031 0.0001543292 6.775604E-05
v 0.003286212 0.0003131604 -8.63976E-05
v 0.001694906 -0.0008052751 6.775591E-05
v 0.0007747736 -0.001186408 0.0010637
v 0.002399146 -0.000101037 -0.0008899143
v 0.0007556366 -0.001090199 6.775583E-05
v -0.0002211707 -0.001284499 0.0010637
v 0.003113859 0.0004855132 -0.0008899143
v 0.001583735 -0.0005368832 -0.0008899145
v -0.0002211706 -0.001186406 6.775583E-05
v -0.001217115 -0.001186408 0.0010637
v 0.002162991 0.000252393 -0.001685158
v 0.003015829 0.0005835434 -0.001149284
v 0.003325908 0.0007438951 -0.0008899142
v 0.0006989625 -0.0008052757 -0.0008899145
v -0.0002211699 -0.000895901 -0.0008899145
v -0.001197978 -0.001090198 6.775583E-05
v -0.002174786 -0.000895901 0.0010637
v 0.001403201 -0.0001010364 -0.001772509
v 0.001963509 0.0001984546 -0.001772509
v -0.002137247 -0.0008052742 6.775591E-05
v -0.00305738 -0.0004241443 0.0010637
v 0.001335081 6.341852E-05 -0.001989408
v 0.001600096 0.0001207787 -0.001898386
v 0.000546465 -3.862157E-05 -0.002150144
v 0.0006069265 -0.0003425831 -0.001772509
v -4.117198E-05 -0.0001375389 -0.002100136
v -0.0002211705 -0.0002181283 -0.002023539
v -0.0002211706 -0.0004241431 -0.001772509
v -0.0007057068 -0.0003764203 -0.001772509
v -0.001072139 -0.000457564 -0.00155318
v -0.001141302 -0.0008052757 -0.0008899145
v -0.002017486 -0.0005394883 -0.0008899145
v -0.002994886 -0.0003306153 2.030906E-05
v -0.003821993 0.0002033573 0.0010637
v -0.003039042 -0.0003129064 6.775598E-05
v 0.001732444 -0.0008959019 0.0010637
v 0.0007625714 -0.001125064 0.001698735
v 0.001725449 -0.0008790133 0.001249298
v 0.0007747736 -0.001186408 0.0010637
v -0.0002211706 -0.001190728 0.002015769
v -0.0002211707 -0.001284499 0.0010637
v -0.001217115 -0.001186408 0.0010637
v -0.001197978 -0.001090199 0.002059644
v -0.00046213 -0.001162674 0.002059644
v -0.002137247 -0.0008052748 0.002059644
v -0.002174786 -0.000895901 0.0010637
v -0.003002882 -0.0003425831 0.002059644
v -0.00305738 -0.0004241443 0.0010637
v -0.003821993 0.0002033573 0.0010637
v -0.003799704 0.0002934128 0.00184547
v -0.003167191 -0.000207738 0.002059644
v -0.002137247 -0.0008052748 0.002059644
v -0.003002882 -0.0003425831 0.002059644
v -0.002120411 -0.00076463 0.002204672
v -0.001197978 -0.001090199 0.002059644
v -0.001191122 -0.001055733 0.00217549
v -0.00046213 -0.001162674 0.002059644
v 0.001607103 0.001110812 -0.0002667558
v 0.001094468 0.0006582343 0.00024209
v 0.001022963 0.0009223587 -0.0005964773
v 0.0006047349 0.0004590476 0.0004528897
v 0.0001690236 0.0005588839 -0.0001609557
v 2.274886E-05 0.0008295948 -0.0007548777
v -0.0005653625 0.0003330576 0.0009406896
v -0.0008605396 0.0008117931 -0.0006342602
v -0.0008972168 0.0004218265 0.0003726678
v -0.001440409 0.0005186819 0.00103413
v -0.001547283 0.0006190222 0.0003726678
v -0.001470985 0.000803221 -0.0002829114
v -0.002275988 0.00100348 0.0007041044
v 0.003567592 0.0009103264 -0.0006207993
v 0.001607103 0.001110812 -0.0002667558
v 0.001022963 0.0009223587 -0.0005964773
v 2.274886E-05 0.0008295948 -0.0007548777
v 0.003325908 0.0007438951 -0.0008899142
v 0.003015829 0.0005835434 -0.001149284
v 0.002162991 0.000252393 -0.001685158
v 0.001963509 0.0001984546 -0.001772509
v 0.001600096 0.0001207787 -0.001898386
v -0.0008605396 0.0008117931 -0.0006342602
v 0.001335081 6.341852E-05 -0.001989408
v 0.000546465 -3.862157E-05 -0.002150144
v 0.0001416511 -5.63705E-05 -0.002177099
v 0.003492818 0.0007510555 -0.0004775719
v 0.00353476 0.0008401389 -0.0005573742
v 0.003567592 0.0009103264 -0.0006207993
v 0.003325908 0.0007438951 -0.0008899142
v 0.003113859 0.0004855132 -0.0008899143
v -0.00046213 -0.001162674 0.002059644
v -0.001191122 -0.001055733 0.00217549
v -0.002120411 -0.00076463 0.002204672
v -0.0002211706 -0.001190728 0.002015769
v 0.0007625714 -0.001125064 0.001698735
v 0.001725449 -0.0008790133 0.001249298
v 0.002021483 -0.0007414073 0.0010637
v 0.002591834 -0.0003894166 0.00063963
v 0.003166031 0.0001543292 6.775604E-05
v 0.003286212 0.0003131604 -8.63976E-05
v 0.003492818 0.0007510555 -0.0004775719
v 0.001094468 0.0006582343 0.00024209
v 0.00353476 0.0008401389 -0.0005573742
v 0.001607103 0.001110812 -0.0002667558
v 0.003567592 0.0009103264 -0.0006207993
v 0.0006047349 0.0004590476 0.0004528897
v -0.0005653625 0.0003330576 0.0009406896
v -0.001440409 0.0005186819 0.00103413
v -0.003799704 0.0002934128 0.00184547
v -0.003167191 -0.000207738 0.002059644
v -0.003002882 -0.0003425831 0.002059644
v -0.004116704 0.0006461668 0.001628576
v -0.003821993 0.0002033573 0.0010637
v -0.003039042 -0.0003129064 6.775598E-05
v -0.002994886 -0.0003306153 2.030906E-05
v -0.002275988 0.00100348 0.0007041044
v -0.002017486 -0.0005394883 -0.0008899145
v -0.001470985 0.000803221 -0.0002829114
v -0.001072139 -0.000457564 -0.00155318
v -0.0008605396 0.0008117931 -0.0006342602
v -0.0007057068 -0.0003764203 -0.001772509
v -0.0002211705 -0.0002181283 -0.002023539
v -4.117198E-05 -0.0001375389 -0.002100136
v 0.0001416511 -5.63705E-05 -0.002177099
v -0.004116704 0.0006461668 0.001628576
v -0.002275988 0.00100348 0.0007041044
v -0.001440409 0.0005186819 0.00103413
v -0.003799704 0.0002934128 0.00184547
vt 0.08658845 0.4606275
vt 0.08658845 0.4606275
vt 0.08658846 0.4606275
vt 0.08658845 0.4606274
vt 0.08658845 0.4606275
vt 0.08658846 0.4606275
vt 0.03245122 0.465549
vt 0.03245122 0.4655491
vt 0.03245122 0.465549
vt 0.03245122 0.465549
vt 0.03245122 0.465549
vt 0.03245122 0.465549
vt 0.03245122 0.465549
vt 0.03245122 0.4655491
vt 0.03245122 0.465549
vt 0.03245122 0.465549
vt 0.03245122 0.465549
vt 0.03245122 0.465549
vt 0.03245122 0.465549
vt 0.03245122 0.465549
vt 0.03245122 0.465549
vt 0.03245122 0.465549
vt 0.03245122 0.465549
vt 0.03245122 0.465549
vt 0.03245122 0.465549
vt 0.03245123 0.465549
vt 0.03245122 0.4655491
vt 0.03245122 0.465549
vt 0.03245122 0.465549
vt 0.03245122 0.465549
vt 0.03245122 0.465549
vt 0.03245122 0.465549
vt 0.03245122 0.465549
vt 0.03245122 0.465549
vt 0.03245122 0.465549
vt 0.03245122 0.4655491
vt 0.03245122 0.465549
vt 0.03245122 0.465549
vt 0.03245122 0.465549
vt 0.03245122 0.465549
vt 0.03245122 0.465549
vt 0.03245122 0.465549
vt 0.03245122 0.465549
vt 0.03245122 0.465549
vt 0.03245122 0.465549
vt 0.03245122 0.465549
vt 0.03245122 0.465549
vt 0.03245122 0.465549
vt 0.03245122 0.4655491
vt 0.08658845 0.4606275
vt 0.08658844 0.4606274
vt 0.08658846 0.4606275
vt 0.08658845 0.4606275
vt 0.08658845 0.4606275
vt 0.08658845 0.4606275
vt 0.08658845 0.4606275
vt 0.08658845 0.4606275
vt 0.08658845 0.4606275
vt 0.08658845 0.4606275
vt 0.08658845 0.4606275
vt 0.08658845 0.4606275
vt 0.08658845 0.4606275
vt 0.08658845 0.4606275
vt 0.08658845 0.4606275
vt 0.08658845 0.4606275
vt 0.08658845 0.4581667
vt 0.08658845 0.4581667
vt 0.08658845 0.4581667
vt 0.08658845 0.4581667
vt 0.08658845 0.4581667
vt 0.08658845 0.4581667
vt 0.1564747 0.465549
vt 0.1564747 0.465549
vt 0.1564747 0.465549
vt 0.1564747 0.465549
vt 0.1564747 0.465549
vt 0.1564747 0.465549
vt 0.1564747 0.465549
vt 0.1564747 0.465549
vt 0.1564747 0.465549
vt 0.1564747 0.465549
vt 0.1564747 0.465549
vt 0.1564747 0.465549
vt 0.1564747 0.465549
vt 0.09316844 0.4667633
vt 0.09316844 0.4667633
vt 0.09316844 0.4667633
vt 0.09316844 0.4667633
vt 0.09316844 0.4667633
vt 0.09316844 0.4667633
vt 0.09316844 0.4667633
vt 0.09316844 0.4667633
vt 0.09316844 0.4667633
vt 0.09316844 0.4667633
vt 0.09316844 0.4667633
vt 0.09316844 0.4667633
vt 0.09316844 0.4667633
vt 0.03245122 0.465549
vt 0.03245122 0.465549
vt 0.03245123 0.4655491
vt 0.03245122 0.4655491
vt 0.03245122 0.465549
vt 0.09316844 0.4667633
vt 0.09316844 0.4667633
vt 0.09316844 0.4667633
vt 0.09316844 0.4667633
vt 0.09316844 0.4667633
vt 0.09316844 0.4667633
vt 0.09316844 0.4667633
vt 0.09316844 0.4667633
vt 0.09316844 0.4667633
vt 0.09316844 0.4667633
vt 0.09316844 0.4667633
vt 0.09316844 0.4667633
vt 0.09316844 0.4667633
vt 0.09316844 0.4667633
vt 0.09316844 0.4667633
vt 0.09316844 0.4667633
vt 0.09316844 0.4667633
vt 0.09316844 0.4667633
vt 0.09316844 0.4667633
vt 0.09316844 0.4667633
vt 0.09316844 0.4667633
vt 0.09316844 0.4667633
vt 0.09316844 0.4667633
vt 0.09316844 0.4667633
vt 0.09316844 0.4667633
vt 0.09316844 0.4667633
vt 0.09316844 0.4667633
vt 0.09316844 0.4667633
vt 0.09316844 0.4667633
vt 0.09316844 0.4667633
vt 0.09316844 0.4667633
vt 0.09316844 0.4667633
vt 0.09316844 0.4667633
vt 0.09316844 0.4667633
vt 0.09316844 0.4667633
vt 0.09316844 0.4667633
vt 0.09316844 0.4667633
vt 0.09316844 0.4667633
vn -0.5328014 -0.06354064 0.8438514
vn -0.8810887 -0.1760652 -0.4389574
vn -0.8339168 0.481843 0.2690911
vn 0.6662924 -0.2918844 0.6861908
vn 0.3826815 -0.9238803 0
vn 0.5173331 -0.3313178 0.7890468
vn 0.09515727 0.05175969 -0.9941157
vn -0.1175287 0.08172987 -0.9897006
vn -0.3182485 -0.1548517 -0.9352747
vn 0.3826815 -0.9238803 0
vn 0.6662924 -0.2918844 0.6861908
vn 0.7145578 -0.2669253 0.6466514
vn 0.5450153 -0.8156919 -0.1939202
vn 0.8370047 -0.1695922 0.5202515
vn 0.8689987 -0.1295227 0.4775617
vn 0.3754112 -0.906346 -0.1939162
vn 0.1950772 -0.9807879 0
vn 0.5137554 -0.7689242 -0.3805404
vn 0.1913839 -0.9621686 -0.1939169
vn 0 -1 0
vn 0.6539058 -0.6539058 -0.3805448
vn 0.3538681 -0.8543801 -0.3805418
vn 0 -0.9810172 -0.1939206
vn -0.1950772 -0.9807879 0
vn 0.4289214 0.07300271 -0.9003871
vn 0.5153823 0.154337 -0.8429479
vn 0.6422165 0.2038075 -0.738932
vn 0.1803984 -0.906997 -0.3805427
vn 0 -0.9247627 -0.3805441
vn -0.1913839 -0.9621686 -0.1939169
vn -0.3837807 -0.9234236 -0.001159735
vn 0.3188952 -0.769908 -0.5527638
vn 0.3772828 0.06653263 -0.923705
vn -0.3767916 -0.9057525 -0.1940113
vn -0.5554253 -0.8315663 -0.0005188324
vn 0.210188 0.08417286 -0.9740307
vn 0.28944 0.1385247 -0.9471195
vn 0.09515727 0.05175969 -0.9941157
vn 0.1625746 -0.8173287 -0.5527597
vn -0.3182485 -0.1548517 -0.9352747
vn -0.3323499 -0.1711495 -0.9274974
vn 0 -0.8333439 -0.5527549
vn -0.433282 -0.2413768 -0.8683341
vn -0.4718621 -0.2538002 -0.8443527
vn -0.1803984 -0.906997 -0.3805427
vn -0.6123629 -0.2863899 -0.7368802
vn -0.7606826 -0.233805 -0.6055552
vn -0.8810887 -0.1760652 -0.4389574
vn -0.8194326 -0.1556769 -0.5516292
vn 0.3826815 -0.9238803 0
vn 0.3697387 -0.3999831 0.8386339
vn 0.5173331 -0.3313178 0.7890468
vn 0.1950772 -0.9807879 0
vn 0.1945583 -0.4337657 0.8797696
vn 0 -1 0
vn -0.1950772 -0.9807879 0
vn -0.1913839 -0.9621686 0.1939169
vn 0.1150874 -0.4099931 0.9047986
vn -0.3754112 -0.906346 0.1939162
vn -0.3837807 -0.9234236 -0.001159735
vn -0.4066681 -0.3349481 0.8499593
vn -0.5554253 -0.8315663 -0.0005188324
vn -0.8810887 -0.1760652 -0.4389574
vn -0.5328014 -0.06354064 0.8438514
vn -0.4352003 -0.1685867 0.8844089
vn -0.3754112 -0.906346 0.1939162
vn -0.4066681 -0.3349481 0.8499593
vn -0.1480461 -0.2759194 0.9497108
vn -0.1913839 -0.9621686 0.1939169
vn 0.009247249 -0.3319549 0.9432499
vn 0.1150874 -0.4099931 0.9047986
vn -0.01626669 0.9818002 0.1892186
vn -0.02002062 0.7918521 0.6103847
vn -0.171641 0.9810761 -0.08960492
vn 0.02575777 0.8389893 0.5435378
vn -0.08096671 0.9419057 0.3259727
vn -0.03833159 0.9937831 -0.1045268
vn 0.151892 0.8609961 0.4854013
vn -0.190349 0.9546446 -0.228956
vn 0.1429534 0.9672857 0.2095775
vn 0.2805285 0.8201002 0.4987377
vn 0.3956188 0.8965591 0.1991675
vn -0.1149352 0.9712111 -0.2086595
vn -0.07159864 0.9971316 -0.02453764
vn 0.0002951669 0.8539461 -0.5203614
vn 0.0002951669 0.8539461 -0.5203614
vn 0.0002951669 0.8539461 -0.5203614
vn 0.0002951669 0.8539461 -0.5203614
vn 0.0002951669 0.8539461 -0.5203614
vn 0.0002951669 0.8539461 -0.5203614
vn 0.0002951669 0.8539461 -0.5203614
vn 0.0002951669 0.8539461 -0.5203614
vn 0.0002951669 0.8539461 -0.5203614
vn -0.03372343 0.8470283 -0.530477
vn -0.03372343 0.8470283 -0.530477
vn -0.03372343 0.8470283 -0.530477
vn -0.03372343 0.8470283 -0.530477
vn 0.8896242 -0.008026456 0.4566229
vn 0.8930606 0.006653244 0.4498874
vn 0.8627785 0.5006984 -0.07010266
vn 0.6422165 0.2038075 -0.738932
vn 0.6539058 -0.6539058 -0.3805448
vn 0.2105197 0.594163 0.7763064
vn 0.2105197 0.594163 0.7763064
vn 0.2105197 0.594163 0.7763064
vn 0.2105197 0.594163 0.7763064
vn 0.2105197 0.594163 0.7763064
vn 0.2105197 0.594163 0.7763064
vn 0.2105197 0.594163 0.7763064
vn 0.2105197 0.594163 0.7763064
vn 0.2105197 0.594163 0.7763064
vn 0.2105197 0.594163 0.7763064
vn 0.2105197 0.594163 0.7763064
vn 0.2013834 0.6200003 0.7583167
vn 0.2013834 0.6200003 0.7583167
vn 0.2013834 0.6200003 0.7583167
vn 0.2013834 0.6200003 0.7583167
vn 0.2040692 0.6000354 0.7735071
vn 0.2040692 0.6000354 0.7735071
vn 0.2040692 0.6000354 0.7735071
vn 0.2040692 0.6000354 0.7735071
vn 0.2040692 0.6000354 0.7735071
vn 0.2040692 0.6000354 0.7735071
vn -0.5004661 0.5614764 -0.6589977
vn -0.5004661 0.5614764 -0.6589977
vn -0.5004661 0.5614764 -0.6589977
vn -0.5004661 0.5614764 -0.6589977
vn -0.5004661 0.5614764 -0.6589977
vn -0.5004661 0.5614764 -0.6589977
vn -0.5004661 0.5614764 -0.6589977
vn -0.5004661 0.5614764 -0.6589977
vn -0.5004661 0.5614764 -0.6589977
vn -0.5004661 0.5614764 -0.6589977
vn -0.5004661 0.5614764 -0.6589977
vn -0.5004661 0.5614764 -0.6589977
vn -0.5197818 0.5546638 -0.6497499
vn 0.1858535 0.7036144 0.6858464
vn 0.1858535 0.7036144 0.6858464
vn 0.1858535 0.7036144 0.6858464
vn 0.1858535 0.7036144 0.6858464
g BombGib_cell.008_0
f 3/3/3 2/2/2 1/1/1
f 6/6/6 5/5/5 4/4/4
f 9/9/9 8/8/8 7/7/7
f 12/12/12 11/11/11 10/10/10
f 13/13/13 12/12/12 10/10/10
f 12/12/12 13/13/13 14/14/14
f 15/15/15 14/14/14 13/13/13
f 10/10/10 16/16/16 13/13/13
f 10/10/10 17/17/17 16/16/16
f 15/15/15 13/13/13 18/18/18
f 13/13/13 16/16/16 18/18/18
f 17/17/17 19/19/19 16/16/16
f 17/17/17 20/20/20 19/19/19
f 18/18/18 21/21/21 15/15/15
f 16/16/16 22/22/22 18/18/18
f 16/16/16 19/19/19 22/22/22
f 20/20/20 23/23/23 19/19/19
f 20/20/20 24/24/24 23/23/23
f 21/21/21 18/18/18 25/25/25
f 25/25/25 18/18/18 22/22/22
f 26/26/26 21/21/21 25/25/25
f 27/27/27 21/21/21 26/26/26
f 19/19/19 28/28/28 22/22/22
f 19/19/19 23/23/23 28/28/28
f 23/23/23 29/29/29 28/28/28
f 24/24/24 30/30/30 23/23/23
f 23/23/23 30/30/30 29/29/29
f 24/24/24 31/31/31 30/30/30
f 25/25/25 22/22/22 32/32/32
f 22/22/22 28/28/28 32/32/32
f 32/32/32 33/33/33 25/25/25
f 31/31/31 34/34/34 30/30/30
f 31/31/31 35/35/35 34/34/34
f 33/33/33 32/32/32 36/36/36
f 37/37/37 33/33/33 36/36/36
f 36/36/36 32/32/32 38/38/38
f 28/28/28 39/39/39 32/32/32
f 32/32/32 39/39/39 38/38/38
f 28/28/28 29/29/29 39/39/39
f 38/38/38 39/39/39 40/40/40
f 39/39/39 41/41/41 40/40/40
f 39/39/39 42/42/42 41/41/41
f 29/29/29 42/42/42 39/39/39
f 41/41/41 42/42/42 43/43/43
f 43/43/43 42/42/42 29/29/29
f 29/29/29 44/44/44 43/43/43
f 29/29/29 45/45/45 44/44/44
f 30/30/30 45/45/45 29/29/29
f 44/44/44 45/45/45 46/46/46
f 30/30/30 34/34/34 45/45/45
f 34/34/34 46/46/46 45/45/45
f 46/46/46 34/34/34 47/47/47
f 35/35/35 47/47/47 34/34/34
f 35/35/35 48/48/48 47/47/47
f 48/48/48 49/49/49 47/47/47
f 52/52/52 51/51/51 50/50/50
f 51/51/51 53/53/53 50/50/50
f 51/51/51 54/54/54 53/53/53
f 54/54/54 55/55/55 53/53/53
f 56/56/56 55/55/55 54/54/54
f 54/54/54 57/57/57 56/56/56
f 54/54/54 58/58/58 57/57/57
f 57/57/57 59/59/59 56/56/56
f 59/59/59 60/60/60 56/56/56
f 59/59/59 61/61/61 60/60/60
f 61/61/61 62/62/62 60/60/60
f 63/63/63 62/62/62 61/61/61
f 61/61/61 64/64/64 63/63/63
f 61/61/61 65/65/65 64/64/64
f 68/68/68 67/67/67 66/66/66
f 68/68/68 66/66/66 69/69/69
f 70/70/70 68/68/68 69/69/69
f 70/70/70 69/69/69 71/71/71
f 74/74/74 73/73/73 72/72/72
f 75/75/75 73/73/73 74/74/74
f 76/76/76 75/75/75 74/74/74
f 77/77/77 76/76/76 74/74/74
f 76/76/76 78/78/78 75/75/75
f 79/79/79 76/76/76 77/77/77
f 80/80/80 78/78/78 76/76/76
f 79/79/79 80/80/80 76/76/76
f 81/81/81 78/78/78 80/80/80
f 82/82/82 80/80/80 79/79/79
f 82/82/82 81/81/81 80/80/80
f 83/83/83 82/82/82 79/79/79
f 84/84/84 81/81/81 82/82/82
f 84/84/84 82/82/82 83/83/83
f 87/87/87 86/86/86 85/85/85
f 88/88/88 87/87/87 85/85/85
f 88/88/88 85/85/85 89/89/89
f 88/88/88 89/89/89 90/90/90
f 88/88/88 90/90/90 91/91/91
f 88/88/88 91/91/91 92/92/92
f 92/92/92 93/93/93 88/88/88
f 94/94/94 88/88/88 93/93/93
f 94/94/94 93/93/93 95/95/95
f 94/94/94 95/95/95 96/96/96
f 96/96/96 97/97/97 94/94/94
f 100/100/100 99/99/99 98/98/98
f 101/101/101 100/100/100 98/98/98
f 102/102/102 101/101/101 98/98/98
f 98/98/98 15/15/15 102/102/102
f 105/105/105 104/104/104 103/103/103
f 105/105/105 103/103/103 106/106/106
f 105/105/105 106/106/106 107/107/107
f 105/105/105 107/107/107 108/108/108
f 105/105/105 108/108/108 109/109/109
f 105/105/105 109/109/109 110/110/110
f 105/105/105 110/110/110 111/111/111
f 105/105/105 111/111/111 112/112/112
f 112/112/112 113/113/113 105/105/105
f 114/114/114 105/105/105 113/113/113
f 113/113/113 115/115/115 114/114/114
f 114/114/114 115/115/115 116/116/116
f 115/115/115 117/117/117 116/116/116
f 114/114/114 118/118/118 105/105/105
f 118/118/118 119/119/119 105/105/105
f 119/119/119 120/120/120 105/105/105
f 120/120/120 121/121/121 105/105/105
f 121/121/121 122/122/122 105/105/105
f 122/122/122 123/123/123 105/105/105
f 126/126/126 125/125/125 124/124/124
f 127/127/127 126/126/126 124/124/124
f 127/127/127 124/124/124 128/128/128
f 129/129/129 127/127/127 128/128/128
f 129/129/129 128/128/128 130/130/130
f 131/131/131 129/129/129 130/130/130
f 131/131/131 130/130/130 132/132/132
f 133/133/133 131/131/131 132/132/132
f 134/134/134 133/133/133 132/132/132
f 132/132/132 135/135/135 134/134/134
f 135/135/135 132/132/132 136/136/136
f 139/139/139 138/138/138 137/137/137
f 140/140/140 139/139/139 137/137/137
