g BombGib_cell.003
v 0.001463515 0.002059703 0.0008782764
v 0.00120604 0.002072302 0.0007432727
v 0.0005954415 0.002100686 0.0004214972
v 0.001140467 0.001576228 0.0001697515
v 0.001565699 0.002044599 0.0009433521
v 0.0005163782 0.00190981 0.0001697515
v -1.065783E-05 0.002069685 0.0001697515
v 0.0002203341 0.001195096 -0.0004651265
v -0.0003117194 0.001356493 -0.0004651262
v -0.0001737937 0.002049893 0.000115081
v -0.0008650366 0.00141099 -0.0004651262
v -0.0008650362 0.001911574 -5.430661E-05
v -0.001418353 0.001356491 -0.0004651262
v -0.001493464 0.001734098 -0.0001491606
v -0.001950406 0.001195094 -0.0004651265
v -0.002083473 0.001516346 -0.0001797599
v -0.002440749 0.0009330007 -0.0004651265
v -0.002654569 0.001253005 -0.0001492748
v -0.002848144 0.000557888 -0.0004820545
v -0.003224299 0.0009340431 -5.454633E-05
v -0.002930677 0.0006309485 -0.0004002837
v -0.002168898 1.983907E-05 -0.0009368833
v -0.001950406 0.0001991506 -0.0009368832
v -0.001531703 -0.0004274837 -0.001165499
v -0.001612652 0.000379684 -0.0009368832
v -0.001344258 -0.0005575183 -0.001227389
v -0.001246167 0.0004908556 -0.0009368832
v -0.001246168 -0.0005050878 -0.001227389
v -0.001182382 -0.0006590803 -0.001243806
v -0.0009940795 -0.0007764777 -0.001260334
v -0.001059336 -0.0004484129 -0.001227389
v -0.0008650366 -0.0008562878 -0.001269446
v -0.0008650362 0.0005283937 -0.0009368832
v -0.0008650364 -0.0004292762 -0.001227389
v -0.0007641626 -0.000918092 -0.001274555
v -0.0004839051 0.0004908574 -0.0009368832
v -0.0006707374 -0.0004484122 -0.001227389
v -0.0006768946 -0.0009710045 -0.001277059
v -0.0001174203 0.0003796855 -0.0009368832
v -0.0004839051 -0.0005050872 -0.001227389
v -0.0005945379 -0.00102039 -0.001277527
v 0.0007106772 0.0009330024 -0.0004651265
v -0.0003117195 -0.0005971222 -0.001227389
v -0.0005102096 -0.001070393 -0.001276058
v 0.0002203341 0.000199152 -0.0009368832
v 0.001687485 0.001127301 0.0001697512
v -0.0001607976 -0.0007209808 -0.001227389
v -0.0004163695 -0.00112543 -0.001272334
v 0.001140467 0.0005802833 -0.0004651265
v 0.0005163782 -4.380506E-05 -0.0009368832
v 0.001853823 0.001808142 0.0009433521
v 0.001770885 0.001987268 0.001104746
v 0.001977281 0.001417098 0.0006691354
v 0.002136411 0.0005802831 0.0001697512
v -3.693901E-05 -0.0008719029 -0.001227389
v -0.0003018243 -0.00119193 -0.001265439
v 0.001493186 0.0001504937 -0.0004651265
v 0.0007593354 -0.0003398492 -0.0009368832
v 0.00175528 -0.0003398496 -0.0004651265
v 0.002166186 0.0005245776 0.0001697512
v 0.002204331 -0.0001538465 -6.623603E-05
v 0.0009398687 -0.0006776036 -0.0009368835
v 0.001916676 -0.0008719031 -0.0004651268
v 5.509607E-05 -0.001044088 -0.001227389
v -0.0001452086 -0.001282037 -0.001253195
v 0.001051041 -0.001044088 -0.0009368835
v 0.0001117709 -0.001230921 -0.001227389
v 0.0001295632 -0.001438871 -0.001227389
v 0.001088579 -0.00142522 -0.0009368835
v 0.001971173 -0.00142522 -0.0004651268
v 0.00105104 -0.001806351 -0.0009368835
v 0.000729968 -0.001742486 -0.001036188
v 0.001025531 -0.001890445 -0.0009368835
v 0.001837577 -0.00223929 -0.000465127
v 0.001916676 -0.001978537 -0.0004651268
v 0.001978939 -0.002288098 -0.0003418888
v 0.002046783 -0.002004417 -0.0003562589
v 0.002141093 -0.00142522 -0.0003256772
v 0.002162367 -0.00118494 -0.0002887958
v 0.002194504 -0.0008166396 -0.0002326523
v 0.00175528 -0.0003398496 -0.0004651265
v 0.001916676 -0.0008719031 -0.0004651268
v 0.002194504 -0.0008166396 -0.0002326523
v 0.002204331 -0.0001538465 -6.623603E-05
v 0.002194504 -0.0008166396 -0.0002326523
v 0.002162367 -0.00118494 -0.0002887958
v 0.0008849665 0.0007881174 0.001693681
v 0.002204331 -0.0001538465 -6.623603E-05
v 0.002166186 0.0005245776 0.0001697512
v 0.002136411 0.0005802831 0.0001697512
v 0.001977281 0.001417098 0.0006691354
v 0.001770885 0.001987268 0.001104746
v 0.001853823 0.001808142 0.0009433521
v -0.003224299 0.0009340431 -5.454633E-05
v -0.002049899 0.0005467457 0.000990917
v -0.00148672 7.565613E-05 0.0006606576
v -0.001078116 -0.0001755387 0.0004722489
v -0.002930677 0.0006309485 -0.0004002837
v 0.001978939 -0.002288098 -0.0003418888
v -0.0003615205 -0.0006772123 0.0003869009
v 0.0003706152 -0.001039128 0.0005002381
v 0.001149996 -0.001229933 0.0009018321
v 0.001837577 -0.00223929 -0.000465127
v -0.002848144 0.000557888 -0.0004820545
v -0.002168898 1.983907E-05 -0.0009368833
v 0.001025531 -0.001890445 -0.0009368835
v 0.000729968 -0.001742486 -0.001036188
v -0.001531703 -0.0004274837 -0.001165499
v -0.001344258 -0.0005575183 -0.001227389
v 0.0001295632 -0.001438871 -0.001227389
v -0.001182382 -0.0006590803 -0.001243806
v -0.0001452086 -0.001282037 -0.001253195
v -0.0009940795 -0.0007764777 -0.001260334
v -0.0003018243 -0.00119193 -0.001265439
v -0.0008650366 -0.0008562878 -0.001269446
v -0.0004163695 -0.00112543 -0.001272334
v -0.0007641626 -0.000918092 -0.001274555
v -0.0005102096 -0.001070393 -0.001276058
v -0.0006768946 -0.0009710045 -0.001277059
v -0.0005945379 -0.00102039 -0.001277527
v -0.002654569 0.001253005 -0.0001492748
v -0.002083473 0.001516346 -0.0001797599
v -0.001493464 0.001734098 -0.0001491606
v -0.003224299 0.0009340431 -5.454633E-05
v -0.0008650362 0.001911574 -5.430661E-05
v -0.002049899 0.0005467457 0.000990917
v -0.0001737937 0.002049893 0.000115081
v -1.065783E-05 0.002069685 0.0001697515
v 0.0005954415 0.002100686 0.0004214972
v 0.00120604 0.002072302 0.0007432727
v -0.001082243 0.0008201529 0.001090651
v -6.153366E-05 0.0009749915 0.001336823
v 0.001565699 0.002044599 0.0009433521
v 0.001770885 0.001987268 0.001104746
v 0.0008849665 0.0007881174 0.001693681
v 0.001463515 0.002059703 0.0008782764
v 0.00120604 0.002072302 0.0007432727
v -6.153366E-05 0.0009749915 0.001336823
v 0.002046783 -0.002004417 -0.0003562589
v 0.001978939 -0.002288098 -0.0003418888
v 0.001149996 -0.001229933 0.0009018321
v 0.002141093 -0.00142522 -0.0003256772
v 0.002162367 -0.00118494 -0.0002887958
v 0.001255963 -0.000546673 0.001114347
v 0.001208817 -3.951516E-05 0.001276579
v 0.0008849665 0.0007881174 0.001693681
v -6.153366E-05 0.0009749915 0.001336823
v 0.0008849665 0.0007881174 0.001693681
v 0.0007096498 0.0004935409 0.00127658
v 0.001208817 -3.951516E-05 0.001276579
v -0.0002996684 0.0004385483 0.0008374624
v 0.0003705285 8.032005E-05 0.0008374624
v -0.001055936 0.000513033 0.0008374623
v -0.001082243 0.0008201529 0.001090651
v -0.002049899 0.0005467457 0.000990917
v -0.00148672 7.565613E-05 0.0006606576
v -0.001078116 -0.0001755387 0.0004722489
v -0.0004765652 -0.0001446024 0.0005118718
v -0.0003615205 -0.0006772123 0.0003869009
v 0.0007621961 -0.000337938 0.0008374624
v 0.001255963 -0.000546673 0.001114347
v -1.606472E-05 -0.0003907451 0.0005118718
v 0.000253055 -0.0006781353 0.0005118714
v 0.0003706152 -0.001039128 0.0005002381
v 0.0009430476 -0.0006762872 0.0008374621
v 0.001149996 -0.001229933 0.0009018321
vt 0.03245122 0.465549
vt 0.03245122 0.465549
vt 0.03245122 0.465549
vt 0.03245122 0.465549
vt 0.03245122 0.465549
vt 0.03245122 0.465549
vt 0.03245122 0.465549
vt 0.03245122 0.465549
vt 0.03245122 0.465549
vt 0.03245122 0.465549
vt 0.03245122 0.465549
vt 0.03245122 0.465549
vt 0.03245122 0.465549
vt 0.03245122 0.465549
vt 0.03245122 0.465549
vt 0.03245122 0.465549
vt 0.03245122 0.465549
vt 0.03245122 0.465549
vt 0.03245122 0.465549
vt 0.03245122 0.465549
vt 0.03245122 0.465549
vt 0.03245122 0.465549
vt 0.03245122 0.465549
vt 0.03245122 0.465549
vt 0.03245122 0.465549
vt 0.03245122 0.465549
vt 0.03245122 0.465549
vt 0.03245122 0.465549
vt 0.03245122 0.465549
vt 0.03245122 0.4655491
vt 0.03245122 0.465549
vt 0.03245122 0.4655491
vt 0.03245122 0.465549
vt 0.03245122 0.465549
vt 0.03245122 0.4655491
vt 0.03245122 0.465549
vt 0.03245122 0.465549
vt 0.03245122 0.465549
vt 0.03245122 0.465549
vt 0.03245122 0.465549
vt 0.03245122 0.465549
vt 0.03245122 0.465549
vt 0.03245122 0.465549
vt 0.03245122 0.465549
vt 0.03245122 0.465549
vt 0.03245122 0.465549
vt 0.03245122 0.465549
vt 0.03245122 0.465549
vt 0.03245122 0.465549
vt 0.03245122 0.465549
vt 0.03245122 0.465549
vt 0.03245122 0.4655491
vt 0.03245122 0.4655491
vt 0.03245122 0.465549
vt 0.03245122 0.465549
vt 0.03245122 0.465549
vt 0.03245122 0.465549
vt 0.03245122 0.465549
vt 0.03245122 0.465549
vt 0.03245122 0.4655491
vt 0.03245123 0.4655491
vt 0.03245122 0.465549
vt 0.03245122 0.465549
vt 0.03245122 0.465549
vt 0.03245122 0.465549
vt 0.03245122 0.465549
vt 0.03245122 0.465549
vt 0.03245122 0.465549
vt 0.03245122 0.465549
vt 0.03245122 0.465549
vt 0.03245122 0.465549
vt 0.03245122 0.465549
vt 0.03245122 0.465549
vt 0.03245123 0.4655491
vt 0.03245122 0.465549
vt 0.03245123 0.4655491
vt 0.03245122 0.465549
vt 0.03245122 0.465549
vt 0.03245122 0.465549
vt 0.03245122 0.4655491
vt 0.03245122 0.465549
vt 0.03245122 0.465549
vt 0.03245122 0.4655491
vt 0.03245123 0.4655491
vt 0.09249434 0.4675177
vt 0.09249434 0.4675177
vt 0.09249434 0.4675177
vt 0.09249434 0.4675177
vt 0.09249434 0.4675177
vt 0.09249434 0.4675177
vt 0.09249434 0.4675177
vt 0.09249434 0.4675177
vt 0.09249434 0.4675177
vt 0.09249434 0.4675177
vt 0.09249434 0.4675177
vt 0.09249434 0.4675177
vt 0.09249434 0.4675177
vt 0.09249434 0.4675177
vt 0.09249434 0.4675177
vt 0.09249434 0.4675177
vt 0.09249434 0.4675177
vt 0.09249434 0.4675177
vt 0.09249434 0.4675177
vt 0.09249434 0.4675177
vt 0.09249434 0.4675177
vt 0.09249434 0.4675177
vt 0.09249434 0.4675177
vt 0.09249434 0.4675177
vt 0.09249434 0.4675177
vt 0.09249434 0.4675177
vt 0.09249434 0.4675177
vt 0.09249434 0.4675177
vt 0.09249434 0.4675177
vt 0.09249434 0.4675177
vt 0.09249434 0.4675177
vt 0.09249434 0.4675177
vt 0.09249434 0.4675177
vt 0.09249434 0.4675177
vt 0.09249434 0.4675177
vt 0.09249434 0.4675177
vt 0.09249434 0.4675177
vt 0.09249434 0.4675177
vt 0.09249434 0.4675177
vt 0.09249434 0.4675177
vt 0.09249434 0.4675177
vt 0.09249434 0.4675177
vt 0.09249434 0.4675177
vt 0.09249434 0.4675177
vt 0.09249434 0.4675177
vt 0.09249434 0.4675177
vt 0.09249434 0.4675177
vt 0.09249434 0.4675177
vt 0.09249434 0.4675177
vt 0.09249434 0.4675177
vt 0.09249434 0.4675177
vt 0.09249434 0.4675177
vt 0.09249434 0.4675177
vt 0.09249434 0.4675177
vt 0.09249434 0.4675177
vt 0.09249434 0.4675177
vt 0.09249434 0.4675177
vt 0.09249434 0.4675177
vt 0.09249434 0.4675177
vt 0.09249434 0.4675177
vt 0.09249434 0.4675177
vt 0.09249434 0.4675177
vt 0.1554904 0.4616118
vt 0.1554904 0.4616118
vt 0.1554904 0.4616118
vt 0.1554904 0.4616118
vt 0.1554904 0.4616118
vt 0.1554904 0.4616118
vt 0.1554904 0.4616118
vt 0.1554904 0.4616118
vt 0.1554904 0.4616118
vt 0.1554904 0.4616118
vt 0.1554904 0.4616118
vt 0.1554904 0.4616118
vt 0.1554904 0.4616118
vt 0.1554904 0.4616118
vt 0.1554904 0.4616118
vt 0.1554904 0.4616118
vt 0.1554904 0.4616118
vt 0.1554904 0.4616118
vt 0.1554904 0.4616118
vt 0.1554904 0.4616118
vn 0.1767367 0.9816194 0.0720253
vn 0.07669336 0.9954876 0.05587964
vn 0.02966429 0.9993691 -0.01953204
vn 0.3945282 0.5904647 -0.7040589
vn 0.218334 0.9708142 0.09924828
vn 0.2717489 0.6560855 -0.7040627
vn -0.06842299 0.9924385 -0.101902
vn 0.214214 0.5171472 -0.8286563
vn 0.1091972 0.5490075 -0.8286536
vn -0.106054 0.9869586 -0.1211
vn 0 0.5597748 -0.8286449
vn -0.1974602 0.9729571 -0.1198495
vn -0.1091972 0.5490075 -0.8286536
vn -0.2880434 0.9501647 -0.1192398
vn -0.214214 0.5171472 -0.8286563
vn -0.3764804 0.918739 -0.1190845
vn -0.312582 0.4646002 -0.8285162
vn -0.4633108 0.8778826 -0.1210999
vn -0.7752258 -0.345145 -0.5290555
vn -0.9873841 0.1481091 0.05600253
vn -0.754401 -0.08893257 -0.6503615
vn -0.6619692 -0.448668 -0.6004113
vn -0.2154969 0.3224976 -0.9217138
vn -0.576624 -0.5237958 -0.6270108
vn -0.1484151 0.3583571 -0.921712
vn -0.5280367 -0.5477213 -0.6489828
vn -0.0756573 0.3804229 -0.9217128
vn -0.07690812 0.1856477 -0.979602
vn -0.450311 -0.6363561 -0.6263154
vn -0.4389666 -0.6382306 -0.6324319
vn -0.0391865 0.1970922 -0.9796015
vn -0.4262578 -0.6419045 -0.6373876
vn 0 0.38787 -0.9217141
vn 0 0.2009674 -0.9795979
vn -0.4126147 -0.647213 -0.6409871
vn 0.0756573 0.3804229 -0.9217128
vn 0.0391865 0.1970922 -0.9796015
vn -0.3985812 -0.6539661 -0.6430097
vn 0.1484151 0.3583571 -0.921712
vn 0.07690812 0.1856477 -0.979602
vn -0.3846958 -0.6618721 -0.6433774
vn 0.3109904 0.4654174 -0.8286566
vn 0.1116387 0.1670918 -0.9796005
vn -0.371516 -0.6706394 -0.6420425
vn 0.2154969 0.3224976 -0.9217138
vn 0.5021433 0.5021433 -0.7040626
vn 0.1420967 0.1420967 -0.9796005
vn -0.3595735 -0.6798996 -0.6390958
vn 0.3958047 0.3958047 -0.8286599
vn 0.2742754 0.2742754 -0.9217083
vn 0.9408315 0.3383306 0.01919628
vn 0.5863384 0.6436539 0.4918504
vn 0.95502 0.2965192 -0.003631719
vn 0.9368812 0.2212954 -0.2707061
vn 0.1670918 0.1116387 -0.9796005
vn -0.3493863 -0.689281 -0.6346818
vn 0.4654174 0.3109904 -0.8286566
vn 0.3224976 0.2154969 -0.9217138
vn 0.5171472 0.214214 -0.8286563
vn 0.9918489 0.08292112 -0.09674639
vn 0.9917482 0.05752847 -0.1145686
vn 0.3583571 0.1484151 -0.921712
vn 0.5490075 0.1091972 -0.8286536
vn 0.1856477 0.07690812 -0.979602
vn -0.3411176 -0.6985328 -0.6290396
vn 0.3803841 0.07535047 -0.9217538
vn 0.19749 0.03857632 -0.9795456
vn -0.2205326 -0.7230026 -0.6547004
vn 0.3878332 -0.0001831129 -0.9217296
vn 0.5597748 0 -0.8286449
vn 0.3804229 -0.0756573 -0.9217128
vn -0.1770111 -0.7700898 -0.6128857
vn -0.08273779 -0.8072047 -0.5844443
vn 0.06116077 -0.8595468 -0.5073841
vn 0.5490075 -0.1091972 -0.8286536
vn 0.5285565 -0.8486385 -0.02099699
vn 0.9738088 -0.1752111 -0.1449055
vn 0.985852 -0.08420164 -0.1449342
vn 0.9913953 -0.05893133 -0.1168861
vn 0.9929124 -0.03573801 -0.1133484
vn 0.5171472 0.214214 -0.8286563
vn 0.5490075 0.1091972 -0.8286536
vn 0.9929124 -0.03573801 -0.1133484
vn 0.9917482 0.05752847 -0.1145686
vn 0.7403125 -0.1910968 0.6445304
vn 0.7403125 -0.1910968 0.6445304
vn 0.7403125 -0.1910968 0.6445304
vn 0.7403125 -0.1910968 0.6445304
vn 0.7403125 -0.1910968 0.6445304
vn 0.7403125 -0.1910968 0.6445304
vn 0.7403125 -0.1910968 0.6445304
vn 0.7403125 -0.1910968 0.6445304
vn 0.7403125 -0.1910968 0.6445304
vn -0.5006987 -0.8293277 0.2480251
vn -0.5006987 -0.8293277 0.2480251
vn -0.5006987 -0.8293277 0.2480251
vn -0.5006987 -0.8293277 0.2480251
vn -0.5006987 -0.8293277 0.2480251
vn -0.4883328 -0.8285925 0.2737982
vn -0.4883328 -0.8285925 0.2737982
vn -0.4883328 -0.8285925 0.2737982
vn -0.4883328 -0.8285925 0.2737982
vn -0.4883328 -0.8285925 0.2737982
vn -0.4883328 -0.8285925 0.2737982
vn -0.4883328 -0.8285925 0.2737982
vn -0.4883328 -0.8285925 0.2737982
vn -0.4883328 -0.8285925 0.2737982
vn -0.4883328 -0.8285925 0.2737982
vn -0.4883328 -0.8285925 0.2737982
vn -0.4883328 -0.8285925 0.2737982
vn -0.4883328 -0.8285925 0.2737982
vn -0.4883328 -0.8285925 0.2737982
vn -0.4883328 -0.8285925 0.2737982
vn -0.4883328 -0.8285925 0.2737982
vn -0.4883328 -0.8285925 0.2737982
vn -0.4883328 -0.8285925 0.2737982
vn -0.4883328 -0.8285925 0.2737982
vn -0.4883328 -0.8285925 0.2737982
vn -0.4883328 -0.8285925 0.2737982
vn -0.4883328 -0.8285925 0.2737982
vn -0.291688 0.7183886 0.6315345
vn -0.291688 0.7183886 0.6315345
vn -0.291688 0.7183886 0.6315345
vn -0.291688 0.7183886 0.6315345
vn -0.291688 0.7183886 0.6315345
vn -0.291688 0.7183886 0.6315345
vn -0.291688 0.7183886 0.6315345
vn -0.291688 0.7183886 0.6315345
vn -0.291688 0.7183886 0.6315345
vn -0.291688 0.7183886 0.6315345
vn -0.291688 0.7183886 0.6315345
vn -0.291688 0.7183886 0.6315345
vn -0.2457603 0.6167119 0.7478423
vn -0.2457603 0.6167119 0.7478423
vn -0.2457603 0.6167119 0.7478423
vn -0.2457603 0.6167119 0.7478423
vn -0.2457603 0.6167119 0.7478423
vn -0.2457603 0.6167119 0.7478423
vn 0.7963457 -0.1310869 0.5904657
vn 0.7963457 -0.1310869 0.5904657
vn 0.7963457 -0.1310869 0.5904657
vn 0.7963457 -0.1310869 0.5904657
vn 0.7963457 -0.1310869 0.5904657
vn 0.7963457 -0.1310869 0.5904657
vn 0.7963457 -0.1310869 0.5904657
vn 0.7963457 -0.1310869 0.5904657
vn -0.3450763 0.1133164 0.9317091
vn 0.02615467 -0.1047713 0.9941524
vn -0.438412 -0.5616496 0.7016727
vn 0.1656293 -0.3744131 0.9123496
vn -0.161874 -0.5458059 0.822127
vn -0.3419371 -0.4483881 0.8258495
vn 0.0224319 -0.560645 0.8277525
vn -0.1986463 0.02655128 0.9797116
vn -0.4677998 -0.1580595 0.8695864
vn -0.2176016 -0.7384111 0.6382778
vn -0.2858757 -0.7130565 0.6401761
vn -0.1098087 -0.366507 0.9239127
vn -0.358818 -0.5943981 0.7196808
vn -0.4558005 -0.3195944 0.8307257
vn 0.1428296 -0.2659133 0.9533572
vn -0.2350568 -0.3037854 0.9232891
vn -0.3058029 -0.2006336 0.9307152
vn -0.4882785 -0.5431217 0.6830833
vn -0.5217525 -0.1829003 0.8332598
vn 0.02758892 -0.5167124 0.8557143
g BombGib_cell.003_0
f 3/3/3 2/2/2 1/1/1
f 3/3/3 1/1/1 4/4/4
f 4/4/4 1/1/1 5/5/5
f 4/4/4 6/6/6 3/3/3
f 3/3/3 6/6/6 7/7/7
f 7/7/7 6/6/6 8/8/8
f 6/6/6 4/4/4 8/8/8
f 8/8/8 9/9/9 7/7/7
f 9/9/9 10/10/10 7/7/7
f 10/10/10 9/9/9 11/11/11
f 12/12/12 10/10/10 11/11/11
f 12/12/12 11/11/11 13/13/13
f 14/14/14 12/12/12 13/13/13
f 14/14/14 13/13/13 15/15/15
f 16/16/16 14/14/14 15/15/15
f 16/16/16 15/15/15 17/17/17
f 18/18/18 16/16/16 17/17/17
f 18/18/18 17/17/17 19/19/19
f 20/20/20 18/18/18 19/19/19
f 21/21/21 20/20/20 19/19/19
f 19/19/19 17/17/17 22/22/22
f 17/17/17 23/23/23 22/22/22
f 17/17/17 15/15/15 23/23/23
f 22/22/22 23/23/23 24/24/24
f 15/15/15 25/25/25 23/23/23
f 24/24/24 23/23/23 25/25/25
f 15/15/15 13/13/13 25/25/25
f 26/26/26 24/24/24 25/25/25
f 13/13/13 11/11/11 27/27/27
f 13/13/13 27/27/27 25/25/25
f 25/25/25 28/28/28 26/26/26
f 25/25/25 27/27/27 28/28/28
f 26/26/26 28/28/28 29/29/29
f 29/29/29 28/28/28 30/30/30
f 28/28/28 31/31/31 30/30/30
f 27/27/27 31/31/31 28/28/28
f 30/30/30 31/31/31 32/32/32
f 11/11/11 33/33/33 27/27/27
f 27/27/27 33/33/33 31/31/31
f 11/11/11 9/9/9 33/33/33
f 31/31/31 34/34/34 32/32/32
f 33/33/33 34/34/34 31/31/31
f 32/32/32 34/34/34 35/35/35
f 9/9/9 36/36/36 33/33/33
f 33/33/33 36/36/36 34/34/34
f 9/9/9 8/8/8 36/36/36
f 34/34/34 37/37/37 35/35/35
f 36/36/36 37/37/37 34/34/34
f 35/35/35 37/37/37 38/38/38
f 8/8/8 39/39/39 36/36/36
f 36/36/36 39/39/39 37/37/37
f 37/37/37 40/40/40 38/38/38
f 39/39/39 40/40/40 37/37/37
f 38/38/38 40/40/40 41/41/41
f 8/8/8 42/42/42 39/39/39
f 4/4/4 42/42/42 8/8/8
f 40/40/40 43/43/43 41/41/41
f 41/41/41 43/43/43 44/44/44
f 39/39/39 45/45/45 40/40/40
f 42/42/42 45/45/45 39/39/39
f 45/45/45 43/43/43 40/40/40
f 4/4/4 46/46/46 42/42/42
f 46/46/46 4/4/4 5/5/5
f 43/43/43 47/47/47 44/44/44
f 44/44/44 47/47/47 48/48/48
f 42/42/42 49/49/49 45/45/45
f 46/46/46 49/49/49 42/42/42
f 45/45/45 50/50/50 43/43/43
f 50/50/50 47/47/47 43/43/43
f 49/49/49 50/50/50 45/45/45
f 46/46/46 5/5/5 51/51/51
f 52/52/52 51/51/51 5/5/5
f 51/51/51 53/53/53 46/46/46
f 53/53/53 54/54/54 46/46/46
f 46/46/46 54/54/54 49/49/49
f 47/47/47 55/55/55 48/48/48
f 48/48/48 55/55/55 56/56/56
f 49/49/49 57/57/57 50/50/50
f 54/54/54 57/57/57 49/49/49
f 50/50/50 58/58/58 47/47/47
f 57/57/57 58/58/58 50/50/50
f 58/58/58 55/55/55 47/47/47
f 59/59/59 57/57/57 54/54/54
f 57/57/57 59/59/59 58/58/58
f 59/59/59 54/54/54 60/60/60
f 60/60/60 61/61/61 59/59/59
f 59/59/59 62/62/62 58/58/58
f 58/58/58 62/62/62 55/55/55
f 59/59/59 63/63/63 62/62/62
f 55/55/55 64/64/64 56/56/56
f 62/62/62 64/64/64 55/55/55
f 56/56/56 64/64/64 65/65/65
f 62/62/62 66/66/66 64/64/64
f 63/63/63 66/66/66 62/62/62
f 64/64/64 67/67/67 65/65/65
f 66/66/66 67/67/67 64/64/64
f 65/65/65 67/67/67 68/68/68
f 66/66/66 69/69/69 67/67/67
f 69/69/69 68/68/68 67/67/67
f 63/63/63 70/70/70 66/66/66
f 70/70/70 69/69/69 66/66/66
f 69/69/69 71/71/71 68/68/68
f 71/71/71 72/72/72 68/68/68
f 72/72/72 71/71/71 73/73/73
f 74/74/74 73/73/73 71/71/71
f 75/75/75 71/71/71 69/69/69
f 75/75/75 74/74/74 71/71/71
f 70/70/70 75/75/75 69/69/69
f 76/76/76 74/74/74 75/75/75
f 77/77/77 76/76/76 75/75/75
f 77/77/77 75/75/75 70/70/70
f 78/78/78 77/77/77 70/70/70
f 78/78/78 70/70/70 63/63/63
f 79/79/79 78/78/78 63/63/63
f 63/63/63 80/80/80 79/79/79
f 83/83/83 82/82/82 81/81/81
f 84/84/84 83/83/83 81/81/81
f 87/87/87 86/86/86 85/85/85
f 85/85/85 88/88/88 87/87/87
f 88/88/88 89/89/89 87/87/87
f 89/89/89 90/90/90 87/87/87
f 90/90/90 91/91/91 87/87/87
f 91/91/91 92/92/92 87/87/87
f 91/91/91 93/93/93 92/92/92
f 96/96/96 95/95/95 94/94/94
f 97/97/97 96/96/96 94/94/94
f 94/94/94 98/98/98 97/97/97
f 99/99/99 97/97/97 98/98/98
f 99/99/99 100/100/100 97/97/97
f 101/101/101 100/100/100 99/99/99
f 99/99/99 102/102/102 101/101/101
f 103/103/103 99/99/99 98/98/98
f 103/103/103 98/98/98 104/104/104
f 103/103/103 104/104/104 105/105/105
f 106/106/106 103/103/103 105/105/105
f 107/107/107 106/106/106 105/105/105
f 107/107/107 105/105/105 108/108/108
f 107/107/107 108/108/108 109/109/109
f 110/110/110 107/107/107 109/109/109
f 110/110/110 109/109/109 111/111/111
f 112/112/112 110/110/110 111/111/111
f 112/112/112 111/111/111 113/113/113
f 114/114/114 112/112/112 113/113/113
f 114/114/114 113/113/113 115/115/115
f 116/116/116 114/114/114 115/115/115
f 116/116/116 115/115/115 117/117/117
f 118/118/118 116/116/116 117/117/117
f 118/118/118 117/117/117 119/119/119
f 119/119/119 120/120/120 118/118/118
f 123/123/123 122/122/122 121/121/121
f 121/121/121 124/124/124 123/123/123
f 124/124/124 125/125/125 123/123/123
f 124/124/124 126/126/126 125/125/125
f 126/126/126 127/127/127 125/125/125
f 126/126/126 128/128/128 127/127/127
f 126/126/126 129/129/129 128/128/128
f 126/126/126 130/130/130 129/129/129
f 126/126/126 131/131/131 130/130/130
f 131/131/131 132/132/132 130/130/130
f 135/135/135 134/134/134 133/133/133
f 133/133/133 136/136/136 135/135/135
f 136/136/136 137/137/137 135/135/135
f 137/137/137 138/138/138 135/135/135
f 141/141/141 140/140/140 139/139/139
f 139/139/139 142/142/142 141/141/141
f 142/142/142 143/143/143 141/141/141
f 143/143/143 144/144/144 141/141/141
f 143/143/143 145/145/145 144/144/144
f 143/143/143 146/146/146 145/145/145
f 149/149/149 148/148/148 147/147/147
f 150/150/150 148/148/148 149/149/149
f 149/149/149 147/147/147 151/151/151
f 150/150/150 149/149/149 152/152/152
f 152/152/152 149/149/149 151/151/151
f 151/151/151 147/147/147 153/153/153
f 147/147/147 154/154/154 153/153/153
f 153/153/153 154/154/154 155/155/155
f 153/153/153 155/155/155 156/156/156
f 157/157/157 153/153/153 156/156/156
f 151/151/151 153/153/153 157/157/157
f 158/158/158 151/151/151 157/157/157
f 152/152/152 151/151/151 158/158/158
f 159/159/159 158/158/158 157/157/157
f 160/160/160 150/150/150 152/152/152
f 161/161/161 150/150/150 160/160/160
f 162/162/162 152/152/152 158/158/158
f 162/162/162 158/158/158 159/159/159
f 160/160/160 152/152/152 162/162/162
f 163/163/163 162/162/162 159/159/159
f 163/163/163 160/160/160 162/162/162
f 164/164/164 163/163/163 159/159/159
f 165/165/165 161/161/161 160/160/160
f 165/165/165 160/160/160 163/163/163
f 164/164/164 165/165/165 163/163/163
f 166/166/166 161/161/161 165/165/165
f 164/164/164 166/166/166 165/165/165
