g BoomerangPiece
v -0.1742498 0.008706391 -0.02851059
v -0.2369679 0.02720705 -0.008075327
v -0.2272212 0.008706376 0.01675263
v -0.1905108 0.008706355 0.08219955
v -0.1829388 0.02720706 -0.05424225
v -0.1350517 0.008706367 0.0444533
v -0.1829388 0.04729744 -0.05424225
v -0.2369679 0.04729743 -0.008075321
v -0.1280766 0.02720702 0.07145479
v -0.1828315 0.02720701 0.1087217
v -0.2272212 0.06579809 0.01675265
v -0.1742498 0.0657981 -0.02851057
v -0.1828315 0.04729739 0.1087217
v -0.1280766 0.0472974 0.07145479
v -0.1350517 0.06579807 0.04445333
v -0.1905108 0.06579806 0.08219957
v 0.1693617 0.02720706 -0.05996214
v 0.2326433 0.02720704 -0.00292513
v 0.2326433 0.04729743 -0.002925124
v 0.2222722 0.008706374 0.0213053
v 0.1693617 0.04729745 -0.05996214
v 0.1603796 0.008706393 -0.03447978
v 0.1603796 0.0657981 -0.03447976
v 0.2222722 0.06579809 0.02130532
v 0.1399313 0.008706365 0.05001224
v 0.2071351 0.00870635 0.09742069
v 0.2071375 0.06579806 0.09741282
v 0.1401378 0.06579807 0.05016271
v 0.199166 0.027207 0.1237136
v 0.1330508 0.02720702 0.07709201
v 0.1330508 0.0472974 0.07709201
v 0.199166 0.04729739 0.1237136
vt 0.03182665 0.9628906
vt 0.03182665 0.9628906
vt 0.03182665 0.9628906
vt 0.03182665 0.9628906
vt 0.03182665 0.9628906
vt 0.03182665 0.9628906
vt 0.03182665 0.9628906
vt 0.03182665 0.9628906
vt 0.03182665 0.9628906
vt 0.03182665 0.9628906
vt 0.03182665 0.9628906
vt 0.03182665 0.9628906
vt 0.03182665 0.9628906
vt 0.03182665 0.9628906
vt 0.03182665 0.9628906
vt 0.03182665 0.9628906
vt 0.03182665 0.9628906
vt 0.03182665 0.9628906
vt 0.03182665 0.9628906
vt 0.03182665 0.9628906
vt 0.03182665 0.9628906
vt 0.03182665 0.9628906
vt 0.03182665 0.9628906
vt 0.03182665 0.9628906
vt 0.03182665 0.9628906
vt 0.03182665 0.9628906
vt 0.03182665 0.9628906
vt 0.03182665 0.9628906
vt 0.03182665 0.9628906
vt 0.03182665 0.9628906
vt 0.03182665 0.9628906
vt 0.03182665 0.9628906
vn -0.2347848 -0.9324047 -0.2747682
vn -0.5672251 -0.487438 -0.6638222
vn -0.1711581 -0.964667 -0.2003061
vn 0.1877403 -0.942691 0.2758393
vn -0.5950333 -0.4012602 -0.696366
vn 0.147499 -0.9650279 0.2167144
vn -0.5950333 0.4012606 -0.6963657
vn -0.5672253 0.4874383 -0.6638219
vn 0.4878426 -0.4982498 0.7167682
vn 0.5110927 -0.4181989 0.7509287
vn -0.1711581 0.9646671 -0.2003055
vn -0.2347849 0.9324049 -0.2747677
vn 0.5110926 0.4181987 0.7509289
vn 0.4878425 0.4982496 0.7167684
vn 0.1474991 0.9650277 0.2167152
vn 0.1877403 0.9426907 0.27584
vn 0.6143597 -0.3974336 -0.6816221
vn 0.5856745 -0.4845104 -0.6497962
vn 0.5856744 0.4845106 -0.649796
vn 0.159982 -0.9710306 -0.1774977
vn 0.6143597 0.3974341 -0.6816218
vn 0.2668704 -0.9171214 -0.2960886
vn 0.2671053 0.9169691 -0.2963487
vn 0.1599814 0.9710308 -0.1774966
vn -0.1376797 -0.9710503 0.1952066
vn -0.2143447 -0.928277 0.303905
vn -0.2142938 0.928297 0.3038796
vn -0.138036 0.9708919 0.1957423
vn -0.5239413 -0.4165207 0.7429643
vn -0.4994749 -0.4988942 0.708258
vn -0.4997322 0.4980545 0.7086673
vn -0.5239201 0.4165353 0.7429712
g BoomerangPiece_0
f 3/3/3 2/2/2 1/1/1
f 4/4/4 3/3/3 1/1/1
f 2/2/2 5/5/5 1/1/1
f 6/6/6 4/4/4 1/1/1
f 7/7/7 5/5/5 2/2/2
f 8/8/8 7/7/7 2/2/2
f 6/6/6 9/9/9 4/4/4
f 9/9/9 10/10/10 4/4/4
f 8/8/8 11/11/11 7/7/7
f 11/11/11 12/12/12 7/7/7
f 13/13/13 10/10/10 9/9/9
f 14/14/14 13/13/13 9/9/9
f 12/12/12 11/11/11 15/15/15
f 14/14/14 15/15/15 13/13/13
f 11/11/11 16/16/16 15/15/15
f 15/15/15 16/16/16 13/13/13
f 19/19/19 18/18/18 17/17/17
f 17/17/17 18/18/18 20/20/20
f 21/21/21 19/19/19 17/17/17
f 22/22/22 17/17/17 20/20/20
f 21/21/21 23/23/23 19/19/19
f 23/23/23 24/24/24 19/19/19
f 22/22/22 20/20/20 25/25/25
f 20/20/20 26/26/26 25/25/25
f 27/27/27 24/24/24 23/23/23
f 28/28/28 27/27/27 23/23/23
f 26/26/26 29/29/29 25/25/25
f 29/29/29 30/30/30 25/25/25
f 27/27/27 28/28/28 31/31/31
f 31/31/31 30/30/30 29/29/29
f 32/32/32 27/27/27 31/31/31
f 32/32/32 31/31/31 29/29/29
