g BoxWallA
v -0.004765516 0.01176987 -3.419564E-05
v -0.004686025 0.01186642 -7.573154E-05
v -0.004686025 0.01178642 4.268438E-06
v 0.004765517 8.524521E-05 -3.419755E-05
v 0.004686025 -1.130131E-05 -7.573348E-05
v 0.004686025 6.869872E-05 4.266529E-06
v -0.004686025 -1.130176E-05 -0.001050249
v -0.004686025 -1.130131E-05 -7.573348E-05
v 0.004686025 -1.130131E-05 -7.573348E-05
v 0.004686025 -1.130176E-05 -0.001050247
v -0.004685602 0.01178642 -0.001130247
v -0.004681077 0.01092796 -0.001130247
v 0.004681078 0.01092796 -0.001130245
v 0.004685603 0.01178642 -0.001130245
v -0.004765516 8.52452E-05 -3.419755E-05
v -0.004761166 0.0009106135 -0.001050248
v -0.004761166 0.0009106135 -0.0003630238
v -0.004765516 8.524473E-05 -0.001050249
v -0.004686025 -1.130176E-05 -0.001050249
v -0.004686025 -1.130131E-05 -7.573348E-05
v -0.004681077 0.00092716 -0.001130248
v -0.004685602 6.869821E-05 -0.001130249
v -0.004680657 0.00100716 -0.001050248
v 0.004686025 0.01186642 -0.001050245
v 0.004686025 0.01186642 -7.573154E-05
v -0.004686025 0.01186642 -7.573154E-05
v -0.004686025 0.01186642 -0.001050247
v 0.004685603 0.01178642 -0.001130245
v 0.004765517 0.01176987 -0.001050245
v -0.004685602 0.01178642 -0.001130247
v -0.004765516 0.01176987 -0.001050247
v -0.004680657 0.00108716 -0.0004014879
v 0.004680658 0.00108716 -0.0004014879
v 0.004680658 0.01076796 -0.0004014863
v -0.004680657 0.01076796 -0.0004014863
v -0.004761166 0.01094451 -0.0003630222
v -0.004765516 0.01176987 -3.419564E-05
v -0.004765516 8.52452E-05 -3.419755E-05
v -0.004761166 0.0009106135 -0.0003630238
v -0.004680657 0.01076796 -0.0004014863
v -0.004680657 0.00108716 -0.0004014879
v 0.004685603 6.86982E-05 -0.001130247
v 0.004686025 -1.130176E-05 -0.001050247
v 0.004765517 8.524473E-05 -0.001050247
v -0.004685602 6.869821E-05 -0.001130249
v -0.004686025 -1.130176E-05 -0.001050249
v -0.004765516 8.524473E-05 -0.001050249
v -0.004681077 0.00092716 -0.001130248
v 0.004681078 0.00092716 -0.001130247
v -0.004680657 0.01084796 -0.001050247
v -0.004681077 0.01092796 -0.001130247
v -0.004761166 0.01094451 -0.001050247
v 0.004680658 0.01084796 -0.001050245
v 0.004681078 0.01092796 -0.001130245
v 0.004680658 0.01084796 -0.0004814863
v -0.004680657 0.01084796 -0.0004814863
v 0.004680658 0.01076796 -0.0004014863
v -0.004680657 0.01076796 -0.0004014863
v 0.004761166 0.01094451 -0.0003630222
v 0.004680658 0.00100716 -0.001050247
v 0.004681078 0.00092716 -0.001130247
v 0.004761166 0.0009106135 -0.001050247
v -0.004680657 0.00100716 -0.001050248
v -0.004681077 0.00092716 -0.001130248
v -0.004680657 0.00100716 -0.0004814879
v -0.004761166 0.0009106135 -0.001050248
v -0.004761166 0.0009106135 -0.0003630238
v 0.004680658 0.00100716 -0.0004814879
v -0.004680657 0.00108716 -0.0004014879
v 0.004680658 0.00108716 -0.0004014879
v -0.004761166 0.01094451 -0.0003630222
v -0.004680657 0.01076796 -0.0004014863
v -0.004680657 0.01084796 -0.0004814863
v -0.004680657 0.01084796 -0.001050247
v -0.004761166 0.01094451 -0.001050247
v -0.004765516 0.01176987 -0.001050247
v -0.004765516 0.01176987 -3.419564E-05
v -0.004686025 0.01186642 -7.573154E-05
v -0.004686025 0.01186642 -0.001050247
v -0.004685602 0.01178642 -0.001130247
v -0.004681077 0.01092796 -0.001130247
v 0.004761167 0.0009106135 -0.0003630238
v 0.004680658 0.00108716 -0.0004014879
v 0.004680658 0.00100716 -0.0004814879
v 0.004680658 0.00100716 -0.001050247
v 0.004761166 0.0009106135 -0.001050247
v 0.004765517 8.524473E-05 -0.001050247
v 0.004765517 8.524521E-05 -3.419755E-05
v 0.004685603 6.86982E-05 -0.001130247
v 0.004681078 0.00092716 -0.001130247
v 0.004686025 -1.130131E-05 -7.573348E-05
v 0.004686025 -1.130176E-05 -0.001050247
v 0.004761167 0.0009106135 -0.0003630238
v 0.004765517 0.01176987 -3.419564E-05
v 0.004761166 0.01094451 -0.0003630222
v 0.004680658 0.00108716 -0.0004014879
v 0.004680658 0.01076796 -0.0004014863
v 0.004761166 0.01094451 -0.001050245
v 0.004680658 0.01084796 -0.0004814863
v 0.004680658 0.01084796 -0.001050245
v 0.004681078 0.01092796 -0.001130245
v 0.004765517 0.01176987 -3.419564E-05
v 0.004765517 0.01176987 -0.001050245
v 0.004685603 0.01178642 -0.001130245
v 0.004686025 0.01186642 -0.001050245
v 0.004686025 0.01186642 -7.573154E-05
v 0.004686025 6.869872E-05 4.266529E-06
v 0.004686025 -1.130131E-05 -7.573348E-05
v -0.004686025 -1.130131E-05 -7.573348E-05
v -0.004686025 6.869872E-05 4.266529E-06
v -0.004765516 8.52452E-05 -3.419755E-05
v -0.004765516 0.01176987 -3.419564E-05
v -0.004686025 0.01178642 4.268438E-06
v 0.004686025 0.01178642 4.268438E-06
v 0.004765517 8.524521E-05 -3.419755E-05
v 0.004765517 0.01176987 -3.419564E-05
v 0.004686025 0.01186642 -7.573154E-05
v -0.004686025 0.01186642 -7.573154E-05
vt 0.6338316 0.7004832
vt 0.6344489 0.7022496
vt 0.6346995 0.7006604
vt 0.602695 0.7042138
vt 0.60351 0.706258
vt 0.6038406 0.7047063
vt 0.3737357 0.634928
vt 0.4027588 0.634928
vt 0.4027588 0.3608052
vt 0.3737356 0.3608053
vt 0.9557801 0.5742441
vt 0.9813468 0.5741094
vt 0.9813468 0.2954423
vt 0.9557802 0.2953077
vt 0.6325854 0.3597588
vt 0.6061502 0.3813348
vt 0.6262819 0.3813348
vt 0.6059765 0.3597588
vt 0.6059198 0.357235
vt 0.6312439 0.357235
vt 0.6038406 0.3817783
vt 0.6038409 0.3593373
vt 0.6062231 0.3838586
vt 0.4365471 0.3614153
vt 0.407524 0.3614153
vt 0.407524 0.6349332
vt 0.4365472 0.6349332
vt 0.4389297 0.3614277
vt 0.4365471 0.3590806
vt 0.4389297 0.6349208
vt 0.4365472 0.6372679
vt 0.9188119 0.2952951
vt 0.6400117 0.2952951
vt 0.6400117 0.5834468
vt 0.9188118 0.5834468
vt 0.6264123 0.6792558
vt 0.6338316 0.7004832
vt 0.6338316 0.3628001
vt 0.6264124 0.3816532
vt 0.6255445 0.6743915
vt 0.6255445 0.3862398
vt 0.9330921 0.2813303
vt 0.9307094 0.2813429
vt 0.9335848 0.283709
vt 0.9330921 0.002393807
vt 0.9307094 0.002381209
vt 0.9335847 1.514704E-05
vt 0.9586588 0.002528494
vt 0.9586588 0.2811956
vt 0.3325502 0.9881091
vt 0.3301677 0.9881217
vt 0.3325502 0.9904904
vt 0.3325502 0.7094671
vt 0.3301676 0.7094546
vt 0.3494891 0.7094671
vt 0.3494891 0.9881091
vt 0.3518716 0.7094671
vt 0.3518717 0.9881092
vt 0.3518716 0.7070858
vt 0.9803628 0.002381218
vt 0.9827454 0.002368701
vt 0.9803628 0
vt 0.9803628 0.2810234
vt 0.9827454 0.2810359
vt 0.963424 0.2810234
vt 0.9803628 0.2834045
vt 0.9610414 0.2834046
vt 0.963424 0.002381218
vt 0.9610414 0.2810233
vt 0.9610414 0.00238123
vt 0.62669 0.6796464
vt 0.6255445 0.6767727
vt 0.6231619 0.6767727
vt 0.6062231 0.6767727
vt 0.6062232 0.6796466
vt 0.6062234 0.7042138
vt 0.6364836 0.7042139
vt 0.6352466 0.7070876
vt 0.6062236 0.7070876
vt 0.6038409 0.7046938
vt 0.6038406 0.6791415
vt 0.5929016 0.6796464
vt 0.5917561 0.6767727
vt 0.5893735 0.6767727
vt 0.5724347 0.6767727
vt 0.5724347 0.6796464
vt 0.5724349 0.7042137
vt 0.602695 0.7042138
vt 0.5700524 0.7046937
vt 0.5700521 0.6791414
vt 0.601458 0.7070875
vt 0.572435 0.7070875
vt 0.5929016 0.6796464
vt 0.602695 0.3564175
vt 0.5929017 0.3814514
vt 0.5917561 0.6743915
vt 0.5917561 0.3862398
vt 0.5724348 0.3814514
vt 0.5893735 0.3838586
vt 0.5724347 0.3838586
vt 0.5700521 0.3818745
vt 0.602695 0.3608726
vt 0.5724348 0.3608725
vt 0.5700523 0.3604705
vt 0.5724349 0.3584653
vt 0.601458 0.3584654
vt 0.3561267 0.3511626
vt 0.3561267 0.3535438
vt 0.6352466 0.3535437
vt 0.6352465 0.3511625
vt 0.6376292 0.35067
vt 0.6376292 0.002873731
vt 0.6352466 0.002381228
vt 0.3561267 0.002381259
vt 0.3537441 0.35067
vt 0.3537441 0.002873757
vt 0.3561267 3.134398E-08
vt 0.6352466 2.652869E-10
vn -0.8176166 0.311967 0.4839211
vn -0.3595974 0.8771836 0.3181802
vn -0.2274143 0.3731813 0.8994545
vn 0.8176166 -0.3119669 0.4839212
vn 0.359597 -0.8771838 0.3181801
vn 0.2274141 -0.3731824 0.8994542
vn -0.3805881 -0.8613539 -0.336485
vn -0.3595972 -0.8771837 0.3181801
vn 0.359597 -0.8771838 0.3181801
vn 0.3805879 -0.8613539 -0.3364849
vn -0.3552852 0.347984 -0.8675711
vn -0.354165 -0.3505439 -0.8669984
vn 0.3541643 -0.3505431 -0.866999
vn 0.3552853 0.3479842 -0.867571
vn -0.8176166 -0.3119669 0.4839211
vn -0.8931368 0.2989739 -0.3360375
vn -0.9870908 0.119064 -0.1071235
vn -0.8954549 -0.2917091 -0.3362532
vn -0.3805881 -0.8613539 -0.336485
vn -0.3595972 -0.8771837 0.3181801
vn -0.3541624 0.3505411 -0.8670005
vn -0.3552843 -0.3479817 -0.8675724
vn -0.3776639 0.8627709 -0.3361491
vn 0.3805882 0.8613549 -0.3364824
vn 0.3595983 0.877183 0.3181809
vn -0.3595974 0.8771836 0.3181802
vn -0.3805879 0.861355 -0.3364823
vn 0.3552853 0.3479842 -0.867571
vn 0.8954553 0.2917092 -0.3362523
vn -0.3552852 0.347984 -0.8675711
vn -0.8954551 0.2917095 -0.3362525
vn -0.3469366 0.242939 -0.9058784
vn 0.3469364 0.2429392 -0.9058784
vn 0.3469356 -0.2429383 -0.905879
vn -0.3469357 -0.2429381 -0.905879
vn -0.9870907 -0.1190642 -0.1071241
vn -0.8176166 0.311967 0.4839211
vn -0.8176166 -0.3119669 0.4839211
vn -0.9870908 0.119064 -0.1071235
vn -0.3469357 -0.2429381 -0.905879
vn -0.3469366 0.242939 -0.9058784
vn 0.3552845 -0.3479818 -0.8675722
vn 0.3805879 -0.8613539 -0.3364849
vn 0.8954549 -0.2917091 -0.3362531
vn -0.3552843 -0.3479817 -0.8675724
vn -0.3805881 -0.8613539 -0.336485
vn -0.8954549 -0.2917091 -0.3362532
vn -0.3541624 0.3505411 -0.8670005
vn 0.3541629 0.350541 -0.8670004
vn -0.3776649 -0.8627722 -0.3361449
vn -0.354165 -0.3505439 -0.8669984
vn -0.8931375 -0.2989752 -0.3360347
vn 0.3776655 -0.8627714 -0.3361462
vn 0.3541643 -0.3505431 -0.866999
vn 0.5318647 -0.8009206 -0.2750384
vn -0.5318635 -0.8009215 -0.2750384
vn 0.3469356 -0.2429383 -0.905879
vn -0.3469357 -0.2429381 -0.905879
vn 0.9870908 -0.1190638 -0.1071239
vn 0.3776646 0.8627707 -0.3361492
vn 0.3541629 0.350541 -0.8670004
vn 0.8931371 0.2989733 -0.3360373
vn -0.3776639 0.8627709 -0.3361491
vn -0.3541624 0.3505411 -0.8670005
vn -0.5318642 0.8009217 -0.2750361
vn -0.8931368 0.2989739 -0.3360375
vn -0.9870908 0.119064 -0.1071235
vn 0.5318647 0.8009213 -0.2750365
vn -0.3469366 0.242939 -0.9058784
vn 0.3469364 0.2429392 -0.9058784
vn -0.9870907 -0.1190642 -0.1071241
vn -0.3469357 -0.2429381 -0.905879
vn -0.5318635 -0.8009215 -0.2750384
vn -0.3776649 -0.8627722 -0.3361449
vn -0.8931375 -0.2989752 -0.3360347
vn -0.8954551 0.2917095 -0.3362525
vn -0.8176166 0.311967 0.4839211
vn -0.3595974 0.8771836 0.3181802
vn -0.3805879 0.861355 -0.3364823
vn -0.3552852 0.347984 -0.8675711
vn -0.354165 -0.3505439 -0.8669984
vn 0.9870908 0.119064 -0.1071236
vn 0.3469364 0.2429392 -0.9058784
vn 0.5318647 0.8009213 -0.2750365
vn 0.3776646 0.8627707 -0.3361492
vn 0.8931371 0.2989733 -0.3360373
vn 0.8954549 -0.2917091 -0.3362531
vn 0.8176166 -0.3119669 0.4839212
vn 0.3552845 -0.3479818 -0.8675722
vn 0.3541629 0.350541 -0.8670004
vn 0.359597 -0.8771838 0.3181801
vn 0.3805879 -0.8613539 -0.3364849
vn 0.9870908 0.119064 -0.1071236
vn 0.8176169 0.3119656 0.4839214
vn 0.9870908 -0.1190638 -0.1071239
vn 0.3469364 0.2429392 -0.9058784
vn 0.3469356 -0.2429383 -0.905879
vn 0.8931377 -0.2989737 -0.3360355
vn 0.5318647 -0.8009206 -0.2750384
vn 0.3776655 -0.8627714 -0.3361462
vn 0.3541643 -0.3505431 -0.866999
vn 0.8176169 0.3119656 0.4839214
vn 0.8954553 0.2917092 -0.3362523
vn 0.3552853 0.3479842 -0.867571
vn 0.3805882 0.8613549 -0.3364824
vn 0.3595983 0.877183 0.3181809
vn 0.2274141 -0.3731824 0.8994542
vn 0.359597 -0.8771838 0.3181801
vn -0.3595972 -0.8771837 0.3181801
vn -0.227414 -0.3731823 0.8994542
vn -0.8176166 -0.3119669 0.4839211
vn -0.8176166 0.311967 0.4839211
vn -0.2274143 0.3731813 0.8994545
vn 0.2274148 0.37318 0.8994549
vn 0.8176166 -0.3119669 0.4839212
vn 0.8176169 0.3119656 0.4839214
vn 0.3595983 0.877183 0.3181809
vn -0.3595974 0.8771836 0.3181802
g BoxWallA_0
f 3/3/3 2/2/2 1/1/1
f 6/6/6 5/5/5 4/4/4
f 9/9/9 8/8/8 7/7/7
f 10/10/10 9/9/9 7/7/7
f 13/13/13 12/12/12 11/11/11
f 14/14/14 13/13/13 11/11/11
f 17/17/17 16/16/16 15/15/15
f 16/16/16 18/18/18 15/15/15
f 18/18/18 19/19/19 15/15/15
f 19/19/19 20/20/20 15/15/15
f 16/16/16 21/21/21 18/18/18
f 21/21/21 22/22/22 18/18/18
f 23/23/23 21/21/21 16/16/16
f 26/26/26 25/25/25 24/24/24
f 27/27/27 26/26/26 24/24/24
f 24/24/24 28/28/28 27/27/27
f 29/29/29 28/28/28 24/24/24
f 28/28/28 30/30/30 27/27/27
f 30/30/30 31/31/31 27/27/27
f 34/34/34 33/33/33 32/32/32
f 35/35/35 34/34/34 32/32/32
f 38/38/38 37/37/37 36/36/36
f 39/39/39 38/38/38 36/36/36
f 36/36/36 40/40/40 39/39/39
f 40/40/40 41/41/41 39/39/39
f 44/44/44 43/43/43 42/42/42
f 42/42/42 43/43/43 45/45/45
f 43/43/43 46/46/46 45/45/45
f 46/46/46 47/47/47 45/45/45
f 45/45/45 48/48/48 42/42/42
f 48/48/48 49/49/49 42/42/42
f 52/52/52 51/51/51 50/50/50
f 50/50/50 51/51/51 53/53/53
f 51/51/51 54/54/54 53/53/53
f 53/53/53 55/55/55 50/50/50
f 55/55/55 56/56/56 50/50/50
f 55/55/55 57/57/57 56/56/56
f 57/57/57 58/58/58 56/56/56
f 59/59/59 57/57/57 55/55/55
f 62/62/62 61/61/61 60/60/60
f 60/60/60 61/61/61 63/63/63
f 61/61/61 64/64/64 63/63/63
f 63/63/63 65/65/65 60/60/60
f 63/63/63 66/66/66 65/65/65
f 66/66/66 67/67/67 65/65/65
f 65/65/65 68/68/68 60/60/60
f 67/67/67 69/69/69 65/65/65
f 65/65/65 69/69/69 68/68/68
f 69/69/69 70/70/70 68/68/68
f 73/73/73 72/72/72 71/71/71
f 74/74/74 73/73/73 71/71/71
f 75/75/75 74/74/74 71/71/71
f 75/75/75 71/71/71 76/76/76
f 71/71/71 77/77/77 76/76/76
f 77/77/77 78/78/78 76/76/76
f 78/78/78 79/79/79 76/76/76
f 76/76/76 80/80/80 75/75/75
f 80/80/80 81/81/81 75/75/75
f 84/84/84 83/83/83 82/82/82
f 85/85/85 84/84/84 82/82/82
f 86/86/86 85/85/85 82/82/82
f 86/86/86 82/82/82 87/87/87
f 82/82/82 88/88/88 87/87/87
f 87/87/87 89/89/89 86/86/86
f 89/89/89 90/90/90 86/86/86
f 88/88/88 91/91/91 87/87/87
f 91/91/91 92/92/92 87/87/87
f 94/94/94 88/88/88 93/93/93
f 95/95/95 94/94/94 93/93/93
f 93/93/93 96/96/96 95/95/95
f 96/96/96 97/97/97 95/95/95
f 95/95/95 99/99/99 98/98/98
f 99/99/99 100/100/100 98/98/98
f 100/100/100 101/101/101 98/98/98
f 95/95/95 98/98/98 102/102/102
f 98/98/98 101/101/101 103/103/103
f 98/98/98 103/103/103 102/102/102
f 101/101/101 104/104/104 103/103/103
f 103/103/103 105/105/105 102/102/102
f 105/105/105 106/106/106 102/102/102
f 109/109/109 108/108/108 107/107/107
f 110/110/110 109/109/109 107/107/107
f 111/111/111 109/109/109 110/110/110
f 112/112/112 111/111/111 110/110/110
f 113/113/113 112/112/112 110/110/110
f 107/107/107 114/114/114 110/110/110
f 114/114/114 113/113/113 110/110/110
f 107/107/107 115/115/115 114/114/114
f 115/115/115 116/116/116 114/114/114
f 116/116/116 117/117/117 114/114/114
f 114/114/114 117/117/117 113/113/113
f 117/117/117 118/118/118 113/113/113
