g BoxWallB
v 0.0009954284 6.404124E-07 -0.005858862
v 0.001075428 8.064041E-05 -0.005858862
v 0.0009954284 8.064043E-05 -0.005938862
v 0.0009954284 0.01179836 -0.00593886
v 5.475077E-05 0.01179836 -0.00593886
v 5.475077E-05 8.064041E-05 -0.005938862
v 0.0009954284 8.064043E-05 -0.005938862
v 0.001075428 0.01179836 -0.00585886
v 0.001075428 8.064041E-05 -0.005858862
v 0.0009954284 6.404124E-07 -0.005858862
v 5.475077E-05 6.404124E-07 -0.005858862
v 0.0009954284 8.063849E-05 0.005938862
v 5.475077E-05 0.01179836 0.005938864
v 0.0009954284 0.01179836 0.005938864
v 5.475077E-05 8.063849E-05 0.005938862
v 5.475077E-05 6.385033E-07 0.005858862
v 0.0009954284 6.385033E-07 0.005858862
v -2.524924E-05 8.06385E-05 0.005858862
v 0.0009954284 6.404124E-07 -0.005858862
v 5.475077E-05 6.404124E-07 -0.005858862
v 5.475077E-05 6.385033E-07 0.005858862
v 0.0009954284 6.385033E-07 0.005858862
v 0.0009954284 0.001099102 -0.0049204
v 0.000384716 0.001099102 -0.0049204
v 0.000384716 0.0107799 -0.004920398
v 0.0009954284 0.0107799 -0.004920398
v 0.001075428 0.0009391018 -0.0050004
v 0.001075429 0.0109399 -0.005000398
v 0.0009954284 0.001019102 -0.0048404
v 0.000304716 0.001099102 -0.0048404
v 0.000304716 0.0010991 0.004840401
v 0.000304716 0.0107799 0.004840402
v 0.000304716 0.0107799 -0.004840399
v 0.000384716 0.001099102 -0.0049204
v 0.000384716 0.0107799 -0.004920398
v 0.000384716 0.001019102 -0.0048404
v 0.001075428 8.063851E-05 0.005858862
v 0.0009954284 6.385033E-07 0.005858862
v 0.0009954284 8.063849E-05 0.005938862
v 0.0009954284 0.01179836 0.005938864
v 0.001075428 0.01179836 0.005858863
v 0.001075428 0.0009391002 0.0050004
v 0.001075428 0.0109399 0.005000402
v 0.001075428 0.01179836 -0.00585886
v 0.001075429 0.0109399 -0.005000398
v 0.001075428 8.064041E-05 -0.005858862
v 0.001075428 0.0009391018 -0.0050004
v 0.001075428 8.063851E-05 0.005858862
v 0.001075428 8.064041E-05 -0.005858862
v 0.0009954284 6.385033E-07 0.005858862
v 0.0009954284 6.404124E-07 -0.005858862
v 0.0009954284 0.0108599 0.004840402
v 0.0009954284 0.0107799 0.004920402
v 0.001075428 0.0109399 0.005000402
v 0.001075429 0.0109399 -0.005000398
v 0.0009954284 0.0108599 -0.004840399
v 0.0009954284 0.0107799 -0.004920398
v 0.000384716 0.0107799 -0.004920398
v 0.000384716 0.0108599 0.004840402
v 0.000384716 0.0108599 -0.004840399
v 0.000304716 0.0107799 -0.004840399
v 0.000304716 0.0107799 0.004840402
v 0.000384716 0.0107799 0.004920402
v 5.475077E-05 0.01187836 0.005858863
v 5.475077E-05 0.01179836 0.005938864
v -2.524924E-05 0.01179836 0.005858863
v 0.0009954284 0.01187836 0.005858863
v 0.0009954284 0.01179836 0.005938864
v 0.001075428 0.01179836 0.005858863
v 5.475077E-05 0.01187836 -0.00585886
v 0.0009954284 0.01187836 -0.00585886
v 0.001075428 0.01179836 -0.00585886
v 0.0009954284 0.01179836 -0.00593886
v 5.475077E-05 0.01179836 -0.00593886
v -2.524924E-05 8.06385E-05 0.005858862
v 5.475077E-05 6.385033E-07 0.005858862
v 5.475077E-05 6.404124E-07 -0.005858862
v -2.524924E-05 8.064041E-05 -0.005858862
v 5.475077E-05 8.064041E-05 -0.005938862
v 5.475077E-05 0.01179836 -0.00593886
v -2.524924E-05 0.01179836 -0.00585886
v 5.475077E-05 0.01187836 -0.00585886
v 5.475077E-05 0.01187836 0.005858863
v -2.524924E-05 0.01179836 0.005858863
v 5.475077E-05 8.063849E-05 0.005938862
v 5.475077E-05 0.01179836 0.005938864
v 0.0009954284 0.001019102 -0.0048404
v 0.001075428 0.0009391018 -0.0050004
v 0.001075428 0.0009391002 0.0050004
v 0.0009954284 0.0010191 0.004840401
v 0.000384716 0.001019102 -0.0048404
v 0.0009954284 0.001099102 -0.0049204
v 0.000384716 0.001099102 -0.0049204
v 0.000384716 0.0010191 0.004840401
v 0.000304716 0.001099102 -0.0048404
v 0.000304716 0.0010991 0.004840401
v 0.000384716 0.0107799 0.004920402
v 0.000304716 0.0107799 0.004840402
v 0.000304716 0.0010991 0.004840401
v 0.000384716 0.0010991 0.004920401
v 0.000384716 0.0010191 0.004840401
v 0.0009954284 0.0010191 0.004840401
v 0.0009954284 0.0107799 0.004920402
v 0.000384716 0.0108599 0.004840402
v 0.0009954284 0.0108599 0.004840402
v 0.0009954284 0.0010991 0.004920401
v 0.001075428 0.0009391002 0.0050004
v 0.001075428 0.0109399 0.005000402
vt 0.4740928 0.7047435
vt 0.4717103 0.7047436
vt 0.4740929 0.7070875
vt 0.5676694 0.3620355
vt 0.539654 0.3620355
vt 0.5396541 0.7047478
vt 0.5676695 0.7047477
vt 0.570052 0.3620355
vt 0.5700521 0.7047477
vt 0.5676696 0.7070875
vt 0.5396541 0.7070876
vt 0.5068734 0.7047436
vt 0.5348889 0.3614244
vt 0.5068735 0.3614244
vt 0.5348889 0.7047436
vt 0.5348889 0.7070876
vt 0.5068735 0.7070876
vt 0.5372715 0.7047437
vt 0.4740928 0.7047435
vt 0.5021083 0.7047436
vt 0.5021083 0.3614245
vt 0.4740929 0.3614245
vt 0.9794292 0.8763611
vt 0.9976174 0.876361
vt 0.9976174 0.5882093
vt 0.9794291 0.5882093
vt 0.9770465 0.8787422
vt 0.9770465 0.5858281
vt 0.9794291 0.8787422
vt 0.9283268 0.2905326
vt 0.9283268 0.002381216
vt 0.6400117 0.002381226
vt 0.6400117 0.2905326
vt 0.9283268 0.2929139
vt 0.6400117 0.2929138
vt 0.9307094 0.2905326
vt 0.3513616 0.002381222
vt 0.3525529 0.001190612
vt 0.3513616 1.4193E-10
vt 0.002382577 2.093091E-08
vt 0.002382591 0.00238126
vt 0.3257947 0.02793354
vt 0.02794938 0.02793354
vt 0.002382589 0.3511621
vt 0.02794942 0.3256098
vt 0.3513616 0.3511621
vt 0.3257947 0.3256098
vt 0.3485047 0.002381223
vt 0.3485048 0.3511621
vt 0.3506438 0.002381224
vt 0.3506438 0.3511621
vt 0.327785 0.9976187
vt 0.327785 0.9999999
vt 0.3301676 0.9999999
vt 0.3301676 0.7070858
vt 0.327785 0.7094671
vt 0.327785 0.7070858
vt 0.3095967 0.7070858
vt 0.3095967 0.9976187
vt 0.3095967 0.709467
vt 0.3072141 0.7094671
vt 0.3072141 0.9976187
vt 0.3095967 0.9999999
vt 0.4413123 0.3602024
vt 0.4413123 0.3578502
vt 0.4389298 0.3602024
vt 0.4693277 0.3602024
vt 0.4693277 0.3578502
vt 0.4717103 0.3602024
vt 0.4413123 0.7047352
vt 0.4693277 0.7047352
vt 0.4717103 0.7047353
vt 0.4693277 0.7070875
vt 0.4413123 0.7070875
vt 0.3512622 0.3558251
vt 0.3512622 0.3534425
vt 0.0024821 0.3534425
vt 0.002482099 0.3558251
vt 0.0001008809 0.3558251
vt 0.0001008809 0.7048041
vt 0.0024821 0.704804
vt 0.002482083 0.7071866
vt 0.3512622 0.7071867
vt 0.3512622 0.7048041
vt 0.3536434 0.355825
vt 0.3536434 0.7048042
vt 0.2866432 0.7094671
vt 0.2842606 0.7070858
vt 0.2842607 1
vt 0.2866432 0.9976188
vt 0.3048316 0.7094671
vt 0.2866432 0.7070858
vt 0.3048315 0.7070858
vt 0.3048316 0.9976187
vt 0.3072141 0.7094671
vt 0.3072141 0.9976187
vt 0.9564755 0.5882093
vt 0.9540929 0.5882093
vt 0.954093 0.876361
vt 0.9564756 0.876361
vt 0.9564756 0.8787422
vt 0.9746639 0.8787423
vt 0.9746639 0.5882093
vt 0.9564755 0.585828
vt 0.9746639 0.5858281
vt 0.974664 0.8763611
vt 0.9770465 0.8787422
vt 0.9770464 0.5858281
vn 0.3415861 -0.8755787 -0.3415857
vn 0.8755788 -0.341586 -0.3415855
vn 0.3415864 -0.3415863 -0.8755785
vn 0.3415866 0.3415865 -0.8755783
vn -0.3415866 0.3415865 -0.8755783
vn -0.3415869 -0.3415861 -0.8755783
vn 0.3415864 -0.3415863 -0.8755785
vn 0.8755795 0.3415843 -0.3415857
vn 0.8755788 -0.341586 -0.3415855
vn 0.3415861 -0.8755787 -0.3415857
vn -0.3415866 -0.8755786 -0.3415855
vn 0.3415869 -0.3415862 0.8755782
vn -0.3415866 0.3415864 0.8755783
vn 0.3415875 0.3415869 0.8755777
vn -0.3415869 -0.3415863 0.8755783
vn -0.3415866 -0.8755788 0.3415852
vn 0.3415865 -0.8755787 0.3415852
vn -0.8755792 -0.3415858 0.3415851
vn 0.3415861 -0.8755787 -0.3415857
vn -0.3415866 -0.8755786 -0.3415855
vn -0.3415866 -0.8755788 0.3415852
vn 0.3415865 -0.8755787 0.3415852
vn 0.5012965 0.2548988 0.8268787
vn 0.3415857 0.3415855 0.875579
vn 0.3415851 -0.3415847 0.8755795
vn 0.5012963 -0.2548982 0.826879
vn 0.9901302 0.09910114 0.09910106
vn 0.9901304 -0.09910083 0.09910113
vn 0.5012968 0.8268782 0.2548997
vn 0.8755785 0.3415858 0.3415864
vn 0.8755791 0.3415853 -0.3415855
vn 0.8755786 -0.3415852 -0.3415867
vn 0.8755785 -0.3415854 0.3415871
vn 0.3415857 0.3415855 0.875579
vn 0.3415851 -0.3415847 0.8755795
vn 0.3415862 0.8755785 0.3415862
vn 0.8755792 -0.3415858 0.3415851
vn 0.3415865 -0.8755787 0.3415852
vn 0.3415869 -0.3415862 0.8755782
vn 0.3415875 0.3415869 0.8755777
vn 0.8755802 0.3415826 0.3415856
vn 0.9901304 0.09910089 -0.09910066
vn 0.9901302 -0.09910076 -0.0991017
vn 0.8755795 0.3415843 -0.3415857
vn 0.9901304 -0.09910083 0.09910113
vn 0.8755788 -0.341586 -0.3415855
vn 0.9901302 0.09910114 0.09910106
vn 0.8755792 -0.3415858 0.3415851
vn 0.8755788 -0.341586 -0.3415855
vn 0.3415865 -0.8755787 0.3415852
vn 0.3415861 -0.8755787 -0.3415857
vn 0.5012971 -0.8268774 -0.2549021
vn 0.501296 -0.2548976 -0.8268793
vn 0.9901302 -0.09910076 -0.0991017
vn 0.9901304 -0.09910083 0.09910113
vn 0.5012977 -0.8268776 0.2549002
vn 0.5012963 -0.2548982 0.826879
vn 0.3415851 -0.3415847 0.8755795
vn 0.3415861 -0.875578 -0.3415875
vn 0.3415861 -0.8755781 0.3415874
vn 0.8755785 -0.3415854 0.3415871
vn 0.8755786 -0.3415852 -0.3415867
vn 0.3415856 -0.3415847 -0.8755794
vn -0.3415864 0.8755787 0.3415854
vn -0.3415866 0.3415864 0.8755783
vn -0.875579 0.3415852 0.3415859
vn 0.3415883 0.8755782 0.3415849
vn 0.3415875 0.3415869 0.8755777
vn 0.8755802 0.3415826 0.3415856
vn -0.3415864 0.8755788 -0.3415853
vn 0.3415874 0.8755783 -0.3415854
vn 0.8755795 0.3415843 -0.3415857
vn 0.3415866 0.3415865 -0.8755783
vn -0.3415866 0.3415865 -0.8755783
vn -0.8755792 -0.3415858 0.3415851
vn -0.3415866 -0.8755788 0.3415852
vn -0.3415866 -0.8755786 -0.3415855
vn -0.8755791 -0.3415856 -0.3415853
vn -0.3415869 -0.3415861 -0.8755783
vn -0.3415866 0.3415865 -0.8755783
vn -0.8755791 0.3415853 -0.3415858
vn -0.3415864 0.8755788 -0.3415853
vn -0.3415864 0.8755787 0.3415854
vn -0.875579 0.3415852 0.3415859
vn -0.3415869 -0.3415863 0.8755783
vn -0.3415866 0.3415864 0.8755783
vn 0.5012968 0.8268782 0.2548997
vn 0.9901302 0.09910114 0.09910106
vn 0.9901304 0.09910089 -0.09910066
vn 0.5012974 0.8268781 -0.254899
vn 0.3415862 0.8755785 0.3415862
vn 0.5012965 0.2548988 0.8268787
vn 0.3415857 0.3415855 0.875579
vn 0.3415868 0.8755783 -0.341586
vn 0.8755785 0.3415858 0.3415864
vn 0.8755791 0.3415853 -0.3415855
vn 0.3415856 -0.3415847 -0.8755794
vn 0.8755786 -0.3415852 -0.3415867
vn 0.8755791 0.3415853 -0.3415855
vn 0.3415867 0.3415854 -0.8755786
vn 0.3415868 0.8755783 -0.341586
vn 0.5012974 0.8268781 -0.254899
vn 0.501296 -0.2548976 -0.8268793
vn 0.3415861 -0.875578 -0.3415875
vn 0.5012971 -0.8268774 -0.2549021
vn 0.5012978 0.2548986 -0.826878
vn 0.9901304 0.09910089 -0.09910066
vn 0.9901302 -0.09910076 -0.0991017
g BoxWallB_0
f 3/3/3 2/2/2 1/1/1
f 6/6/6 5/5/5 4/4/4
f 7/7/7 6/6/6 4/4/4
f 4/4/4 8/8/8 7/7/7
f 8/8/8 9/9/9 7/7/7
f 7/7/7 10/10/10 6/6/6
f 10/10/10 11/11/11 6/6/6
f 14/14/14 13/13/13 12/12/12
f 13/13/13 15/15/15 12/12/12
f 15/15/15 16/16/16 12/12/12
f 16/16/16 17/17/17 12/12/12
f 18/18/18 16/16/16 15/15/15
f 21/21/21 20/20/20 19/19/19
f 22/22/22 21/21/21 19/19/19
f 25/25/25 24/24/24 23/23/23
f 26/26/26 25/25/25 23/23/23
f 23/23/23 27/27/27 26/26/26
f 27/27/27 28/28/28 26/26/26
f 29/29/29 27/27/27 23/23/23
f 32/32/32 31/31/31 30/30/30
f 33/33/33 32/32/32 30/30/30
f 30/30/30 34/34/34 33/33/33
f 34/34/34 35/35/35 33/33/33
f 36/36/36 34/34/34 30/30/30
f 39/39/39 38/38/38 37/37/37
f 40/40/40 39/39/39 37/37/37
f 41/41/41 40/40/40 37/37/37
f 37/37/37 42/42/42 41/41/41
f 42/42/42 43/43/43 41/41/41
f 41/41/41 43/43/43 44/44/44
f 43/43/43 45/45/45 44/44/44
f 44/44/44 45/45/45 46/46/46
f 45/45/45 47/47/47 46/46/46
f 47/47/47 42/42/42 48/48/48
f 49/49/49 47/47/47 48/48/48
f 48/48/48 50/50/50 49/49/49
f 50/50/50 51/51/51 49/49/49
f 54/54/54 53/53/53 52/52/52
f 55/55/55 54/54/54 52/52/52
f 56/56/56 55/55/55 52/52/52
f 57/57/57 55/55/55 56/56/56
f 58/58/58 57/57/57 56/56/56
f 52/52/52 59/59/59 56/56/56
f 60/60/60 58/58/58 56/56/56
f 59/59/59 60/60/60 56/56/56
f 61/61/61 58/58/58 60/60/60
f 62/62/62 61/61/61 60/60/60
f 59/59/59 62/62/62 60/60/60
f 63/63/63 62/62/62 59/59/59
f 66/66/66 65/65/65 64/64/64
f 64/64/64 65/65/65 67/67/67
f 65/65/65 68/68/68 67/67/67
f 68/68/68 69/69/69 67/67/67
f 70/70/70 64/64/64 67/67/67
f 67/67/67 69/69/69 71/71/71
f 71/71/71 70/70/70 67/67/67
f 69/69/69 72/72/72 71/71/71
f 72/72/72 73/73/73 71/71/71
f 71/71/71 73/73/73 70/70/70
f 73/73/73 74/74/74 70/70/70
f 77/77/77 76/76/76 75/75/75
f 78/78/78 77/77/77 75/75/75
f 79/79/79 77/77/77 78/78/78
f 80/80/80 79/79/79 78/78/78
f 81/81/81 80/80/80 78/78/78
f 81/81/81 78/78/78 75/75/75
f 82/82/82 80/80/80 81/81/81
f 83/83/83 82/82/82 81/81/81
f 84/84/84 83/83/83 81/81/81
f 84/84/84 81/81/81 75/75/75
f 75/75/75 85/85/85 84/84/84
f 85/85/85 86/86/86 84/84/84
f 89/89/89 88/88/88 87/87/87
f 90/90/90 89/89/89 87/87/87
f 87/87/87 91/91/91 90/90/90
f 87/87/87 92/92/92 91/91/91
f 92/92/92 93/93/93 91/91/91
f 91/91/91 94/94/94 90/90/90
f 91/91/91 95/95/95 94/94/94
f 95/95/95 96/96/96 94/94/94
f 99/99/99 98/98/98 97/97/97
f 100/100/100 99/99/99 97/97/97
f 101/101/101 99/99/99 100/100/100
f 102/102/102 101/101/101 100/100/100
f 100/100/100 97/97/97 103/103/103
f 97/97/97 104/104/104 103/103/103
f 104/104/104 105/105/105 103/103/103
f 106/106/106 102/102/102 100/100/100
f 106/106/106 100/100/100 103/103/103
f 107/107/107 102/102/102 106/106/106
f 103/103/103 108/108/108 106/106/106
f 108/108/108 107/107/107 106/106/106
