g BullAnimalToken
v -0.005692208 -0.1540387 0.05222774
v -6.423333E-09 -0.1485867 0.05690718
v 0.005692195 -0.1540387 0.05222774
v -0.1267249 0.00691909 0.05222774
v -0.1211004 6.454219E-09 0.05690718
v -0.1267249 -0.006919074 0.05222774
v 0.005692194 -0.1540387 -0.05222774
v -6.423333E-09 -0.1485866 -0.05690718
v -0.005692209 -0.1540387 -0.05222774
v -0.1267249 -0.006919076 -0.05222774
v -0.1211004 6.454219E-09 -0.05690718
v -0.1267249 0.006919087 -0.05222774
v 0.1267249 -0.00691909 0.05222774
v 0.1211004 -6.524418E-09 0.05690718
v 0.1267249 0.006919074 0.05222774
v 0.005692208 0.1540387 0.05222774
v 6.490041E-09 0.1485867 0.05690718
v -0.005692195 0.1540387 0.05222774
v 0.1267249 0.006919076 -0.05222774
v 0.1211004 -6.524418E-09 -0.05690718
v 0.1267249 -0.006919087 -0.05222774
v -0.005692194 0.1540387 -0.05222774
v 6.490041E-09 0.1485866 -0.05690718
v 0.005692209 0.1540387 -0.05222774
v -6.423333E-09 -0.1485867 0.05690718
v 0.0708702 -4.232952E-09 0.05690718
v 0.1211004 -6.524418E-09 0.05690718
v -3.475203E-09 -0.09046865 0.05690718
v -0.1211004 6.454219E-09 0.05690718
v -0.0708702 3.392984E-09 0.05690718
v 6.490041E-09 0.1485866 -0.05690718
v 0.1211004 -6.524418E-09 -0.05690718
v 0.1267249 0.006919076 -0.05222774
v 0.005692209 0.1540387 -0.05222774
v 0.1211004 -6.524418E-09 0.05690718
v 0.0708702 -4.232952E-09 0.05690718
v 3.786305E-09 0.09046865 0.05690718
v 6.490041E-09 0.1485867 0.05690718
v -0.0708702 3.392984E-09 0.05690718
v -0.1211004 6.454219E-09 0.05690718
v 6.490041E-09 0.1485866 -0.05690718
v 0.0708702 -4.232952E-09 -0.05690718
v 0.1211004 -6.524418E-09 -0.05690718
v 3.786305E-09 0.09046865 -0.05690718
v -0.1211004 6.454219E-09 -0.05690718
v -0.0708702 3.392984E-09 -0.05690718
v 6.490041E-09 0.1485867 0.05690718
v -0.1211004 6.454219E-09 0.05690718
v -0.1267249 0.00691909 0.05222774
v -0.005692195 0.1540387 0.05222774
v 3.786305E-09 0.09046865 -0.05690718
v 3.440189E-09 0.07828551 -0.04511271
v 0.05940564 -3.731418E-09 -0.04511271
v 0.0708702 -4.232952E-09 -0.05690718
v -3.475203E-09 -0.09046865 0.05690718
v -2.646637E-09 -0.07828551 0.04511271
v 0.05940564 -3.731418E-09 0.04511271
v 0.0708702 -4.232952E-09 0.05690718
v 0.1211004 -6.524418E-09 -0.05690718
v 0.0708702 -4.232952E-09 -0.05690718
v -3.475203E-09 -0.09046865 -0.05690718
v -6.423333E-09 -0.1485866 -0.05690718
v -0.0708702 3.392984E-09 -0.05690718
v -0.1211004 6.454219E-09 -0.05690718
v 0.1211004 -6.524418E-09 -0.05690718
v -6.423333E-09 -0.1485866 -0.05690718
v 0.005692194 -0.1540387 -0.05222774
v 0.1267249 -0.006919087 -0.05222774
v -2.646637E-09 -0.07828551 -0.04511271
v 0.05940564 -3.731418E-09 -0.04511271
v 3.440189E-09 0.07828551 -0.04511271
v -0.05940564 2.867557E-09 -0.04511271
v 0.05940564 -3.731418E-09 0.04511271
v -2.646637E-09 -0.07828551 0.04511271
v -0.05940564 2.867557E-09 0.04511271
v 3.440189E-09 0.07828551 0.04511271
v 0.0708702 -4.232952E-09 -0.05690718
v 0.05940564 -3.731418E-09 -0.04511271
v -2.646637E-09 -0.07828551 -0.04511271
v -3.475203E-09 -0.09046865 -0.05690718
v -0.0708702 3.392984E-09 0.05690718
v -0.05940564 2.867557E-09 0.04511271
v -2.646637E-09 -0.07828551 0.04511271
v -3.475203E-09 -0.09046865 0.05690718
v 3.786305E-09 0.09046865 0.05690718
v 3.440189E-09 0.07828551 0.04511271
v -0.05940564 2.867557E-09 0.04511271
v -0.0708702 3.392984E-09 0.05690718
v 0.0708702 -4.232952E-09 0.05690718
v 0.05940564 -3.731418E-09 0.04511271
v 3.440189E-09 0.07828551 0.04511271
v 3.786305E-09 0.09046865 0.05690718
v -0.0708702 3.392984E-09 -0.05690718
v -0.05940564 2.867557E-09 -0.04511271
v 3.440189E-09 0.07828551 -0.04511271
v 3.786305E-09 0.09046865 -0.05690718
v -3.475203E-09 -0.09046865 -0.05690718
v -2.646637E-09 -0.07828551 -0.04511271
v -0.05940564 2.867557E-09 -0.04511271
v -0.0708702 3.392984E-09 -0.05690718
v -0.005692209 -0.1540387 -0.04168011
v -0.005692209 -0.1540387 -0.05222774
v -0.1267249 -0.006919076 -0.05222774
v -0.1267249 -0.006919076 -0.04168011
v -0.1211004 6.454219E-09 -0.05690718
v 6.490041E-09 0.1485866 -0.05690718
v -0.005692194 0.1540387 -0.05222774
v -0.1267249 0.006919087 -0.05222774
v -0.1211004 6.454219E-09 -0.05690718
v -0.1267249 -0.006919076 -0.05222774
v -0.005692209 -0.1540387 -0.05222774
v -6.423333E-09 -0.1485866 -0.05690718
v 6.490041E-09 0.1485867 0.05690718
v 0.005692208 0.1540387 0.05222774
v 0.1267249 0.006919074 0.05222774
v 0.1211004 -6.524418E-09 0.05690718
v 0.1267249 0.006919075 0.04168011
v 0.1267249 0.006919074 0.05222774
v 0.005692208 0.1540387 0.05222774
v 0.005692208 0.1540387 0.04168011
v 0.005692195 -0.1540387 0.04168011
v 0.005692195 -0.1540387 0.05222774
v 0.1267249 -0.00691909 0.05222774
v 0.1267249 -0.006919089 0.04168011
v -0.005692195 0.1540387 0.04168011
v -0.005692195 0.1540387 0.05222774
v -0.1267249 0.00691909 0.05222774
v -0.1267249 0.006919089 0.04168011
v -6.423333E-09 -0.1485867 0.05690718
v -0.005692208 -0.1540387 0.05222774
v -0.1267249 -0.006919074 0.05222774
v -0.1211004 6.454219E-09 0.05690718
v -0.005692209 -0.1540387 -0.04168011
v 0.005692194 -0.1540387 -0.05222774
v -0.005692209 -0.1540387 -0.05222774
v 0.005692195 -0.1540387 -0.04168011
v -0.005692208 -0.1540387 0.04168011
v 0.005692195 -0.1540387 0.04168011
v -0.005692208 -0.1540387 0.05222774
v 0.005692195 -0.1540387 0.05222774
v 0.1267249 0.006919075 0.04168011
v 0.1267249 -0.00691909 0.05222774
v 0.1267249 0.006919074 0.05222774
v 0.1267249 -0.006919089 0.04168011
v 0.1267249 0.006919076 -0.04168011
v 0.1267249 -0.006919088 -0.04168011
v 0.1267249 0.006919076 -0.05222774
v 0.1267249 -0.006919087 -0.05222774
v -0.1267249 0.006919088 -0.04168011
v -0.1267249 -0.006919076 -0.05222774
v -0.1267249 0.006919087 -0.05222774
v -0.1267249 -0.006919076 -0.04168011
v -0.1267249 0.006919089 0.04168011
v -0.1267249 -0.006919075 0.04168011
v -0.1267249 0.00691909 0.05222774
v -0.1267249 -0.006919074 0.05222774
v 0.005692209 0.1540387 -0.04168011
v -0.005692194 0.1540387 -0.05222774
v 0.005692209 0.1540387 -0.05222774
v -0.005692195 0.1540387 -0.04168011
v 0.005692208 0.1540387 0.04168011
v -0.005692195 0.1540387 0.04168011
v 0.005692208 0.1540387 0.05222774
v -0.005692195 0.1540387 0.05222774
v -6.423333E-09 -0.1485867 0.05690718
v 0.1211004 -6.524418E-09 0.05690718
v 0.1267249 -0.00691909 0.05222774
v 0.005692195 -0.1540387 0.05222774
v -0.005692194 0.1540387 -0.05222774
v -0.005692195 0.1540387 -0.04168011
v -0.1267249 0.006919088 -0.04168011
v -0.1267249 0.006919087 -0.05222774
v -0.005692195 0.1540387 -0.04168011
v -0.005692195 0.1540387 0.04168011
v -0.1267249 0.006919089 0.04168011
v -0.1267249 0.006919088 -0.04168011
v 0.005692194 -0.1540387 -0.05222774
v 0.005692195 -0.1540387 -0.04168011
v 0.1267249 -0.006919088 -0.04168011
v 0.1267249 -0.006919087 -0.05222774
v 0.005692195 -0.1540387 -0.04168011
v 0.005692195 -0.1540387 0.04168011
v 0.1267249 -0.006919089 0.04168011
v 0.1267249 -0.006919088 -0.04168011
v 0.1267249 0.006919076 -0.05222774
v 0.1267249 0.006919076 -0.04168011
v 0.005692209 0.1540387 -0.04168011
v 0.005692209 0.1540387 -0.05222774
v 0.1267249 0.006919076 -0.04168011
v 0.1267249 0.006919075 0.04168011
v 0.005692208 0.1540387 0.04168011
v 0.005692209 0.1540387 -0.04168011
v -0.005692208 -0.1540387 0.05222774
v -0.005692208 -0.1540387 0.04168011
v -0.1267249 -0.006919075 0.04168011
v -0.1267249 -0.006919074 0.05222774
v -0.005692208 -0.1540387 0.04168011
v -0.005692209 -0.1540387 -0.04168011
v -0.1267249 -0.006919076 -0.04168011
v -0.1267249 -0.006919075 0.04168011
vt 0.4705462 0.6573449
vt 0.4705462 0.6573449
vt 0.4705462 0.6573449
vt 0.5883611 0.3349041
vt 0.5883611 0.3349041
vt 0.5883611 0.3349041
vt 0.4643454 0.6573449
vt 0.4643454 0.6573449
vt 0.4643454 0.6573449
vt 0.5945619 0.3442053
vt 0.5945619 0.3442053
vt 0.5945619 0.3442053
vt 0.5883611 0.3349041
vt 0.5883611 0.3349041
vt 0.5883611 0.3349041
vt 0.5883611 0.3349041
vt 0.5883611 0.3349041
vt 0.5883611 0.3349041
vt 0.6007627 0.3442053
vt 0.6007627 0.3442053
vt 0.6007627 0.3442053
vt 0.6007627 0.3442053
vt 0.6007627 0.3442053
vt 0.6007627 0.3442053
vt 0.03029051 0.6542445
vt 0.03029051 0.6542445
vt 0.03029051 0.6542445
vt 0.03029051 0.6542445
vt 0.03029051 0.6542445
vt 0.03029051 0.6542445
vt 0.6007627 0.3442053
vt 0.6007627 0.3442053
vt 0.6007627 0.3442053
vt 0.6007627 0.3442053
vt 0.4705462 0.6542445
vt 0.4705462 0.6542445
vt 0.4705462 0.6542445
vt 0.4705462 0.6542445
vt 0.4705462 0.6542445
vt 0.4705462 0.6542445
vt 0.4705462 0.6542445
vt 0.4705462 0.6542445
vt 0.4705462 0.6542445
vt 0.4705462 0.6542445
vt 0.4705462 0.6542445
vt 0.4705462 0.6542445
vt 0.5883611 0.3349041
vt 0.5883611 0.3349041
vt 0.5883611 0.3349041
vt 0.5883611 0.3349041
vt 0.3434301 0.6542445
vt 0.3434301 0.6542445
vt 0.3434301 0.6542445
vt 0.3434301 0.6542445
vt 0.5914615 0.3380045
vt 0.5914615 0.3380045
vt 0.5914615 0.3380045
vt 0.5914615 0.3380045
vt 0.03029051 0.6542445
vt 0.03029051 0.6542445
vt 0.03029051 0.6542445
vt 0.03029051 0.6542445
vt 0.03029051 0.6542445
vt 0.03029051 0.6542445
vt 0.4643454 0.6573449
vt 0.4643454 0.6573449
vt 0.4643454 0.6573449
vt 0.4643454 0.6573449
vt 0.02408973 0.3411049
vt 0.02408973 0.3411049
vt 0.02408973 0.3411049
vt 0.02408973 0.3411049
vt 0.02408973 0.3411049
vt 0.02408973 0.3411049
vt 0.02408973 0.3411049
vt 0.02408973 0.3411049
vt 0.5914615 0.3380045
vt 0.5914615 0.3380045
vt 0.5914615 0.3380045
vt 0.5914615 0.3380045
vt 0.5914615 0.3380045
vt 0.5914615 0.3380045
vt 0.5914615 0.3380045
vt 0.5914615 0.3380045
vt 0.3434301 0.6542445
vt 0.3434301 0.6542445
vt 0.3434301 0.6542445
vt 0.3434301 0.6542445
vt 0.3434301 0.6542445
vt 0.3434301 0.6542445
vt 0.3434301 0.6542445
vt 0.3434301 0.6542445
vt 0.3434301 0.6542445
vt 0.3434301 0.6542445
vt 0.3434301 0.6542445
vt 0.3434301 0.6542445
vt 0.5914615 0.3380045
vt 0.5914615 0.3380045
vt 0.5914615 0.3380045
vt 0.5914615 0.3380045
vt 0.2783219 0.6511441
vt 0.2783219 0.6511441
vt 0.2783219 0.6511441
vt 0.2783219 0.6511441
vt 0.6007627 0.3442053
vt 0.6007627 0.3442053
vt 0.6007627 0.3442053
vt 0.6007627 0.3442053
vt 0.4643454 0.6573449
vt 0.4643454 0.6573449
vt 0.4643454 0.6573449
vt 0.4643454 0.6573449
vt 0.5883611 0.3349041
vt 0.5883611 0.3349041
vt 0.5883611 0.3349041
vt 0.5883611 0.3349041
vt 0.4038877 0.6542445
vt 0.4038877 0.6542445
vt 0.4038877 0.6542445
vt 0.4038877 0.6542445
vt 0.2783219 0.6511441
vt 0.2783219 0.6511441
vt 0.2783219 0.6511441
vt 0.2783219 0.6511441
vt 0.4038877 0.6542445
vt 0.4038877 0.6542445
vt 0.4038877 0.6542445
vt 0.4038877 0.6542445
vt 0.4705462 0.6573449
vt 0.4705462 0.6573449
vt 0.4705462 0.6573449
vt 0.4705462 0.6573449
vt 0.03029051 0.6542445
vt 0.03029051 0.6542445
vt 0.03029051 0.6542445
vt 0.03029051 0.6542445
vt 0.03029051 0.6542445
vt 0.03029051 0.6542445
vt 0.03029051 0.6542445
vt 0.03029051 0.6542445
vt 0.5914615 0.3318037
vt 0.5914615 0.3318037
vt 0.5914615 0.3318037
vt 0.5914615 0.3318037
vt 0.5914615 0.3318037
vt 0.5914615 0.3318037
vt 0.5914615 0.3318037
vt 0.5914615 0.3318037
vt 0.5914615 0.3318037
vt 0.5914615 0.3318037
vt 0.5914615 0.3318037
vt 0.5914615 0.3318037
vt 0.5914615 0.3318037
vt 0.5914615 0.3318037
vt 0.5914615 0.3318037
vt 0.5914615 0.3318037
vt 0.5883611 0.3411049
vt 0.5883611 0.3411049
vt 0.5883611 0.3411049
vt 0.5883611 0.3411049
vt 0.5883611 0.3411049
vt 0.5883611 0.3411049
vt 0.5883611 0.3411049
vt 0.5883611 0.3411049
vt 0.4705462 0.6573449
vt 0.4705462 0.6573449
vt 0.4705462 0.6573449
vt 0.4705462 0.6573449
vt 0.4038877 0.6542445
vt 0.4038877 0.6542445
vt 0.4038877 0.6542445
vt 0.4038877 0.6542445
vt 0.03029051 0.6542445
vt 0.03029051 0.6542445
vt 0.03029051 0.6542445
vt 0.03029051 0.6542445
vt 0.2783219 0.6511441
vt 0.2783219 0.6511441
vt 0.2783219 0.6511441
vt 0.2783219 0.6511441
vt 0.334129 0.6542445
vt 0.334129 0.6542445
vt 0.334129 0.6542445
vt 0.334129 0.6542445
vt 0.4038877 0.6542445
vt 0.4038877 0.6542445
vt 0.4038877 0.6542445
vt 0.4038877 0.6542445
vt 0.03029051 0.6542445
vt 0.03029051 0.6542445
vt 0.03029051 0.6542445
vt 0.03029051 0.6542445
vt 0.2783219 0.6511441
vt 0.2783219 0.6511441
vt 0.2783219 0.6511441
vt 0.2783219 0.6511441
vt 0.334129 0.6542445
vt 0.334129 0.6542445
vt 0.334129 0.6542445
vt 0.334129 0.6542445
vn 0 -0.6512914 0.7588277
vn 0 -0.6512914 0.7588277
vn 0 -0.6512914 0.7588277
vn -0.6395724 0 0.7687309
vn -0.6395724 0 0.7687309
vn -0.6395724 0 0.7687309
vn 0 -0.6512889 -0.7588298
vn 0 -0.6512889 -0.7588298
vn 0 -0.6512889 -0.7588298
vn -0.639573 0 -0.7687304
vn -0.639573 0 -0.7687304
vn -0.639573 0 -0.7687304
vn 0.6395724 0 0.7687309
vn 0.6395724 0 0.7687309
vn 0.6395724 0 0.7687309
vn 0 0.6512914 0.7588277
vn 0 0.6512914 0.7588277
vn 0 0.6512914 0.7588277
vn 0.639573 0 -0.7687304
vn 0.639573 0 -0.7687304
vn 0.639573 0 -0.7687304
vn 0 0.6512889 -0.7588298
vn 0 0.6512889 -0.7588298
vn 0 0.6512889 -0.7588298
vn 0 0 1
vn 0 0 1
vn 0 0 1
vn 0 0 1
vn 0 0 1
vn 0 0 1
vn 0.3800941 0.3112321 -0.8710127
vn 0.3800941 0.3112321 -0.8710127
vn 0.3800941 0.3112321 -0.8710127
vn 0.3800941 0.3112321 -0.8710127
vn 0 0 1
vn 0 0 1
vn 0 0 1
vn 0 0 1
vn 0 0 1
vn 0 0 1
vn 0 0 -1
vn 0 0 -1
vn 0 0 -1
vn 0 0 -1
vn 0 0 -1
vn 0 0 -1
vn -0.3800944 0.3112326 0.8710124
vn -0.3800944 0.3112326 0.8710124
vn -0.3800944 0.3112326 0.8710124
vn -0.3800944 0.3112326 0.8710124
vn -0.64838 -0.5005402 -0.5736399
vn -0.64838 -0.5005402 -0.5736399
vn -0.64838 -0.5005402 -0.5736399
vn -0.64838 -0.5005402 -0.5736399
vn -0.64838 0.5005402 0.5736399
vn -0.64838 0.5005402 0.5736399
vn -0.64838 0.5005402 0.5736399
vn -0.64838 0.5005402 0.5736399
vn 0 0 -1
vn 0 0 -1
vn 0 0 -1
vn 0 0 -1
vn 0 0 -1
vn 0 0 -1
vn 0.3800941 -0.3112326 -0.8710125
vn 0.3800941 -0.3112326 -0.8710125
vn 0.3800941 -0.3112326 -0.8710125
vn 0.3800941 -0.3112326 -0.8710125
vn 0 0 -1
vn 0 0 -1
vn 0 0 -1
vn 0 0 -1
vn 0 0 1
vn 0 0 1
vn 0 0 1
vn 0 0 1
vn -0.64838 0.5005402 -0.5736399
vn -0.64838 0.5005402 -0.5736399
vn -0.64838 0.5005402 -0.5736399
vn -0.64838 0.5005402 -0.5736399
vn 0.6483801 0.5005406 0.5736397
vn 0.6483801 0.5005406 0.5736397
vn 0.6483801 0.5005406 0.5736397
vn 0.6483801 0.5005406 0.5736397
vn 0.6483801 -0.5005406 0.5736397
vn 0.6483801 -0.5005406 0.5736397
vn 0.6483801 -0.5005406 0.5736397
vn 0.6483801 -0.5005406 0.5736397
vn -0.64838 -0.5005402 0.5736399
vn -0.64838 -0.5005402 0.5736399
vn -0.64838 -0.5005402 0.5736399
vn -0.64838 -0.5005402 0.5736399
vn 0.6483801 -0.5005406 -0.5736397
vn 0.6483801 -0.5005406 -0.5736397
vn 0.6483801 -0.5005406 -0.5736397
vn 0.6483801 -0.5005406 -0.5736397
vn 0.6483801 0.5005406 -0.5736397
vn 0.6483801 0.5005406 -0.5736397
vn 0.6483801 0.5005406 -0.5736397
vn 0.6483801 0.5005406 -0.5736397
vn -0.7722512 -0.6353171 0
vn -0.7722512 -0.6353171 0
vn -0.7722512 -0.6353171 0
vn -0.7722512 -0.6353171 0
vn -0.3800941 0.3112326 -0.8710125
vn -0.3800941 0.3112326 -0.8710125
vn -0.3800941 0.3112326 -0.8710125
vn -0.3800941 0.3112326 -0.8710125
vn -0.3800941 -0.3112322 -0.8710127
vn -0.3800941 -0.3112322 -0.8710127
vn -0.3800941 -0.3112322 -0.8710127
vn -0.3800941 -0.3112322 -0.8710127
vn 0.3800943 0.3112323 0.8710125
vn 0.3800943 0.3112323 0.8710125
vn 0.3800943 0.3112323 0.8710125
vn 0.3800943 0.3112323 0.8710125
vn 0.7722512 0.6353171 0
vn 0.7722512 0.6353171 0
vn 0.7722512 0.6353171 0
vn 0.7722512 0.6353171 0
vn 0.7722514 -0.6353171 0
vn 0.7722514 -0.6353171 0
vn 0.7722514 -0.6353171 0
vn 0.7722514 -0.6353171 0
vn -0.7722514 0.6353171 0
vn -0.7722514 0.6353171 0
vn -0.7722514 0.6353171 0
vn -0.7722514 0.6353171 0
vn -0.3800943 -0.3112323 0.8710125
vn -0.3800943 -0.3112323 0.8710125
vn -0.3800943 -0.3112323 0.8710125
vn -0.3800943 -0.3112323 0.8710125
vn 0 -1 0
vn 0 -1 0
vn 0 -1 0
vn 0 -1 0
vn 0 -1 0
vn 0 -1 0
vn 0 -1 0
vn 0 -1 0
vn 1 0 0
vn 1 0 0
vn 1 0 0
vn 1 0 0
vn 1 0 0
vn 1 0 0
vn 1 0 0
vn 1 0 0
vn -1 0 0
vn -1 0 0
vn -1 0 0
vn -1 0 0
vn -1 0 0
vn -1 0 0
vn -1 0 0
vn -1 0 0
vn 0 1 0
vn 0 1 0
vn 0 1 0
vn 0 1 0
vn 0 1 0
vn 0 1 0
vn 0 1 0
vn 0 1 0
vn 0.3800944 -0.3112326 0.8710124
vn 0.3800944 -0.3112326 0.8710124
vn 0.3800944 -0.3112326 0.8710124
vn 0.3800944 -0.3112326 0.8710124
vn -0.7722514 0.6353171 0
vn -0.7722514 0.6353171 0
vn -0.7722514 0.6353171 0
vn -0.7722514 0.6353171 0
vn -0.7722514 0.6353172 0
vn -0.7722514 0.6353172 0
vn -0.7722514 0.6353172 0
vn -0.7722514 0.6353172 0
vn 0.7722514 -0.6353171 0
vn 0.7722514 -0.6353171 0
vn 0.7722514 -0.6353171 0
vn 0.7722514 -0.6353171 0
vn 0.7722514 -0.6353172 0
vn 0.7722514 -0.6353172 0
vn 0.7722514 -0.6353172 0
vn 0.7722514 -0.6353172 0
vn 0.7722512 0.6353171 0
vn 0.7722512 0.6353171 0
vn 0.7722512 0.6353171 0
vn 0.7722512 0.6353171 0
vn 0.7722514 0.6353171 0
vn 0.7722514 0.6353171 0
vn 0.7722514 0.6353171 0
vn 0.7722514 0.6353171 0
vn -0.7722512 -0.6353171 0
vn -0.7722512 -0.6353171 0
vn -0.7722512 -0.6353171 0
vn -0.7722512 -0.6353171 0
vn -0.7722514 -0.6353171 0
vn -0.7722514 -0.6353171 0
vn -0.7722514 -0.6353171 0
vn -0.7722514 -0.6353171 0
g BullAnimalToken_0
f 3/3/3 2/2/2 1/1/1
f 6/6/6 5/5/5 4/4/4
f 9/9/9 8/8/8 7/7/7
f 12/12/12 11/11/11 10/10/10
f 15/15/15 14/14/14 13/13/13
f 18/18/18 17/17/17 16/16/16
f 21/21/21 20/20/20 19/19/19
f 24/24/24 23/23/23 22/22/22
f 27/27/27 26/26/26 25/25/25
f 26/26/26 28/28/28 25/25/25
f 25/25/25 28/28/28 29/29/29
f 28/28/28 30/30/30 29/29/29
f 33/33/33 32/32/32 31/31/31
f 34/34/34 33/33/33 31/31/31
f 37/37/37 36/36/36 35/35/35
f 38/38/38 37/37/37 35/35/35
f 39/39/39 37/37/37 38/38/38
f 40/40/40 39/39/39 38/38/38
f 43/43/43 42/42/42 41/41/41
f 42/42/42 44/44/44 41/41/41
f 41/41/41 44/44/44 45/45/45
f 44/44/44 46/46/46 45/45/45
f 49/49/49 48/48/48 47/47/47
f 50/50/50 49/49/49 47/47/47
f 53/53/53 52/52/52 51/51/51
f 54/54/54 53/53/53 51/51/51
f 57/57/57 56/56/56 55/55/55
f 58/58/58 57/57/57 55/55/55
f 61/61/61 60/60/60 59/59/59
f 62/62/62 61/61/61 59/59/59
f 63/63/63 61/61/61 62/62/62
f 64/64/64 63/63/63 62/62/62
f 67/67/67 66/66/66 65/65/65
f 68/68/68 67/67/67 65/65/65
f 71/71/71 70/70/70 69/69/69
f 72/72/72 71/71/71 69/69/69
f 75/75/75 74/74/74 73/73/73
f 76/76/76 75/75/75 73/73/73
f 79/79/79 78/78/78 77/77/77
f 80/80/80 79/79/79 77/77/77
f 83/83/83 82/82/82 81/81/81
f 84/84/84 83/83/83 81/81/81
f 87/87/87 86/86/86 85/85/85
f 88/88/88 87/87/87 85/85/85
f 91/91/91 90/90/90 89/89/89
f 92/92/92 91/91/91 89/89/89
f 95/95/95 94/94/94 93/93/93
f 96/96/96 95/95/95 93/93/93
f 99/99/99 98/98/98 97/97/97
f 100/100/100 99/99/99 97/97/97
f 103/103/103 102/102/102 101/101/101
f 104/104/104 103/103/103 101/101/101
f 107/107/107 106/106/106 105/105/105
f 108/108/108 107/107/107 105/105/105
f 111/111/111 110/110/110 109/109/109
f 112/112/112 111/111/111 109/109/109
f 115/115/115 114/114/114 113/113/113
f 116/116/116 115/115/115 113/113/113
f 119/119/119 118/118/118 117/117/117
f 120/120/120 119/119/119 117/117/117
f 123/123/123 122/122/122 121/121/121
f 124/124/124 123/123/123 121/121/121
f 127/127/127 126/126/126 125/125/125
f 128/128/128 127/127/127 125/125/125
f 131/131/131 130/130/130 129/129/129
f 132/132/132 131/131/131 129/129/129
f 135/135/135 134/134/134 133/133/133
f 134/134/134 136/136/136 133/133/133
f 133/133/133 136/136/136 137/137/137
f 136/136/136 138/138/138 137/137/137
f 137/137/137 138/138/138 139/139/139
f 138/138/138 140/140/140 139/139/139
f 143/143/143 142/142/142 141/141/141
f 142/142/142 144/144/144 141/141/141
f 141/141/141 144/144/144 145/145/145
f 144/144/144 146/146/146 145/145/145
f 145/145/145 146/146/146 147/147/147
f 146/146/146 148/148/148 147/147/147
f 151/151/151 150/150/150 149/149/149
f 150/150/150 152/152/152 149/149/149
f 149/149/149 152/152/152 153/153/153
f 152/152/152 154/154/154 153/153/153
f 153/153/153 154/154/154 155/155/155
f 154/154/154 156/156/156 155/155/155
f 159/159/159 158/158/158 157/157/157
f 158/158/158 160/160/160 157/157/157
f 157/157/157 160/160/160 161/161/161
f 160/160/160 162/162/162 161/161/161
f 161/161/161 162/162/162 163/163/163
f 162/162/162 164/164/164 163/163/163
f 167/167/167 166/166/166 165/165/165
f 168/168/168 167/167/167 165/165/165
f 171/171/171 170/170/170 169/169/169
f 172/172/172 171/171/171 169/169/169
f 175/175/175 174/174/174 173/173/173
f 176/176/176 175/175/175 173/173/173
f 179/179/179 178/178/178 177/177/177
f 180/180/180 179/179/179 177/177/177
f 183/183/183 182/182/182 181/181/181
f 184/184/184 183/183/183 181/181/181
f 187/187/187 186/186/186 185/185/185
f 188/188/188 187/187/187 185/185/185
f 191/191/191 190/190/190 189/189/189
f 192/192/192 191/191/191 189/189/189
f 195/195/195 194/194/194 193/193/193
f 196/196/196 195/195/195 193/193/193
f 199/199/199 198/198/198 197/197/197
f 200/200/200 199/199/199 197/197/197
