# Blender 3.4.1
# www.blender.org
mtllib cube.mtl
o Cube
v 1.000000 1.000000 -1.000000
v 1.000000 -1.000000 -1.000000
v 1.000000 1.000000 1.000000
v 1.000000 -1.000000 1.000000
v -1.000000 1.000000 -1.000000
v -1.000000 -1.000000 -1.000000
v -1.000000 1.000000 1.000000
v -1.000000 -1.000000 1.000000
vn -0.0000 1.0000 -0.0000
vn -0.0000 -0.0000 1.0000
vn -1.0000 -0.0000 -0.0000
vn -0.0000 -1.0000 -0.0000
vn 1.0000 -0.0000 -0.0000
vn -0.0000 -0.0000 -1.0000
vt 0.625000 0.500000
vt 0.375000 0.500000
vt 0.625000 0.750000
vt 0.375000 0.750000
vt 0.875000 0.500000
vt 0.625000 0.250000
vt 0.125000 0.500000
vt 0.375000 0.250000
vt 0.875000 0.750000
vt 0.625000 1.000000
vt 0.625000 0.000000
vt 0.375000 1.000000
vt 0.375000 0.000000
vt 0.125000 0.750000
s 0
usemtl Material
f 1/1/1 5/5/1 7/9/1 3/3/1
f 4/4/2 3/3/2 7/10/2 8/12/2
f 8/13/3 7/11/3 5/6/3 6/8/3
f 6/7/4 2/2/4 4/4/4 8/14/4
f 2/2/5 1/1/5 3/3/5 4/4/5
f 6/8/6 5/6/6 1/1/6 2/2/6
o Cube_cell
v 1.000000 1.000000 -1.000000
v 0.659878 0.190382 0.104295
v -0.264621 0.384724 -0.279340
v -0.106554 0.287042 -0.244617
v -0.124881 0.261895 -0.644740
v 1.000000 0.060271 -1.000000
v 1.000000 1.000000 0.169929
v 0.383134 1.000000 0.337614
v 1.000000 0.128980 -0.000340
v 1.000000 0.127184 -0.025530
v 1.000000 0.126005 -0.042345
v -0.007149 0.218794 -1.000000
v -0.464992 1.000000 -0.122129
v -0.200308 1.000000 -1.000000
v -0.471298 1.000000 -0.101009
v 0.318754 1.000000 0.304628
v 1.000000 1.000000 0.169929
v 0.383134 1.000000 0.337614
v 1.000000 0.128980 -0.000340
v 1.000000 0.127184 -0.025530
v 1.000000 0.126005 -0.042345
v -0.464992 1.000000 -0.122129
v -0.200308 1.000000 -1.000000
v -0.471298 1.000000 -0.101009
v 0.318754 1.000000 0.304628
v -0.007149 0.218794 -1.000000
v 1.000000 0.060271 -1.000000
vn 0.2579 -0.1852 0.9482
vn -0.1562 -0.9852 0.0703
vn -0.1560 -0.9853 0.0691
vn -0.1552 -0.9855 0.0678
vn -0.9320 -0.2324 -0.2783
vn -0.4224 -0.3804 0.8227
vn -0.4216 -0.3812 0.8228
vn -0.4217 -0.3917 0.8178
vn -0.5364 -0.8404 0.0774
vn -0.0000 1.0000 -0.0000
vn 1.0000 -0.0000 -0.0000
vn -0.0000 -0.0000 -1.0000
vn -0.9317 -0.2304 -0.2809
vt 0.625000 0.500000
vt 0.000000 0.000000
vt 1.000000 0.000000
vt 1.000000 1.000000
vt 1.000000 0.000000
vt 0.000000 0.000000
vt 0.000000 0.000000
vt 1.000000 0.000000
vt 1.000000 1.000000
vt 1.000000 0.000000
vt 0.000000 0.000000
vt 0.951285 0.903055
vt 0.959498 0.901336
vt 0.702108 0.667202
vt 0.516123 0.624957
vt 0.515898 0.621809
vt 0.515751 0.619707
vt 0.527349 0.374106
vt 0.808124 0.609734
vt 0.948345 0.059885
vt 0.808912 0.612374
vt 0.710156 0.663078
vt 0.625000 0.646241
vt 0.058064 0.000000
vt 1.000000 0.941936
vt 0.872241 0.000000
vt 0.872241 0.872241
vt 1.000000 0.956919
vt 0.956918 0.956918
vt 1.000000 0.957591
vt 0.957591 0.957591
vt 0.935963 0.935963
vt 0.935963 0.000000
vt 0.775038 0.500000
vt 0.625000 0.349962
vt 1.000000 0.924149
vt 0.924149 0.924149
vt 0.924972 0.000000
vt 0.924972 0.924972
vt 0.876804 0.000000
vt 0.876804 0.876804
vt 0.507534 0.500000
s 0
usemtl Material
f 10/16/7 27/40/7 15/27/7 26/38/7
f 27/41/8 10/16/8 12/22/8 28/42/8
f 28/43/9 12/21/9 13/24/9 29/44/9
f 29/45/10 13/25/10 34/54/10 14/26/10
f 30/46/11 13/25/11 11/19/11 32/50/11
f 32/51/12 11/20/12 33/52/12
f 33/53/13 11/20/13 10/17/13 26/39/13
f 11/20/14 12/22/14 10/18/14
f 11/20/15 13/24/15 12/23/15
f 16/28/16 25/37/16 9/15/16 31/48/16 21/33/16 23/35/16 24/36/16
f 19/31/17 35/56/17 9/15/17 25/37/17 17/29/17 18/30/17
f 35/56/18 20/32/18 31/49/18 9/15/18
f 30/47/19 22/34/19 34/55/19 13/25/19
o Cube_cell.001
v 1.000000 -1.000000 -1.000000
v -0.113383 -0.487462 0.504926
v -0.106189 0.284868 -0.243679
v -0.124218 0.259143 -0.647226
v 0.015572 -0.590384 0.648617
v 0.767493 -0.070493 0.392590
v 0.660041 0.188119 0.104873
v 1.000000 0.125918 -0.025093
v 0.001603 0.215602 -1.000000
v -0.007754 0.216993 -1.000000
v 1.000000 0.127633 0.000232
v 1.000000 0.058016 -1.000000
v 1.000000 -0.056690 0.248347
v -0.146791 0.094359 -1.000000
v -0.201178 -1.000000 -1.000000
v -0.047478 -1.000000 0.606913
v -0.138331 -1.000000 0.509985
v -0.034859 -1.000000 0.620350
v 0.000348 -1.000000 0.605410
v 1.000000 -0.088938 0.291473
v 0.016133 -1.000000 0.598698
v 1.000000 -0.137071 0.285602
v 1.000000 -1.000000 0.179147
v 0.001603 0.215602 -1.000000
v -0.007754 0.216993 -1.000000
v 1.000000 0.058016 -1.000000
v -0.034859 -1.000000 0.620350
v 0.000348 -1.000000 0.605410
v 0.016133 -1.000000 0.598698
v 1.000000 -1.000000 0.179147
v -0.146791 0.094359 -1.000000
v 1.000000 0.127633 0.000232
v 1.000000 -0.056690 0.248347
v 1.000000 -0.088938 0.291473
v 1.000000 -0.137071 0.285602
v -0.201178 -1.000000 -1.000000
v -0.047478 -1.000000 0.606913
v -0.138331 -1.000000 0.509985
v 1.000000 0.125918 -0.025093
vn -0.9979 0.0493 0.0413
vn 0.1467 0.9867 -0.0695
vn -0.2356 0.6775 0.6967
vn -0.2317 0.6785 0.6971
vn -0.2312 0.6791 0.6967
vn 0.1548 0.9857 -0.0668
vn 0.3103 0.7631 0.5669
vn -0.6322 0.7167 -0.2943
vn -0.7290 0.0422 0.6833
vn -0.7283 0.0425 0.6840
vn 0.1553 0.9855 -0.0684
vn 0.3882 -0.1109 0.9149
vn 0.3082 0.7619 0.5697
vn 0.3889 -0.1116 0.9145
vn 0.3898 -0.1128 0.9140
vn -0.0000 -1.0000 -0.0000
vn 1.0000 -0.0000 -0.0000
vn -0.0000 -0.0000 -1.0000
vt 0.375000 0.500000
vt 1.000000 0.000000
vt 0.000000 0.000000
vt 1.000000 1.000000
vt 1.000000 1.000000
vt 1.000000 1.000000
vt 1.000000 0.000000
vt 0.000000 0.000000
vt 1.000000 0.000000
vt 1.000000 1.000000
vt 0.000000 0.000000
vt 1.000000 0.000000
vt 1.000000 1.000000
vt 0.000000 0.000000
vt 1.000000 0.000000
vt 0.515740 0.621863
vt 0.526950 0.375200
vt 0.527124 0.374031
vt 0.515954 0.625029
vt 0.507252 0.500000
vt 0.492914 0.656043
vt 0.511795 0.356651
vt 0.224853 0.500000
vt 0.375000 0.349853
vt 0.244065 0.700864
vt 0.232709 0.688748
vt 0.245643 0.702544
vt 0.250044 0.700676
vt 0.488883 0.661434
vt 0.252017 0.699837
vt 0.482866 0.660700
vt 0.375000 0.647393
vt 0.061865 0.061865
vt 1.000000 0.061865
vt 0.123868 0.000000
vt 1.000000 0.876132
vt 0.096228 0.048404
vt 0.109053 0.000000
vt 0.109053 0.109053
vt 0.051179 0.000000
vt 0.051179 0.051179
vt 0.052379 0.000000
vt 0.052379 0.052379
vt 0.953776 0.051919
vt 0.123134 0.123134
vt 0.123134 0.000000
vt 0.871537 0.000000
vt 0.871537 0.871537
vt 0.871051 0.000000
vt 0.128949 0.000000
vt 0.177938 0.177938
vt 1.000000 0.177938
vt 0.953886 0.000000
vt 0.953886 0.953886
vt 0.052150 0.027069
vt 1.000000 0.089106
vt 0.089106 0.089106
vt 1.000000 0.088794
vt 0.088794 0.088794
vt 1.000000 0.043336
vt 0.043336 0.043336
s 0
usemtl Material
f 71/111/20 73/114/20 37/58/20 38/61/20 39/62/20 66/101/20
f 59/89/21 60/91/21 39/63/21 38/61/21
f 37/59/22 40/65/22 38/61/22
f 40/64/23 41/68/23 38/61/23
f 41/67/24 42/71/24 38/61/24
f 38/61/25 42/70/25 67/103/25 74/116/25
f 42/70/26 68/105/26 67/104/26
f 39/63/27 60/92/27 66/102/27
f 73/115/28 72/112/28 37/60/28
f 40/65/29 37/60/29 72/113/29 62/94/29
f 74/117/30 61/93/30 59/90/30 38/61/30
f 40/66/31 62/95/31 63/96/31 41/68/31
f 42/71/32 41/69/32 69/107/32 68/106/32
f 41/69/33 63/97/33 64/98/33 70/109/33 69/108/33
f 65/100/34 70/110/34 64/99/34
f 53/83/35 51/81/35 52/82/35 50/79/35 36/57/35 58/88/35 56/86/35 54/84/35
f 36/57/36 47/76/36 43/72/36 46/75/36 48/77/36 55/85/36 57/87/36 58/88/36
f 44/73/37 47/76/37 36/57/37 50/80/37 49/78/37 45/74/37
o Cube_cell.002
v 1.000000 1.000000 1.000000
v 0.660210 0.189089 0.105606
v 0.768496 -0.068411 0.392944
v 0.383810 1.000000 0.339012
v 0.420853 1.000000 1.000000
v 1.000000 1.000000 0.171947
v 1.000000 0.128945 0.001776
v 1.000000 -0.055445 0.249248
v 1.000000 -0.087397 0.292231
v 0.801371 -0.065367 1.000000
v 1.000000 -0.086132 0.429144
v 0.819766 -0.066802 1.000000
v 1.000000 -0.080443 1.000000
v 1.000000 -0.086132 0.429144
v 1.000000 -0.080443 1.000000
v 1.000000 -0.055445 0.249248
v 1.000000 -0.087397 0.292231
v 0.819766 -0.066802 1.000000
v 1.000000 0.128945 0.001776
v 0.420853 1.000000 1.000000
v 0.801371 -0.065367 1.000000
v 1.000000 1.000000 0.171947
v 0.383810 1.000000 0.339012
vn -0.9404 -0.3359 0.0528
vn -0.3087 -0.7627 -0.5683
vn -0.3094 -0.7632 -0.5673
vn -0.0778 -0.9969 0.0092
vn -0.0755 -0.9971 0.0099
vn -0.0000 1.0000 -0.0000
vn -0.0000 -0.0000 1.0000
vn 1.0000 -0.0000 -0.0000
vn -0.2571 0.1853 -0.9484
vt 0.625000 0.750000
vt 1.000000 1.000000
vt 1.000000 0.000000
vt 1.000000 0.000000
vt 0.000000 0.000000
vt 0.702024 0.667377
vt 0.946666 0.942862
vt 0.946467 0.872648
vt 0.516118 0.625222
vt 0.493069 0.656156
vt 0.489075 0.661529
vt 0.491829 0.774829
vt 0.489233 0.678643
vt 0.491650 0.772529
vt 0.489945 0.750000
vt 1.000000 0.203660
vt 0.203660 0.203660
vt 0.936136 0.203751
vt 1.000000 0.128519
vt 0.128519 0.128519
vt 0.177937 0.000000
vt 0.822063 0.000000
vt 1.000000 0.936186
vt 0.936186 0.936186
vt 0.128940 0.128940
vt 0.128940 0.000000
vt 0.697393 0.750000
vt 0.625000 0.822393
vt 0.924282 0.000000
vt 0.924282 0.924282
vt 0.625000 0.646493
vt 0.057701 0.000000
vt 1.000000 0.942299
s 0
usemtl Material
f 79/124/38 97/149/38 76/119/38 77/122/38 95/146/38
f 76/119/39 93/142/39 90/136/39
f 91/138/40 77/121/40 76/119/40 90/137/40
f 77/122/41 91/139/41 88/133/41 92/140/41 95/147/41
f 92/141/42 88/134/42 89/135/42
f 94/144/43 75/118/43 96/148/43 78/123/43
f 87/132/44 75/118/44 94/145/44 84/129/44 86/131/44
f 81/126/45 96/148/45 75/118/45 87/132/45 85/130/45 83/128/45 82/127/45
f 76/120/46 97/150/46 80/125/46 93/143/46
o Cube_cell.003
v 1.000000 -1.000000 1.000000
v 0.016820 -0.590461 0.651037
v 0.768309 -0.070423 0.393958
v -0.002756 -0.614375 1.000000
v -0.051106 -0.992451 1.000000
v -0.052064 -1.000000 1.000000
v -0.033705 -1.000000 0.621544
v 0.800514 -0.066980 1.000000
v 0.001286 -1.000000 0.606550
v 0.016966 -1.000000 0.599858
v 1.000000 -0.089472 0.292721
v 1.000000 -0.137405 0.286803
v 1.000000 -1.000000 0.181765
v 1.000000 -0.082650 0.932630
v 1.000000 -0.081998 1.000000
v -0.002756 -0.614375 1.000000
v -0.051106 -0.992451 1.000000
v -0.052064 -1.000000 1.000000
v -0.033705 -1.000000 0.621544
v 0.001286 -1.000000 0.606550
v 0.016966 -1.000000 0.599858
v 1.000000 -0.089472 0.292721
v 1.000000 -0.137405 0.286803
v 0.800514 -0.066980 1.000000
v 1.000000 -0.081998 1.000000
v 1.000000 -1.000000 0.181765
v 1.000000 -0.082650 0.932630
vn -0.9908 0.1267 -0.0469
vn -0.9909 0.1257 -0.0481
vn -0.3913 0.1140 -0.9132
vn -0.3900 0.1128 -0.9139
vn -0.3889 0.1114 -0.9145
vn 0.0751 0.9971 -0.0097
vn 0.0773 0.9969 -0.0106
vn -0.0000 -0.0000 1.0000
vn -0.0000 -1.0000 -0.0000
vn 1.0000 -0.0000 -0.0000
vn -0.5630 0.8261 0.0252
vt 0.375000 0.750000
vt 0.000000 0.000000
vt 1.000000 1.000000
vt 1.000000 0.000000
vt 1.000000 1.000000
vt 0.000000 0.000000
vt 0.423203 0.875345
vt 0.375944 0.881388
vt 0.375000 0.881508
vt 0.243492 0.750000
vt 0.245787 0.702693
vt 0.491627 0.774936
vt 0.250161 0.700819
vt 0.252121 0.699982
vt 0.488816 0.661590
vt 0.482824 0.660850
vt 0.375000 0.647721
vt 0.489669 0.741579
vt 0.489750 0.750000
vt 0.126108 0.000000
vt 1.000000 0.873892
vt 1.000000 0.874264
vt 0.874264 0.874264
vt 0.890694 0.875521
vt 0.891466 0.000000
vt 1.000000 0.108534
vt 0.949093 0.000000
vt 0.949093 0.949093
vt 1.000000 0.947860
vt 0.947860 0.947860
vt 0.822658 0.000000
vt 1.000000 0.177342
vt 1.000000 0.045830
vt 0.045830 0.045830
vt 0.076376 0.076376
vt 0.076376 0.000000
vt 0.882853 0.075904
vt 0.948104 0.046266
vt 1.000000 0.178570
vt 0.178569 0.178569
s 0
usemtl Material
f 113/170/47 99/154/47 114/172/47
f 114/173/48 99/152/48 116/175/48 115/174/48
f 117/177/49 116/176/49 99/153/49 100/156/49
f 117/178/50 100/156/50 119/181/50 120/183/50 118/179/50
f 118/180/51 120/184/51 123/188/51
f 100/155/52 121/185/52 122/187/52 124/189/52
f 100/155/53 124/190/53 119/182/53
f 105/162/54 101/157/54 102/158/54 103/159/54 98/151/54 112/169/54
f 98/151/55 103/160/55 104/161/55 106/163/55 107/164/55 110/167/55
f 112/169/56 98/151/56 110/167/56 109/166/56 108/165/56 111/168/56
f 121/186/57 100/156/57 99/154/57 113/171/57
o Cube_cell.004
v -1.000000 1.000000 -1.000000
v -0.125230 0.260810 -0.648128
v -0.267079 0.384938 -0.279548
v -1.000000 0.384211 0.064382
v -1.000000 1.000000 0.145363
v -0.528276 1.000000 -0.075352
v -0.473559 1.000000 -0.101036
v -0.202677 1.000000 -1.000000
v -0.190767 0.952018 -1.000000
v -1.000000 0.323347 0.056308
v -0.009433 0.218482 -1.000000
v -1.000000 -0.150737 -1.000000
v -0.158606 0.092610 -1.000000
v -0.147895 0.095764 -1.000000
v -0.190767 0.952018 -1.000000
v -0.009433 0.218482 -1.000000
v -1.000000 0.384211 0.064382
v -1.000000 1.000000 0.145363
v -1.000000 0.323347 0.056308
v -0.528276 1.000000 -0.075352
v -0.473559 1.000000 -0.101036
v -1.000000 -0.150737 -1.000000
v -0.158606 0.092610 -1.000000
v -0.202677 1.000000 -1.000000
v -0.147895 0.095764 -1.000000
vn 0.4208 -0.1183 0.8994
vn 0.2553 -0.8820 0.3960
vn 0.4219 -0.1192 0.8988
vn 0.9322 0.2304 0.2791
vn 0.2593 -0.8807 0.3964
vn 0.6338 -0.7152 0.2946
vn -0.0000 1.0000 -0.0000
vn -1.0000 -0.0000 -0.0000
vn -0.0000 -0.0000 -1.0000
vn 0.9315 0.2312 0.2807
vt 0.875000 0.500000
vt 0.625000 0.250000
vt 1.000000 0.000000
vt 1.000000 1.000000
vt 0.000000 0.000000
vt 1.000000 0.000000
vt 1.000000 1.000000
vt 0.000000 0.000000
vt 0.548026 0.116952
vt 0.875000 0.643170
vt 0.625000 0.106830
vt 0.816034 0.615581
vt 0.809195 0.612371
vt 0.936653 0.025362
vt 0.619002 0.351154
vt 0.540418 0.117962
vt 0.527310 0.373821
vt 0.481158 0.250000
vt 0.511576 0.355174
vt 0.511970 0.356513
vt 0.875844 0.875844
vt 0.875844 0.000000
vt 0.874795 0.000000
vt 1.000000 0.125205
vt 0.089051 0.000000
vt 0.089051 0.089051
vt 0.931717 0.841910
vt 1.000000 0.936337
vt 0.063663 0.000000
vt 0.932015 0.000000
vt 0.932015 0.932015
vt 1.000000 0.925288
vt 0.925288 0.925288
vt 0.944026 0.899573
vt 0.064686 0.000000
vt 0.064686 0.064686
vt 0.775335 0.500000
vt 0.625000 0.349665
vt 0.124039 0.000000
vt 0.124040 0.124040
s 0
usemtl Material
f 144/220/58 142/217/58 141/215/58
f 146/224/59 147/225/59 127/196/59 143/218/59
f 141/216/60 143/219/60 127/196/60 145/222/60 144/221/60
f 126/195/61 140/213/61 139/211/61
f 126/193/62 127/197/62 147/226/62 149/229/62
f 126/194/63 149/230/63 140/214/63
f 148/227/64 125/191/64 129/200/64 130/202/64 131/203/64
f 134/206/65 128/199/65 129/201/65 125/192/65 136/208/65
f 136/208/66 125/192/66 148/228/66 133/205/66 135/207/66 138/210/66 137/209/66
f 139/212/67 132/204/67 145/223/67 127/198/67 126/195/67
o Cube_cell.005
v -1.000000 -1.000000 -1.000000
v -0.115021 -0.486448 0.503974
v -0.126220 0.260475 -0.643719
v -0.107898 0.285148 -0.244196
v -0.265662 0.383385 -0.279591
v -1.000000 0.321828 0.056312
v -1.000000 0.303870 0.016281
v -0.149267 0.093872 -1.000000
v -0.192127 0.081468 -1.000000
v -0.149733 0.083837 -1.000000
v -1.000000 0.143979 0.227963
v -1.000000 -0.153752 -1.000000
v -0.199842 -1.000000 -0.913597
v -0.140868 -1.000000 0.509052
v -0.203454 -1.000000 -1.000000
v -1.000000 0.111569 0.228763
v -0.180320 -1.000000 0.497442
v -1.000000 -1.000000 0.254302
v -0.149267 0.093872 -1.000000
v -0.149733 0.083837 -1.000000
v -1.000000 0.321828 0.056312
v -1.000000 0.143979 0.227963
v -1.000000 0.303870 0.016281
v -1.000000 -0.153752 -1.000000
v -0.199842 -1.000000 -0.913597
v -0.140868 -1.000000 0.509052
v -0.203454 -1.000000 -1.000000
v -0.192127 0.081468 -1.000000
v -0.180320 -1.000000 0.497442
v -1.000000 0.111569 0.228763
v -1.000000 -1.000000 0.254302
vn 0.2613 0.6706 0.6943
vn -0.2551 0.8822 -0.3958
vn 0.5393 0.8386 -0.0765
vn 0.9980 -0.0463 -0.0429
vn -0.2566 0.8813 -0.3968
vn 0.9979 -0.0506 -0.0414
vn -0.2822 0.0237 0.9591
vn -0.2843 0.0220 0.9585
vn -1.0000 -0.0000 -0.0000
vn -0.0000 -1.0000 -0.0000
vn -0.0000 -0.0000 -1.0000
vn 0.9979 -0.0496 -0.0418
vt 0.125000 0.500000
vt 0.375000 0.250000
vt 0.000000 0.000000
vt 1.000000 1.000000
vt 1.000000 0.000000
vt 1.000000 1.000000
vt 0.000000 0.000000
vt 1.000000 0.000000
vt 1.000000 1.000000
vt 0.540228 0.117961
vt 0.537984 0.122965
vt 0.511734 0.356342
vt 0.510184 0.350984
vt 0.510480 0.356283
vt 0.517997 0.096505
vt 0.480781 0.250000
vt 0.225020 0.510800
vt 0.232392 0.688632
vt 0.046894 0.016872
vt 0.513946 0.096405
vt 0.227460 0.687180
vt 0.375000 0.093212
vt 0.125000 0.656788
vt 0.122762 0.122762
vt 1.000000 0.122762
vt 0.938115 0.000000
vt 1.000000 0.061885
vt 0.063753 0.063753
vt 1.000000 0.063753
vt 0.053828 0.000000
vt 0.053828 0.053828
vt 0.944286 0.000000
vt 0.944285 0.944285
vt 0.944689 0.044197
vt 1.000000 0.088030
vt 0.088030 0.088030
vt 0.088857 0.088857
vt 1.000000 0.088857
vt 0.224568 0.500000
vt 0.375000 0.349568
vt 0.044160 0.000000
vt 0.044160 0.044160
vt 0.959280 0.000000
vt 1.000000 0.040720
vt 0.055511 0.000000
vt 1.000000 0.944489
vt 0.096314 0.040991
s 0
usemtl Material
f 151/233/68 153/238/68 154/239/68 170/258/68 171/260/68
f 172/262/69 170/259/69 154/239/69 152/236/69 168/254/69 177/271/69
f 153/237/70 152/235/70 154/239/70
f 169/256/71 168/255/71 152/236/71 153/237/71
f 177/272/72 173/264/72 172/263/72
f 174/265/73 151/234/73 175/267/73
f 175/268/74 151/234/74 171/261/74 179/275/74 178/273/74
f 178/274/75 179/276/75 180/277/75
f 155/240/76 156/241/76 161/246/76 150/232/76 167/252/76 165/250/76 160/245/76
f 150/231/77 176/269/77 162/247/77 163/248/77 166/251/77 167/253/77
f 150/232/78 161/246/78 158/243/78 157/242/78 159/244/78 176/270/78
f 169/257/79 153/238/79 151/234/79 174/266/79 164/249/79
o Cube_cell.006
v -1.000000 1.000000 1.000000
v 0.766857 -0.069272 0.393521
v 0.658629 0.189619 0.106462
v 0.015479 -0.588364 0.650094
v -0.114732 -0.485320 0.506376
v -0.107569 0.285590 -0.242628
v -0.266617 0.385020 -0.278477
v -0.003990 -0.612295 1.000000
v 0.799016 -0.065755 1.000000
v -0.016727 -0.603705 1.000000
v 0.419606 1.000000 1.000000
v 0.419323 1.000000 0.994919
v 0.382179 1.000000 0.338736
v -1.000000 0.064211 1.000000
v -1.000000 0.145682 0.229278
v -1.000000 0.275044 0.103518
v -1.000000 0.316607 0.063281
v -1.000000 0.322649 0.057467
v 0.317128 1.000000 0.305328
v -0.473115 1.000000 -0.099821
v -1.000000 0.384164 0.065642
v -1.000000 1.000000 0.148049
v -0.528023 1.000000 -0.074048
v -0.003990 -0.612295 1.000000
v 0.799016 -0.065755 1.000000
v 0.419606 1.000000 1.000000
v 0.419323 1.000000 0.994919
v -1.000000 0.064211 1.000000
v -1.000000 0.145682 0.229278
v -1.000000 0.275044 0.103518
v 0.317128 1.000000 0.305328
v -0.473115 1.000000 -0.099821
v -1.000000 0.322649 0.057467
v -1.000000 0.384164 0.065642
v -1.000000 1.000000 0.148049
v -0.528023 1.000000 -0.074048
v -0.016727 -0.603705 1.000000
v 0.382179 1.000000 0.338736
v -1.000000 0.316607 0.063281
vn 0.9408 0.3350 -0.0521
vn -0.5570 -0.8259 -0.0875
vn -0.5599 -0.8240 -0.0868
vn 0.2334 -0.6767 -0.6983
vn 0.2313 -0.6791 -0.6967
vn 0.9403 0.3360 -0.0532
vn -0.2628 -0.6725 -0.6918
vn -0.2611 -0.6714 -0.6936
vn -0.2616 -0.6693 -0.6954
vn 0.4226 0.3791 -0.8232
vn 0.4226 0.3800 -0.8228
vn 0.4219 0.3807 -0.8229
vn -0.4227 0.1202 -0.8983
vn -0.4219 0.1194 -0.8988
vn -0.0000 1.0000 -0.0000
vn -0.0000 -0.0000 1.0000
vn -1.0000 -0.0000 -0.0000
vn 0.5624 -0.8265 -0.0251
vt 0.875000 0.750000
vt 0.625000 1.000000
vt 0.625000 0.000000
vt 1.000000 1.000000
vt 1.000000 0.000000
vt 0.000000 0.000000
vt 0.000000 0.000000
vt 1.000000 0.000000
vt 1.000000 1.000000
vt 1.000000 0.000000
vt 1.000000 1.000000
vt 0.000000 0.000000
vt 1.000000 0.000000
vt 0.000000 0.000000
vt 1.000000 1.000000
vt 0.000000 0.000000
vt 1.000000 0.000000
vt 1.000000 1.000000
vt 0.000000 0.000000
vt 1.000000 0.000000
vt 1.000000 0.874734
vt 0.874734 0.874734
vt 1.000000 0.075512
vt 0.924488 0.000000
vt 0.424537 0.877091
vt 0.697549 0.750000
vt 0.625000 0.822549
vt 0.697585 0.749365
vt 0.702228 0.667342
vt 0.508026 1.000000
vt 0.508026 0.000000
vt 0.518210 0.096340
vt 0.534380 0.112060
vt 0.539576 0.117090
vt 0.540331 0.117817
vt 0.710359 0.663166
vt 0.809139 0.612522
vt 0.548020 0.116795
vt 0.875000 0.643506
vt 0.625000 0.106494
vt 0.816003 0.615744
vt 0.423463 0.875499
vt 0.491781 0.775123
vt 0.953182 0.008901
vt 0.941604 0.000000
vt 0.941604 0.941604
vt 0.974880 0.921719
vt 0.053536 0.000000
vt 0.053536 0.053536
vt 1.000000 0.053897
vt 0.053897 0.053897
vt 0.924234 0.000000
vt 0.924234 0.924234
vt 0.925062 0.000000
vt 0.074937 0.000000
vt 0.064342 0.000000
vt 1.000000 0.935658
vt 0.910038 0.000000
vt 0.910038 0.910038
vt 0.910123 0.841237
vt 0.068108 0.000000
vt 0.068108 0.068108
vt 0.907844 0.907844
vt 1.000000 0.907844
vt 0.941433 0.000000
vt 1.000000 0.058567
vt 0.053488 0.000000
vt 0.053488 0.053488
s 0
usemtl Material
f 206/321/80 189/300/80 182/281/80 183/284/80 207/322/80
f 185/291/81 184/287/81 188/298/81 217/340/81
f 209/325/82 185/290/82 217/341/82 208/324/82
f 186/293/83 183/285/83 182/281/83
f 185/291/84 186/294/84 182/282/84 184/288/84
f 183/284/85 218/342/85 207/323/85
f 210/327/86 185/292/86 209/326/86
f 186/294/87 185/292/87 210/328/87 219/344/87
f 187/297/88 186/295/88 219/345/88 213/333/88
f 187/296/89 183/285/89 186/295/89
f 183/286/90 187/296/90 211/329/90 218/343/90
f 211/330/91 187/296/91 212/331/91
f 216/338/92 214/335/92 215/337/92
f 187/297/93 213/334/93 214/336/93 216/339/93 212/332/93
f 202/316/94 181/278/94 191/303/94 192/305/94 193/306/94 199/313/94 200/314/94 203/318/94
f 190/302/95 204/319/95 205/320/95 191/304/95 181/279/95 194/307/95
f 197/311/96 196/310/96 195/309/96 194/308/96 181/280/96 202/317/96 201/315/96 198/312/96
f 182/283/97 189/301/97 188/299/97 184/289/97
o Cube_cell.007
v -1.000000 -1.000000 1.000000
v -0.114908 -0.486993 0.506889
v 0.014928 -0.590558 0.649770
v -0.004975 -0.614425 1.000000
v -0.011774 -0.668109 1.000000
v -0.035586 -1.000000 0.621868
v -0.037843 -1.000000 0.668696
v -0.125644 -1.000000 0.526947
v -0.140395 -1.000000 0.511433
v -0.967873 -1.000000 0.265883
v -1.000000 0.143099 0.230330
v -1.000000 -1.000000 0.256365
v -1.000000 0.061772 1.000000
v -0.964102 0.037401 1.000000
v -0.054150 -1.000000 1.000000
v -0.004975 -0.614425 1.000000
v -0.011774 -0.668109 1.000000
v -0.125644 -1.000000 0.526947
v -0.140395 -1.000000 0.511433
v -0.967873 -1.000000 0.265883
v -1.000000 0.143099 0.230330
v -1.000000 -1.000000 0.256365
v -1.000000 0.061772 1.000000
v -0.964102 0.037401 1.000000
v -0.035586 -1.000000 0.621868
v -0.037843 -1.000000 0.668696
v -0.054150 -1.000000 1.000000
vn 0.9909 -0.1255 0.0478
vn 0.7248 -0.0426 -0.6877
vn 0.7241 -0.0421 -0.6884
vn 0.2844 -0.0226 -0.9584
vn 0.2840 -0.0218 -0.9586
vn 0.5595 0.8242 0.0871
vn 0.9908 -0.1265 0.0488
vn -0.0000 -0.0000 1.0000
vn -1.0000 -0.0000 -0.0000
vn -0.0000 -1.0000 -0.0000
vn 0.5599 0.8238 0.0881
vt 0.375000 1.000000
vt 0.375000 0.000000
vt 0.125000 0.750000
vt 1.000000 0.000000
vt 1.000000 1.000000
vt 1.000000 1.000000
vt 0.423197 0.875622
vt 0.416486 0.876472
vt 0.245552 0.702734
vt 0.245270 0.708587
vt 0.234295 0.690868
vt 0.232451 0.688929
vt 0.129016 0.658235
vt 0.517887 0.096209
vt 0.375000 0.092954
vt 0.125000 0.657046
vt 0.507721 1.000000
vt 0.507721 0.000000
vt 0.504675 0.995513
vt 0.375000 0.881769
vt 0.243231 0.750000
vt 0.125312 0.125312
vt 1.000000 0.125312
vt 0.116218 0.000000
vt 1.000000 0.883782
vt 1.000000 0.109284
vt 0.109284 0.109284
vt 0.089190 0.000000
vt 0.089190 0.089190
vt 1.000000 0.088264
vt 0.088264 0.088264
vt 1.000000 0.053604
vt 0.053604 0.053604
vt 0.069649 0.053917
vt 0.975044 0.053148
vt 1.000000 0.091540
vt 0.091540 0.091540
vt 1.000000 0.109500
vt 0.109500 0.109500
vt 0.883592 0.000000
vt 1.000000 0.116408
vt 0.230902 0.115336
s 0
usemtl Material
f 222/351/98 235/367/98 236/369/98 245/385/98 244/383/98
f 222/351/99 244/384/99 237/371/99
f 238/373/100 221/349/100 222/351/100 237/372/100
f 238/374/101 239/375/101 221/350/101
f 240/377/102 221/350/102 239/376/102 241/379/102
f 240/378/103 242/380/103 243/381/103 221/350/103
f 245/386/104 236/370/104 246/387/104
f 224/353/105 223/352/105 233/364/105 232/362/105 220/346/105 234/365/105
f 231/360/106 220/347/106 232/363/106 230/359/106
f 226/355/107 234/366/107 220/348/107 231/361/107 229/358/107 228/357/107 227/356/107 225/354/107
f 221/350/108 243/382/108 235/368/108 222/351/108
