g DeadHeroHand
v -0.00106214 -0.0006024931 0.001797087
v 1.227902E-05 -0.002211223 0.0007074183
v -0.0005803845 -0.002211128 0.0005785574
v 2.851267E-05 -0.0006024932 0.002034162
v -0.001133268 0.0007481003 0.001958662
v 0.001041726 -0.0006024932 0.001843913
v 0.0005820844 -0.002211223 0.0006040273
v 2.851279E-05 0.0008600378 0.002238112
v -0.001275555 0.002169123 0.001724987
v 0.001094136 0.0007702016 0.002013862
v 2.851279E-05 0.002169123 0.001943138
v 0.001170926 0.001886978 0.001813062
v -0.001417533 0.0003213788 -0.0003064876
v 2.851349E-05 0.002169123 -0.0005754125
v -0.00155982 0.002169123 -0.0005754125
v 2.851325E-05 0.0003213787 -0.0003064876
v 0.001444177 0.001674762 -0.0003747372
v 0.001350495 0.0003213787 -0.0001777625
v -0.001186358 -0.0006024931 -0.0001187621
v -0.001529616 0.001401592 -0.0003064876
v -0.002285951 0.0003119185 -0.000247488
v 2.851314E-05 -0.0006024932 -0.0002474872
v 0.001286514 -0.0006024932 -0.0001187621
v 1.229986E-05 -0.002211413 -0.000554172
v -0.0006693681 -0.002211176 -0.0004723436
v 0.0007212904 -0.002211176 -0.0004723436
v -0.0006693681 -0.002211176 -0.0004723436
v -0.001186358 -0.0006024931 -0.0001187621
v -0.001346405 -0.0006024931 0.0008933373
v -0.002285951 0.0003119185 -0.000247488
v -0.002285951 0.0003119185 0.0008933365
v -0.001417533 0.0003213788 0.0008933373
v -0.001529616 0.001401592 -0.0003064876
v -0.001529616 0.001401592 0.0008933373
v -0.001417533 0.0003213788 -0.0003064876
v -0.00155982 0.002169123 -0.0005754125
v -0.000761006 -0.002211429 8.745401E-05
v 0 -0.002367984 0
v 1.229986E-05 -0.002211413 -0.000554172
v 0.0007212904 -0.002211176 -0.0004723436
v -0.00106214 -0.0006024931 0.001797087
v -0.0005803845 -0.002211128 0.0005785574
v 1.227902E-05 -0.002211223 0.0007074183
v -0.001133268 0.0007481003 0.001958662
v 0.0005820844 -0.002211223 0.0006040273
v 0.0007856056 -0.002211413 8.745401E-05
v 0.001286514 -0.0006024932 -0.0001187621
v -0.00155982 0.002169123 0.0008933373
v -0.001275555 0.002169123 0.001724987
v 2.851279E-05 0.002169123 0.001943138
v 0.001403462 -0.0006024932 0.0008933373
v 0.001041726 -0.0006024932 0.001843913
v 0.001094136 0.0007702016 0.002013862
v 2.851302E-05 0.002169123 0.0008933373
v 2.851349E-05 0.002169123 -0.0005754125
v 0.001170926 0.001886978 0.001813062
v 0.00147459 0.0003213787 0.0008933373
v 0.001350495 0.0003213787 -0.0001777625
v 0.001578792 0.001674762 0.0008933373
v 0.001444177 0.001674762 -0.0003747372
vt 0.02724953 0.4650543
vt 0.02724953 0.4650543
vt 0.02724953 0.4650543
vt 0.02724953 0.4650543
vt 0.02724953 0.4650543
vt 0.02724953 0.4650543
vt 0.02724953 0.4650543
vt 0.02724953 0.4650543
vt 0.02724953 0.4650543
vt 0.02724953 0.4650543
vt 0.02724953 0.4650543
vt 0.02724953 0.4650543
vt 0.09235778 0.533263
vt 0.09235778 0.533263
vt 0.09235778 0.533263
vt 0.09235778 0.533263
vt 0.09235778 0.533263
vt 0.09235778 0.533263
vt 0.09235778 0.533263
vt 0.09235778 0.533263
vt 0.09235778 0.533263
vt 0.09235778 0.533263
vt 0.09235778 0.533263
vt 0.09235778 0.533263
vt 0.09235778 0.533263
vt 0.09235778 0.533263
vt 0.1512652 0.3379382
vt 0.1512652 0.3379382
vt 0.1512652 0.3379382
vt 0.1512652 0.3379382
vt 0.1512652 0.3379382
vt 0.1512652 0.3379382
vt 0.1512652 0.3379382
vt 0.1512652 0.3379382
vt 0.1512652 0.3379382
vt 0.1512652 0.3379382
vt 0.1512652 0.3379382
vt 0.1512652 0.3379382
vt 0.1512652 0.3379382
vt 0.1512652 0.3379382
vt 0.1512652 0.3379382
vt 0.1512652 0.3379382
vt 0.1512652 0.3379382
vt 0.1512652 0.3379382
vt 0.1512652 0.3379382
vt 0.1512652 0.3379382
vt 0.1512652 0.3379382
vt 0.1512652 0.3379382
vt 0.1512652 0.3379382
vt 0.1512652 0.3379382
vt 0.1512652 0.3379382
vt 0.1512652 0.3379382
vt 0.1512652 0.3379382
vt 0.1512652 0.3379382
vt 0.1512652 0.3379382
vt 0.1512652 0.3379382
vt 0.1512652 0.3379382
vt 0.1512652 0.3379382
vt 0.1512652 0.3379382
vt 0.1512652 0.3379382
vn -0.6218021 -0.353862 0.6986729
vn -0.00947524 -0.8345082 0.550914
vn -0.4427782 -0.7935209 0.4174592
vn -0.01276757 -0.3882532 0.9214644
vn -0.6488147 -0.02442961 0.7605541
vn 0.5932226 -0.3560938 0.7220001
vn 0.4213841 -0.7978517 0.4311242
vn -0.01050913 0.03510728 0.9993283
vn -0.5571787 0.6272522 0.5441568
vn 0.6157689 -0.01178445 0.7878387
vn 0.07550772 0.7661055 0.6382641
vn 0.5976329 0.5894408 0.5435022
vn -0.06860901 -0.1178723 -0.9906558
vn 0.1495668 0.6654651 -0.7312906
vn -0.5925035 0.5189857 -0.6161115
vn 0.03599126 -0.124162 -0.991609
vn 0.668609 0.4091697 -0.6209203
vn 0.7052708 -0.1193349 -0.6988221
vn -0.5721359 -0.3269253 -0.7521837
vn 0.2144938 0.786413 -0.5792642
vn -0.8092691 -0.1188701 -0.5752854
vn 0.01229836 0.04129251 -0.9990714
vn 0.7435879 -0.1172456 -0.6582783
vn -0.001907868 -0.5057377 -0.8626852
vn -0.5035809 -0.5389593 -0.6752253
vn 0.5057461 -0.5463987 -0.6675848
vn -0.5035809 -0.5389593 -0.6752253
vn -0.5721359 -0.3269253 -0.7521837
vn -0.8733601 -0.4213655 0.2443219
vn -0.8092691 -0.1188701 -0.5752854
vn -0.8116196 -0.0954819 0.5763304
vn -0.5950969 -0.03732428 0.8027868
vn 0.2144938 0.786413 -0.5792642
vn 0.2087802 0.8119559 0.5451041
vn -0.06860901 -0.1178723 -0.9906558
vn -0.5925035 0.5189857 -0.6161115
vn -0.6909841 -0.7226287 0.01867344
vn -0.003683244 -0.9997577 -0.02170436
vn -0.001907868 -0.5057377 -0.8626852
vn 0.5057461 -0.5463987 -0.6675848
vn -0.6218021 -0.353862 0.6986729
vn -0.4427782 -0.7935209 0.4174592
vn -0.00947524 -0.8345082 0.550914
vn -0.6488147 -0.02442961 0.7605541
vn 0.4213841 -0.7978517 0.4311242
vn 0.6722448 -0.738759 0.04818756
vn 0.7435879 -0.1172456 -0.6582783
vn -0.7551606 0.6453786 0.114974
vn -0.5571787 0.6272522 0.5441568
vn 0.07550772 0.7661055 0.6382641
vn 0.9575515 -0.2494279 0.1445019
vn 0.5932226 -0.3560938 0.7220001
vn 0.6157689 -0.01178445 0.7878387
vn 0.1496994 0.9886064 -0.01573079
vn 0.1495668 0.6654651 -0.7312906
vn 0.5976329 0.5894408 0.5435022
vn 0.9893063 -0.07174918 0.1269846
vn 0.7052708 -0.1193349 -0.6988221
vn 0.8629717 0.4975389 0.08794842
vn 0.668609 0.4091697 -0.6209203
g DeadHeroHand_0
f 3/3/3 2/2/2 1/1/1
f 2/2/2 4/4/4 1/1/1
f 5/5/5 1/1/1 4/4/4
f 6/6/6 4/4/4 2/2/2
f 7/7/7 6/6/6 2/2/2
f 8/8/8 5/5/5 4/4/4
f 8/8/8 4/4/4 6/6/6
f 9/9/9 5/5/5 8/8/8
f 10/10/10 8/8/8 6/6/6
f 11/11/11 9/9/9 8/8/8
f 11/11/11 8/8/8 10/10/10
f 12/12/12 11/11/11 10/10/10
f 15/15/15 14/14/14 13/13/13
f 14/14/14 16/16/16 13/13/13
f 14/14/14 17/17/17 16/16/16
f 17/17/17 18/18/18 16/16/16
f 13/13/13 16/16/16 19/19/19
f 20/20/20 13/13/13 19/19/19
f 21/21/21 20/20/20 19/19/19
f 16/16/16 18/18/18 22/22/22
f 16/16/16 22/22/22 19/19/19
f 18/18/18 23/23/23 22/22/22
f 19/19/19 22/22/22 24/24/24
f 24/24/24 22/22/22 23/23/23
f 25/25/25 19/19/19 24/24/24
f 26/26/26 24/24/24 23/23/23
f 29/29/29 28/28/28 27/27/27
f 30/30/30 28/28/28 29/29/29
f 31/31/31 30/30/30 29/29/29
f 31/31/31 29/29/29 32/32/32
f 33/33/33 30/30/30 31/31/31
f 34/34/34 33/33/33 31/31/31
f 34/34/34 31/31/31 32/32/32
f 33/33/33 34/34/34 35/35/35
f 34/34/34 32/32/32 35/35/35
f 36/36/36 35/35/35 32/32/32
f 37/37/37 29/29/29 27/27/27
f 27/27/27 38/38/38 37/37/37
f 39/39/39 38/38/38 27/27/27
f 40/40/40 38/38/38 39/39/39
f 41/41/41 29/29/29 37/37/37
f 32/32/32 29/29/29 41/41/41
f 42/42/42 41/41/41 37/37/37
f 37/37/37 38/38/38 42/42/42
f 42/42/42 38/38/38 43/43/43
f 44/44/44 32/32/32 41/41/41
f 43/43/43 38/38/38 45/45/45
f 46/46/46 38/38/38 40/40/40
f 45/45/45 38/38/38 46/46/46
f 40/40/40 47/47/47 46/46/46
f 48/48/48 32/32/32 44/44/44
f 48/48/48 36/36/36 32/32/32
f 49/49/49 48/48/48 44/44/44
f 49/49/49 50/50/50 48/48/48
f 46/46/46 51/51/51 45/45/45
f 47/47/47 51/51/51 46/46/46
f 51/51/51 52/52/52 45/45/45
f 53/53/53 52/52/52 51/51/51
f 48/48/48 54/54/54 36/36/36
f 50/50/50 54/54/54 48/48/48
f 54/54/54 55/55/55 36/36/36
f 50/50/50 56/56/56 54/54/54
f 57/57/57 51/51/51 47/47/47
f 57/57/57 53/53/53 51/51/51
f 56/56/56 53/53/53 57/57/57
f 58/58/58 57/57/57 47/47/47
f 54/54/54 59/59/59 55/55/55
f 56/56/56 59/59/59 54/54/54
f 59/59/59 56/56/56 57/57/57
f 59/59/59 57/57/57 58/58/58
f 59/59/59 60/60/60 55/55/55
f 60/60/60 59/59/59 58/58/58
