g DynamiteRope
v 0.02342305 0.2821057 -0.01676976
v -0.00932814 0.2592396 -0.03279565
v 0.01882645 0.2554996 -0.01639779
v -0.005292567 0.2864758 -0.03356643
v -0.03748273 0.2629796 -0.01639781
v 0.02342304 0.2821057 0.01676987
v 0.01882645 0.2554996 0.0163979
v -0.03405444 0.2908532 -0.0167968
v -0.03748275 0.2629796 0.0163979
v -0.005292584 0.2864758 0.03356654
v -0.009328154 0.2592396 0.03279575
v -0.03405445 0.2908532 0.0167969
v 0.02949745 0.3116013 -0.01763973
v 0.02949744 0.3116013 0.01763985
v -0.000754964 0.3158747 -0.0352952
v -0.03103427 0.3201519 -0.01765542
v -0.0007549781 0.3158747 0.03529532
v -0.03103428 0.3201519 0.01765552
v 0.03550374 0.3450324 -0.01862866
v 0.03550374 0.3450324 0.01862879
v 0.00333445 0.3476726 -0.03717327
v -0.0286891 0.350297 -0.01854395
v 0.00333443 0.3476726 0.0371734
v -0.0286891 0.350297 0.01854406
v 0.03877831 0.3809031 -0.01932259
v 0.0387783 0.3809031 0.01932274
v 0.005264061 0.3798943 -0.03850938
v -0.02799911 0.3787886 -0.01917054
v 0.005264034 0.3798943 0.03850952
v -0.02799913 0.3787886 0.01917065
v 0.03597387 0.4156267 -0.01941347
v 0.03597386 0.4156267 0.01941364
v 0.002945887 0.4093171 -0.03882704
v -0.03007931 0.4029882 -0.01941089
v -0.005311695 0.4367925 -0.03882704
v 0.02536643 0.4505588 -0.01941346
v 0.002945868 0.4093171 0.03882719
v -0.005311715 0.4367925 0.0388272
v 0.02536643 0.4505588 0.01941365
v -0.03007932 0.4029882 0.01941102
v -0.03598984 0.4230262 -0.01941349
v -0.03598984 0.4230262 0.01941363
v 0.01071406 0.4894873 0.02403364
v 0.01071408 0.4894873 -0.02403342
v -0.02266629 0.4848203 0.0338781
v -0.02266628 0.4848204 -0.03387789
v -0.03514814 0.476215 -0.03488169
v -0.05383226 0.4369031 -0.02403346
v -0.03514815 0.476215 0.03488187
v -0.05383227 0.4369031 0.0240336
vt 0.4086593 0.5252435
vt 0.4086593 0.5252435
vt 0.4086593 0.5252435
vt 0.4086593 0.5252435
vt 0.4086593 0.5252435
vt 0.4086593 0.5252435
vt 0.4086593 0.5252436
vt 0.4086593 0.5252435
vt 0.4086593 0.5252435
vt 0.4086593 0.5252435
vt 0.4086593 0.5252435
vt 0.4086593 0.5252435
vt 0.4086593 0.5252435
vt 0.4086593 0.5252435
vt 0.4086593 0.5252435
vt 0.4086593 0.5252435
vt 0.4086593 0.5252435
vt 0.4086593 0.5252435
vt 0.4086593 0.5252435
vt 0.4086593 0.5252435
vt 0.4086593 0.5252435
vt 0.4086593 0.5252435
vt 0.4086593 0.5252435
vt 0.4086593 0.5252435
vt 0.4086593 0.5252435
vt 0.4086593 0.5252435
vt 0.4086593 0.5252435
vt 0.4086593 0.5252435
vt 0.4086593 0.5252435
vt 0.4086593 0.5252435
vt 0.4086593 0.5252435
vt 0.4086593 0.5252435
vt 0.4086593 0.5252435
vt 0.4086593 0.5252435
vt 0.4086593 0.5252435
vt 0.4086593 0.5252435
vt 0.4086593 0.5252435
vt 0.4086593 0.5252435
vt 0.4086593 0.5252435
vt 0.4086593 0.5252435
vt 0.4086593 0.5252435
vt 0.4086593 0.5252435
vt 0.4086593 0.5252435
vt 0.4086593 0.5252435
vt 0.4086593 0.5252435
vt 0.4086593 0.5252435
vt 0.4086593 0.5252435
vt 0.4086593 0.5252435
vt 0.4086593 0.5252435
vt 0.4086593 0.5252435
vn 0.8489982 -0.1718853 -0.4996572
vn -0.008331424 -0.02708977 -0.9995983
vn 0.8512214 -0.1541656 -0.5016524
vn -0.006785689 -0.04268147 -0.9990657
vn -0.8615445 0.09895552 -0.4979446
vn 0.8489981 -0.1718854 0.4996576
vn 0.8512213 -0.1541656 0.5016526
vn -0.8620682 0.08644702 -0.4993651
vn -0.8615448 0.09895547 0.4979441
vn -0.006786135 -0.04268151 0.9990657
vn -0.008331771 -0.02708975 0.9995983
vn -0.8620684 0.08644702 0.4993645
vn 0.8491235 -0.1782746 -0.4971995
vn 0.8491234 -0.1782748 0.4971998
vn -0.003766899 -0.05819443 -0.9982982
vn -0.8631425 0.0631272 -0.5009991
vn -0.003767348 -0.05819472 0.9982982
vn -0.8631427 0.06312713 0.5009986
vn 0.8593265 -0.1281383 -0.4951146
vn 0.8593264 -0.1281384 0.4951148
vn 0.005073421 -0.05010884 -0.9987308
vn -0.8634686 0.03091609 -0.5034542
vn 0.005072927 -0.05010922 0.9987308
vn -0.863469 0.0309159 0.5034536
vn 0.8708506 -0.01059932 -0.4914336
vn 0.8708504 -0.01059947 0.4914339
vn 0.01978274 -0.02480123 -0.9994967
vn -0.8606545 -0.03418602 -0.5080405
vn 0.01978234 -0.02480158 0.9994967
vn -0.8606548 -0.03418621 0.50804
vn 0.8585629 0.1613441 -0.4866598
vn 0.8585628 0.1613437 0.48666
vn 0.03285979 0.002211171 -0.9994575
vn -0.8418014 -0.1613368 -0.5151125
vn 0.01571674 0.05467207 -0.9983807
vn 0.8174464 0.2775925 -0.5047017
vn 0.03285956 0.002210684 0.9994575
vn 0.01571625 0.05467141 0.9983808
vn 0.8174462 0.2775922 0.5047023
vn -0.8418016 -0.161337 0.515112
vn -0.6924489 -0.4539678 -0.5607386
vn -0.692449 -0.4539682 0.5607381
vn 0.5016903 0.7299343 0.464223
vn 0.5016907 0.7299344 -0.4642223
vn -0.613223 0.456326 0.6447668
vn -0.6132227 0.456327 -0.6447662
vn -0.1213191 0.7666548 -0.6304935
vn -0.8496681 -0.2223257 -0.4781584
vn -0.1213191 0.7666547 0.6304937
vn -0.8496683 -0.2223259 0.4781581
g DynamiteRope_0
f 3/3/3 2/2/2 1/1/1
f 2/2/2 4/4/4 1/1/1
f 2/2/2 5/5/5 4/4/4
f 3/3/3 1/1/1 6/6/6
f 7/7/7 3/3/3 6/6/6
f 5/5/5 8/8/8 4/4/4
f 5/5/5 9/9/9 8/8/8
f 7/7/7 6/6/6 10/10/10
f 11/11/11 7/7/7 10/10/10
f 9/9/9 11/11/11 12/12/12
f 9/9/9 12/12/12 8/8/8
f 11/11/11 10/10/10 12/12/12
f 1/1/1 4/4/4 13/13/13
f 6/6/6 1/1/1 14/14/14
f 1/1/1 13/13/13 14/14/14
f 4/4/4 8/8/8 15/15/15
f 4/4/4 15/15/15 13/13/13
f 8/8/8 12/12/12 16/16/16
f 8/8/8 16/16/16 15/15/15
f 10/10/10 6/6/6 17/17/17
f 6/6/6 14/14/14 17/17/17
f 12/12/12 10/10/10 18/18/18
f 12/12/12 18/18/18 16/16/16
f 10/10/10 17/17/17 18/18/18
f 13/13/13 15/15/15 19/19/19
f 14/14/14 13/13/13 20/20/20
f 13/13/13 19/19/19 20/20/20
f 15/15/15 16/16/16 21/21/21
f 15/15/15 21/21/21 19/19/19
f 16/16/16 18/18/18 22/22/22
f 16/16/16 22/22/22 21/21/21
f 17/17/17 14/14/14 23/23/23
f 14/14/14 20/20/20 23/23/23
f 18/18/18 17/17/17 24/24/24
f 18/18/18 24/24/24 22/22/22
f 17/17/17 23/23/23 24/24/24
f 19/19/19 21/21/21 25/25/25
f 20/20/20 19/19/19 26/26/26
f 19/19/19 25/25/25 26/26/26
f 21/21/21 22/22/22 27/27/27
f 21/21/21 27/27/27 25/25/25
f 22/22/22 24/24/24 28/28/28
f 22/22/22 28/28/28 27/27/27
f 23/23/23 20/20/20 29/29/29
f 20/20/20 26/26/26 29/29/29
f 24/24/24 23/23/23 30/30/30
f 24/24/24 30/30/30 28/28/28
f 23/23/23 29/29/29 30/30/30
f 25/25/25 27/27/27 31/31/31
f 26/26/26 25/25/25 32/32/32
f 25/25/25 31/31/31 32/32/32
f 27/27/27 28/28/28 33/33/33
f 27/27/27 33/33/33 31/31/31
f 28/28/28 30/30/30 34/34/34
f 28/28/28 34/34/34 33/33/33
f 33/33/33 34/34/34 35/35/35
f 33/33/33 35/35/35 36/36/36
f 31/31/31 33/33/33 36/36/36
f 29/29/29 26/26/26 37/37/37
f 26/26/26 32/32/32 37/37/37
f 37/37/37 32/32/32 38/38/38
f 32/32/32 39/39/39 38/38/38
f 32/32/32 31/31/31 39/39/39
f 31/31/31 36/36/36 39/39/39
f 30/30/30 29/29/29 40/40/40
f 30/30/30 40/40/40 34/34/34
f 29/29/29 37/37/37 40/40/40
f 34/34/34 40/40/40 41/41/41
f 34/34/34 41/41/41 35/35/35
f 40/40/40 37/37/37 42/42/42
f 37/37/37 38/38/38 42/42/42
f 40/40/40 42/42/42 41/41/41
f 39/39/39 36/36/36 43/43/43
f 36/36/36 35/35/35 44/44/44
f 36/36/36 44/44/44 43/43/43
f 39/39/39 43/43/43 45/45/45
f 38/38/38 39/39/39 45/45/45
f 43/43/43 44/44/44 46/46/46
f 45/45/45 43/43/43 46/46/46
f 35/35/35 46/46/46 44/44/44
f 38/38/38 45/45/45 46/46/46
f 35/35/35 38/38/38 46/46/46
f 35/35/35 41/41/41 47/47/47
f 41/41/41 42/42/42 48/48/48
f 41/41/41 48/48/48 47/47/47
f 47/47/47 49/49/49 35/35/35
f 49/49/49 38/38/38 35/35/35
f 47/47/47 48/48/48 49/49/49
f 42/42/42 38/38/38 50/50/50
f 38/38/38 49/49/49 50/50/50
f 48/48/48 50/50/50 49/49/49
f 42/42/42 50/50/50 48/48/48
