g Eight
v -0.007571671 -0.00186728 0.002028825
v -0.02495777 0.05208465 0.006687435
v -0.007571672 0.05208465 0.002028842
v -0.02495777 -0.001867282 0.006687417
v -0.04322813 0.05208464 0.02495779
v -0.04322813 -0.001867287 0.02495777
v -0.04991556 0.05208464 0.04991556
v -0.04991556 -0.001867295 0.04991554
v -0.04322816 0.05208463 0.07487334
v -0.04322816 -0.001867305 0.07487333
v -0.02495781 -0.001867309 0.0931437
v -0.02495781 0.05208462 0.09314372
v 0.02495778 0.05208468 -0.09314369
v 0.04322815 0.05208467 -0.07487334
v 0.04322815 -0.001867254 -0.07487335
v 0.02495778 -0.001867249 -0.09314371
v 0 0.05208468 -0.09983111
v 0 -0.001867246 -0.09983113
v -0.02495781 0.05208468 -0.09314369
v -0.02495781 -0.001867249 -0.0931437
v 0 0.05208462 0.09983114
v -0.02495781 0.05208462 0.09314372
v -0.02495781 -0.001867309 0.0931437
v 0 -0.001867312 0.09983113
v 0.02495778 0.05208462 0.09314372
v 0.02495778 -0.001867309 0.09314371
v 0.04322815 0.05208463 0.07487337
v 0.04322815 -0.001867305 0.07487335
v -0.04322816 -0.001867254 -0.07487333
v -0.02495781 0.05208468 -0.09314369
v -0.02495781 -0.001867249 -0.0931437
v -0.04322816 0.05208467 -0.07487331
v -0.04991556 0.05208467 -0.04991553
v -0.04991556 -0.001867264 -0.04991554
v 0.04322815 -0.001867254 -0.07487335
v 0.04322815 0.05208467 -0.07487334
v 0.04991556 0.05208467 -0.04991556
v 0.04991556 -0.001867264 -0.04991557
v 0.04322815 -0.001867272 -0.02495779
v 0.04322815 0.05208466 -0.02495777
v -0.04991556 -0.001867264 -0.04991554
v -0.04322813 0.05208466 -0.02495775
v -0.04991556 0.05208467 -0.04991553
v -0.04322813 -0.001867272 -0.02495777
v -0.02495777 0.05208465 -0.006687401
v -0.02495777 -0.001867276 -0.006687419
v -0.007571671 0.05208465 -0.002028809
v -0.007571672 -0.001867279 -0.002028826
v 0.04322815 -0.001867272 -0.02495779
v 0.04322815 0.05208466 -0.02495777
v 0.02495779 0.05208465 -0.006687407
v 0.02495779 -0.001867276 -0.006687425
v 0.007571686 -0.001867279 -0.002028828
v 0.007571687 0.05208465 -0.002028811
v 0.02495779 -0.001867282 0.006687423
v 0.04322815 0.05208464 0.0249578
v 0.04322815 -0.001867287 0.02495779
v 0.02495779 0.05208465 0.006687441
v 0.007571686 0.05208465 0.002028844
v 0.007571687 -0.00186728 0.002028827
v 0.04991556 -0.001867295 0.04991557
v 0.04322815 -0.001867287 0.02495779
v 0.04322815 0.05208464 0.0249578
v 0.04991556 0.05208464 0.04991559
v 0.04322815 0.05208463 0.07487337
v 0.04322815 -0.001867305 0.07487335
v 0.007571687 -0.00186728 0.002028827
v 0.007571686 -0.001867279 -0.002028828
v 0.007571687 0.05208465 -0.002028811
v 0.007571686 0.05208465 0.002028844
v -0.007571671 0.05208465 -0.002028809
v -0.007571672 -0.001867279 -0.002028826
v -0.007571671 -0.00186728 0.002028825
v -0.007571672 0.05208465 0.002028842
v 0.007571687 0.05208465 -0.002028811
v 0.02495779 0.05208465 0.006687441
v 0.007571686 0.05208465 0.002028844
v 0.02495779 0.05208465 -0.006687407
v 0.04322815 0.05208466 -0.02495777
v 0.04322815 0.05208464 0.0249578
v 0.126995 0.05208465 2.449249E-08
v 0.1226678 0.05208464 0.03286874
v 0.1226678 0.05208466 -0.0328687
v 0.04991556 0.05208464 0.04991559
v 0.1099809 0.05208463 0.06349752
v 0.08979906 0.05208462 0.08979904
v 0.04322815 0.05208463 0.07487337
v 0.06349753 0.05208461 0.1099809
v 0.02495778 0.05208462 0.09314372
v 0.03286877 0.05208461 0.1226678
v 0.04991556 0.05208467 -0.04991556
v 0.1099809 0.05208467 -0.06349747
v 0.08979904 0.05208468 -0.08979899
v 0.04322815 0.05208467 -0.07487334
v 0.06349751 0.05208469 -0.1099809
v 0.02495778 0.05208468 -0.09314369
v 0.03286873 0.05208469 -0.1226677
v 0 0.05208462 0.09983114
v 5.348304E-08 0.05208461 0.126995
v -0.03286867 0.05208461 0.1226678
v -0.02495781 0.05208462 0.09314372
v -0.06349745 0.05208461 0.109981
v -0.04322816 0.05208463 0.07487334
v -0.08979897 0.05208462 0.08979911
v 0 0.05208468 -0.09983111
v 4.029355E-09 0.0520847 -0.126995
v -0.03286881 0.05208469 -0.1226677
v -0.02495781 0.05208468 -0.09314369
v -0.06349758 0.05208469 -0.1099808
v -0.04322816 0.05208467 -0.07487331
v -0.08979909 0.05208468 -0.08979894
v -0.04991556 0.05208464 0.04991556
v -0.1099809 0.05208463 0.06349758
v -0.1226677 0.05208464 0.0328688
v -0.04991556 0.05208467 -0.04991553
v -0.1099809 0.05208467 -0.06349741
v -0.1226677 0.05208466 -0.03286863
v -0.04322813 0.05208464 0.02495779
v -0.04322813 0.05208466 -0.02495775
v -0.126995 0.05208465 9.312188E-08
v -0.02495777 0.05208465 0.006687435
v -0.02495777 0.05208465 -0.006687401
v -0.007571671 0.05208465 -0.002028809
v -0.007571672 0.05208465 0.002028842
v -0.007571672 -0.001867279 -0.002028826
v -0.02495777 -0.001867276 -0.006687419
v -0.007571671 -0.00186728 0.002028825
v -0.02495777 -0.001867282 0.006687417
v -0.04322813 -0.001867287 0.02495777
v -0.04322813 -0.001867272 -0.02495777
v -0.126995 -0.001867279 8.160813E-08
v -0.1226677 -0.00186729 0.0328688
v -0.1226678 -0.001867268 -0.03286864
v -0.04991556 -0.001867295 0.04991554
v -0.1099809 -0.001867301 0.06349757
v -0.08979897 -0.001867309 0.0897991
v -0.04322816 -0.001867305 0.07487333
v -0.06349743 -0.001867316 0.1099809
v -0.02495781 -0.001867309 0.0931437
v -0.03286867 -0.00186732 0.1226678
v -0.04991556 -0.001867264 -0.04991554
v -0.1099809 -0.001867258 -0.06349742
v -0.08979908 -0.00186725 -0.08979896
v -0.04322816 -0.001867254 -0.07487333
v -0.06349757 -0.001867243 -0.1099808
v -0.02495781 -0.001867249 -0.0931437
v -0.03286882 -0.001867239 -0.1226677
v 0 -0.001867312 0.09983113
v 5.116632E-08 -0.001867321 0.126995
v 0.03286877 -0.00186732 0.1226678
v 0.02495778 -0.001867309 0.09314371
v 0.06349754 -0.001867316 0.1099809
v 0.04322815 -0.001867305 0.07487335
v 0.08979905 -0.001867309 0.08979902
v 0 -0.001867246 -0.09983113
v 1.712638E-09 -0.001867238 -0.126995
v 0.03286872 -0.001867239 -0.1226677
v 0.02495778 -0.001867249 -0.09314371
v 0.06349751 -0.001867243 -0.1099809
v 0.04322815 -0.001867254 -0.07487335
v 0.08979904 -0.00186725 -0.08979902
v 0.04991556 -0.001867295 0.04991557
v 0.1099809 -0.001867301 0.06349751
v 0.1226678 -0.00186729 0.03286874
v 0.04991556 -0.001867264 -0.04991557
v 0.1099809 -0.001867258 -0.06349748
v 0.1226678 -0.001867268 -0.0328687
v 0.04322815 -0.001867287 0.02495779
v 0.04322815 -0.001867272 -0.02495779
v 0.126995 -0.001867279 1.297874E-08
v 0.02495779 -0.001867282 0.006687423
v 0.02495779 -0.001867276 -0.006687425
v 0.007571687 -0.00186728 0.002028827
v 0.007571686 -0.001867279 -0.002028828
v -0.03286867 -0.00186732 0.1226678
v 5.348304E-08 0.05208461 0.126995
v 5.116632E-08 -0.001867321 0.126995
v 0.03286877 -0.00186732 0.1226678
v -0.03286867 0.05208461 0.1226678
v 0.03286877 0.05208461 0.1226678
v -0.06349743 -0.001867316 0.1099809
v -0.06349745 0.05208461 0.109981
v -0.08979897 -0.001867309 0.0897991
v -0.08979897 0.05208462 0.08979911
v -0.1099809 -0.001867301 0.06349757
v -0.1099809 0.05208463 0.06349758
v -0.1226677 -0.00186729 0.0328688
v -0.1226677 0.05208464 0.0328688
v -0.126995 -0.001867279 8.160813E-08
v -0.126995 0.05208465 9.312188E-08
v -0.1226678 -0.001867268 -0.03286864
v -0.1226677 0.05208466 -0.03286863
v -0.1099809 -0.001867258 -0.06349742
v -0.1099809 0.05208467 -0.06349741
v -0.08979908 -0.00186725 -0.08979896
v -0.08979909 0.05208468 -0.08979894
v -0.06349757 -0.001867243 -0.1099808
v -0.06349758 0.05208469 -0.1099808
v -0.03286882 -0.001867239 -0.1226677
v -0.03286881 0.05208469 -0.1226677
v 1.712638E-09 -0.001867238 -0.126995
v 4.029355E-09 0.0520847 -0.126995
v 0.03286872 -0.001867239 -0.1226677
v 0.03286873 0.05208469 -0.1226677
v 0.06349751 -0.001867243 -0.1099809
v 0.06349751 0.05208469 -0.1099809
v 0.08979904 -0.00186725 -0.08979902
v 0.08979904 0.05208468 -0.08979899
v 0.1099809 -0.001867258 -0.06349748
v 0.1099809 0.05208467 -0.06349747
v 0.1226678 -0.001867268 -0.0328687
v 0.1226678 0.05208466 -0.0328687
v 0.126995 -0.001867279 1.297874E-08
v 0.126995 0.05208465 2.449249E-08
v 0.1226678 0.05208464 0.03286874
v 0.1226678 -0.00186729 0.03286874
v 0.1099809 0.05208463 0.06349752
v 0.1099809 -0.001867301 0.06349751
v 0.08979905 -0.001867309 0.08979902
v 0.08979906 0.05208462 0.08979904
v 0.06349753 0.05208461 0.1099809
v 0.06349754 -0.001867316 0.1099809
vn 0.2588191 0 0.9659258
vn 0.4999999 0 0.8660254
vn 0.2588191 0 0.9659258
vn 0.4999999 0 0.8660254
vn 0.8660253 0 0.5000002
vn 0.8660253 0 0.5000002
vn 1 0 0
vn 1 0 0
vn 0.8660257 0 -0.4999995
vn 0.8660257 0 -0.4999995
vn 0.7071072 0 -0.7071063
vn 0.7071072 0 -0.7071063
vn -0.4999999 0 0.8660255
vn -0.7071066 0 0.7071069
vn -0.7071066 0 0.7071069
vn -0.4999999 0 0.8660254
vn 0 0 1
vn 0 0 1
vn 0.258819 0 0.9659258
vn 0.258819 0 0.9659258
vn 0 0 -1
vn 0.258819 0 -0.9659258
vn 0.258819 0 -0.9659258
vn 0 0 -1
vn -0.4999999 0 -0.8660254
vn -0.4999999 0 -0.8660254
vn -0.7071066 0 -0.7071069
vn -0.7071066 0 -0.7071069
vn 0.8660258 0 0.4999994
vn 0.7071073 0 0.7071062
vn 0.7071073 0 0.7071062
vn 0.8660258 0 0.4999994
vn 0.9659259 0 0.2588185
vn 0.9659259 0 0.2588185
vn -0.9659258 0 0.2588189
vn -0.9659258 0 0.2588189
vn -1 0 0
vn -1 0 0
vn -0.9659258 0 -0.2588191
vn -0.9659258 0 -0.2588191
vn 0.9659256 0 -0.2588197
vn 0.8660251 0 -0.5000004
vn 0.9659256 0 -0.2588197
vn 0.8660253 0 -0.5000004
vn 0.4999999 0 -0.8660255
vn 0.4999999 0 -0.8660255
vn 0.2588191 0 -0.9659258
vn 0.2588191 0 -0.9659258
vn -0.7071066 0 -0.7071068
vn -0.7071066 0 -0.7071068
vn -0.5 0 -0.8660254
vn -0.5 0 -0.8660254
vn -0.2588193 0 -0.9659257
vn -0.2588193 0 -0.9659257
vn -0.5000002 0 0.8660253
vn -0.7071068 0 0.7071067
vn -0.7071068 0 0.7071067
vn -0.5000002 0 0.8660253
vn -0.2588193 0 0.9659257
vn -0.2588193 0 0.9659257
vn -1 0 0
vn -0.9659258 0 0.2588188
vn -0.9659258 0 0.2588188
vn -1 0 0
vn -0.9659258 0 -0.2588189
vn -0.9659258 0 -0.2588189
vn -1 0 0
vn -1 0 0
vn -1 0 0
vn -1 0 0
vn 1 0 0
vn 1 0 0
vn 1 0 0
vn 1 0 0
vn 0 1 0
vn 0 1 0
vn 0 1 0
vn 0 1 0
vn 0 1 0
vn 0 1 0
vn 0 1 0
vn 0 1 0
vn 0 1 0
vn 0 1 0
vn 0 1 0
vn 0 1 0
vn 0 1 0
vn 0 1 0
vn 0 1 0
vn 0 1 0
vn 0 1 0
vn 0 1 0
vn 0 1 0
vn 0 1 0
vn 0 1 0
vn 0 1 0
vn 0 1 0
vn 0 1 0
vn 0 1 0
vn 0 1 0
vn 0 1 0
vn 0 1 0
vn 0 1 0
vn 0 1 0
vn 0 1 0
vn 0 1 0
vn 0 1 0
vn 0 1 0
vn 0 1 0
vn 0 1 0
vn 0 1 0
vn 0 1 0
vn 0 1 0
vn 0 1 0
vn 0 1 0
vn 0 1 0
vn 0 1 0
vn 0 1 0
vn 0 1 0
vn 0 1 0
vn 0 1 0
vn 0 1 0
vn 0 1 0
vn 0 1 0
vn 0 -1 0
vn 0 -1 0
vn 0 -1 0
vn 0 -1 0
vn 0 -1 0
vn 0 -1 0
vn 0 -1 0
vn 0 -1 0
vn 0 -1 0
vn 0 -1 0
vn 0 -1 0
vn 0 -1 0
vn 0 -1 0
vn 0 -1 0
vn 0 -1 0
vn 0 -1 0
vn 0 -1 0
vn 0 -1 0
vn 0 -1 0
vn 0 -1 0
vn 0 -1 0
vn 0 -1 0
vn 0 -1 0
vn 0 -1 0
vn 0 -1 0
vn 0 -1 0
vn 0 -1 0
vn 0 -1 0
vn 0 -1 0
vn 0 -1 0
vn 0 -1 0
vn 0 -1 0
vn 0 -1 0
vn 0 -1 0
vn 0 -1 0
vn 0 -1 0
vn 0 -1 0
vn 0 -1 0
vn 0 -1 0
vn 0 -1 0
vn 0 -1 0
vn 0 -1 0
vn 0 -1 0
vn 0 -1 0
vn 0 -1 0
vn 0 -1 0
vn 0 -1 0
vn 0 -1 0
vn 0 -1 0
vn 0 -1 0
vn -0.2588187 0 0.9659258
vn 0 0 1
vn 0 0 1
vn 0.2588195 0 0.9659257
vn -0.2588187 0 0.9659258
vn 0.2588195 0 0.9659257
vn -0.4999995 0 0.8660257
vn -0.4999995 0 0.8660257
vn -0.7071062 0 0.7071073
vn -0.7071062 0 0.7071072
vn -0.8660253 0 0.5000004
vn -0.8660253 0 0.5000004
vn -0.9659257 0 0.2588193
vn -0.9659257 0 0.2588193
vn -1 0 0
vn -1 0 0
vn -0.9659259 0 -0.2588184
vn -0.9659259 0 -0.2588184
vn -0.8660259 0 -0.4999992
vn -0.8660259 0 -0.4999992
vn -0.7071072 0 -0.7071062
vn -0.7071072 0 -0.7071063
vn -0.5000005 0 -0.8660251
vn -0.5000005 0 -0.8660251
vn -0.2588198 0 -0.9659256
vn -0.2588198 0 -0.9659256
vn 0 0 -1
vn 0 0 -1
vn 0.2588192 0 -0.9659257
vn 0.2588192 0 -0.9659257
vn 0.4999999 0 -0.8660255
vn 0.4999999 0 -0.8660255
vn 0.7071068 0 -0.7071067
vn 0.7071068 0 -0.7071067
vn 0.8660255 0 -0.4999999
vn 0.8660254 0 -0.5
vn 0.9659257 0 -0.2588192
vn 0.9659257 0 -0.2588193
vn 1 0 0
vn 1 0 0
vn 0.9659257 0 0.2588193
vn 0.9659257 0 0.2588193
vn 0.8660255 0 0.4999999
vn 0.8660255 0 0.4999999
vn 0.7071068 0 0.7071067
vn 0.7071068 0 0.7071067
vn 0.5000002 0 0.8660253
vn 0.5000003 0 0.8660253
g Eight_0
f 3/3/3 2/2/2 1/1/1
f 2/2/2 4/4/4 1/1/1
f 2/2/2 5/5/5 4/4/4
f 5/5/5 6/6/6 4/4/4
f 5/5/5 7/7/7 6/6/6
f 7/7/7 8/8/8 6/6/6
f 7/7/7 9/9/9 8/8/8
f 9/9/9 10/10/10 8/8/8
f 10/10/10 9/9/9 11/11/11
f 9/9/9 12/12/12 11/11/11
f 15/15/15 14/14/14 13/13/13
f 16/16/16 15/15/15 13/13/13
f 13/13/13 17/17/17 16/16/16
f 17/17/17 18/18/18 16/16/16
f 18/18/18 17/17/17 19/19/19
f 20/20/20 18/18/18 19/19/19
f 23/23/23 22/22/22 21/21/21
f 24/24/24 23/23/23 21/21/21
f 21/21/21 25/25/25 24/24/24
f 25/25/25 26/26/26 24/24/24
f 25/25/25 27/27/27 26/26/26
f 27/27/27 28/28/28 26/26/26
f 31/31/31 30/30/30 29/29/29
f 30/30/30 32/32/32 29/29/29
f 32/32/32 33/33/33 29/29/29
f 33/33/33 34/34/34 29/29/29
f 37/37/37 36/36/36 35/35/35
f 38/38/38 37/37/37 35/35/35
f 37/37/37 38/38/38 39/39/39
f 40/40/40 37/37/37 39/39/39
f 43/43/43 42/42/42 41/41/41
f 42/42/42 44/44/44 41/41/41
f 42/42/42 45/45/45 44/44/44
f 45/45/45 46/46/46 44/44/44
f 46/46/46 45/45/45 47/47/47
f 48/48/48 46/46/46 47/47/47
f 51/51/51 50/50/50 49/49/49
f 52/52/52 51/51/51 49/49/49
f 51/51/51 52/52/52 53/53/53
f 54/54/54 51/51/51 53/53/53
f 57/57/57 56/56/56 55/55/55
f 56/56/56 58/58/58 55/55/55
f 58/58/58 59/59/59 55/55/55
f 59/59/59 60/60/60 55/55/55
f 63/63/63 62/62/62 61/61/61
f 64/64/64 63/63/63 61/61/61
f 65/65/65 64/64/64 61/61/61
f 66/66/66 65/65/65 61/61/61
f 69/69/69 68/68/68 67/67/67
f 70/70/70 69/69/69 67/67/67
f 73/73/73 72/72/72 71/71/71
f 74/74/74 73/73/73 71/71/71
f 77/77/77 76/76/76 75/75/75
f 75/75/75 76/76/76 78/78/78
f 78/78/78 76/76/76 79/79/79
f 80/80/80 79/79/79 76/76/76
f 79/79/79 80/80/80 81/81/81
f 81/81/81 80/80/80 82/82/82
f 83/83/83 79/79/79 81/81/81
f 82/82/82 80/80/80 84/84/84
f 82/82/82 84/84/84 85/85/85
f 85/85/85 84/84/84 86/86/86
f 86/86/86 84/84/84 87/87/87
f 86/86/86 87/87/87 88/88/88
f 89/89/89 88/88/88 87/87/87
f 88/88/88 89/89/89 90/90/90
f 83/83/83 91/91/91 79/79/79
f 92/92/92 91/91/91 83/83/83
f 93/93/93 91/91/91 92/92/92
f 94/94/94 91/91/91 93/93/93
f 95/95/95 94/94/94 93/93/93
f 95/95/95 96/96/96 94/94/94
f 97/97/97 96/96/96 95/95/95
f 98/98/98 90/90/90 89/89/89
f 99/99/99 90/90/90 98/98/98
f 99/99/99 98/98/98 100/100/100
f 98/98/98 101/101/101 100/100/100
f 100/100/100 101/101/101 102/102/102
f 102/102/102 101/101/101 103/103/103
f 102/102/102 103/103/103 104/104/104
f 97/97/97 105/105/105 96/96/96
f 106/106/106 105/105/105 97/97/97
f 107/107/107 105/105/105 106/106/106
f 108/108/108 105/105/105 107/107/107
f 107/107/107 109/109/109 108/108/108
f 108/108/108 109/109/109 110/110/110
f 111/111/111 110/110/110 109/109/109
f 104/104/104 103/103/103 112/112/112
f 104/104/104 112/112/112 113/113/113
f 113/113/113 112/112/112 114/114/114
f 110/110/110 111/111/111 115/115/115
f 116/116/116 115/115/115 111/111/111
f 117/117/117 115/115/115 116/116/116
f 118/118/118 114/114/114 112/112/112
f 115/115/115 117/117/117 119/119/119
f 118/118/118 120/120/120 114/114/114
f 120/120/120 119/119/119 117/117/117
f 119/119/119 120/120/120 118/118/118
f 121/121/121 119/119/119 118/118/118
f 122/122/122 119/119/119 121/121/121
f 123/123/123 122/122/122 121/121/121
f 124/124/124 123/123/123 121/121/121
f 127/127/127 126/126/126 125/125/125
f 128/128/128 126/126/126 127/127/127
f 129/129/129 126/126/126 128/128/128
f 129/129/129 130/130/130 126/126/126
f 131/131/131 130/130/130 129/129/129
f 131/131/131 129/129/129 132/132/132
f 133/133/133 130/130/130 131/131/131
f 134/134/134 132/132/132 129/129/129
f 132/132/132 134/134/134 135/135/135
f 135/135/135 134/134/134 136/136/136
f 136/136/136 134/134/134 137/137/137
f 136/136/136 137/137/137 138/138/138
f 139/139/139 138/138/138 137/137/137
f 138/138/138 139/139/139 140/140/140
f 141/141/141 130/130/130 133/133/133
f 142/142/142 141/141/141 133/133/133
f 143/143/143 141/141/141 142/142/142
f 143/143/143 144/144/144 141/141/141
f 145/145/145 144/144/144 143/143/143
f 144/144/144 145/145/145 146/146/146
f 147/147/147 146/146/146 145/145/145
f 148/148/148 140/140/140 139/139/139
f 149/149/149 140/140/140 148/148/148
f 148/148/148 150/150/150 149/149/149
f 151/151/151 150/150/150 148/148/148
f 150/150/150 151/151/151 152/152/152
f 153/153/153 152/152/152 151/151/151
f 152/152/152 153/153/153 154/154/154
f 155/155/155 146/146/146 147/147/147
f 156/156/156 155/155/155 147/147/147
f 156/156/156 157/157/157 155/155/155
f 155/155/155 157/157/157 158/158/158
f 159/159/159 158/158/158 157/157/157
f 158/158/158 159/159/159 160/160/160
f 161/161/161 160/160/160 159/159/159
f 153/153/153 162/162/162 154/154/154
f 154/154/154 162/162/162 163/163/163
f 163/163/163 162/162/162 164/164/164
f 161/161/161 165/165/165 160/160/160
f 166/166/166 165/165/165 161/161/161
f 167/167/167 165/165/165 166/166/166
f 162/162/162 168/168/168 164/164/164
f 165/165/165 167/167/167 169/169/169
f 164/164/164 168/168/168 170/170/170
f 170/170/170 169/169/169 167/167/167
f 170/170/170 168/168/168 169/169/169
f 169/169/169 168/168/168 171/171/171
f 169/169/169 171/171/171 172/172/172
f 173/173/173 172/172/172 171/171/171
f 174/174/174 172/172/172 173/173/173
f 177/177/177 176/176/176 175/175/175
f 177/177/177 178/178/178 176/176/176
f 176/176/176 179/179/179 175/175/175
f 178/178/178 180/180/180 176/176/176
f 175/175/175 179/179/179 181/181/181
f 179/179/179 182/182/182 181/181/181
f 181/181/181 182/182/182 183/183/183
f 182/182/182 184/184/184 183/183/183
f 183/183/183 184/184/184 185/185/185
f 184/184/184 186/186/186 185/185/185
f 185/185/185 186/186/186 187/187/187
f 186/186/186 188/188/188 187/187/187
f 187/187/187 188/188/188 189/189/189
f 188/188/188 190/190/190 189/189/189
f 189/189/189 190/190/190 191/191/191
f 190/190/190 192/192/192 191/191/191
f 191/191/191 192/192/192 193/193/193
f 192/192/192 194/194/194 193/193/193
f 193/193/193 194/194/194 195/195/195
f 194/194/194 196/196/196 195/195/195
f 195/195/195 196/196/196 197/197/197
f 196/196/196 198/198/198 197/197/197
f 197/197/197 198/198/198 199/199/199
f 198/198/198 200/200/200 199/199/199
f 199/199/199 200/200/200 201/201/201
f 200/200/200 202/202/202 201/201/201
f 201/201/201 202/202/202 203/203/203
f 202/202/202 204/204/204 203/203/203
f 203/203/203 204/204/204 205/205/205
f 204/204/204 206/206/206 205/205/205
f 205/205/205 206/206/206 207/207/207
f 206/206/206 208/208/208 207/207/207
f 207/207/207 208/208/208 209/209/209
f 208/208/208 210/210/210 209/209/209
f 209/209/209 210/210/210 211/211/211
f 210/210/210 212/212/212 211/211/211
f 211/211/211 212/212/212 213/213/213
f 212/212/212 214/214/214 213/213/213
f 213/213/213 214/214/214 215/215/215
f 216/216/216 213/213/213 215/215/215
f 216/216/216 215/215/215 217/217/217
f 218/218/218 216/216/216 217/217/217
f 218/218/218 217/217/217 219/219/219
f 217/217/217 220/220/220 219/219/219
f 219/219/219 220/220/220 221/221/221
f 222/222/222 219/219/219 221/221/221
f 222/222/222 221/221/221 178/178/178
f 221/221/221 180/180/180 178/178/178
