g FlamingoCircleColor
v 0.03729898 0.1298223 -0.1434564
v 5.282885E-09 0.07976204 -0.1319691
v 5.282885E-09 0.1298223 -0.1481949
v -0.03729896 0.1298223 -0.1434564
v 0.03417433 0.07976204 -0.1274679
v -0.03417431 0.07976204 -0.1274679
v 0.07336231 0.1298223 -0.1288875
v -0.07336229 0.1298223 -0.1288875
v 0.06600399 0.07976203 -0.1142792
v -0.06600397 0.07976203 -0.1142792
v 0.1044261 0.1298223 -0.1054812
v -0.1044261 0.1298223 -0.1054812
v 0.09333558 0.07976203 -0.09330175
v -0.09333557 0.07976203 -0.09330175
v 0.1283734 0.1298223 -0.07483261
v -0.1283734 0.1298223 -0.07483261
v 0.1143065 0.07976203 -0.06596515
v -0.1143065 0.07976203 -0.06596515
v 0.1435723 0.1298223 -0.03903026
v -0.1435723 0.1298223 -0.03903026
v 0.1274877 0.07976203 -0.03413234
v -0.1274877 0.07976203 -0.03413234
v 0.148987 0.1298223 -0.0005140921
v -0.148987 0.1298223 -0.0005140921
v 0.1319807 0.07976202 2.731593E-05
v -0.1319807 0.07976202 2.731593E-05
v 0.1442485 0.1298223 0.03809109
v -0.1442485 0.1298223 0.03809109
v 0.1274795 0.07976201 0.03418591
v -0.1274795 0.07976201 0.03418591
v 0.1296797 0.1298223 0.07415441
v -0.1296797 0.1298223 0.07415441
v 0.1142908 0.079762 0.06601556
v -0.1142908 0.079762 0.06601556
v 0.1062734 0.1298223 0.1052182
v -0.1062734 0.1298223 0.1052182
v 0.09331334 0.079762 0.09334715
v -0.09331332 0.079762 0.09334715
v 0.07562473 0.1298223 0.1291656
v -0.07562472 0.1298223 0.1291656
v 0.06597674 0.079762 0.1143181
v -0.06597672 0.079762 0.1143181
v 0.03982239 0.1298223 0.1443645
v -0.03982238 0.1298223 0.1443645
v 0.03414393 0.079762 0.1274992
v -0.03414392 0.079762 0.1274992
v 5.282885E-09 0.1298223 0.1497791
v 5.282885E-09 0.079762 0.1319923
v 5.282885E-09 0.079762 0.1319923
v 5.282885E-09 0.02970175 0.1482724
v 0.03837568 0.02970175 0.1432201
v -0.03837566 0.02970175 0.1432201
v 0.03414393 0.079762 0.1274992
v -0.03414392 0.079762 0.1274992
v 0.07413615 0.02970175 0.1284077
v -0.07413614 0.02970175 0.1284077
v 0.06597674 0.079762 0.1143181
v -0.06597672 0.079762 0.1143181
v 0.1048444 0.02970175 0.1048445
v -0.1048443 0.02970175 0.1048445
v 0.09331334 0.079762 0.09334715
v -0.09331332 0.079762 0.09334715
v 0.1284076 0.02970176 0.07413626
v -0.1284076 0.02970176 0.07413626
v 0.1142908 0.079762 0.06601556
v -0.1142908 0.079762 0.06601556
v 0.1432201 0.02970177 0.0383758
v -0.1432201 0.02970177 0.0383758
v 0.1274795 0.07976201 0.03418591
v -0.1274795 0.07976201 0.03418591
v 0.1482723 0.02970177 9.594145E-08
v -0.1482723 0.02970177 9.594145E-08
v 0.1319807 0.07976202 2.731593E-05
v -0.1319807 0.07976202 2.731593E-05
v 0.1432201 0.02970178 -0.03837561
v -0.1432201 0.02970178 -0.03837561
v 0.1274877 0.07976203 -0.03413234
v -0.1274877 0.07976203 -0.03413234
v 0.1284076 0.02970178 -0.07413607
v -0.1284076 0.02970178 -0.07413607
v 0.1143065 0.07976203 -0.06596515
v -0.1143065 0.07976203 -0.06596515
v 0.1048444 0.02970179 -0.1048443
v -0.1048444 0.02970179 -0.1048443
v 0.09333558 0.07976203 -0.09330175
v -0.09333557 0.07976203 -0.09330175
v 0.07413621 0.02970179 -0.1284075
v -0.07413619 0.02970179 -0.1284075
v 0.06600399 0.07976203 -0.1142792
v -0.06600397 0.07976203 -0.1142792
v 0.03837574 0.02970179 -0.14322
v -0.03837573 0.02970179 -0.14322
v 0.03417433 0.07976204 -0.1274679
v -0.03417431 0.07976204 -0.1274679
v 5.282885E-09 0.0297018 -0.1482723
v 5.282885E-09 0.07976204 -0.1319691
vt 0.7773438 0.2792969
vt 0.7773438 0.2792969
vt 0.7773438 0.2792969
vt 0.7773438 0.2792969
vt 0.7773438 0.2792969
vt 0.7773438 0.2792969
vt 0.7773438 0.2792969
vt 0.7773438 0.2792969
vt 0.7773438 0.2792969
vt 0.7773438 0.2792969
vt 0.7773438 0.2792969
vt 0.7773438 0.2792969
vt 0.7773438 0.2792969
vt 0.7773438 0.2792969
vt 0.7773438 0.2792969
vt 0.7773438 0.2792969
vt 0.7773438 0.2792969
vt 0.7773438 0.2792969
vt 0.7773438 0.2792969
vt 0.7773438 0.2792969
vt 0.7773438 0.2792969
vt 0.7773438 0.2792969
vt 0.7773438 0.2792969
vt 0.7773438 0.2792969
vt 0.7773438 0.2792969
vt 0.7773438 0.2792969
vt 0.7773438 0.2792969
vt 0.7773438 0.2792969
vt 0.7773438 0.2792969
vt 0.7773438 0.2792969
vt 0.7773438 0.2792969
vt 0.7773438 0.2792969
vt 0.7773438 0.2792969
vt 0.7773438 0.2792969
vt 0.7773438 0.2792969
vt 0.7773438 0.2792969
vt 0.7773438 0.2792969
vt 0.7773438 0.2792969
vt 0.7773438 0.2792969
vt 0.7773438 0.2792969
vt 0.7773438 0.2792969
vt 0.7773438 0.2792969
vt 0.7773438 0.2792969
vt 0.7773438 0.2792969
vt 0.7773438 0.2792969
vt 0.7773438 0.2792969
vt 0.7773438 0.2792969
vt 0.7773438 0.2792969
vt 0.1015626 0.1582032
vt 0.1015626 0.1582032
vt 0.1015626 0.1582032
vt 0.1015626 0.1582032
vt 0.1015626 0.1582032
vt 0.1015626 0.1582032
vt 0.1015626 0.1582032
vt 0.1015626 0.1582032
vt 0.1015626 0.1582032
vt 0.1015626 0.1582032
vt 0.1015626 0.1582032
vt 0.1015626 0.1582032
vt 0.1015626 0.1582032
vt 0.1015626 0.1582032
vt 0.1015626 0.1582032
vt 0.1015626 0.1582032
vt 0.1015626 0.1582032
vt 0.1015626 0.1582032
vt 0.1015626 0.1582032
vt 0.1015626 0.1582032
vt 0.1015626 0.1582032
vt 0.1015626 0.1582032
vt 0.1015626 0.1582032
vt 0.1015626 0.1582032
vt 0.1015626 0.1582032
vt 0.1015626 0.1582032
vt 0.1015626 0.1582032
vt 0.1015626 0.1582032
vt 0.1015626 0.1582032
vt 0.1015626 0.1582032
vt 0.1015626 0.1582032
vt 0.1015626 0.1582032
vt 0.1015626 0.1582032
vt 0.1015626 0.1582032
vt 0.1015626 0.1582032
vt 0.1015626 0.1582032
vt 0.1015626 0.1582032
vt 0.1015626 0.1582032
vt 0.1015626 0.1582032
vt 0.1015626 0.1582032
vt 0.1015626 0.1582032
vt 0.1015626 0.1582032
vt 0.1015626 0.1582032
vt 0.1015626 0.1582032
vt 0.1015626 0.1582032
vt 0.1015626 0.1582032
vt 0.1015626 0.1582032
vt 0.1015626 0.1582032
vn -0.2414382 0.3095489 0.9197212
vn 0 7.147337E-05 1
vn 0 0.3097643 0.9508134
vn 0.2414381 0.3095488 0.9197212
vn -0.2580137 -5.427248E-05 0.9661412
vn 0.2580136 -5.426268E-05 0.9661413
vn -0.4704631 0.310191 0.8261029
vn 0.4704631 0.3101911 0.8261029
vn -0.4986565 0.0003081583 0.8667997
vn 0.4986565 0.0003082221 0.8667997
vn -0.6679245 0.3123038 0.6755317
vn 0.6679245 0.3123038 0.6755317
vn -0.705916 0.001468197 0.708294
vn 0.705916 0.001468207 0.7082941
vn -0.8193119 0.3150585 0.4790262
vn 0.8193118 0.3150585 0.4790264
vn -0.8651292 0.002980297 0.5015401
vn 0.8651292 0.002980326 0.5015402
vn -0.9143743 0.318262 0.2502575
vn 0.9143743 0.318262 0.2502576
vn -0.9654359 0.004740596 0.2605977
vn 0.9654359 0.004740571 0.2605977
vn -0.946831 0.321692 0.00502585
vn 0.946831 0.321692 0.005025953
vn -0.9999763 0.006628273 0.001866138
vn 0.9999763 0.006628213 0.001866129
vn -0.9147473 0.3251132 -0.2398723
vn 0.9147473 0.3251132 -0.2398722
vn -0.9663667 0.008514294 -0.2570273
vn 0.9663667 0.008514279 -0.2570272
vn -0.8205935 0.3282937 -0.4678137
vn 0.8205934 0.3282937 -0.4678138
vn -0.8668697 0.01027043 -0.498429
vn 0.8668696 0.01027042 -0.4984291
vn -0.6709988 0.3310205 -0.6634651
vn 0.6709987 0.3310205 -0.6634653
vn -0.7082471 0.01177767 -0.7058663
vn 0.7082469 0.01177769 -0.7058665
vn -0.4762417 0.3331137 -0.8137745
vn 0.4762417 0.3331137 -0.8137746
vn -0.5013034 0.01293468 -0.8651749
vn 0.5013034 0.01293473 -0.8651749
vn -0.2485689 0.333728 -0.909307
vn 0.2485689 0.3337281 -0.909307
vn -0.2595718 0.01325784 -0.9656327
vn 0.2595718 0.01325795 -0.9656327
vn 0 0.3334569 -0.9427653
vn 0 0.01311018 -0.9999141
vn 0 0.01311018 -0.9999141
vn 0 -0.3092478 -0.9509815
vn -0.2461192 -0.3092642 -0.9185755
vn 0.2461191 -0.309264 -0.9185756
vn -0.2595718 0.01325784 -0.9656327
vn 0.2595718 0.01325795 -0.9656327
vn -0.4754651 -0.3092934 -0.8235719
vn 0.4754651 -0.3092932 -0.8235719
vn -0.5013034 0.01293468 -0.8651749
vn 0.5013034 0.01293473 -0.8651749
vn -0.6724153 -0.309325 -0.6724401
vn 0.6724152 -0.3093249 -0.6724402
vn -0.7082471 0.01177767 -0.7058663
vn 0.7082469 0.01177769 -0.7058665
vn -0.8235334 -0.309366 -0.4754843
vn 0.8235334 -0.309366 -0.4754844
vn -0.8668697 0.01027043 -0.498429
vn 0.8668696 0.01027042 -0.4984291
vn -0.918522 -0.3094136 -0.2461312
vn 0.918522 -0.3094136 -0.2461312
vn -0.9663667 0.008514294 -0.2570273
vn 0.9663667 0.008514279 -0.2570272
vn -0.9509109 -0.3094647 0
vn 0.9509109 -0.3094648 0
vn -0.9999763 0.006628273 0.001866138
vn 0.9999763 0.006628213 0.001866129
vn -0.9184967 -0.309516 0.2460968
vn 0.9184967 -0.309516 0.2460968
vn -0.9654359 0.004740596 0.2605977
vn 0.9654359 0.004740571 0.2605977
vn -0.8234925 -0.3095639 0.4754264
vn 0.8234925 -0.3095638 0.4754266
vn -0.8651292 0.002980297 0.5015401
vn 0.8651292 0.002980326 0.5015402
vn -0.6723759 -0.3096049 0.6723508
vn 0.6723757 -0.3096049 0.6723509
vn -0.705916 0.001468197 0.708294
vn 0.705916 0.001468207 0.7082941
vn -0.4754458 -0.3096365 0.8234541
vn 0.4754457 -0.3096364 0.8234541
vn -0.4986565 0.0003081583 0.8667997
vn 0.4986565 0.0003082221 0.8667997
vn -0.2461085 -0.3096657 0.9184431
vn 0.2461086 -0.3096657 0.9184431
vn -0.2580137 -5.427248E-05 0.9661412
vn 0.2580136 -5.426268E-05 0.9661413
vn 0 -0.3096817 0.9508403
vn 0 7.147337E-05 1
g FlamingoCircleColor_0
f 3/3/3 2/2/2 1/1/1
f 2/2/2 3/3/3 4/4/4
f 2/2/2 5/5/5 1/1/1
f 6/6/6 2/2/2 4/4/4
f 1/1/1 5/5/5 7/7/7
f 6/6/6 4/4/4 8/8/8
f 5/5/5 9/9/9 7/7/7
f 10/10/10 6/6/6 8/8/8
f 7/7/7 9/9/9 11/11/11
f 10/10/10 8/8/8 12/12/12
f 9/9/9 13/13/13 11/11/11
f 14/14/14 10/10/10 12/12/12
f 11/11/11 13/13/13 15/15/15
f 14/14/14 12/12/12 16/16/16
f 13/13/13 17/17/17 15/15/15
f 18/18/18 14/14/14 16/16/16
f 15/15/15 17/17/17 19/19/19
f 18/18/18 16/16/16 20/20/20
f 17/17/17 21/21/21 19/19/19
f 22/22/22 18/18/18 20/20/20
f 19/19/19 21/21/21 23/23/23
f 22/22/22 20/20/20 24/24/24
f 21/21/21 25/25/25 23/23/23
f 26/26/26 22/22/22 24/24/24
f 23/23/23 25/25/25 27/27/27
f 26/26/26 24/24/24 28/28/28
f 25/25/25 29/29/29 27/27/27
f 30/30/30 26/26/26 28/28/28
f 27/27/27 29/29/29 31/31/31
f 30/30/30 28/28/28 32/32/32
f 29/29/29 33/33/33 31/31/31
f 34/34/34 30/30/30 32/32/32
f 31/31/31 33/33/33 35/35/35
f 34/34/34 32/32/32 36/36/36
f 33/33/33 37/37/37 35/35/35
f 38/38/38 34/34/34 36/36/36
f 35/35/35 37/37/37 39/39/39
f 38/38/38 36/36/36 40/40/40
f 37/37/37 41/41/41 39/39/39
f 42/42/42 38/38/38 40/40/40
f 39/39/39 41/41/41 43/43/43
f 42/42/42 40/40/40 44/44/44
f 41/41/41 45/45/45 43/43/43
f 46/46/46 42/42/42 44/44/44
f 43/43/43 45/45/45 47/47/47
f 46/46/46 44/44/44 47/47/47
f 45/45/45 48/48/48 47/47/47
f 48/48/48 46/46/46 47/47/47
f 51/51/51 50/50/50 49/49/49
f 50/50/50 52/52/52 49/49/49
f 53/53/53 51/51/51 49/49/49
f 52/52/52 54/54/54 49/49/49
f 55/55/55 51/51/51 53/53/53
f 52/52/52 56/56/56 54/54/54
f 57/57/57 55/55/55 53/53/53
f 56/56/56 58/58/58 54/54/54
f 59/59/59 55/55/55 57/57/57
f 56/56/56 60/60/60 58/58/58
f 61/61/61 59/59/59 57/57/57
f 60/60/60 62/62/62 58/58/58
f 63/63/63 59/59/59 61/61/61
f 60/60/60 64/64/64 62/62/62
f 65/65/65 63/63/63 61/61/61
f 64/64/64 66/66/66 62/62/62
f 67/67/67 63/63/63 65/65/65
f 64/64/64 68/68/68 66/66/66
f 69/69/69 67/67/67 65/65/65
f 68/68/68 70/70/70 66/66/66
f 71/71/71 67/67/67 69/69/69
f 68/68/68 72/72/72 70/70/70
f 73/73/73 71/71/71 69/69/69
f 72/72/72 74/74/74 70/70/70
f 75/75/75 71/71/71 73/73/73
f 72/72/72 76/76/76 74/74/74
f 77/77/77 75/75/75 73/73/73
f 76/76/76 78/78/78 74/74/74
f 79/79/79 75/75/75 77/77/77
f 76/76/76 80/80/80 78/78/78
f 81/81/81 79/79/79 77/77/77
f 80/80/80 82/82/82 78/78/78
f 83/83/83 79/79/79 81/81/81
f 80/80/80 84/84/84 82/82/82
f 85/85/85 83/83/83 81/81/81
f 84/84/84 86/86/86 82/82/82
f 87/87/87 83/83/83 85/85/85
f 84/84/84 88/88/88 86/86/86
f 89/89/89 87/87/87 85/85/85
f 88/88/88 90/90/90 86/86/86
f 91/91/91 87/87/87 89/89/89
f 88/88/88 92/92/92 90/90/90
f 93/93/93 91/91/91 89/89/89
f 92/92/92 94/94/94 90/90/90
f 95/95/95 91/91/91 93/93/93
f 92/92/92 95/95/95 94/94/94
f 96/96/96 95/95/95 93/93/93
f 95/95/95 96/96/96 94/94/94
