g FootManHand
v 0.001319045 -0.000550396 -0.0005254099
v 3.661173E-05 -0.002186386 -0.0005536118
v 0.0007476101 -0.002186148 -0.0004720773
v 0 -0.002970625 0
v 0.0008120869 -0.002186386 8.570785E-05
v 0.001436747 -0.0006667734 0.0004799763
v 0.0006079894 -0.002186197 0.0006004238
v 3.659083E-05 -0.002186196 0.0007034432
v 0.001072678 -0.000776076 0.001424247
v 0.001508335 0.0002595402 0.0009312634
v 0.001125426 0.0007083631 0.002051788
v 5.293019E-05 -0.0005355942 -0.0006532814
v -0.001169778 -0.0005503959 -0.0005254102
v 0.001383408 0.0002595404 -0.0001398363
v -0.0006469869 -0.002186148 -0.0004720775
v 5.293026E-05 0.0002595406 -0.0002685616
v 0.001613208 0.001963037 0.0009312636
v 0.001202712 0.00182514 0.001850988
v 0.001477726 0.001612924 -0.000336811
v 5.293047E-05 0.002107284 -0.0005374865
v 5.29301E-05 0.002457398 0.0009312634
v 5.292991E-05 0.002107284 0.001981064
v -0.001402474 0.0002595406 -0.0002685619
v -0.001545648 0.002107285 -0.0005374868
v -0.001402475 0.0002595405 0.000931263
v -0.001545648 0.002457398 0.000931263
v 5.292982E-05 0.0007981993 0.002276038
v -0.00125955 0.002107284 0.001762913
v -0.001116345 0.0006862619 0.001996588
v 5.292982E-05 -0.0007979519 0.001613233
v -0.001044758 -0.0007706917 0.001377732
v -0.0005577511 -0.002186101 0.0005750456
v -0.0007388847 -0.002186402 8.570758E-05
v -0.001330857 -0.000666773 0.000479976
v -0.002247023 0.0003682251 0.0009312627
v -0.002247023 0.000368225 -0.0002095619
v -0.001557273 0.001328608 -0.0002685619
v -0.001557273 0.001328608 0.0009312628
vt 0.468972 0.271057
vt 0.468972 0.271057
vt 0.468972 0.271057
vt 0.468972 0.271057
vt 0.468972 0.271057
vt 0.468972 0.271057
vt 0.468972 0.271057
vt 0.468972 0.271057
vt 0.468972 0.271057
vt 0.468972 0.271057
vt 0.468972 0.271057
vt 0.468972 0.271057
vt 0.468972 0.271057
vt 0.468972 0.271057
vt 0.468972 0.271057
vt 0.468972 0.271057
vt 0.468972 0.271057
vt 0.468972 0.271057
vt 0.468972 0.271057
vt 0.468972 0.271057
vt 0.468972 0.271057
vt 0.468972 0.271057
vt 0.468972 0.271057
vt 0.468972 0.271057
vt 0.468972 0.271057
vt 0.468972 0.271057
vt 0.468972 0.271057
vt 0.468972 0.271057
vt 0.468972 0.271057
vt 0.468972 0.271057
vt 0.468972 0.271057
vt 0.468972 0.271057
vt 0.468972 0.271057
vt 0.468972 0.271057
vt 0.468972 0.271057
vt 0.468972 0.271057
vt 0.468972 0.271057
vt 0.468972 0.271057
vn 0.6817263 0.02630845 -0.7311341
vn -0.001194647 -0.3268249 -0.9450842
vn 0.5840753 -0.4667351 -0.664089
vn -0.02492346 -0.9988511 -0.04093311
vn 0.8287103 -0.5546538 0.07482193
vn 0.9646078 -0.2486832 0.08768297
vn 0.5255664 -0.6248284 0.5773816
vn -0.01259525 -0.6036053 0.7971838
vn 0.605321 -0.4276694 0.671331
vn 0.9799259 -0.1097958 0.1664032
vn 0.5901067 -0.1155958 0.7990066
vn 0.01090399 0.1705579 -0.9852873
vn -0.5411591 -0.1472868 -0.8279212
vn 0.7673091 0.04283714 -0.639845
vn -0.5825736 -0.4427114 -0.6816266
vn 0.03606669 0.1324243 -0.9905367
vn 0.8167829 0.5709881 0.08269382
vn 0.5890699 0.4761359 0.6529098
vn 0.66686 0.3244773 -0.6708294
vn 0.137228 0.5770479 -0.8050988
vn 0.1461397 0.9884326 0.04054779
vn 0.06340641 0.6523907 0.7552258
vn -0.06459703 0.1223777 -0.9903792
vn -0.6040701 0.4365193 -0.666746
vn -0.6685198 -0.1952826 0.7175973
vn -0.6929914 0.7107538 0.1207965
vn -0.009828242 -0.08613771 0.9962347
vn -0.5739374 0.4890257 0.6568484
vn -0.6221519 -0.1261836 0.7726608
vn -0.01221951 -0.4658692 0.8847693
vn -0.637493 -0.4205129 0.6455785
vn -0.5512048 -0.6113075 0.56787
vn -0.8496711 -0.5255708 0.04282904
vn -0.8695834 -0.4660531 0.1631531
vn -0.8013373 -0.1271015 0.5845544
vn -0.8316393 -0.02845803 -0.5545864
vn 0.1914009 0.8304875 -0.5231216
vn 0.2052063 0.7754639 0.5971148
g FootManHand_0
f 3/3/3 2/2/2 1/1/1
f 3/3/3 4/4/4 2/2/2
f 3/3/3 1/1/1 5/5/5
f 5/5/5 4/4/4 3/3/3
f 1/1/1 6/6/6 5/5/5
f 7/7/7 4/4/4 5/5/5
f 5/5/5 6/6/6 7/7/7
f 8/8/8 4/4/4 7/7/7
f 6/6/6 9/9/9 7/7/7
f 7/7/7 9/9/9 8/8/8
f 10/10/10 6/6/6 1/1/1
f 11/11/11 9/9/9 6/6/6
f 10/10/10 11/11/11 6/6/6
f 2/2/2 12/12/12 1/1/1
f 13/13/13 12/12/12 2/2/2
f 14/14/14 1/1/1 12/12/12
f 14/14/14 10/10/10 1/1/1
f 2/2/2 4/4/4 15/15/15
f 15/15/15 13/13/13 2/2/2
f 16/16/16 12/12/12 13/13/13
f 16/16/16 14/14/14 12/12/12
f 17/17/17 10/10/10 14/14/14
f 18/18/18 11/11/11 10/10/10
f 17/17/17 18/18/18 10/10/10
f 19/19/19 14/14/14 16/16/16
f 19/19/19 17/17/17 14/14/14
f 20/20/20 19/19/19 16/16/16
f 17/17/17 19/19/19 20/20/20
f 18/18/18 17/17/17 21/21/21
f 21/21/21 17/17/17 20/20/20
f 18/18/18 22/22/22 11/11/11
f 22/22/22 18/18/18 21/21/21
f 20/20/20 16/16/16 23/23/23
f 23/23/23 16/16/16 13/13/13
f 21/21/21 20/20/20 24/24/24
f 24/24/24 20/20/20 23/23/23
f 24/24/24 23/23/23 25/25/25
f 26/26/26 21/21/21 24/24/24
f 22/22/22 21/21/21 26/26/26
f 26/26/26 24/24/24 25/25/25
f 22/22/22 27/27/27 11/11/11
f 11/11/11 27/27/27 9/9/9
f 28/28/28 22/22/22 26/26/26
f 22/22/22 28/28/28 27/27/27
f 28/28/28 26/26/26 29/29/29
f 28/28/28 29/29/29 27/27/27
f 26/26/26 25/25/25 29/29/29
f 27/27/27 30/30/30 9/9/9
f 27/27/27 29/29/29 30/30/30
f 9/9/9 30/30/30 8/8/8
f 29/29/29 31/31/31 30/30/30
f 8/8/8 30/30/30 31/31/31
f 29/29/29 25/25/25 31/31/31
f 32/32/32 8/8/8 31/31/31
f 32/32/32 4/4/4 8/8/8
f 33/33/33 4/4/4 32/32/32
f 32/32/32 31/31/31 33/33/33
f 15/15/15 4/4/4 33/33/33
f 31/31/31 34/34/34 33/33/33
f 33/33/33 34/34/34 15/15/15
f 25/25/25 34/34/34 31/31/31
f 34/34/34 13/13/13 15/15/15
f 35/35/35 34/34/34 25/25/25
f 36/36/36 13/13/13 34/34/34
f 35/35/35 36/36/36 34/34/34
f 36/36/36 37/37/37 13/13/13
f 37/37/37 36/36/36 35/35/35
f 37/37/37 23/23/23 13/13/13
f 38/38/38 35/35/35 25/25/25
f 38/38/38 25/25/25 23/23/23
f 38/38/38 37/37/37 35/35/35
f 37/37/37 38/38/38 23/23/23
