g FrostHeroHand
v 0.001131502 -0.0007005628 0.001831435
v 8.27183E-05 0.0007619445 0.002225634
v 0.001185753 0.0006721083 0.002001384
v 8.27182E-05 -0.0007005627 0.002021684
v -0.001119919 0.000650007 0.001946184
v -0.001046293 -0.0007005626 0.00178461
v -0.001340545 -0.0007005626 0.0008808601
v -0.001174876 -0.0007005626 -0.0001312393
v -0.002248341 0.0003286174 -0.0002599652
v -0.002248341 0.0003286174 0.0008808594
v 0.001505951 -0.0007005628 0.0008808601
v 0.001131502 -0.0007005628 0.001831435
v 0.001185753 0.0006721083 0.002001384
v 0.001579573 0.0002232853 0.0008808601
v 0.001384889 -0.0007005628 -0.0001312393
v 0.001451121 0.0002232853 -0.0001902397
v 8.27187E-05 -0.0007005627 -0.0002599644
v 8.271876E-05 0.0002232854 -0.0003189648
v -0.001174876 -0.0007005626 -0.0001312393
v 0.001265278 0.001788885 0.001800585
v 0.001687441 0.001576668 0.0008808601
v 8.271841E-05 0.002071005 0.00193066
v 8.27183E-05 0.0007619445 0.002225634
v 0.001548131 0.001576668 -0.0003872144
v 8.271864E-05 0.002071005 0.0008808601
v 8.27189E-05 0.002071005 -0.0005878897
v -0.001414174 0.0002232854 -0.0003189648
v -0.001267175 0.002071005 0.00171251
v -0.001119919 0.000650007 0.001946184
v -0.001561461 0.002071005 0.0008808601
v -0.001414175 0.0002232854 0.0008808601
v -0.001046293 -0.0007005626 0.00178461
v -0.001340545 -0.0007005626 0.0008808601
v -0.002248341 0.0003286174 0.0008808594
v -0.001561461 0.002071005 -0.0005878897
v -0.001561725 0.001310437 -0.0003189648
v -0.002248341 0.0003286174 -0.0002599652
v -0.001561725 0.001310437 0.0008808601
v -0.001046293 -0.0007005626 0.00178461
v 8.27182E-05 -0.0007005627 0.002021684
v 6.595322E-05 -0.001966527 0.0006179995
v 0.001131502 -0.0007005628 0.001831435
v 0.0005841997 -0.001966527 0.0005220928
v 0 -0.002306717 0
v 0.001505951 -0.0007005628 0.0008808601
v 0.0007693052 -0.001966694 4.291323E-05
v 0.001384889 -0.0007005628 -0.0001312393
v -0.0004730834 -0.00196643 0.0004984666
v -0.0006373628 -0.001966694 4.291323E-05
v -0.001340545 -0.0007005626 0.0008808601
v -0.0005540163 -0.001966472 -0.0004763616
v -0.001174876 -0.0007005626 -0.0001312393
v 6.597121E-05 -0.00196668 -0.0005522667
v 8.27187E-05 -0.0007005627 -0.0002599644
v 0.0007108111 -0.001966472 -0.0004763616
vt 0.1561694 0.5367057
vt 0.1561694 0.5367057
vt 0.1561694 0.5367057
vt 0.1561694 0.5367057
vt 0.1561694 0.5367057
vt 0.1561694 0.5367057
vt 0.4507067 0.2762728
vt 0.4507067 0.2762728
vt 0.4507067 0.2762728
vt 0.4507067 0.2762728
vt 0.1468682 0.3475818
vt 0.1468682 0.3475818
vt 0.1468682 0.3475818
vt 0.1468682 0.3475818
vt 0.1468682 0.3475818
vt 0.1468682 0.3475818
vt 0.1468682 0.3475818
vt 0.1468682 0.3475818
vt 0.1468682 0.3475818
vt 0.1468682 0.3475818
vt 0.1468682 0.3475818
vt 0.1468682 0.3475818
vt 0.1468682 0.3475818
vt 0.1468682 0.3475818
vt 0.1468682 0.3475818
vt 0.1468682 0.3475818
vt 0.1468682 0.3475818
vt 0.1468682 0.3475818
vt 0.1468682 0.3475818
vt 0.1468682 0.3475818
vt 0.1468682 0.3475818
vt 0.1468682 0.3475818
vt 0.1468682 0.3475818
vt 0.1468682 0.3475818
vt 0.1468682 0.3475818
vt 0.1468682 0.3475818
vt 0.1468682 0.3475818
vt 0.1468682 0.3475818
vt 0.4722297 0.2758963
vt 0.4722297 0.2758963
vt 0.4722297 0.2758963
vt 0.4722297 0.2758963
vt 0.4722297 0.2758963
vt 0.4722297 0.2758963
vt 0.4722297 0.2758963
vt 0.4722297 0.2758963
vt 0.4722297 0.2758963
vt 0.4722297 0.2758963
vt 0.4722297 0.2758963
vt 0.4722297 0.2758963
vt 0.4722297 0.2758963
vt 0.4722297 0.2758963
vt 0.4722297 0.2758963
vt 0.4722297 0.2758963
vt 0.4722297 0.2758963
vn 0.5739892 -0.4175183 0.7044253
vn -0.01019187 0.0348272 0.9993413
vn 0.6088322 -0.01237534 0.7932025
vn -0.01195545 -0.4507869 0.8925515
vn -0.642405 -0.02527464 0.7659484
vn -0.6023095 -0.4155599 0.6815666
vn -0.8482664 -0.4761825 0.2317202
vn -0.5862224 -0.3642606 -0.7236419
vn -0.813026 -0.09284416 -0.5747771
vn -0.8125257 -0.06402575 0.5793986
vn 0.9343326 -0.3253795 0.1454329
vn 0.5739892 -0.4175183 0.7044253
vn 0.6088322 -0.01237534 0.7932025
vn 0.9886199 -0.07422241 0.1308496
vn 0.744472 -0.1763404 -0.6439453
vn 0.702517 -0.1211185 -0.7012846
vn 0.01200537 0.05949571 -0.9981564
vn 0.03477763 -0.1241633 -0.9916522
vn -0.5862224 -0.3642606 -0.7236419
vn 0.5903546 0.5931956 0.5473576
vn 0.8617035 0.4990839 0.09155499
vn 0.07341283 0.766582 0.6379362
vn -0.01019187 0.0348272 0.9993413
vn 0.664939 0.4127297 -0.6225032
vn 0.1449377 0.9893152 -0.01576329
vn 0.1450668 0.6654231 -0.7322348
vn -0.07789113 -0.1124718 -0.9905973
vn -0.5528167 0.6273163 0.5485144
vn -0.642405 -0.02527464 0.7659484
vn -0.7562862 0.6433387 0.1189392
vn -0.594633 -0.02985733 0.8034427
vn -0.6023095 -0.4155599 0.6815666
vn -0.8482664 -0.4761825 0.2317202
vn -0.8125257 -0.06402575 0.5793986
vn -0.593273 0.518321 -0.6159306
vn 0.1945782 0.7893083 -0.5823501
vn -0.813026 -0.09284416 -0.5747771
vn 0.1972739 0.8142778 0.5459255
vn -0.6023095 -0.4155599 0.6815666
vn -0.01195545 -0.4507869 0.8925515
vn -0.007963505 -0.8080204 0.5891007
vn 0.5739892 -0.4175183 0.7044253
vn 0.4140375 -0.8051667 0.4245934
vn -0.0362093 -0.9992869 -0.01070642
vn 0.9343326 -0.3253795 0.1454329
vn 0.6812444 -0.730562 0.04674406
vn 0.744472 -0.1763404 -0.6439453
vn -0.4415922 -0.7908163 0.4237993
vn -0.7217296 -0.6918994 0.01953161
vn -0.8482664 -0.4761825 0.2317202
vn -0.5085409 -0.4702234 -0.7213017
vn -0.5862224 -0.3642606 -0.7236419
vn -0.0001515787 -0.37352 -0.9276221
vn 0.01200537 0.05949571 -0.9981564
vn 0.5044001 -0.4953518 -0.7072533
g FrostHeroHand_0
f 3/3/3 2/2/2 1/1/1
f 2/2/2 4/4/4 1/1/1
f 2/2/2 5/5/5 4/4/4
f 5/5/5 6/6/6 4/4/4
f 9/9/9 8/8/8 7/7/7
f 10/10/10 9/9/9 7/7/7
f 13/13/13 12/12/12 11/11/11
f 14/14/14 13/13/13 11/11/11
f 14/14/14 11/11/11 15/15/15
f 16/16/16 14/14/14 15/15/15
f 16/16/16 15/15/15 17/17/17
f 18/18/18 16/16/16 17/17/17
f 18/18/18 17/17/17 19/19/19
f 20/20/20 13/13/13 14/14/14
f 21/21/21 14/14/14 16/16/16
f 21/21/21 20/20/20 14/14/14
f 20/20/20 22/22/22 13/13/13
f 22/22/22 23/23/23 13/13/13
f 24/24/24 16/16/16 18/18/18
f 24/24/24 21/21/21 16/16/16
f 20/20/20 21/21/21 25/25/25
f 22/22/22 20/20/20 25/25/25
f 21/21/21 24/24/24 26/26/26
f 26/26/26 24/24/24 18/18/18
f 25/25/25 21/21/21 26/26/26
f 27/27/27 18/18/18 19/19/19
f 26/26/26 18/18/18 27/27/27
f 22/22/22 28/28/28 23/23/23
f 28/28/28 29/29/29 23/23/23
f 28/28/28 22/22/22 30/30/30
f 22/22/22 25/25/25 30/30/30
f 28/28/28 30/30/30 29/29/29
f 30/30/30 31/31/31 29/29/29
f 29/29/29 31/31/31 32/32/32
f 31/31/31 33/33/33 32/32/32
f 34/34/34 33/33/33 31/31/31
f 25/25/25 26/26/26 35/35/35
f 30/30/30 25/25/25 35/35/35
f 35/35/35 26/26/26 27/27/27
f 30/30/30 35/35/35 31/31/31
f 35/35/35 27/27/27 31/31/31
f 36/36/36 27/27/27 19/19/19
f 37/37/37 36/36/36 19/19/19
f 36/36/36 37/37/37 34/34/34
f 38/38/38 34/34/34 31/31/31
f 38/38/38 31/31/31 27/27/27
f 38/38/38 36/36/36 34/34/34
f 36/36/36 38/38/38 27/27/27
f 41/41/41 40/40/40 39/39/39
f 42/42/42 40/40/40 41/41/41
f 43/43/43 42/42/42 41/41/41
f 41/41/41 44/44/44 43/43/43
f 45/45/45 42/42/42 43/43/43
f 46/46/46 45/45/45 43/43/43
f 43/43/43 44/44/44 46/46/46
f 47/47/47 45/45/45 46/46/46
f 48/48/48 41/41/41 39/39/39
f 48/48/48 44/44/44 41/41/41
f 48/48/48 39/39/39 49/49/49
f 49/49/49 44/44/44 48/48/48
f 39/39/39 50/50/50 49/49/49
f 49/49/49 50/50/50 51/51/51
f 51/51/51 44/44/44 49/49/49
f 50/50/50 52/52/52 51/51/51
f 51/51/51 52/52/52 53/53/53
f 53/53/53 44/44/44 51/51/51
f 52/52/52 54/54/54 53/53/53
f 53/53/53 54/54/54 47/47/47
f 55/55/55 47/47/47 46/46/46
f 46/46/46 44/44/44 55/55/55
f 55/55/55 53/53/53 47/47/47
f 55/55/55 44/44/44 53/53/53
