g GibPiece4
v -0.1816592 -0.379834 -0.2807189
v -0.1816592 -0.379834 -0.3128138
v -0.1816592 0.2557885 -0.3128138
v -0.1816592 0.2557885 -0.2807189
v -0.1816592 -0.379834 0.2901647
v -0.1629739 0.3372035 -0.2807189
v -0.1629739 0.3372035 -0.3128138
v -0.1816592 0.2557885 0.2222107
v -0.1816592 -0.379834 0.3139648
v -0.1816592 0.2557885 0.2431778
v -0.1629739 0.3372035 0.1784351
v -0.1119249 0.3968035 -0.2807189
v -0.1119249 0.3968035 -0.3128138
v -0.1119249 0.3968035 0.1564706
v -0.04219075 0.4186185 -0.2807189
v -0.04219075 0.4186185 -0.3128138
v -0.04219075 0.4186185 0.2641775
v 0.03633618 0.4186185 -0.3128138
v 0.03633618 0.4186185 -0.2807189
v 0.03633618 0.4186185 0.2359495
v -0.04219075 0.4186185 0.2868941
v 0.03633618 0.4186185 0.2574893
v 0.1060704 0.3968035 0.2310817
v 0.1060704 0.3968035 0.2105987
v 0.1571194 0.3372035 0.2799026
v 0.1060704 0.3968035 -0.2807189
v 0.1060704 0.3968035 -0.3128138
v 0.1571194 0.3372035 0.2574658
v 0.1758046 0.2557885 0.3784265
v 0.1571194 0.3372035 -0.2807189
v 0.1571194 0.3372035 -0.3128138
v 0.1758046 0.2557885 0.3520466
v 0.1758046 0.2557885 -0.2807189
v 0.1758046 0.2557885 -0.3128138
v 0.1758046 -0.379834 -0.3128138
v 0.1758046 -0.379834 -0.2807189
v 0.1758046 -0.379834 0.2706752
v 0.1758046 -0.379834 0.2936627
v -0.1816592 -0.379834 -0.3128138
v 0.1758046 -0.379834 -0.3128138
v 0.1758046 0.2557885 -0.3128138
v 0.1571194 0.3372035 -0.3128138
v 0.1060704 0.3968035 -0.3128138
v 0.03633618 0.4186185 -0.3128138
v -0.04219075 0.4186185 -0.3128138
v -0.1119249 0.3968035 -0.3128138
v -0.1629739 0.3372035 -0.3128138
v -0.1816592 0.2557885 -0.3128138
v -0.1816592 -0.379834 -0.3128138
v 0.1758046 -0.379834 -0.2807189
v 0.1758046 -0.379834 -0.3128138
v -0.1816592 -0.379834 -0.2807189
v 0.1758046 -0.379834 0.2706752
v -0.1816592 -0.379834 0.2901647
v 0.1758046 -0.379834 0.2936627
v -0.1816592 -0.379834 0.3139648
v 0.1758046 0.2557885 0.3784265
v 0.1758046 -0.379834 0.2936627
v -0.1816592 -0.379834 0.3139648
v -0.1816592 0.2557885 0.2431778
v 0.1571194 0.3372035 0.2799026
v 0.1758046 0.2557885 0.3784265
v -0.1816592 0.2557885 0.2431778
v -0.0430058 0.3372035 0.267806
v -0.04219075 0.4186185 0.2868941
v 0.03633618 0.4186185 0.2574893
v 0.1060704 0.3968035 0.2310817
v -0.03730485 0.3968035 0.2677577
v -0.03730485 0.3968035 0.2677577
v 0.1060704 0.3968035 0.2310817
v 0.1571194 0.3372035 0.2799026
v -0.0430058 0.3372035 0.267806
v -0.1816592 0.2557885 0.2222107
v -0.1629739 0.3372035 0.1784351
v -0.0430058 0.3372035 0.267806
v -0.1816592 0.2557885 0.2431778
v -0.1629739 0.3372035 0.1784351
v -0.1119249 0.3968035 0.1564706
v -0.03730485 0.3968035 0.2677577
v -0.0430058 0.3372035 0.267806
v -0.1119249 0.3968035 0.1564706
v -0.04219075 0.4186185 0.2641775
v -0.04219075 0.4186185 0.2868941
v -0.03730485 0.3968035 0.2677577
vt 0.02999046 0.965088
vt 0.02999046 0.965088
vt 0.02999046 0.9650879
vt 0.02999046 0.9650879
vt 0.02999046 0.9650879
vt 0.02999046 0.965088
vt 0.02999046 0.965088
vt 0.02999046 0.9650879
vt 0.02999046 0.9650879
vt 0.02999046 0.9650879
vt 0.02999046 0.965088
vt 0.02999046 0.965088
vt 0.02999046 0.9650879
vt 0.02999046 0.965088
vt 0.02999046 0.9650879
vt 0.02999046 0.965088
vt 0.02999046 0.9650879
vt 0.02999046 0.9650879
vt 0.02999046 0.9650879
vt 0.02999046 0.9650879
vt 0.02999046 0.9650879
vt 0.02999046 0.9650879
vt 0.02999046 0.965088
vt 0.02999046 0.965088
vt 0.02999046 0.965088
vt 0.02999046 0.965088
vt 0.02999046 0.965088
vt 0.02999046 0.965088
vt 0.02999046 0.9650879
vt 0.02999046 0.965088
vt 0.02999046 0.965088
vt 0.02999046 0.9650879
vt 0.02999046 0.9650879
vt 0.02999046 0.965088
vt 0.02999046 0.965088
vt 0.02999046 0.965088
vt 0.02999046 0.965088
vt 0.02999046 0.965088
vt 0.02999046 0.965088
vt 0.02999046 0.965088
vt 0.02999046 0.9650879
vt 0.02999046 0.965088
vt 0.02999046 0.965088
vt 0.02999046 0.965088
vt 0.02999046 0.9650879
vt 0.02999046 0.9650879
vt 0.02999046 0.965088
vt 0.02999046 0.965088
vt 0.02999046 0.965088
vt 0.02999046 0.965088
vt 0.02999046 0.965088
vt 0.02999046 0.965088
vt 0.02999046 0.965088
vt 0.02999046 0.9650879
vt 0.02999046 0.965088
vt 0.02999046 0.9650879
vt 0.02999046 0.9650879
vt 0.02999046 0.965088
vt 0.02999046 0.9650879
vt 0.02999046 0.9650879
vt 0.02999046 0.965088
vt 0.02999046 0.9650879
vt 0.02999046 0.9650879
vt 0.02999046 0.965088
vt 0.02999046 0.9650879
vt 0.02999046 0.9650879
vt 0.02999046 0.965088
vt 0.02999046 0.965088
vt 0.02999046 0.965088
vt 0.02999046 0.965088
vt 0.02999046 0.965088
vt 0.02999046 0.965088
vt 0.02999046 0.9650879
vt 0.02999046 0.965088
vt 0.02999046 0.965088
vt 0.02999046 0.9650879
vt 0.02999046 0.965088
vt 0.02999046 0.965088
vt 0.02999046 0.965088
vt 0.02999046 0.965088
vt 0.02999046 0.965088
vt 0.02999046 0.9650879
vt 0.02999046 0.9650879
vt 0.02999046 0.965088
vn -0.7071068 -0.7071068 0
vn -0.5773503 -0.5773503 -0.5773503
vn -0.7261205 0.08225011 -0.6826301
vn -0.9936455 0.112555 0
vn -0.7071068 -0.7071068 0
vn -0.8929513 0.4501532 0
vn -0.6731411 0.3393478 -0.6570572
vn -0.9415371 0.2594103 0.2149748
vn -0.617704 -0.5536141 0.5585277
vn -0.6753577 0.2950284 0.675907
vn -0.8240028 0.4845621 0.2936305
vn -0.5504178 0.8348893 0
vn -0.4182938 0.6345211 -0.6499333
vn -0.605438 0.7692341 0.2042644
vn -0.1510068 0.9885328 0
vn -0.1114548 0.7296751 -0.6746496
vn -0.5492186 0.7862897 0.2830325
vn 0.1114548 0.7296751 -0.6746496
vn 0.1510068 0.9885328 0
vn 0.1510068 0.9885328 0
vn -0.2814464 0.3607042 0.8892021
vn 0.3391617 0.5578329 0.7574906
vn 0.4789077 0.7734792 0.4151835
vn 0.5504178 0.8348893 0
vn 0.6372668 0.5680803 0.5207454
vn 0.5504178 0.8348893 0
vn 0.4182938 0.6345211 -0.6499333
vn 0.8929513 0.4501532 0
vn 0.5371456 0.2480026 0.8062068
vn 0.8929513 0.4501532 0
vn 0.6731411 0.3393478 -0.6570572
vn 0.9936455 0.112555 0
vn 0.9936455 0.112555 0
vn 0.7261205 0.08225011 -0.6826301
vn 0.5773503 -0.5773503 -0.5773503
vn 0.7071068 -0.7071068 0
vn 0.7071068 -0.7071068 0
vn 0.5421745 -0.6127045 0.5750132
vn 0 0 -1
vn 0 0 -1
vn 0 0 -1
vn 0 0 -1
vn 0 0 -1
vn 0 0 -1
vn 0 0 -1
vn 0 0 -1
vn 0 0 -1
vn 0 0 -1
vn 0 -1 0
vn 0 -1 0
vn 0 -1 0
vn 0 -1 0
vn 0 -1 0
vn 0 -1 0
vn 0 -1 0
vn 0 -1 0
vn -0.1587328 -0.01085448 0.9872618
vn -0.1587328 -0.01085448 0.9872618
vn -0.1587328 -0.01085448 0.9872618
vn -0.1587328 -0.01085448 0.9872618
vn -0.2164565 0.5312127 0.8191212
vn -0.2164565 0.5312127 0.8191212
vn -0.2164565 0.5312127 0.8191212
vn -0.2164565 0.5312127 0.8191212
vn 0.2540113 -0.4559653 0.8529794
vn 0.2540113 -0.4559653 0.8529794
vn 0.2540113 -0.4559653 0.8529794
vn 0.2540113 -0.4559653 0.8529794
vn 0.06542308 0.3997293 0.9142956
vn 0.06542308 0.3997293 0.9142956
vn 0.06542308 0.3997293 0.9142956
vn 0.06542308 0.3997293 0.9142956
vn -0.5439849 0.5951902 0.5914634
vn -0.5439849 0.5951902 0.5914634
vn -0.5439849 0.5951902 0.5914634
vn -0.5439849 0.5951902 0.5914634
vn -0.6496151 0.425611 0.6299646
vn -0.6496151 0.425611 0.6299646
vn -0.6496151 0.425611 0.6299646
vn -0.6496151 0.425611 0.6299646
vn -0.8678737 -0.1150629 0.4832761
vn -0.8678737 -0.1150629 0.4832761
vn -0.8678737 -0.1150629 0.4832761
vn -0.8678737 -0.1150629 0.4832761
g GibPiece4_0
f 3/3/3 2/2/2 1/1/1
f 4/4/4 3/3/3 1/1/1
f 4/4/4 1/1/1 5/5/5
f 3/3/3 4/4/4 6/6/6
f 7/7/7 3/3/3 6/6/6
f 8/8/8 4/4/4 5/5/5
f 8/8/8 5/5/5 9/9/9
f 10/10/10 8/8/8 9/9/9
f 4/4/4 8/8/8 11/11/11
f 6/6/6 4/4/4 11/11/11
f 7/7/7 6/6/6 12/12/12
f 12/12/12 6/6/6 11/11/11
f 13/13/13 7/7/7 12/12/12
f 14/14/14 12/12/12 11/11/11
f 13/13/13 12/12/12 15/15/15
f 15/15/15 12/12/12 14/14/14
f 16/16/16 13/13/13 15/15/15
f 17/17/17 15/15/15 14/14/14
f 16/16/16 15/15/15 18/18/18
f 15/15/15 17/17/17 19/19/19
f 15/15/15 19/19/19 18/18/18
f 17/17/17 20/20/20 19/19/19
f 17/17/17 21/21/21 20/20/20
f 21/21/21 22/22/22 20/20/20
f 22/22/22 23/23/23 20/20/20
f 23/23/23 24/24/24 20/20/20
f 20/20/20 24/24/24 19/19/19
f 23/23/23 25/25/25 24/24/24
f 19/19/19 26/26/26 18/18/18
f 24/24/24 26/26/26 19/19/19
f 26/26/26 27/27/27 18/18/18
f 25/25/25 28/28/28 24/24/24
f 24/24/24 28/28/28 26/26/26
f 25/25/25 29/29/29 28/28/28
f 26/26/26 30/30/30 27/27/27
f 28/28/28 30/30/30 26/26/26
f 30/30/30 31/31/31 27/27/27
f 29/29/29 32/32/32 28/28/28
f 28/28/28 32/32/32 30/30/30
f 30/30/30 33/33/33 31/31/31
f 32/32/32 33/33/33 30/30/30
f 33/33/33 34/34/34 31/31/31
f 34/34/34 33/33/33 35/35/35
f 33/33/33 36/36/36 35/35/35
f 33/33/33 32/32/32 36/36/36
f 32/32/32 37/37/37 36/36/36
f 32/32/32 29/29/29 37/37/37
f 29/29/29 38/38/38 37/37/37
f 41/41/41 40/40/40 39/39/39
f 39/39/39 42/42/42 41/41/41
f 39/39/39 43/43/43 42/42/42
f 39/39/39 44/44/44 43/43/43
f 39/39/39 45/45/45 44/44/44
f 39/39/39 46/46/46 45/45/45
f 39/39/39 47/47/47 46/46/46
f 39/39/39 48/48/48 47/47/47
f 51/51/51 50/50/50 49/49/49
f 50/50/50 52/52/52 49/49/49
f 50/50/50 53/53/53 52/52/52
f 53/53/53 54/54/54 52/52/52
f 53/53/53 55/55/55 54/54/54
f 55/55/55 56/56/56 54/54/54
f 59/59/59 58/58/58 57/57/57
f 60/60/60 59/59/59 57/57/57
f 63/63/63 62/62/62 61/61/61
f 64/64/64 63/63/63 61/61/61
f 67/67/67 66/66/66 65/65/65
f 68/68/68 67/67/67 65/65/65
f 71/71/71 70/70/70 69/69/69
f 72/72/72 71/71/71 69/69/69
f 75/75/75 74/74/74 73/73/73
f 76/76/76 75/75/75 73/73/73
f 79/79/79 78/78/78 77/77/77
f 80/80/80 79/79/79 77/77/77
f 83/83/83 82/82/82 81/81/81
f 84/84/84 83/83/83 81/81/81
