g GibPiece2
v 0.07569107 0.3584151 -0.06962829
v 0.005956873 0.3366 -0.06967657
v 0.0920113 0.3366 -0.09168968
v -0.06377735 -0.4400375 -0.02242436
v -0.06377735 -0.4400375 -0.04255765
v -0.06377735 0.195585 -0.1133447
v -0.06377735 0.195585 -0.09075614
v -0.06377735 -0.4400375 0.09916297
v -0.04509211 0.277 -0.0739822
v -0.04509211 0.277 -0.095968
v -0.06377735 0.195585 0.1713441
v 0.05274881 -0.4400375 -0.02881289
v 0.005956873 0.3366 -0.04860266
v 0.005956873 0.3366 -0.06967657
v -0.04509211 0.277 0.1628609
v 0.1257405 0.195585 -0.02303644
v 0.1222644 0.277 -0.06777626
v 0.1257405 0.195585 -0.02303644
v 0.1389903 0.195585 -0.0366262
v 0.07241105 -0.4400375 -0.05029243
v 0.1348296 0.277 -0.08509254
v 0.1222644 0.277 -0.06777626
v 0.0920113 0.3366 -0.09168968
v 0.07569107 0.3584151 -0.04855608
v 0.07569107 0.3584151 -0.06962829
v 0.005956873 0.3366 0.1159229
v 0.0830646 0.3366 -0.07010512
v -0.06377735 -0.4400375 -0.02242436
v -0.06377735 -0.4400375 0.09916297
v 0.05274881 -0.4400375 -0.02881289
v -0.06377735 -0.4400375 -0.04255765
v 0.07241105 -0.4400375 -0.05029243
v -0.04509211 0.277 -0.095968
v 0.1348296 0.277 -0.08509254
v 0.0920113 0.3366 -0.09168968
v 0.005956873 0.3366 -0.06967657
v -0.06377735 0.195585 -0.1133447
v -0.06377735 -0.4400375 -0.04255765
v 0.07241105 -0.4400375 -0.05029243
v 0.1389903 0.195585 -0.0366262
v 0.1348296 0.277 -0.08509254
v -0.04509211 0.277 -0.095968
v -0.06377735 0.195585 -0.1133447
v 0.1389903 0.195585 -0.0366262
vt 0.02999046 0.9650879
vt 0.02999046 0.965088
vt 0.02999046 0.965088
vt 0.02999046 0.9650879
vt 0.02999046 0.9650879
vt 0.02999046 0.9650879
vt 0.02999046 0.9650879
vt 0.02999046 0.9650879
vt 0.02999046 0.965088
vt 0.02999046 0.965088
vt 0.02999046 0.9650879
vt 0.02999046 0.9650879
vt 0.02999046 0.965088
vt 0.02999046 0.965088
vt 0.02999046 0.965088
vt 0.02999047 0.9650879
vt 0.02999046 0.965088
vt 0.02999047 0.9650879
vt 0.02999046 0.9650879
vt 0.02999046 0.965088
vt 0.02999046 0.965088
vt 0.02999046 0.965088
vt 0.02999046 0.965088
vt 0.02999046 0.9650879
vt 0.02999046 0.9650879
vt 0.02999046 0.965088
vt 0.02999046 0.965088
vt 0.02999046 0.9650879
vt 0.02999046 0.9650879
vt 0.02999046 0.9650879
vt 0.02999046 0.9650879
vt 0.02999046 0.965088
vt 0.02999046 0.965088
vt 0.02999046 0.965088
vt 0.02999046 0.965088
vt 0.02999046 0.965088
vt 0.02999046 0.9650879
vt 0.02999046 0.9650879
vt 0.02999046 0.965088
vt 0.02999046 0.9650879
vt 0.02999046 0.965088
vt 0.02999046 0.965088
vt 0.02999046 0.9650879
vt 0.02999046 0.9650879
vn -0.1940527 0.6219903 -0.7585985
vn -0.1940527 0.6219903 -0.7585985
vn -0.1940527 0.6219903 -0.7585985
vn -0.7071068 -0.7071068 0
vn -0.5122681 -0.6403276 -0.5723304
vn -0.6280578 -0.01086489 -0.7780908
vn -0.9936455 0.112555 0
vn -0.3222847 -0.578739 0.7491288
vn -0.8929513 0.4501532 0
vn -0.6414822 0.27394 -0.7165594
vn -0.3836287 0.1871754 0.9043199
vn 0.4911185 -0.7374102 0.463712
vn -0.5504178 0.8348893 0
vn -0.451689 0.7252355 -0.5196254
vn -0.206984 0.6612379 0.7210563
vn 0.7448846 0.07330736 0.6631539
vn 0.7731982 0.3336945 0.5392703
vn 0.7448846 0.07330736 0.6631539
vn 0.9813825 0.0730635 -0.177623
vn 0.7985591 -0.5330442 -0.2795842
vn 0.7977272 0.3629723 -0.4815418
vn 0.7731982 0.3336945 0.5392703
vn 0.5343267 0.595975 -0.5994237
vn 0.5295746 0.7961932 0.2926211
vn 0.4272321 0.8820226 -0.1987687
vn 0.1574492 0.8506958 0.5015241
vn 0.8944193 0.1594616 0.4178351
vn 0 -1 0
vn 0 -1 0
vn 0 -1 0
vn 0 -1 0
vn 0 -1 0
vn -0.04126005 0.1656445 -0.985322
vn -0.04126005 0.1656445 -0.985322
vn -0.04126005 0.1656445 -0.985322
vn -0.04126005 0.1656445 -0.985322
vn 0.1991345 -0.05439448 -0.9784614
vn 0.1991345 -0.05439448 -0.9784614
vn 0.1991345 -0.05439448 -0.9784614
vn 0.1991345 -0.05439448 -0.9784614
vn 0.2185306 -0.2017846 -0.9547395
vn 0.2185306 -0.2017846 -0.9547395
vn 0.2185306 -0.2017846 -0.9547395
vn 0.2185306 -0.2017846 -0.9547395
g GibPiece2_0
f 3/3/3 2/2/2 1/1/1
f 6/6/6 5/5/5 4/4/4
f 7/7/7 6/6/6 4/4/4
f 7/7/7 4/4/4 8/8/8
f 6/6/6 7/7/7 9/9/9
f 10/10/10 6/6/6 9/9/9
f 11/11/11 7/7/7 8/8/8
f 9/9/9 7/7/7 11/11/11
f 11/11/11 8/8/8 12/12/12
f 10/10/10 9/9/9 13/13/13
f 14/14/14 10/10/10 13/13/13
f 15/15/15 9/9/9 11/11/11
f 13/13/13 9/9/9 15/15/15
f 15/15/15 11/11/11 16/16/16
f 17/17/17 15/15/15 16/16/16
f 18/18/18 11/11/11 12/12/12
f 18/18/18 12/12/12 19/19/19
f 12/12/12 20/20/20 19/19/19
f 18/18/18 19/19/19 21/21/21
f 22/22/22 18/18/18 21/21/21
f 22/22/22 21/21/21 23/23/23
f 14/14/14 13/13/13 24/24/24
f 25/25/25 14/14/14 24/24/24
f 26/26/26 13/13/13 15/15/15
f 24/24/24 13/13/13 26/26/26
f 26/26/26 15/15/15 22/22/22
f 25/25/25 24/24/24 26/26/26
f 27/27/27 23/23/23 25/25/25
f 27/27/27 22/22/22 23/23/23
f 25/25/25 26/26/26 27/27/27
f 27/27/27 26/26/26 22/22/22
f 30/30/30 29/29/29 28/28/28
f 30/30/30 28/28/28 31/31/31
f 32/32/32 30/30/30 31/31/31
f 35/35/35 34/34/34 33/33/33
f 36/36/36 35/35/35 33/33/33
f 39/39/39 38/38/38 37/37/37
f 40/40/40 39/39/39 37/37/37
f 43/43/43 42/42/42 41/41/41
f 44/44/44 43/43/43 41/41/41
