g GibPiece3
v 0.1709971 -0.3818179 0.2474177
v 0.1709971 -0.3818179 0.2916832
v 0.1709971 0.2538046 0.2916832
v 0.1709971 0.2538046 0.2474177
v 0.1709971 -0.3818179 -0.3080924
v 0.1523119 0.3352196 0.2474177
v 0.1523119 0.3352196 0.2916832
v 0.1709971 0.2538046 -0.2297134
v 0.1012629 0.3948196 0.2474177
v 0.1012629 0.3948196 0.2916832
v 0.1709971 0.2538046 -0.2685809
v 0.1709971 -0.3818179 -0.3325072
v 0.1709971 -0.3818179 -0.3533446
v 0.1523119 0.3352196 -0.3350458
v 0.1523119 0.3352196 -0.3671047
v 0.01630104 0.2538046 -0.3271112
v 0.03152871 0.4166346 0.2474177
v 0.03152871 0.4166346 0.2916832
v -0.04699821 0.4166346 0.2916832
v 0.1012629 0.3948196 -0.3791393
v 0.01214028 0.3352196 -0.3755775
v -0.02869604 0.2538046 -0.2809595
v 0.1012629 0.3948196 -0.4159257
v 0.03152871 0.4166346 -0.3895181
v -0.03067799 0.3948196 -0.3821746
v 0.03152871 0.4166346 -0.361108
v -0.04699821 0.4166346 -0.3601132
v -0.04699821 0.4166346 0.2474177
v -0.03515338 0.3352196 -0.3104012
v -0.04699821 0.4166346 -0.3304453
v -0.1167324 0.3948196 0.2474177
v -0.1167324 0.3948196 0.2916832
v -0.05191798 0.3948196 -0.3309316
v -0.1167324 0.3948196 -0.1745621
v -0.1677814 0.3352196 -0.127624
v -0.1864666 0.2538046 -0.1191409
v -0.1167324 0.3948196 -0.1567967
v -0.1677814 0.3352196 -0.1118348
v -0.1677814 0.3352196 0.2474177
v -0.1677814 0.3352196 0.2916832
v -0.1864666 0.2538046 -0.1037088
v -0.1864666 0.2538046 0.2474177
v -0.1864666 0.2538046 0.2916832
v -0.1864666 -0.3818179 0.2916832
v -0.1864666 -0.3818179 0.2474177
v -0.1864666 -0.3818179 -0.172851
v -0.1864666 -0.3818179 -0.191322
v -0.1864666 -0.3818179 0.2474177
v -0.1864666 -0.3818179 0.2916832
v 0.1709971 -0.3818179 0.2916832
v 0.1709971 -0.3818179 0.2474177
v -0.1864666 -0.3818179 -0.172851
v 0.1709971 -0.3818179 -0.3080924
v -0.1864666 -0.3818179 -0.191322
v 0.1709971 -0.3818179 -0.3325072
v -0.06994049 -0.3818179 -0.3192978
v 0.1709971 -0.3818179 -0.3533446
v -0.05027824 -0.3818179 -0.3407774
v 0.1523119 0.3352196 0.2916832
v 0.1709971 0.2538046 0.2916832
v 0.1709971 -0.3818179 0.2916832
v -0.1864666 -0.3818179 0.2916832
v 0.1012629 0.3948196 0.2916832
v 0.03152871 0.4166346 0.2916832
v -0.04699821 0.4166346 0.2916832
v -0.1167324 0.3948196 0.2916832
v -0.1677814 0.3352196 0.2916832
v -0.1864666 0.2538046 0.2916832
v 0.1012629 0.3948196 -0.4159257
v 0.03152871 0.4166346 -0.3895181
v -0.04699821 0.4166346 -0.3601132
v -0.03067799 0.3948196 -0.3821746
v -0.05027824 -0.3818179 -0.3407774
v 0.1709971 -0.3818179 -0.3533446
v 0.1709971 0.2538046 -0.2685809
v 0.01630104 0.2538046 -0.3271112
v -0.1864666 0.2538046 -0.1191409
v -0.1864666 -0.3818179 -0.191322
v -0.06994049 -0.3818179 -0.3192978
v -0.02869604 0.2538046 -0.2809595
v 0.01630104 0.2538046 -0.3271112
v -0.05027824 -0.3818179 -0.3407774
vt 0.02999046 0.965088
vt 0.02999046 0.965088
vt 0.02999046 0.9650879
vt 0.02999046 0.9650879
vt 0.02999046 0.965088
vt 0.02999046 0.965088
vt 0.02999046 0.965088
vt 0.02999046 0.9650879
vt 0.02999046 0.9650879
vt 0.02999046 0.9650879
vt 0.02999046 0.9650879
vt 0.02999046 0.965088
vt 0.02999046 0.965088
vt 0.02999046 0.965088
vt 0.02999046 0.965088
vt 0.02999046 0.9650879
vt 0.02999046 0.9650879
vt 0.02999046 0.965088
vt 0.02999046 0.9650879
vt 0.02999046 0.9650879
vt 0.02999046 0.965088
vt 0.02999046 0.9650879
vt 0.02999046 0.965088
vt 0.02999046 0.9650879
vt 0.02999046 0.965088
vt 0.02999046 0.9650879
vt 0.02999046 0.9650879
vt 0.02999046 0.9650879
vt 0.02999046 0.965088
vt 0.02999046 0.9650879
vt 0.02999046 0.965088
vt 0.02999046 0.965088
vt 0.02999046 0.965088
vt 0.02999046 0.965088
vt 0.02999046 0.965088
vt 0.02999046 0.9650879
vt 0.02999046 0.965088
vt 0.02999046 0.965088
vt 0.02999046 0.965088
vt 0.02999046 0.965088
vt 0.02999046 0.9650879
vt 0.02999046 0.9650879
vt 0.02999046 0.965088
vt 0.02999046 0.965088
vt 0.02999046 0.965088
vt 0.02999046 0.9650879
vt 0.02999046 0.9650879
vt 0.02999046 0.965088
vt 0.02999046 0.965088
vt 0.02999046 0.965088
vt 0.02999046 0.965088
vt 0.02999046 0.9650879
vt 0.02999046 0.965088
vt 0.02999046 0.9650879
vt 0.02999046 0.965088
vt 0.02999046 0.9650879
vt 0.02999046 0.965088
vt 0.02999046 0.965088
vt 0.02999046 0.965088
vt 0.02999046 0.965088
vt 0.02999046 0.965088
vt 0.02999046 0.965088
vt 0.02999046 0.9650879
vt 0.02999046 0.9650879
vt 0.02999046 0.965088
vt 0.02999046 0.965088
vt 0.02999046 0.965088
vt 0.02999046 0.9650879
vt 0.02999046 0.965088
vt 0.02999046 0.9650879
vt 0.02999046 0.9650879
vt 0.02999046 0.965088
vt 0.02999046 0.965088
vt 0.02999046 0.965088
vt 0.02999046 0.9650879
vt 0.02999046 0.9650879
vt 0.02999046 0.9650879
vt 0.02999046 0.9650879
vt 0.02999046 0.9650879
vt 0.02999046 0.9650879
vt 0.02999046 0.9650879
vt 0.02999046 0.965088
vn 0.7071068 -0.7071068 0
vn 0.5773503 -0.5773503 0.5773503
vn 0.7261205 0.08225011 0.6826301
vn 0.9936455 0.112555 0
vn 0.7071068 -0.7071068 0
vn 0.8929513 0.4501532 0
vn 0.6731411 0.3393478 0.6570572
vn 0.9936455 0.112555 0
vn 0.5504178 0.8348893 0
vn 0.4182938 0.6345211 0.6499333
vn 0.8831689 -0.0186168 -0.4686856
vn 0.7070457 -0.7071678 0
vn 0.6144132 -0.5300885 -0.5843822
vn 0.8929513 0.4501532 0
vn 0.762037 -0.01428304 -0.6473759
vn -0.342212 -0.2690269 -0.9002864
vn 0.1510068 0.9885328 0
vn 0.1114548 0.7296751 0.6746496
vn -0.1114548 0.7296751 0.6746496
vn 0.5504178 0.8348893 0
vn -0.3163935 -0.5433959 -0.7775705
vn -0.7446107 -0.05716271 -0.6650468
vn 0.3693184 0.4230635 -0.8274184
vn -0.03277764 0.8690957 -0.4935567
vn -0.5568439 -0.1099893 -0.8233026
vn 0.1510068 0.9885328 0
vn -0.6832724 0.5718759 -0.4539788
vn -0.1510068 0.9885328 0
vn -0.7932858 -0.242292 -0.5585626
vn -0.1510068 0.9885328 0
vn -0.5504178 0.8348893 0
vn -0.4182938 0.6345211 0.6499333
vn -0.8567318 -0.2923728 -0.4248867
vn -0.7367656 0.6320845 -0.2400951
vn -0.9202187 0.2764135 -0.2771155
vn -0.9425844 0.06509738 -0.3275622
vn -0.5504178 0.8348893 0
vn -0.8929513 0.4501532 0
vn -0.8929513 0.4501532 0
vn -0.6731411 0.3393478 0.6570572
vn -0.9936455 0.112555 0
vn -0.9936455 0.112555 0
vn -0.7261205 0.08225011 0.6826301
vn -0.5773503 -0.5773503 0.5773503
vn -0.7071068 -0.7071068 0
vn -0.7071068 -0.7071068 0
vn -0.7235184 -0.6173727 -0.3088237
vn 0 -1 0
vn 0 -1 0
vn 0 -1 0
vn 0 -1 0
vn 0 -1 0
vn 0 -1 0
vn 0 -1 0
vn 0 -1 0
vn 0 -1 0
vn 0 -1 0
vn 0 -1 0
vn 0 0 1
vn 0 0 1
vn 0 0 1
vn 0 0 1
vn 0 0 1
vn 0 0 1
vn 0 0 1
vn 0 0 1
vn 0 0 1
vn 0 0 1
vn -0.2573623 0.4451734 -0.8576627
vn -0.2573623 0.4451734 -0.8576627
vn -0.2573623 0.4451734 -0.8576627
vn -0.2573623 0.4451734 -0.8576627
vn 0.1210474 0.07032582 -0.9901524
vn 0.1210474 0.07032582 -0.9901524
vn 0.1210474 0.07032582 -0.9901524
vn 0.1210474 0.07032582 -0.9901524
vn -0.7237515 0.08303798 -0.6850464
vn -0.7237515 0.08303798 -0.6850464
vn -0.7237515 0.08303798 -0.6850464
vn -0.7237515 0.08303798 -0.6850464
vn -0.7199265 0.0892192 -0.6882918
vn -0.7199265 0.0892192 -0.6882918
g GibPiece3_0
f 3/3/3 2/2/2 1/1/1
f 4/4/4 3/3/3 1/1/1
f 4/4/4 1/1/1 5/5/5
f 3/3/3 4/4/4 6/6/6
f 7/7/7 3/3/3 6/6/6
f 8/8/8 4/4/4 5/5/5
f 6/6/6 4/4/4 8/8/8
f 7/7/7 6/6/6 9/9/9
f 10/10/10 7/7/7 9/9/9
f 11/11/11 8/8/8 5/5/5
f 11/11/11 5/5/5 12/12/12
f 12/12/12 13/13/13 11/11/11
f 14/14/14 6/6/6 8/8/8
f 9/9/9 6/6/6 14/14/14
f 8/8/8 11/11/11 15/15/15
f 14/14/14 8/8/8 15/15/15
f 11/11/11 16/16/16 15/15/15
f 10/10/10 9/9/9 17/17/17
f 18/18/18 10/10/10 17/17/17
f 19/19/19 18/18/18 17/17/17
f 20/20/20 9/9/9 14/14/14
f 17/17/17 9/9/9 20/20/20
f 16/16/16 21/21/21 15/15/15
f 21/21/21 16/16/16 22/22/22
f 14/14/14 15/15/15 23/23/23
f 20/20/20 14/14/14 23/23/23
f 23/23/23 15/15/15 21/21/21
f 20/20/20 23/23/23 24/24/24
f 25/25/25 23/23/23 21/21/21
f 26/26/26 20/20/20 24/24/24
f 26/26/26 17/17/17 20/20/20
f 26/26/26 24/24/24 27/27/27
f 28/28/28 19/19/19 17/17/17
f 28/28/28 17/17/17 26/26/26
f 29/29/29 21/21/21 22/22/22
f 25/25/25 21/21/21 29/29/29
f 30/30/30 26/26/26 27/27/27
f 30/30/30 28/28/28 26/26/26
f 28/28/28 31/31/31 19/19/19
f 31/31/31 32/32/32 19/19/19
f 27/27/27 25/25/25 33/33/33
f 33/33/33 25/25/25 29/29/29
f 33/33/33 34/34/34 27/27/27
f 27/27/27 34/34/34 30/30/30
f 33/33/33 29/29/29 34/34/34
f 29/29/29 22/22/22 35/35/35
f 29/29/29 35/35/35 34/34/34
f 22/22/22 36/36/36 35/35/35
f 30/30/30 37/37/37 28/28/28
f 34/34/34 37/37/37 30/30/30
f 34/34/34 35/35/35 37/37/37
f 37/37/37 31/31/31 28/28/28
f 35/35/35 38/38/38 37/37/37
f 37/37/37 38/38/38 31/31/31
f 35/35/35 36/36/36 38/38/38
f 31/31/31 39/39/39 32/32/32
f 38/38/38 39/39/39 31/31/31
f 39/39/39 40/40/40 32/32/32
f 36/36/36 41/41/41 38/38/38
f 38/38/38 41/41/41 39/39/39
f 39/39/39 42/42/42 40/40/40
f 41/41/41 42/42/42 39/39/39
f 42/42/42 43/43/43 40/40/40
f 43/43/43 42/42/42 44/44/44
f 42/42/42 45/45/45 44/44/44
f 42/42/42 41/41/41 45/45/45
f 41/41/41 46/46/46 45/45/45
f 41/41/41 36/36/36 46/46/46
f 36/36/36 47/47/47 46/46/46
f 50/50/50 49/49/49 48/48/48
f 51/51/51 50/50/50 48/48/48
f 51/51/51 48/48/48 52/52/52
f 53/53/53 51/51/51 52/52/52
f 53/53/53 52/52/52 54/54/54
f 55/55/55 53/53/53 54/54/54
f 56/56/56 55/55/55 54/54/54
f 57/57/57 55/55/55 56/56/56
f 58/58/58 57/57/57 56/56/56
f 61/61/61 60/60/60 59/59/59
f 59/59/59 62/62/62 61/61/61
f 59/59/59 63/63/63 62/62/62
f 63/63/63 64/64/64 62/62/62
f 64/64/64 65/65/65 62/62/62
f 65/65/65 66/66/66 62/62/62
f 66/66/66 67/67/67 62/62/62
f 67/67/67 68/68/68 62/62/62
f 71/71/71 70/70/70 69/69/69
f 72/72/72 71/71/71 69/69/69
f 75/75/75 74/74/74 73/73/73
f 76/76/76 75/75/75 73/73/73
f 79/79/79 78/78/78 77/77/77
f 80/80/80 79/79/79 77/77/77
f 80/80/80 81/81/81 79/79/79
f 81/81/81 82/82/82 79/79/79
