g GiftCol
v -0.1787442 0.1919141 -0.179859
v -2.537202E-05 0.1925075 2.088553E-05
v -0.2342809 0.1919166 -0.09700726
v 0.1792968 0.1919141 0.1792978
v 0.09627273 0.1919166 0.2345764
v 0.1798487 0.1919141 -0.1787432
v 0.2342809 0.1919166 -0.09700729
v 0.09773074 0.1919166 -0.233983
v -0.2342808 0.1919166 0.09700846
v -2.537202E-05 0.1925075 2.088553E-05
v -0.1792968 0.1919141 0.1792978
v 0.2342808 0.1919166 0.09700844
v 0.1792968 0.1919141 0.1792978
v -2.537202E-05 0.1925075 2.088553E-05
v -0.09628412 0.1919166 -0.2345866
v -2.537202E-05 0.1925075 2.088553E-05
v -0.1787442 0.1919141 -0.179859
v -0.09774214 0.1919166 0.2339725
v -0.1792968 0.1919141 0.1792978
v -2.537202E-05 0.1925075 2.088553E-05
v -0.2332569 0.1294819 -0.09661766
v -0.2474597 0.1301144 -0.1025006
v -0.2666788 0.1301144 3.285523E-08
v -0.2524759 0.129482 3.213136E-08
v -0.2474596 0.1301144 0.1025018
v -0.2332568 0.1294819 0.09661883
v -0.2474597 0.1301144 -0.1025006
v -0.2474597 0.1781975 -0.1025006
v -0.2666788 0.1781975 4.068896E-08
v -0.2666788 0.1301144 3.285523E-08
v -0.2474596 0.1781975 0.1025019
v -0.2474596 0.1301144 0.1025018
v -0.2474597 0.1781975 -0.1025006
v -0.2342809 0.1919166 -0.09700726
v -0.2534998 0.1919166 -0.000389772
v -0.2666788 0.1781975 4.068896E-08
v -0.2342808 0.1919166 0.09700846
v -0.2474596 0.1781975 0.1025019
v -0.2342809 0.1919166 -0.09700726
v -2.537202E-05 0.1925075 2.088553E-05
v -0.2534998 0.1919166 -0.000389772
v -0.2342808 0.1919166 0.09700846
v 0.2342809 0.1919166 -0.09700729
v 0.2534998 0.1919166 -0.0003897942
v 0.2342808 0.1919166 0.09700844
v 0.09773074 0.1919166 -0.233983
v 0.0011735 0.1919167 -0.2535024
v -0.09628412 0.1919166 -0.2345866
v 0.09627273 0.1919166 0.2345764
v -0.0004041308 0.1919166 0.2534946
v -0.09774214 0.1919166 0.2339725
v -0.178527 0.1294819 -0.1785268
v -0.2474597 0.1301144 -0.1025006
v -0.2332569 0.1294819 -0.09661766
v -0.1893973 0.1301144 -0.1893971
v -0.09589769 0.1294819 -0.2335614
v -0.1017365 0.1301144 -0.2477824
v -0.2332568 0.1294819 0.09661883
v -0.2474596 0.1301144 0.1025018
v -0.1893973 0.1301144 0.1893982
v -0.1785269 0.1294819 0.1785279
v -0.09734933 0.1294819 0.2329498
v -0.1032765 0.1301143 0.2471342
v -0.2474596 0.1301144 0.1025018
v -0.2474596 0.1781975 0.1025019
v -0.1899918 0.1781975 0.1888018
v -0.1893973 0.1301144 0.1893982
v -0.1032765 0.1301143 0.2471342
v -0.1032765 0.1781975 0.2471342
v -0.1893973 0.1301144 -0.1893971
v -0.2474597 0.1781975 -0.1025006
v -0.2474597 0.1301144 -0.1025006
v -0.1888131 0.1781975 -0.1899908
v -0.1017365 0.1301144 -0.2477824
v -0.1017365 0.1781975 -0.2477824
v -0.1792968 0.1919141 0.1792978
v -0.1899918 0.1781975 0.1888018
v -0.2474596 0.1781975 0.1025019
v -0.2342808 0.1919166 0.09700846
v -0.2342809 0.1919166 -0.09700726
v -0.2474597 0.1781975 -0.1025006
v -0.1888131 0.1781975 -0.1899908
v -0.1787442 0.1919141 -0.179859
v 0.2332569 0.1294819 -0.09661768
v 0.2666788 0.1301144 9.54144E-09
v 0.2474597 0.1301144 -0.1025007
v 0.2524759 0.129482 1.005922E-08
v 0.2474596 0.1301144 0.1025018
v 0.2332568 0.1294819 0.09661882
v 0.2474597 0.1301144 -0.1025007
v 0.2666788 0.1781975 1.737517E-08
v 0.2474597 0.1781975 -0.1025006
v 0.2666788 0.1301144 9.54144E-09
v 0.2474596 0.1781975 0.1025018
v 0.2474596 0.1301144 0.1025018
v 0.2474597 0.1781975 -0.1025006
v 0.2534998 0.1919166 -0.0003897942
v 0.2342809 0.1919166 -0.09700729
v 0.2666788 0.1781975 1.737517E-08
v 0.2342808 0.1919166 0.09700844
v 0.2474596 0.1781975 0.1025018
v 0.1790764 0.1294819 -0.1779757
v 0.2332569 0.1294819 -0.09661768
v 0.2474597 0.1301144 -0.1025007
v 0.1893973 0.1301144 -0.1893971
v 0.1032651 0.1301144 -0.2471446
v 0.09733796 0.1294819 -0.2329602
v 0.2332568 0.1294819 0.09661882
v 0.1888019 0.1301144 0.1899805
v 0.2474596 0.1301144 0.1025018
v 0.1779653 0.1294819 0.1790765
v 0.1017251 0.1301143 0.2477722
v 0.0958863 0.1294819 0.2335512
v 0.2474596 0.1301144 0.1025018
v 0.1893973 0.1781975 0.1893982
v 0.2474596 0.1781975 0.1025018
v 0.1888019 0.1301144 0.1899805
v 0.1017251 0.1781975 0.2477722
v 0.1017251 0.1301143 0.2477722
v 0.1893973 0.1301144 -0.1893971
v 0.2474597 0.1301144 -0.1025007
v 0.2474597 0.1781975 -0.1025006
v 0.1893973 0.1781976 -0.1893971
v 0.1032651 0.1781976 -0.2471446
v 0.1032651 0.1301144 -0.2471446
v 0.1792968 0.1919141 0.1792978
v 0.2342808 0.1919166 0.09700844
v 0.2474596 0.1781975 0.1025018
v 0.1893973 0.1781975 0.1893982
v 0.2342809 0.1919166 -0.09700729
v 0.1893973 0.1781976 -0.1893971
v 0.2474597 0.1781975 -0.1025006
v 0.1798487 0.1919141 -0.1787432
v 0.09773074 0.1919166 -0.233983
v 0.1032651 0.1781976 -0.2471446
v 0.09733796 0.1294819 -0.2329602
v 0.1032651 0.1301144 -0.2471446
v 0.0008247005 0.1301145 -0.2666825
v 0.0007804895 0.129482 -0.2524798
v -0.1017365 0.1301144 -0.2477824
v -0.09589769 0.1294819 -0.2335614
v 0.1032651 0.1301144 -0.2471446
v 0.1032651 0.1781976 -0.2471446
v 0.0008247005 0.1781976 -0.2666825
v 0.0008247005 0.1301145 -0.2666825
v -0.1017365 0.1781975 -0.2477824
v -0.1017365 0.1301144 -0.2477824
v 0.1032651 0.1781976 -0.2471446
v 0.09773074 0.1919166 -0.233983
v 0.0011735 0.1919167 -0.2535024
v 0.0008247005 0.1781976 -0.2666825
v -0.09628412 0.1919166 -0.2345866
v -0.1017365 0.1781975 -0.2477824
v -0.1787442 0.1919141 -0.179859
v -0.1888131 0.1781975 -0.1899908
v -0.1017365 0.1781975 -0.2477824
v -0.09628412 0.1919166 -0.2345866
v 0.0958863 0.1294819 0.2335512
v -0.00083496 0.1301144 0.2666722
v 0.1017251 0.1301143 0.2477722
v -0.0007907713 0.1294819 0.2524694
v -0.1032765 0.1301143 0.2471342
v -0.09734933 0.1294819 0.2329498
v 0.1017251 0.1301143 0.2477722
v -0.00083496 0.1781975 0.2666722
v 0.1017251 0.1781975 0.2477722
v -0.00083496 0.1301144 0.2666722
v -0.1032765 0.1781975 0.2471342
v -0.1032765 0.1301143 0.2471342
v 0.1017251 0.1781975 0.2477722
v -0.0004041308 0.1919166 0.2534946
v 0.09627273 0.1919166 0.2345764
v -0.00083496 0.1781975 0.2666722
v -0.09774214 0.1919166 0.2339725
v -0.1032765 0.1781975 0.2471342
v -0.1792968 0.1919141 0.1792978
v -0.09774214 0.1919166 0.2339725
v -0.1032765 0.1781975 0.2471342
v -0.1899918 0.1781975 0.1888018
v 0.09627273 0.1919166 0.2345764
v 0.1792968 0.1919141 0.1792978
v 0.1893973 0.1781975 0.1893982
v 0.1017251 0.1781975 0.2477722
vt 0.2728306 0.9652795
vt 0.2728306 0.9652795
vt 0.2728306 0.9652796
vt 0.2728306 0.9652795
vt 0.2728306 0.9652796
vt 0.2728306 0.9652795
vt 0.2728306 0.9652796
vt 0.2728306 0.9652796
vt 0.2728306 0.9652796
vt 0.2728306 0.9652795
vt 0.2728306 0.9652795
vt 0.2728306 0.9652796
vt 0.2728306 0.9652795
vt 0.2728306 0.9652795
vt 0.2728306 0.9652796
vt 0.2728306 0.9652795
vt 0.2728306 0.9652795
vt 0.2728306 0.9652796
vt 0.2728306 0.9652795
vt 0.2728306 0.9652795
vt 0.03402555 0.9670236
vt 0.03402555 0.9670236
vt 0.03402555 0.9670236
vt 0.03402555 0.9670236
vt 0.03402555 0.9670236
vt 0.03402555 0.9670236
vt 0.03402555 0.9670236
vt 0.03402555 0.9670236
vt 0.03402555 0.9670236
vt 0.03402555 0.9670236
vt 0.03402555 0.9670236
vt 0.03402555 0.9670236
vt 0.03402555 0.9670236
vt 0.03402555 0.9670236
vt 0.03402555 0.9670236
vt 0.03402555 0.9670236
vt 0.03402555 0.9670236
vt 0.03402555 0.9670236
vt 0.03402555 0.9670236
vt 0.03402555 0.9670236
vt 0.03402555 0.9670236
vt 0.03402555 0.9670236
vt 0.03402555 0.9670236
vt 0.03402555 0.9670236
vt 0.03402555 0.9670236
vt 0.03402555 0.9670236
vt 0.03402555 0.9670236
vt 0.03402555 0.9670236
vt 0.03402555 0.9670236
vt 0.03402555 0.9670236
vt 0.03402555 0.9670236
vt 0.2728306 0.9652795
vt 0.2728306 0.9652795
vt 0.2728306 0.9652795
vt 0.2728306 0.9652795
vt 0.2728306 0.9652795
vt 0.2728306 0.9652795
vt 0.2728306 0.9652795
vt 0.2728306 0.9652795
vt 0.2728306 0.9652795
vt 0.2728306 0.9652795
vt 0.2728306 0.9652795
vt 0.2728306 0.9652795
vt 0.2728306 0.9652795
vt 0.2728306 0.9652796
vt 0.2728306 0.9652796
vt 0.2728306 0.9652795
vt 0.2728306 0.9652795
vt 0.2728306 0.9652796
vt 0.2728306 0.9652795
vt 0.2728306 0.9652795
vt 0.2728306 0.9652795
vt 0.2728306 0.9652795
vt 0.2728306 0.9652795
vt 0.2728306 0.9652796
vt 0.2728306 0.9652795
vt 0.2728306 0.9652796
vt 0.2728306 0.9652796
vt 0.2728306 0.9652796
vt 0.2728306 0.9652796
vt 0.2728306 0.9652795
vt 0.2728306 0.9652795
vt 0.2728306 0.9652795
vt 0.03402555 0.9670236
vt 0.03402555 0.9670236
vt 0.03402555 0.9670236
vt 0.03402555 0.9670236
vt 0.03402555 0.9670236
vt 0.03402555 0.9670236
vt 0.03402555 0.9670236
vt 0.03402555 0.9670236
vt 0.03402555 0.9670236
vt 0.03402555 0.9670236
vt 0.03402555 0.9670236
vt 0.03402555 0.9670236
vt 0.03402555 0.9670236
vt 0.03402555 0.9670236
vt 0.03402555 0.9670236
vt 0.03402555 0.9670236
vt 0.03402555 0.9670236
vt 0.03402555 0.9670236
vt 0.2728306 0.9652795
vt 0.2728306 0.9652795
vt 0.2728306 0.9652795
vt 0.2728306 0.9652795
vt 0.2728306 0.9652795
vt 0.2728306 0.9652795
vt 0.2728306 0.9652795
vt 0.2728306 0.9652795
vt 0.2728306 0.9652795
vt 0.2728306 0.9652795
vt 0.2728306 0.9652795
vt 0.2728306 0.9652795
vt 0.2728306 0.9652795
vt 0.2728306 0.9652796
vt 0.2728306 0.9652796
vt 0.2728306 0.9652795
vt 0.2728306 0.9652795
vt 0.2728306 0.9652795
vt 0.2728306 0.9652795
vt 0.2728306 0.9652795
vt 0.2728306 0.9652795
vt 0.2728306 0.9652795
vt 0.2728306 0.9652795
vt 0.2728306 0.9652795
vt 0.2728306 0.9652795
vt 0.2728306 0.9652796
vt 0.2728306 0.9652796
vt 0.2728306 0.9652796
vt 0.2728306 0.9652796
vt 0.2728306 0.9652795
vt 0.2728306 0.9652795
vt 0.2728306 0.9652795
vt 0.2728306 0.9652796
vt 0.2728306 0.9652795
vt 0.03402555 0.9670236
vt 0.03402555 0.9670236
vt 0.03402555 0.9670236
vt 0.03402555 0.9670236
vt 0.03402555 0.9670236
vt 0.03402555 0.9670236
vt 0.03402555 0.9670236
vt 0.03402555 0.9670236
vt 0.03402555 0.9670236
vt 0.03402555 0.9670236
vt 0.03402555 0.9670236
vt 0.03402555 0.9670236
vt 0.03402555 0.9670236
vt 0.03402555 0.9670236
vt 0.03402555 0.9670236
vt 0.03402555 0.9670236
vt 0.03402555 0.9670236
vt 0.03402555 0.9670236
vt 0.2728306 0.9652795
vt 0.2728306 0.9652796
vt 0.2728306 0.9652796
vt 0.2728306 0.9652796
vt 0.03402555 0.9670236
vt 0.03402555 0.9670236
vt 0.03402555 0.9670236
vt 0.03402555 0.9670236
vt 0.03402555 0.9670236
vt 0.03402555 0.9670236
vt 0.03402555 0.9670236
vt 0.03402555 0.9670236
vt 0.03402555 0.9670236
vt 0.03402555 0.9670236
vt 0.03402555 0.9670236
vt 0.03402555 0.9670236
vt 0.03402555 0.9670236
vt 0.03402555 0.9670236
vt 0.03402555 0.9670236
vt 0.03402555 0.9670236
vt 0.03402555 0.9670236
vt 0.03402555 0.9670236
vt 0.2728306 0.9652795
vt 0.2728306 0.9652796
vt 0.2728306 0.9652796
vt 0.2728306 0.9652796
vt 0.2728306 0.9652796
vt 0.2728306 0.9652795
vt 0.2728306 0.9652795
vt 0.2728306 0.9652795
vn -0.001964564 0.9999971 -0.00134672
vn -0.001964564 0.9999971 -0.00134672
vn -0.001964564 0.9999971 -0.00134672
vn 0.001340926 0.9999971 0.001968914
vn 0.001340926 0.9999971 0.001968914
vn 0.001966935 0.9999971 -0.001340101
vn 0.001966935 0.9999971 -0.001340101
vn 0.001349425 0.9999971 -0.00196102
vn -0.001966087 0.9999971 0.001343816
vn -0.001966087 0.9999971 0.001343816
vn -0.001966087 0.9999971 0.001343816
vn 0.001965754 0.9999971 0.001343594
vn 0.001965754 0.9999971 0.001343594
vn 0.001965754 0.9999971 0.001343594
vn -0.001337456 0.9999971 -0.001969558
vn -0.001337456 0.9999971 -0.001969558
vn -0.001337456 0.9999971 -0.001969558
vn -0.001346901 0.9999971 0.001963408
vn -0.001346901 0.9999971 0.001963408
vn -0.001346901 0.9999971 0.001963408
vn -0.04277996 -0.9990503 -0.008257956
vn -0.04277996 -0.9990503 -0.008257956
vn -0.04277996 -0.9990503 -0.008257956
vn -0.04277996 -0.9990503 -0.008257956
vn -0.04278023 -0.9990503 0.008257693
vn -0.04278023 -0.9990503 0.008257693
vn -0.9258296 0.0008244052 -0.3779401
vn -0.9258297 0.0008244052 -0.3779401
vn -1 0 0
vn -1 0 0
vn -0.9261178 -0.0008684431 0.3772332
vn -0.9261178 -0.0008684433 0.3772333
vn -0.6477622 0.7140301 -0.265641
vn -0.6480138 0.7139989 -0.2651108
vn -0.7074035 0.7068067 -0.002102371
vn -0.7073796 0.7068323 0.0014781
vn -0.6465925 0.7159654 0.2632711
vn -0.6462584 0.7160078 0.2639751
vn -0.002330109 0.9999973 -0.0004635244
vn -0.002330109 0.9999973 -0.0004635244
vn -0.002330109 0.9999973 -0.0004635244
vn -0.002331671 0.9999973 0.0004605651
vn 0.002329808 0.9999973 -0.0004634316
vn 0.002329808 0.9999973 -0.0004634316
vn 0.002331204 0.9999973 0.0004604729
vn 0.0004706977 0.9999973 -0.002328129
vn 0.0004706977 0.9999973 -0.002328129
vn -0.000452623 0.9999973 -0.002332498
vn 0.0004560822 0.9999973 0.002331847
vn 0.0004560822 0.9999973 0.002331847
vn -0.00046732 0.9999973 0.002330466
vn -0.03484827 -0.9991214 -0.02328522
vn -0.03484827 -0.9991214 -0.02328522
vn -0.03484827 -0.9991214 -0.02328522
vn -0.03484827 -0.9991214 -0.02328522
vn -0.02324058 -0.9991208 -0.03489411
vn -0.02324058 -0.9991208 -0.03489411
vn -0.03484825 -0.9991214 0.02328483
vn -0.03484825 -0.9991214 0.02328483
vn -0.03484825 -0.9991214 0.02328483
vn -0.03484825 -0.9991214 0.02328483
vn -0.02333103 -0.9991218 0.03480151
vn -0.02333103 -0.9991218 0.03480151
vn -0.9261178 -0.0008684433 0.3772333
vn -0.9261178 -0.0008684431 0.3772332
vn -0.7097339 -1.850505E-05 0.7044699
vn -0.7066746 1.945135E-05 0.7075387
vn -0.3801129 0.0008688971 0.9249396
vn -0.3801129 0.0008688968 0.9249396
vn -0.7075599 -6.38046E-05 -0.7066533
vn -0.9258297 0.0008244052 -0.3779401
vn -0.9258296 0.0008244052 -0.3779401
vn -0.7045015 -0.0001012056 -0.7097025
vn -0.3750915 -0.000906983 -0.9269873
vn -0.3750914 -0.0009069826 -0.9269873
vn -0.4879618 0.7212011 0.4916933
vn -0.4929774 0.7213051 0.4865102
vn -0.6462584 0.7160078 0.2639751
vn -0.6465925 0.7159654 0.2632711
vn -0.6480138 0.7139989 -0.2651108
vn -0.6477622 0.7140301 -0.265641
vn -0.4886284 0.7212629 -0.4909401
vn -0.4887018 0.7212629 -0.4908671
vn 0.04278001 -0.9990503 -0.008257962
vn 0.04278001 -0.9990503 -0.008257962
vn 0.04278001 -0.9990503 -0.008257962
vn 0.04278001 -0.9990503 -0.008257962
vn 0.04278019 -0.9990503 0.008257698
vn 0.04278019 -0.9990503 0.008257698
vn 0.9259703 0 -0.3775965
vn 1 0 0
vn 0.9259703 0 -0.3775963
vn 1 0 0
vn 0.9258157 -0.0009071835 0.3779741
vn 0.9258157 -0.0009071837 0.3779741
vn 0.648886 0.7130536 -0.2655212
vn 0.7074035 0.7068068 -0.00210242
vn 0.6491923 0.7130194 -0.2648634
vn 0.7073796 0.7068323 0.001478037
vn 0.6473438 0.7149791 0.2641042
vn 0.6470371 0.7150131 0.2647625
vn 0.03504122 -0.9991124 -0.02337626
vn 0.03504122 -0.9991124 -0.02337626
vn 0.03504122 -0.9991124 -0.02337626
vn 0.03504122 -0.9991124 -0.02337626
vn 0.02324205 -0.9991305 -0.03461079
vn 0.02324205 -0.9991305 -0.03461079
vn 0.03482139 -0.9991208 0.0233489
vn 0.03482139 -0.9991208 0.0233489
vn 0.03482139 -0.9991208 0.0233489
vn 0.03482139 -0.9991208 0.0233489
vn 0.0231764 -0.9991214 0.03492053
vn 0.0231764 -0.9991214 0.03492053
vn 0.9258157 -0.0009071837 0.3779741
vn 0.7075067 -0.0001017017 0.7067066
vn 0.9258157 -0.0009071835 0.3779741
vn 0.7044482 -6.430628E-05 0.7097554
vn 0.3750571 0.0008240668 0.9270014
vn 0.3750571 0.0008240668 0.9270013
vn 0.7076617 0 -0.7065514
vn 0.9259703 0 -0.3775965
vn 0.9259703 0 -0.3775963
vn 0.7076617 0 -0.7065515
vn 0.3797629 0 -0.9250838
vn 0.3797629 0 -0.9250838
vn 0.4893437 0.7212631 0.4902268
vn 0.6473438 0.7149791 0.2641042
vn 0.6470371 0.7150131 0.2647625
vn 0.4894171 0.7212631 0.4901534
vn 0.6491923 0.7130194 -0.2648634
vn 0.4880915 0.7213032 -0.4914147
vn 0.648886 0.7130536 -0.2655212
vn 0.4931551 0.7212033 -0.4864812
vn 0.265783 0.714968 -0.6466686
vn 0.2664421 0.7150128 -0.6463477
vn 0.008391071 -0.9990503 -0.04275444
vn 0.008391071 -0.9990503 -0.04275444
vn 0.008391071 -0.9990503 -0.04275444
vn 0.008391071 -0.9990503 -0.04275444
vn -0.008124776 -0.9990503 -0.0428059
vn -0.008124776 -0.9990503 -0.0428059
vn 0.3797629 0 -0.9250838
vn 0.3797629 0 -0.9250838
vn 0.00311239 0 -0.9999952
vn 0.003112369 0 -0.9999952
vn -0.3750914 -0.0009069826 -0.9269873
vn -0.3750915 -0.000906983 -0.9269873
vn 0.2664421 0.7150128 -0.6463477
vn 0.265783 0.714968 -0.6466686
vn 0.004303532 0.7068067 -0.7073936
vn 0.000723047 0.7068322 -0.7073808
vn -0.2620886 0.714979 -0.6481625
vn -0.2627479 0.715013 -0.6478578
vn -0.4887018 0.7212629 -0.4908671
vn -0.4886284 0.7212629 -0.4909401
vn -0.2627479 0.715013 -0.6478578
vn -0.2620886 0.714979 -0.6481625
vn 0.008124599 -0.9990504 0.04280511
vn 0.008124599 -0.9990504 0.04280511
vn 0.008124599 -0.9990504 0.04280511
vn 0.008124599 -0.9990504 0.04280511
vn -0.008390692 -0.9990504 0.04275358
vn -0.008390692 -0.9990504 0.04275358
vn 0.3750571 0.0008240668 0.9270013
vn -0.003111058 0 0.9999952
vn 0.3750571 0.0008240668 0.9270014
vn -0.003111076 0 0.9999952
vn -0.3801129 0.0008688968 0.9249396
vn -0.3801129 0.0008688971 0.9249396
vn 0.263624 0.7140303 0.6485856
vn -9.877161E-05 0.7068068 0.7074067
vn 0.263093 0.713999 0.6488356
vn -0.003679215 0.7068323 0.7073715
vn -0.2664027 0.713981 0.6475035
vn -0.2671039 0.714012 0.6471804
vn -0.4879618 0.7212011 0.4916933
vn -0.2664027 0.713981 0.6475035
vn -0.2671039 0.714012 0.6471804
vn -0.4929774 0.7213051 0.4865102
vn 0.263093 0.713999 0.6488356
vn 0.4893437 0.7212631 0.4902268
vn 0.4894171 0.7212631 0.4901534
vn 0.263624 0.7140303 0.6485856
g GiftCol_0
f 3/3/3 2/2/2 1/1/1
f 2/2/2 5/5/5 4/4/4
f 2/2/2 7/7/7 6/6/6
f 8/8/8 2/2/2 6/6/6
f 11/11/11 10/10/10 9/9/9
f 14/14/14 13/13/13 12/12/12
f 17/17/17 16/16/16 15/15/15
f 20/20/20 19/19/19 18/18/18
f 23/23/23 22/22/22 21/21/21
f 24/24/24 23/23/23 21/21/21
f 25/25/25 23/23/23 24/24/24
f 26/26/26 25/25/25 24/24/24
f 29/29/29 28/28/28 27/27/27
f 30/30/30 29/29/29 27/27/27
f 31/31/31 29/29/29 30/30/30
f 32/32/32 31/31/31 30/30/30
f 35/35/35 34/34/34 33/33/33
f 36/36/36 35/35/35 33/33/33
f 37/37/37 35/35/35 36/36/36
f 38/38/38 37/37/37 36/36/36
f 41/41/41 40/40/40 39/39/39
f 42/42/42 40/40/40 41/41/41
f 40/40/40 44/44/44 43/43/43
f 40/40/40 45/45/45 44/44/44
f 47/47/47 40/40/40 46/46/46
f 48/48/48 40/40/40 47/47/47
f 40/40/40 50/50/50 49/49/49
f 40/40/40 51/51/51 50/50/50
f 54/54/54 53/53/53 52/52/52
f 53/53/53 55/55/55 52/52/52
f 52/52/52 55/55/55 56/56/56
f 55/55/55 57/57/57 56/56/56
f 60/60/60 59/59/59 58/58/58
f 61/61/61 60/60/60 58/58/58
f 60/60/60 61/61/61 62/62/62
f 63/63/63 60/60/60 62/62/62
f 66/66/66 65/65/65 64/64/64
f 67/67/67 66/66/66 64/64/64
f 66/66/66 67/67/67 68/68/68
f 69/69/69 66/66/66 68/68/68
f 72/72/72 71/71/71 70/70/70
f 71/71/71 73/73/73 70/70/70
f 70/70/70 73/73/73 74/74/74
f 73/73/73 75/75/75 74/74/74
f 78/78/78 77/77/77 76/76/76
f 79/79/79 78/78/78 76/76/76
f 82/82/82 81/81/81 80/80/80
f 83/83/83 82/82/82 80/80/80
f 86/86/86 85/85/85 84/84/84
f 85/85/85 87/87/87 84/84/84
f 85/85/85 88/88/88 87/87/87
f 88/88/88 89/89/89 87/87/87
f 92/92/92 91/91/91 90/90/90
f 91/91/91 93/93/93 90/90/90
f 91/91/91 94/94/94 93/93/93
f 94/94/94 95/95/95 93/93/93
f 98/98/98 97/97/97 96/96/96
f 97/97/97 99/99/99 96/96/96
f 97/97/97 100/100/100 99/99/99
f 100/100/100 101/101/101 99/99/99
f 104/104/104 103/103/103 102/102/102
f 105/105/105 104/104/104 102/102/102
f 106/106/106 105/105/105 102/102/102
f 107/107/107 106/106/106 102/102/102
f 110/110/110 109/109/109 108/108/108
f 109/109/109 111/111/111 108/108/108
f 109/109/109 112/112/112 111/111/111
f 112/112/112 113/113/113 111/111/111
f 116/116/116 115/115/115 114/114/114
f 115/115/115 117/117/117 114/114/114
f 115/115/115 118/118/118 117/117/117
f 118/118/118 119/119/119 117/117/117
f 122/122/122 121/121/121 120/120/120
f 123/123/123 122/122/122 120/120/120
f 124/124/124 123/123/123 120/120/120
f 125/125/125 124/124/124 120/120/120
f 128/128/128 127/127/127 126/126/126
f 129/129/129 128/128/128 126/126/126
f 132/132/132 131/131/131 130/130/130
f 131/131/131 133/133/133 130/130/130
f 133/133/133 131/131/131 134/134/134
f 131/131/131 135/135/135 134/134/134
f 138/138/138 137/137/137 136/136/136
f 139/139/139 138/138/138 136/136/136
f 140/140/140 138/138/138 139/139/139
f 141/141/141 140/140/140 139/139/139
f 144/144/144 143/143/143 142/142/142
f 145/145/145 144/144/144 142/142/142
f 146/146/146 144/144/144 145/145/145
f 147/147/147 146/146/146 145/145/145
f 150/150/150 149/149/149 148/148/148
f 151/151/151 150/150/150 148/148/148
f 152/152/152 150/150/150 151/151/151
f 153/153/153 152/152/152 151/151/151
f 156/156/156 155/155/155 154/154/154
f 157/157/157 156/156/156 154/154/154
f 160/160/160 159/159/159 158/158/158
f 159/159/159 161/161/161 158/158/158
f 159/159/159 162/162/162 161/161/161
f 162/162/162 163/163/163 161/161/161
f 166/166/166 165/165/165 164/164/164
f 165/165/165 167/167/167 164/164/164
f 165/165/165 168/168/168 167/167/167
f 168/168/168 169/169/169 167/167/167
f 172/172/172 171/171/171 170/170/170
f 171/171/171 173/173/173 170/170/170
f 171/171/171 174/174/174 173/173/173
f 174/174/174 175/175/175 173/173/173
f 178/178/178 177/177/177 176/176/176
f 179/179/179 178/178/178 176/176/176
f 182/182/182 181/181/181 180/180/180
f 183/183/183 182/182/182 180/180/180
