g HexagonObstacleDouble
v 0.2667235 0 -0.4478953
v 0.2667235 0.3079985 -0.4478953
v 0 0.3079985 -0.5883811
v 0 0 -0.5883811
v -0.2667235 0 0.4467526
v -0.2667235 0.3079985 0.4467526
v 2.995133E-08 0.3079985 0.5872383
v 2.995133E-08 0 0.5872383
v 0.2667235 0 0.4467525
v 0.2667235 0.3079985 0.4467525
v 0.2667235 0.3079985 -0.4478953
v 0.2667235 0 -0.4478953
v -0.2667235 0 -0.4478954
v -0.2667235 0.3079985 -0.4478954
v -0.2667235 0.3079985 0.4467526
v -0.2667235 0 0.4467526
v 0.2667235 0 -0.4478953
v 0 0 -0.5883811
v -0.2667235 0 -0.4478954
v -0.2667235 0 0.4467526
v 0.2667235 0 0.4467525
v 2.995133E-08 0 0.5872383
v 2.995133E-08 0 0.5872383
v 2.995133E-08 0.3079985 0.5872383
v 0.2667235 0.3079985 0.4467525
v 0.2667235 0 0.4467525
v -0.2667235 0.3079985 -0.4478954
v 0 0.3079985 -0.5883811
v 0.2667235 0.3079985 -0.4478953
v -0.2667235 0.3079985 0.4467526
v 0.2667235 0.3079985 0.4467525
v 2.995133E-08 0.3079985 0.5872383
v 0 0 -0.5883811
v 0 0.3079985 -0.5883811
v -0.2667235 0.3079985 -0.4478954
v -0.2667235 0 -0.4478954
vt 0.06198063 0.9281762
vt 0.06198063 0.9281762
vt 0.06198063 0.9281762
vt 0.06198063 0.9281762
vt 0.06198063 0.9281762
vt 0.06198063 0.9281762
vt 0.06198063 0.9281762
vt 0.06198063 0.9281762
vt 0.06198063 0.9281762
vt 0.06198063 0.9281762
vt 0.06198063 0.9281762
vt 0.06198063 0.9281762
vt 0.06198063 0.9281762
vt 0.06198063 0.9281762
vt 0.06198063 0.9281762
vt 0.06198063 0.9281762
vt 0.06198063 0.9281762
vt 0.06198063 0.9281762
vt 0.06198063 0.9281762
vt 0.06198063 0.9281762
vt 0.06198063 0.9281762
vt 0.06198063 0.9281762
vt 0.06198063 0.9281762
vt 0.06198063 0.9281762
vt 0.06198063 0.9281762
vt 0.06198063 0.9281762
vt 0.06198063 0.9281762
vt 0.06198063 0.9281762
vt 0.06198063 0.9281762
vt 0.06198063 0.9281762
vt 0.06198063 0.9281762
vt 0.06198063 0.9281762
vt 0.06198063 0.9281762
vt 0.06198063 0.9281762
vt 0.06198063 0.9281762
vt 0.06198063 0.9281762
vn 0.4660191 0 -0.8847747
vn 0.4660191 0 -0.8847747
vn 0.4660191 0 -0.8847747
vn 0.4660191 0 -0.8847747
vn -0.466019 0 0.8847747
vn -0.466019 0 0.8847747
vn -0.466019 0 0.8847747
vn -0.466019 0 0.8847747
vn 1 0 0
vn 1 0 0
vn 1 0 0
vn 1 0 0
vn -1 0 0
vn -1 0 0
vn -1 0 0
vn -1 0 0
vn 0 -1 0
vn 0 -1 0
vn 0 -1 0
vn 0 -1 0
vn 0 -1 0
vn 0 -1 0
vn 0.4660193 0 0.8847745
vn 0.4660193 0 0.8847745
vn 0.4660193 0 0.8847745
vn 0.4660193 0 0.8847745
vn 0 1 0
vn 0 1 0
vn 0 1 0
vn 0 1 0
vn 0 1 0
vn 0 1 0
vn -0.4660188 0 -0.8847747
vn -0.4660188 0 -0.8847747
vn -0.4660188 0 -0.8847747
vn -0.4660188 0 -0.8847747
g HexagonObstacleDouble_0
f 3/3/3 2/2/2 1/1/1
f 4/4/4 3/3/3 1/1/1
f 7/7/7 6/6/6 5/5/5
f 8/8/8 7/7/7 5/5/5
f 11/11/11 10/10/10 9/9/9
f 12/12/12 11/11/11 9/9/9
f 15/15/15 14/14/14 13/13/13
f 16/16/16 15/15/15 13/13/13
f 19/19/19 18/18/18 17/17/17
f 17/17/17 20/20/20 19/19/19
f 17/17/17 21/21/21 20/20/20
f 21/21/21 22/22/22 20/20/20
f 25/25/25 24/24/24 23/23/23
f 26/26/26 25/25/25 23/23/23
f 29/29/29 28/28/28 27/27/27
f 27/27/27 30/30/30 29/29/29
f 30/30/30 31/31/31 29/29/29
f 30/30/30 32/32/32 31/31/31
f 35/35/35 34/34/34 33/33/33
f 36/36/36 35/35/35 33/33/33
