g HexGib07
v -0.01444763 -0.0434416 0.05434167
v -0.01444763 0.04336818 0.05434167
v 0.07033186 -0.0434416 0.1032891
v 0.07033186 -0.0434416 0.1032891
v -0.01444763 0.04336818 0.05434167
v 0.05715202 -0.05456575 0.03709382
v 0.02267206 -0.0434416 -0.01620919
v -0.01444763 0.04336818 0.05434167
v 0.0113227 0.0419821 -0.07155248
v 0.0113227 0.0419821 -0.07155248
v -0.02432444 -0.0434416 -0.09650184
v 0.02267206 -0.0434416 -0.01620919
v -0.02432446 0.09270404 -0.0576674
v -0.02432444 -0.0434416 -0.09650184
v 0.0113227 0.0419821 -0.07155248
v -0.01444763 0.04336818 0.05434167
v 0.02267206 -0.0434416 -0.01620919
v 0.05715202 -0.05456575 0.03709382
v 0.02267206 -0.0434416 -0.01620919
v -0.02432444 -0.0434416 -0.09650184
v -0.02432444 -0.0434416 0.03723455
v 0.05715202 -0.05456575 0.03709382
v 0.07033186 -0.0434416 0.1032891
v -0.01444763 -0.0434416 0.05434167
v -0.02432444 0.06082269 0.03723455
v -0.02432444 -0.0434416 0.03723455
v -0.02432444 -0.0434416 -0.09650184
v -0.02432446 0.09270404 -0.0576674
v -0.01444763 0.04336818 0.05434167
v -0.01444763 -0.0434416 0.05434167
v -0.02432444 -0.0434416 0.03723455
v -0.02432444 0.06082269 0.03723455
v -0.02432444 0.06082269 0.03723455
v -0.02432446 0.09270404 -0.0576674
v 0.0113227 0.0419821 -0.07155248
v -0.01444763 0.04336818 0.05434167
vt 0.06198063 0.9281762
vt 0.06198063 0.9281762
vt 0.06198063 0.9281762
vt 0.06198063 0.9281763
vt 0.06198063 0.9281762
vt 0.06198063 0.9281762
vt 0.06198063 0.9281762
vt 0.06198063 0.9281762
vt 0.06198063 0.9281762
vt 0.06198063 0.9281762
vt 0.06198063 0.9281762
vt 0.06198063 0.9281762
vt 0.06198063 0.9281762
vt 0.06198063 0.9281762
vt 0.06198063 0.9281762
vt 0.06198063 0.9281762
vt 0.06198063 0.9281762
vt 0.06198063 0.9281762
vt 0.06198063 0.9281762
vt 0.06198063 0.9281762
vt 0.06198063 0.9281762
vt 0.06198063 0.9281763
vt 0.06198063 0.9281762
vt 0.06198063 0.9281762
vt 0.06198063 0.9281762
vt 0.06198063 0.9281762
vt 0.06198063 0.9281762
vt 0.06198063 0.9281762
vt 0.06198063 0.9281762
vt 0.06198063 0.9281762
vt 0.06198063 0.9281762
vt 0.06198063 0.9281762
vt 0.06198063 0.9281762
vt 0.06198063 0.9281762
vt 0.06198063 0.9281762
vt 0.06198063 0.9281762
vn -0.5 0 0.8660254
vn -0.5 0 0.8660254
vn -0.5 0 0.8660254
vn 0.7595294 0.5996749 -0.252002
vn 0.7595294 0.5996749 -0.252002
vn 0.7595294 0.5996749 -0.252002
vn 0.9490703 0.250172 0.1915188
vn 0.9490703 0.250172 0.1915188
vn 0.9490703 0.250172 0.1915188
vn 0.8441657 -0.2079579 -0.4941029
vn 0.8441657 -0.2079579 -0.4941029
vn 0.8441657 -0.2079579 -0.4941029
vn 0.01572403 0.2742672 -0.961525
vn 0.01572403 0.2742672 -0.961525
vn 0.01572403 0.2742672 -0.961525
vn 0.7270774 0.5926176 -0.3466451
vn 0.7270774 0.5926176 -0.3466451
vn 0.7270774 0.5926176 -0.3466451
vn -0.0779421 -0.9964731 0.03108583
vn -0.0779421 -0.9964731 0.03108583
vn -0.0779421 -0.9964731 0.03108583
vn -0.0779421 -0.9964731 0.03108583
vn -0.0779421 -0.9964731 0.03108583
vn -0.0779421 -0.9964731 0.03108583
vn -1 0 0
vn -1 0 0
vn -1 0 0
vn -1 0 0
vn -0.8660251 0 0.5000004
vn -0.8660251 0 0.5000004
vn -0.8660251 0 0.5000004
vn -0.8660251 0 0.5000004
vn 0.8155518 0.5526807 0.1715209
vn 0.8155518 0.5526807 0.1715209
vn 0.8155518 0.5526807 0.1715209
vn 0.8155518 0.5526807 0.1715209
g HexGib07_0
f 3/3/3 2/2/2 1/1/1
f 6/6/6 5/5/5 4/4/4
f 9/9/9 8/8/8 7/7/7
f 12/12/12 11/11/11 10/10/10
f 15/15/15 14/14/14 13/13/13
f 18/18/18 17/17/17 16/16/16
f 21/21/21 20/20/20 19/19/19
f 19/19/19 22/22/22 21/21/21
f 22/22/22 23/23/23 21/21/21
f 23/23/23 24/24/24 21/21/21
f 27/27/27 26/26/26 25/25/25
f 28/28/28 27/27/27 25/25/25
f 31/31/31 30/30/30 29/29/29
f 32/32/32 31/31/31 29/29/29
f 35/35/35 34/34/34 33/33/33
f 36/36/36 35/35/35 33/33/33
