g HexGib01
v 0.0008797107 0.1670401 0.006575536
v 0.04912274 0.1670401 -0.1872006
v 0.04912274 0.1670401 0.03255644
v 0.04912274 0.1670401 -0.1872006
v 0.05874769 -0.1679599 -0.1468333
v 0.057903 0.1567887 -0.1918004
v -0.1215366 0.1670401 0.1416195
v -0.1165757 0.1567887 0.1497658
v -0.09392802 -0.1679599 0.1367931
v 0.057903 0.1567887 0.03762573
v 0.04912274 0.1670401 0.03255644
v 0.04912274 0.1670401 -0.1872006
v 0.057903 0.1567887 -0.1918004
v 0.057903 -0.06288656 -0.1714619
v 0.05874769 -0.1679599 -0.1468333
v 0.057903 -0.1679599 0.03762573
v 0.057903 0.1567887 0.03762573
v 0.057903 0.1567887 -0.1918004
v 0.04802619 0.1567887 0.05473283
v 0.057903 0.1567887 0.03762573
v 0.057903 -0.1679599 0.03762573
v 0.04802619 -0.1679599 0.05473285
v 0.03924595 0.1670401 0.04966355
v 0.04912274 0.1670401 0.03255644
v 0.057903 0.1567887 0.03762573
v 0.04802619 0.1567887 0.05473283
v -0.1215366 0.1670401 0.1416195
v 0.03924595 0.1670401 0.04966355
v 0.04802619 0.1567887 0.05473283
v -0.1165757 0.1567887 0.1497658
v -0.1165757 0.1567887 0.1497658
v 0.04802619 0.1567887 0.05473283
v 0.04802619 -0.1679599 0.05473285
v -0.09392802 -0.1679599 0.1367931
v 0.04912274 0.1670401 0.03255644
v -0.1215366 0.1670401 0.1416195
v 0.0008797107 0.1670401 0.006575536
v 0.03924595 0.1670401 0.04966355
v 0.057903 -0.1679599 0.03762573
v 0.05874769 -0.1679599 -0.1468333
v -0.03439178 -0.1679599 -0.03580218
v -0.09392802 -0.1679599 0.1367931
v 0.04802619 -0.1679599 0.05473285
v 0.04912274 0.1670401 -0.1872006
v 0.0008797107 0.1670401 0.006575536
v -0.03439178 -0.1679599 -0.03580218
v 0.05874769 -0.1679599 -0.1468333
v 0.0008797107 0.1670401 0.006575536
v -0.1215366 0.1670401 0.1416195
v -0.09392802 -0.1679599 0.1367931
v -0.03439178 -0.1679599 -0.03580218
vt 0.06198063 0.9281763
vt 0.06198063 0.9281762
vt 0.06198063 0.9281762
vt 0.06198063 0.9281762
vt 0.06198062 0.9281761
vt 0.06198063 0.9281762
vt 0.06198063 0.9281763
vt 0.06198063 0.9281762
vt 0.06198063 0.9281762
vt 0.06198063 0.9281762
vt 0.06198063 0.9281762
vt 0.06198063 0.9281762
vt 0.06198063 0.9281762
vt 0.06198063 0.9281762
vt 0.06198063 0.9281762
vt 0.06198063 0.9281762
vt 0.06198063 0.9281762
vt 0.06198063 0.9281762
vt 0.06198063 0.9281762
vt 0.06198063 0.9281762
vt 0.06198063 0.9281762
vt 0.06198063 0.9281762
vt 0.06198063 0.9281762
vt 0.06198063 0.9281762
vt 0.06198063 0.9281762
vt 0.06198063 0.9281762
vt 0.06198063 0.9281762
vt 0.06198063 0.9281762
vt 0.06198063 0.9281762
vt 0.06198063 0.9281762
vt 0.06198063 0.9281762
vt 0.06198063 0.9281762
vt 0.06198063 0.9281762
vt 0.06198063 0.9281762
vt 0.06198063 0.9281762
vt 0.06198063 0.9281762
vt 0.06198063 0.9281763
vt 0.06198063 0.9281762
vt 0.06198063 0.9281762
vt 0.06198063 0.9281762
vt 0.06198062 0.9281761
vt 0.06198063 0.9281762
vt 0.06198063 0.9281762
vt 0.06198063 0.9281762
vt 0.06198063 0.9281762
vt 0.06198063 0.9281763
vt 0.06198062 0.9281761
vt 0.06198062 0.9281761
vt 0.06198063 0.9281763
vt 0.06198063 0.9281762
vt 0.06198063 0.9281762
vn 0 1 0
vn 0 1 0
vn 0 1 0
vn -0.5628587 -0.1148054 -0.8185412
vn -0.5628587 -0.1148054 -0.8185412
vn -0.5628587 -0.1148054 -0.8185412
vn -0.8928941 -0.07997053 0.4431081
vn -0.8928941 -0.07997053 0.4431081
vn -0.8928941 -0.07997053 0.4431081
vn 0.7594995 0.6505078 0
vn 0.7594995 0.6505078 0
vn 0.7594995 0.6505078 0
vn 0.7594995 0.6505078 0
vn 0.999999 0.001282766 0.0006446237
vn 0.999999 0.001282766 0.0006446237
vn 0.999999 0.001282766 0.0006446237
vn 0.999999 0.001282766 0.0006446237
vn 0.999999 0.001282766 0.0006446237
vn 0.8660251 0 0.5000005
vn 0.8660251 0 0.5000005
vn 0.8660251 0 0.5000005
vn 0.8660251 0 0.5000005
vn 0.6157517 0.7031831 0.3555046
vn 0.6157517 0.7031831 0.3555046
vn 0.6157517 0.7031831 0.3555046
vn 0.6157517 0.7031831 0.3555046
vn 0.3716786 0.6659926 0.646768
vn 0.3716786 0.6659926 0.646768
vn 0.3716786 0.6659926 0.646768
vn 0.3716786 0.6659926 0.646768
vn 0.5002182 0.0001474157 0.8658994
vn 0.5002182 0.0001474157 0.8658994
vn 0.5002182 0.0001474157 0.8658994
vn 0.5002182 0.0001474157 0.8658994
vn 0 1 0
vn 0 1 0
vn 0 1 0
vn 0 1 0
vn 0 -1 0
vn 0 -1 0
vn 0 -1 0
vn 0 -1 0
vn 0 -1 0
vn -0.9065757 0.03596408 -0.4205083
vn -0.9065757 0.03596408 -0.4205083
vn -0.9065757 0.03596408 -0.4205083
vn -0.9065757 0.03596408 -0.4205083
vn -0.8598257 0.04566279 -0.5085419
vn -0.8598257 0.04566279 -0.5085419
vn -0.8598257 0.04566279 -0.5085419
vn -0.8598257 0.04566279 -0.5085419
g HexGib01_0
f 3/3/3 2/2/2 1/1/1
f 6/6/6 5/5/5 4/4/4
f 9/9/9 8/8/8 7/7/7
f 12/12/12 11/11/11 10/10/10
f 13/13/13 12/12/12 10/10/10
f 16/16/16 15/15/15 14/14/14
f 14/14/14 17/17/17 16/16/16
f 14/14/14 18/18/18 17/17/17
f 21/21/21 20/20/20 19/19/19
f 22/22/22 21/21/21 19/19/19
f 25/25/25 24/24/24 23/23/23
f 26/26/26 25/25/25 23/23/23
f 29/29/29 28/28/28 27/27/27
f 30/30/30 29/29/29 27/27/27
f 33/33/33 32/32/32 31/31/31
f 34/34/34 33/33/33 31/31/31
f 37/37/37 36/36/36 35/35/35
f 36/36/36 38/38/38 35/35/35
f 41/41/41 40/40/40 39/39/39
f 39/39/39 42/42/42 41/41/41
f 39/39/39 43/43/43 42/42/42
f 46/46/46 45/45/45 44/44/44
f 47/47/47 46/46/46 44/44/44
f 50/50/50 49/49/49 48/48/48
f 51/51/51 50/50/50 48/48/48
