g HexGib02
v 0.05419414 0.1117212 0.004979549
v 0.05419414 0.1117212 0.08727443
v -0.06025724 0.1117212 0.03902683
v -0.06025724 0.1117212 0.03902683
v 0.0629744 -0.1033751 0.09146933
v -0.06487336 -0.1540543 -0.08506988
v 0.05309756 0.1014698 -0.01719684
v 0.04431733 0.1117212 -0.01212757
v -0.06414524 0.1117212 -0.07474849
v -0.05620664 0.1014698 -0.08030366
v 0.05309756 0.1014698 -0.01719684
v 0.0629744 0.1014698 -8.97342E-05
v 0.05419414 0.1117212 0.004979549
v 0.04431733 0.1117212 -0.01212757
v 0.05419414 0.1117212 0.08727443
v 0.05419414 0.1117212 0.004979549
v 0.0629744 0.1014698 -8.97342E-05
v 0.0629744 0.1014698 0.08267463
v 0.0629744 0.1014698 0.08267463
v 0.0629744 0.1014698 -8.97342E-05
v 0.0629744 -0.09405268 -8.97342E-05
v 0.0629744 -0.1033751 0.09146933
v -0.06025724 0.1117212 0.03902683
v -0.06414524 0.1117212 -0.07474849
v 0.04431733 0.1117212 -0.01212757
v 0.05419414 0.1117212 0.004979549
v 0.0629744 -0.09405268 -8.97342E-05
v 0.0629744 0.1014698 -8.97342E-05
v 0.05309756 0.1014698 -0.01719684
v 0.05309759 -0.09731109 -0.01719686
v 0.05309759 -0.09731109 -0.01719686
v 0.05309756 0.1014698 -0.01719684
v -0.05620664 0.1014698 -0.08030366
v -0.06487336 -0.1540543 -0.08506988
v 0.0629744 0.1014698 0.08267463
v 0.0629744 -0.1033751 0.09146933
v -0.06025724 0.1117212 0.03902683
v 0.05419414 0.1117212 0.08727443
v -0.06414524 0.1117212 -0.07474849
v -0.06025724 0.1117212 0.03902683
v -0.06487336 -0.1540543 -0.08506988
v -0.05620664 0.1014698 -0.08030366
v 0.0629744 -0.1033751 0.09146933
v 0.0629744 -0.09405268 -8.97342E-05
v 0.05309759 -0.09731109 -0.01719686
v -0.06487336 -0.1540543 -0.08506988
vt 0.06198063 0.9281762
vt 0.06198063 0.9281762
vt 0.06198063 0.9281763
vt 0.06198063 0.9281762
vt 0.06198063 0.9281762
vt 0.06198063 0.9281763
vt 0.06198063 0.9281762
vt 0.06198063 0.9281762
vt 0.06198063 0.9281762
vt 0.06198063 0.9281762
vt 0.06198063 0.9281762
vt 0.06198063 0.9281762
vt 0.06198063 0.9281762
vt 0.06198063 0.9281762
vt 0.06198063 0.9281762
vt 0.06198063 0.9281762
vt 0.06198063 0.9281762
vt 0.06198063 0.9281762
vt 0.06198063 0.9281762
vt 0.06198063 0.9281762
vt 0.06198063 0.9281762
vt 0.06198063 0.9281762
vt 0.06198063 0.9281763
vt 0.06198063 0.9281762
vt 0.06198063 0.9281762
vt 0.06198063 0.9281762
vt 0.06198063 0.9281762
vt 0.06198063 0.9281762
vt 0.06198063 0.9281762
vt 0.06198063 0.9281762
vt 0.06198063 0.9281762
vt 0.06198063 0.9281762
vt 0.06198063 0.9281762
vt 0.06198063 0.9281762
vt 0.06198063 0.9281762
vt 0.06198063 0.9281762
vt 0.06198063 0.9281762
vt 0.06198063 0.9281763
vt 0.06198063 0.9281762
vt 0.06198063 0.9281762
vt 0.06198063 0.9281763
vt 0.06198063 0.9281762
vt 0.06198063 0.9281762
vt 0.06198063 0.9281762
vt 0.06198063 0.9281762
vt 0.06198063 0.9281762
vn 0 1 0
vn 0 1 0
vn 0 1 0
vn -0.7398303 -0.2740507 0.614449
vn -0.7398303 -0.2740507 0.614449
vn -0.7398303 -0.2740507 0.614449
vn 0.3797505 0.6505062 -0.6577471
vn 0.3797505 0.6505062 -0.6577471
vn 0.3797505 0.6505062 -0.6577471
vn 0.3797505 0.6505062 -0.6577471
vn 0.6157514 0.7031831 -0.3555051
vn 0.6157514 0.7031831 -0.3555051
vn 0.6157514 0.7031831 -0.3555051
vn 0.6157514 0.7031831 -0.3555051
vn 0.7595 0.6505072 0
vn 0.7595 0.6505072 0
vn 0.7595 0.6505072 0
vn 0.7595 0.6505072 0
vn 1 0 0
vn 1 0 0
vn 1 0 0
vn 1 0 0
vn 0 1 0
vn 0 1 0
vn 0 1 0
vn 0 1 0
vn 0.8660249 0 -0.500001
vn 0.8660249 0 -0.500001
vn 0.8660249 0 -0.500001
vn 0.8660249 0 -0.500001
vn 0.4994027 -0.0004377163 -0.8663698
vn 0.4994027 -0.0004377163 -0.8663698
vn 0.4994027 -0.0004377163 -0.8663698
vn 0.4994027 -0.0004377163 -0.8663698
vn -0.3335128 0.004771509 0.9427335
vn -0.3335128 0.004771509 0.9427335
vn -0.3335128 0.004771509 0.9427335
vn -0.3335128 0.004771509 0.9427335
vn -0.9994042 0.004069024 -0.03427381
vn -0.9994042 0.004069024 -0.03427381
vn -0.9994042 0.004069024 -0.03427381
vn -0.9994042 0.004069024 -0.03427381
vn 0.4724449 -0.8765604 -0.09185648
vn 0.4724449 -0.8765604 -0.09185648
vn 0.4724449 -0.8765604 -0.09185648
vn 0.4724449 -0.8765604 -0.09185648
g HexGib02_0
f 3/3/3 2/2/2 1/1/1
f 6/6/6 5/5/5 4/4/4
f 9/9/9 8/8/8 7/7/7
f 10/10/10 9/9/9 7/7/7
f 13/13/13 12/12/12 11/11/11
f 14/14/14 13/13/13 11/11/11
f 17/17/17 16/16/16 15/15/15
f 18/18/18 17/17/17 15/15/15
f 21/21/21 20/20/20 19/19/19
f 22/22/22 21/21/21 19/19/19
f 25/25/25 24/24/24 23/23/23
f 23/23/23 26/26/26 25/25/25
f 29/29/29 28/28/28 27/27/27
f 30/30/30 29/29/29 27/27/27
f 33/33/33 32/32/32 31/31/31
f 34/34/34 33/33/33 31/31/31
f 37/37/37 36/36/36 35/35/35
f 38/38/38 37/37/37 35/35/35
f 41/41/41 40/40/40 39/39/39
f 42/42/42 41/41/41 39/39/39
f 45/45/45 44/44/44 43/43/43
f 46/46/46 45/45/45 43/43/43
