g HexGib09
v -0.1284132 -0.172295 -0.0045669
v -0.1220265 -0.05669729 -0.0005182979
v 0.00620449 -0.172295 0.07315466
v 0.1018752 -0.172295 -0.02668478
v 0.1413635 -0.172295 0.006525278
v 0.06120012 0.1627049 -0.05178526
v -0.09004836 -0.172295 -0.02953445
v -0.01257464 -0.172295 -0.04878641
v -0.08605287 0.1627049 -0.06826734
v 0.0259581 0.1524536 0.07315466
v 0.02595809 0.1627049 0.06301609
v 0.1267602 0.1627049 0.003946029
v 0.1317211 0.1524536 0.01209235
v 0.02595809 -0.172295 0.07315466
v 0.0259581 0.1524536 0.07315466
v 0.1317211 0.1524536 0.01209235
v 0.1413635 -0.172295 0.006525278
v 0.0259581 0.1524536 0.07315466
v 0.00620449 0.1524536 0.07315466
v 0.00620449 0.1627049 0.06301609
v 0.02595809 0.1627049 0.06301609
v 0.02595809 -0.172295 0.07315466
v 0.00620449 -0.172295 0.07315466
v 0.00620449 0.1524536 0.07315466
v 0.0259581 0.1524536 0.07315466
v 0.1018752 -0.172295 -0.02668478
v -0.01257464 -0.172295 -0.04878641
v -0.09004836 -0.172295 -0.02953445
v -0.1284132 -0.172295 -0.0045669
v 0.1413635 -0.172295 0.006525278
v 0.00620449 -0.172295 0.07315466
v 0.02595809 -0.172295 0.07315466
v -0.1554395 0.1524536 -0.01980931
v 0.00620449 0.1524536 0.07315466
v 0.00620449 -0.172295 0.07315466
v -0.1220265 -0.05669729 -0.0005182979
v -0.161039 0.1627049 -0.03318075
v 0.00620449 0.1627049 0.06301609
v 0.00620449 0.1524536 0.07315466
v -0.1554395 0.1524536 -0.01980931
v -0.161039 0.1627049 -0.03318075
v -0.08605287 0.1627049 -0.06826734
v 0.06120012 0.1627049 -0.05178526
v 0.1267602 0.1627049 0.003946029
v 0.00620449 0.1627049 0.06301609
v 0.02595809 0.1627049 0.06301609
v 0.1413635 -0.172295 0.006525278
v 0.1317211 0.1524536 0.01209235
v 0.1267602 0.1627049 0.003946029
v 0.06120012 0.1627049 -0.05178526
v -0.1554395 0.1524536 -0.01980931
v -0.1220265 -0.05669729 -0.0005182979
v -0.08605287 0.1627049 -0.06826734
v -0.161039 0.1627049 -0.03318075
v -0.1284132 -0.172295 -0.0045669
v -0.09004836 -0.172295 -0.02953445
v -0.08605287 0.1627049 -0.06826734
v -0.1220265 -0.05669729 -0.0005182979
v -0.01257464 -0.172295 -0.04878641
v 0.1018752 -0.172295 -0.02668478
v 0.06120012 0.1627049 -0.05178526
v -0.08605287 0.1627049 -0.06826734
vt 0.06198063 0.9281763
vt 0.06198064 0.9281763
vt 0.06198063 0.9281762
vt 0.06198063 0.9281762
vt 0.06198063 0.9281763
vt 0.06198062 0.9281761
vt 0.06198063 0.9281763
vt 0.06198063 0.9281763
vt 0.06198063 0.9281763
vt 0.06198063 0.9281762
vt 0.06198063 0.9281762
vt 0.06198063 0.9281762
vt 0.06198063 0.9281762
vt 0.06198063 0.9281762
vt 0.06198063 0.9281762
vt 0.06198063 0.9281762
vt 0.06198063 0.9281762
vt 0.06198063 0.9281762
vt 0.06198063 0.9281762
vt 0.06198063 0.9281762
vt 0.06198063 0.9281762
vt 0.06198063 0.9281762
vt 0.06198063 0.9281762
vt 0.06198063 0.9281762
vt 0.06198063 0.9281762
vt 0.06198062 0.9281761
vt 0.06198063 0.9281762
vt 0.06198063 0.9281763
vt 0.06198063 0.9281763
vt 0.06198063 0.9281762
vt 0.06198063 0.9281762
vt 0.06198063 0.9281762
vt 0.06198063 0.9281763
vt 0.06198063 0.9281762
vt 0.06198063 0.9281762
vt 0.06198064 0.9281763
vt 0.06198063 0.9281762
vt 0.06198063 0.9281762
vt 0.06198063 0.9281762
vt 0.06198063 0.9281763
vt 0.06198063 0.9281762
vt 0.06198063 0.9281763
vt 0.06198063 0.9281763
vt 0.06198063 0.9281762
vt 0.06198063 0.9281762
vt 0.06198063 0.9281762
vt 0.06198063 0.9281763
vt 0.06198063 0.9281762
vt 0.06198063 0.9281762
vt 0.06198063 0.9281762
vt 0.06198063 0.9281762
vt 0.06198063 0.9281763
vt 0.06198064 0.9281763
vt 0.06198063 0.9281763
vt 0.06198063 0.9281763
vt 0.06198063 0.9281763
vt 0.06198063 0.9281763
vt 0.06198064 0.9281763
vt 0.06198063 0.9281763
vt 0.06198063 0.9281762
vt 0.06198062 0.9281761
vt 0.06198063 0.9281763
vn -0.4986217 -0.0003481519 0.8668196
vn -0.4986217 -0.0003481519 0.8668196
vn -0.4986217 -0.0003481519 0.8668196
vn 0.6435059 0.02080253 -0.7651584
vn 0.6435059 0.02080253 -0.7651584
vn 0.6435059 0.02080253 -0.7651584
vn -0.2397337 -0.1086841 -0.964736
vn -0.2397337 -0.1086841 -0.964736
vn -0.2397337 -0.1086841 -0.964736
vn 0.3750619 0.6658974 0.6449103
vn 0.3750619 0.6658974 0.6449103
vn 0.3750619 0.6658974 0.6449103
vn 0.3750619 0.6658974 0.6449103
vn 0.5000001 0 0.8660253
vn 0.5000001 0 0.8660253
vn 0.5000001 0 0.8660253
vn 0.5000001 0 0.8660253
vn 0 0.7031837 0.7110083
vn 0 0.7031837 0.7110083
vn 0 0.7031837 0.7110083
vn 0 0.7031837 0.7110083
vn 0 0 1
vn 0 0 1
vn 0 0 1
vn 0 0 1
vn 0 -1 0
vn 0 -1 0
vn 0 -1 0
vn 0 -1 0
vn 0 -1 0
vn 0 -1 0
vn 0 -1 0
vn -0.4986217 -0.0003481519 0.8668196
vn -0.4986217 -0.0003481519 0.8668196
vn -0.4986217 -0.0003481519 0.8668196
vn -0.4986217 -0.0003481519 0.8668196
vn -0.3784149 0.6510916 0.6579376
vn -0.3784149 0.6510916 0.6579376
vn -0.3784149 0.6510916 0.6579376
vn -0.3784149 0.6510916 0.6579376
vn 0 1 0
vn 0 1 0
vn 0 1 0
vn 0 1 0
vn 0 1 0
vn 0 1 0
vn 0.6730331 0.02364729 -0.7392342
vn 0.6730331 0.02364729 -0.7392342
vn 0.6730331 0.02364729 -0.7392342
vn 0.6730331 0.02364729 -0.7392342
vn -0.537204 -0.2168652 -0.8150958
vn -0.537204 -0.2168652 -0.8150958
vn -0.537204 -0.2168652 -0.8150958
vn -0.537204 -0.2168652 -0.8150958
vn -0.7378002 -0.03488974 -0.6741168
vn -0.7378002 -0.03488974 -0.6741168
vn -0.7378002 -0.03488974 -0.6741168
vn -0.7378002 -0.03488974 -0.6741168
vn 0.1457343 -0.0409427 -0.9884763
vn 0.1457343 -0.0409427 -0.9884763
vn 0.1457343 -0.0409427 -0.9884763
vn 0.1457343 -0.0409427 -0.9884763
g HexGib09_0
f 3/3/3 2/2/2 1/1/1
f 6/6/6 5/5/5 4/4/4
f 9/9/9 8/8/8 7/7/7
f 12/12/12 11/11/11 10/10/10
f 13/13/13 12/12/12 10/10/10
f 16/16/16 15/15/15 14/14/14
f 17/17/17 16/16/16 14/14/14
f 20/20/20 19/19/19 18/18/18
f 21/21/21 20/20/20 18/18/18
f 24/24/24 23/23/23 22/22/22
f 25/25/25 24/24/24 22/22/22
f 28/28/28 27/27/27 26/26/26
f 26/26/26 29/29/29 28/28/28
f 26/26/26 30/30/30 29/29/29
f 30/30/30 31/31/31 29/29/29
f 30/30/30 32/32/32 31/31/31
f 35/35/35 34/34/34 33/33/33
f 33/33/33 36/36/36 35/35/35
f 39/39/39 38/38/38 37/37/37
f 40/40/40 39/39/39 37/37/37
f 43/43/43 42/42/42 41/41/41
f 41/41/41 44/44/44 43/43/43
f 41/41/41 45/45/45 44/44/44
f 45/45/45 46/46/46 44/44/44
f 49/49/49 48/48/48 47/47/47
f 50/50/50 49/49/49 47/47/47
f 53/53/53 52/52/52 51/51/51
f 54/54/54 53/53/53 51/51/51
f 57/57/57 56/56/56 55/55/55
f 58/58/58 57/57/57 55/55/55
f 61/61/61 60/60/60 59/59/59
f 62/62/62 61/61/61 59/59/59
