g HunterManHand
v -0.0002560115 -0.001349536 0.000911271
v 0.0001152199 -0.00164951 0.0005180123
v -0.0003690411 -0.001349769 0.0005309434
v -0.0003321284 -0.0002959124 0.0009994389
v 0.0001148657 -0.001349609 0.001011066
v 0.0001152199 -0.00164951 0.0005180123
v 0.0001152199 -0.00164951 0.0005180123
v 0.000471426 -0.001349609 0.0009309956
v 0.0001152199 -0.00164951 0.0005180123
v 0.0005987856 -0.001349756 0.0005309434
v 0.0005433843 -0.0002959125 0.001023554
v 0.000121741 -0.0002959125 0.001121532
v 0.0006939189 -0.0002959125 0.0005340078
v 0.000121741 0.0004572909 0.001226567
v -0.0003617281 0.0003996431 0.00108265
v -0.0004800364 0.0001798812 0.0005340078
v -0.0004504239 -0.0002959124 0.0005340078
v 0.0005651946 0.000411025 0.001111078
v -0.0003116957 -0.001349572 9.741689E-05
v -0.0003838214 -0.0002959124 1.277644E-05
v 0.0001152199 -0.00164951 0.0005180123
v 0.0001152199 -0.00164951 0.0005180123
v 0.0001148788 -0.001349756 3.404598E-05
v 0.0001152199 -0.00164951 0.0005180123
v 0.0005585512 -0.001349572 9.741689E-05
v -0.0004209401 0.001131469 0.0009623074
v 0.0001217411 0.001131469 0.001074655
v -0.0005392356 0.001131469 0.0005340078
v 0.0006452515 -0.0002959125 1.277644E-05
v 0.0001152199 -0.00164951 0.0005180123
v 0.0007235185 0.0001798812 0.0005340078
v 0.0005971505 0.0009861651 0.001007666
v 0.0001217412 0.001131469 0.0005340078
v 0.0001217412 -0.0002959125 -5.351696E-05
v 0.0007668816 0.0008768737 0.0005340078
v 0.0006718642 0.0001798812 -1.760851E-05
v -0.0005392354 0.001131469 -0.0002223985
v 0.0001217412 0.0001798812 -8.390191E-05
v 0.0001217413 0.001131469 -0.0002223985
v 0.0007108625 0.0008768737 -0.0001190508
v -0.0004800363 0.0001798812 -8.390191E-05
v -0.0007816846 0.0005567104 0.0005340078
v -0.0007816845 0.0005567104 -8.390191E-05
v -0.001070509 0.0001774624 0.0005340075
v -0.001070509 0.0001774624 -5.351733E-05
vt 0.6636212 0.2875009
vt 0.6636212 0.2875009
vt 0.6636212 0.2875009
vt 0.6636212 0.2875009
vt 0.6636212 0.2875009
vt 0.6636212 0.2875009
vt 0.6636212 0.2875009
vt 0.6636212 0.2875009
vt 0.6636212 0.2875009
vt 0.6636212 0.2875009
vt 0.6636212 0.2875009
vt 0.6636212 0.2875009
vt 0.6636212 0.2875009
vt 0.6636212 0.2875009
vt 0.6636212 0.2875009
vt 0.6636212 0.2875009
vt 0.6636212 0.2875009
vt 0.6636212 0.2875009
vt 0.6636212 0.2875009
vt 0.6636212 0.2875009
vt 0.6636212 0.2875009
vt 0.6636212 0.2875009
vt 0.6636212 0.2875009
vt 0.6636212 0.2875009
vt 0.6636212 0.2875009
vt 0.6636212 0.2875009
vt 0.6636212 0.2875009
vt 0.6636212 0.2875009
vt 0.6636212 0.2875009
vt 0.6636212 0.2875009
vt 0.6636212 0.2875009
vt 0.6636212 0.2875009
vt 0.6636212 0.2875009
vt 0.6636212 0.2875009
vt 0.6636212 0.2875009
vt 0.6636212 0.2875009
vt 0.6636212 0.2875009
vt 0.6636212 0.2875009
vt 0.6636212 0.2875009
vt 0.6636212 0.2875009
vt 0.6636212 0.2875009
vt 0.6636212 0.2875009
vt 0.6636212 0.2875009
vt 0.6636212 0.2875009
vt 0.6636212 0.2875009
vn -0.6117065 -0.4952604 0.616873
vn -0.5250143 -0.8500392 0.04234959
vn -0.8658646 -0.496506 0.06132199
vn -0.7128039 -0.1086708 0.6928934
vn -0.01712636 -0.5060422 0.8623387
vn -0.3892103 -0.8717633 0.2975632
vn -0.01149565 -0.8543143 0.5196295
vn 0.5889635 -0.4966015 0.6375805
vn 0.3772331 -0.8731557 0.3086976
vn 0.8605897 -0.5013141 0.08983176
vn 0.6850389 -0.1099869 0.720156
vn -0.01733697 -0.1191366 0.9927264
vn 0.9917575 -0.07700921 0.1024051
vn -0.01259996 0.03704406 0.9992342
vn -0.6871313 -0.01974173 0.726265
vn -0.70925 0.1457874 0.6897177
vn -0.9295551 -0.2861727 0.232449
vn 0.6570338 -0.008583114 0.7538123
vn -0.6191261 -0.495629 -0.6091263
vn -0.510987 -0.3435666 -0.7879431
vn -0.3839294 -0.8902261 -0.245144
vn -0.001529105 -0.8501428 -0.52655
vn -0.002527102 -0.5062182 -0.8624018
vn 0.3866707 -0.8932281 -0.2294107
vn 0.625302 -0.5005529 -0.5987023
vn -0.5829242 0.6270797 0.5166918
vn 0.08915658 0.7627265 0.6405461
vn -0.7483683 0.6567227 0.09306009
vn 0.7168621 -0.09657335 -0.6904943
vn 0.5248558 -0.8492088 0.05805916
vn 0.9927729 -0.05819076 0.104957
vn 0.6423332 0.5637314 0.5192446
vn 0.1820444 0.9831684 -0.01548593
vn 0.01503788 -0.09475301 -0.9953873
vn 0.872407 0.4840537 0.06780981
vn 0.7218018 -0.1092684 -0.6834199
vn -0.5882744 0.5226008 -0.6171075
vn 0.04447019 -0.124166 -0.9912645
vn 0.1796676 0.6650805 -0.7248362
vn 0.6924232 0.3840478 -0.6107843
vn -0.1243944 0.0166178 -0.9920936
vn -0.009967881 0.8246509 0.5655542
vn -0.01830195 0.7939711 -0.60768
vn -0.8135318 -0.12036 0.5689285
vn -0.811215 -0.1534046 -0.564267
g HunterManHand_0
f 3/3/3 2/2/2 1/1/1
f 1/1/1 4/4/4 3/3/3
f 1/1/1 5/5/5 4/4/4
f 1/1/1 6/6/6 5/5/5
f 6/6/6 7/7/7 5/5/5
f 5/5/5 7/7/7 8/8/8
f 7/7/7 9/9/9 8/8/8
f 8/8/8 9/9/9 10/10/10
f 8/8/8 11/11/11 5/5/5
f 5/5/5 12/12/12 4/4/4
f 11/11/11 12/12/12 5/5/5
f 10/10/10 13/13/13 8/8/8
f 13/13/13 11/11/11 8/8/8
f 14/14/14 12/12/12 11/11/11
f 15/15/15 4/4/4 12/12/12
f 14/14/14 15/15/15 12/12/12
f 15/15/15 16/16/16 4/4/4
f 4/4/4 17/17/17 3/3/3
f 16/16/16 17/17/17 4/4/4
f 18/18/18 11/11/11 13/13/13
f 18/18/18 14/14/14 11/11/11
f 3/3/3 17/17/17 19/19/19
f 17/17/17 20/20/20 19/19/19
f 19/19/19 21/21/21 3/3/3
f 22/22/22 21/21/21 19/19/19
f 23/23/23 22/22/22 19/19/19
f 19/19/19 20/20/20 23/23/23
f 24/24/24 22/22/22 23/23/23
f 25/25/25 24/24/24 23/23/23
f 26/26/26 15/15/15 14/14/14
f 27/27/27 26/26/26 14/14/14
f 27/27/27 14/14/14 18/18/18
f 26/26/26 28/28/28 15/15/15
f 26/26/26 27/27/27 28/28/28
f 28/28/28 16/16/16 15/15/15
f 25/25/25 23/23/23 29/29/29
f 25/25/25 29/29/29 10/10/10
f 10/10/10 30/30/30 25/25/25
f 29/29/29 13/13/13 10/10/10
f 31/31/31 18/18/18 13/13/13
f 31/31/31 13/13/13 29/29/29
f 32/32/32 27/27/27 18/18/18
f 32/32/32 18/18/18 31/31/31
f 27/27/27 33/33/33 28/28/28
f 27/27/27 32/32/32 33/33/33
f 23/23/23 34/34/34 29/29/29
f 20/20/20 34/34/34 23/23/23
f 35/35/35 32/32/32 31/31/31
f 32/32/32 35/35/35 33/33/33
f 36/36/36 31/31/31 29/29/29
f 36/36/36 29/29/29 34/34/34
f 35/35/35 31/31/31 36/36/36
f 28/28/28 33/33/33 37/37/37
f 28/28/28 37/37/37 16/16/16
f 38/38/38 36/36/36 34/34/34
f 38/38/38 34/34/34 20/20/20
f 33/33/33 35/35/35 39/39/39
f 33/33/33 39/39/39 37/37/37
f 40/40/40 35/35/35 36/36/36
f 40/40/40 36/36/36 38/38/38
f 35/35/35 40/40/40 39/39/39
f 39/39/39 40/40/40 38/38/38
f 37/37/37 39/39/39 41/41/41
f 39/39/39 38/38/38 41/41/41
f 37/37/37 41/41/41 16/16/16
f 41/41/41 38/38/38 20/20/20
f 42/42/42 16/16/16 41/41/41
f 43/43/43 41/41/41 20/20/20
f 43/43/43 42/42/42 41/41/41
f 42/42/42 44/44/44 16/16/16
f 42/42/42 43/43/43 44/44/44
f 44/44/44 17/17/17 16/16/16
f 45/45/45 20/20/20 17/17/17
f 45/45/45 43/43/43 20/20/20
f 44/44/44 45/45/45 17/17/17
f 43/43/43 45/45/45 44/44/44
