g IceCrystal7
v 0 0 -0.3263167
v -7.884246E-09 0.08226103 -0.1691348
v -0.06494448 0.05816732 -0.1691348
v -0.06494448 -0.05816733 -0.1691348
v 0 0 -0.3263167
v -0.09376832 -7.342053E-09 -0.1630951
v 8.373604E-09 -0.08428543 -0.1620356
v 0.06563412 -0.05878499 -0.1660715
v 0 0 -0.3263167
v 0.06563412 -0.05878499 -0.1660715
v 0.09184538 7.191487E-09 -0.1691348
v 0 0 -0.3263167
v 8.373604E-09 -0.08428543 -0.1620356
v 0 0 -0.3263167
v -0.06494448 -0.05816733 -0.1691348
v 0.06624201 0.05932946 -0.1633713
v -7.884246E-09 0.08226103 -0.1691348
v 0 0 -0.3263167
v 0 0 -0.3263167
v -0.06494448 0.05816732 -0.1691348
v -0.09376832 -7.342053E-09 -0.1630951
v 0.09184538 7.191487E-09 -0.1691348
v 0.06624201 0.05932946 -0.1633713
v 0 0 -0.3263167
v 0.1230917 9.63807E-09 0.179569
v 0.08703895 0.07795617 0.179569
v 0.06780152 0.06072623 -0.1564441
v 0.09588585 7.507856E-09 -0.1564441
v 0.08512411 0.07624115 0.1869295
v 0.01371475 0.01228358 0.3013618
v -2.795981E-09 0.0173716 0.3013618
v -1.018692E-08 0.1034453 0.2002095
v 0.08703896 -0.07795615 0.179569
v 0.1230917 9.63807E-09 0.179569
v 0.09588585 7.507856E-09 -0.1564441
v 0.06780153 -0.06072622 -0.1564441
v 1.076597E-08 -0.1102467 0.179569
v 0.08703896 -0.07795615 0.179569
v 0.06780153 -0.06072622 -0.1564441
v 8.530414E-09 -0.08587986 -0.1564441
v -0.09588585 -7.507856E-09 -0.1564441
v -0.06780153 0.06072622 -0.1564441
v -0.08703896 0.07795615 0.179569
v -0.1230917 -9.63807E-09 0.179569
v -0.08703895 -0.07795617 0.179569
v 1.076597E-08 -0.1102467 0.179569
v 8.530414E-09 -0.08587986 -0.1564441
v -0.06780152 -0.06072623 -0.1564441
v 0.01371476 -0.01228358 0.3013618
v 0.01371475 0.01228358 0.3013618
v 0.01939559 2.726616E-09 0.3013618
v 0 0 0.3013618
v 3.292615E-09 -0.0173716 0.3013618
v -2.795981E-09 0.0173716 0.3013618
v -0.01371475 -0.01228358 0.3013618
v -0.01371476 0.01228358 0.3013618
v -0.01939559 -2.726616E-09 0.3013618
v -0.06780152 -0.06072623 -0.1564441
v -0.09588585 -7.507856E-09 -0.1564441
v -0.1230917 -9.63807E-09 0.179569
v -0.08703895 -0.07795617 0.179569
v 0.08703895 0.07795617 0.179569
v -1.075606E-08 0.1102467 0.179569
v -8.234799E-09 0.08587986 -0.1564441
v 0.06780152 0.06072623 -0.1564441
v -1.075606E-08 0.1102467 0.179569
v -0.08703896 0.07795615 0.179569
v -0.06780153 0.06072622 -0.1564441
v -8.234799E-09 0.08587986 -0.1564441
v 0.1172518 9.256601E-09 0.195442
v 0.01939559 2.726616E-09 0.3013618
v 0.01371475 0.01228358 0.3013618
v 0.08512411 0.07624115 0.1869295
v -0.01371476 0.01228358 0.3013618
v -0.08412886 0.07534974 0.1907551
v -1.018692E-08 0.1034453 0.2002095
v -2.795981E-09 0.0173716 0.3013618
v 0.08290955 -0.07425767 0.195442
v 0.01371476 -0.01228358 0.3013618
v 0.01939559 2.726616E-09 0.3013618
v 0.1172518 9.256601E-09 0.195442
v 1.050747E-08 -0.106982 0.1894765
v 3.292615E-09 -0.0173716 0.3013618
v 0.01371476 -0.01228358 0.3013618
v 0.08290955 -0.07425767 0.195442
v -0.01939559 -2.726616E-09 0.3013618
v -0.1189762 -9.369239E-09 0.1907551
v -0.08412886 0.07534974 0.1907551
v -0.01371476 0.01228358 0.3013618
v -0.09588585 -7.507856E-09 -0.1564441
v -0.09376832 -7.342053E-09 -0.1630951
v -0.06494448 0.05816732 -0.1691348
v -0.06780153 0.06072622 -0.1564441
v 0.09588585 7.507856E-09 -0.1564441
v 0.09184538 7.191487E-09 -0.1691348
v 0.06563412 -0.05878499 -0.1660715
v 0.06780153 -0.06072622 -0.1564441
v 8.373604E-09 -0.08428543 -0.1620356
v 8.530414E-09 -0.08587986 -0.1564441
v 0.06780153 -0.06072622 -0.1564441
v 0.06563412 -0.05878499 -0.1660715
v -7.884246E-09 0.08226103 -0.1691348
v -8.234799E-09 0.08587986 -0.1564441
v -0.06780153 0.06072622 -0.1564441
v -0.06494448 0.05816732 -0.1691348
v -0.06494448 -0.05816733 -0.1691348
v -0.06780152 -0.06072623 -0.1564441
v 8.530414E-09 -0.08587986 -0.1564441
v 8.373604E-09 -0.08428543 -0.1620356
v 0.06624201 0.05932946 -0.1633713
v 0.06780152 0.06072623 -0.1564441
v -8.234799E-09 0.08587986 -0.1564441
v -7.884246E-09 0.08226103 -0.1691348
v -0.06780152 -0.06072623 -0.1564441
v -0.06494448 -0.05816733 -0.1691348
v -0.09376832 -7.342053E-09 -0.1630951
v -0.09588585 -7.507856E-09 -0.1564441
v 0.06780152 0.06072623 -0.1564441
v 0.06624201 0.05932946 -0.1633713
v 0.09184538 7.191487E-09 -0.1691348
v 0.09588585 7.507856E-09 -0.1564441
v -0.08166929 -0.07314684 0.2002095
v -0.1189762 -9.369239E-09 0.1907551
v -0.01939559 -2.726616E-09 0.3013618
v -0.01371475 -0.01228358 0.3013618
v -0.1189762 -9.369239E-09 0.1907551
v -0.1230917 -9.63807E-09 0.179569
v -0.08703896 0.07795615 0.179569
v -0.08412886 0.07534974 0.1907551
v 0.1172518 9.256601E-09 0.195442
v 0.1230917 9.63807E-09 0.179569
v 0.08703896 -0.07795615 0.179569
v 0.08290955 -0.07425767 0.195442
v 1.076597E-08 -0.1102467 0.179569
v 1.050747E-08 -0.106982 0.1894765
v 0.08290955 -0.07425767 0.195442
v 0.08703896 -0.07795615 0.179569
v -1.075606E-08 0.1102467 0.179569
v -1.018692E-08 0.1034453 0.2002095
v -0.08412886 0.07534974 0.1907551
v -0.08703896 0.07795615 0.179569
v -0.08703895 -0.07795617 0.179569
v -0.08166929 -0.07314684 0.2002095
v 1.050747E-08 -0.106982 0.1894765
v 1.076597E-08 -0.1102467 0.179569
v 0.08703895 0.07795617 0.179569
v 0.08512411 0.07624115 0.1869295
v -1.018692E-08 0.1034453 0.2002095
v -1.075606E-08 0.1102467 0.179569
v -0.08166929 -0.07314684 0.2002095
v -0.08703895 -0.07795617 0.179569
v -0.1230917 -9.63807E-09 0.179569
v -0.1189762 -9.369239E-09 0.1907551
v 0.08512411 0.07624115 0.1869295
v 0.08703895 0.07795617 0.179569
v 0.1230917 9.63807E-09 0.179569
v 0.1172518 9.256601E-09 0.195442
v 1.050747E-08 -0.106982 0.1894765
v -0.08166929 -0.07314684 0.2002095
v -0.01371475 -0.01228358 0.3013618
v 3.292615E-09 -0.0173716 0.3013618
vt 0.09179693 0.2167969
vt 0.09179693 0.2167969
vt 0.09179693 0.2167969
vt 0.40625 0.2167969
vt 0.40625 0.2167969
vt 0.40625 0.2167969
vt 0.40625 0.2167969
vt 0.40625 0.2167969
vt 0.40625 0.2167969
vt 0.3398438 0.2167969
vt 0.3398438 0.2167969
vt 0.3398438 0.2167969
vt 0.3398438 0.2167969
vt 0.3398438 0.2167969
vt 0.3398438 0.2167969
vt 0.3398438 0.2167969
vt 0.3398438 0.2167969
vt 0.3398438 0.2167969
vt 0.59375 0.2167969
vt 0.59375 0.2167969
vt 0.59375 0.2167969
vt 0.09179693 0.2167969
vt 0.09179693 0.2167969
vt 0.09179693 0.2167969
vt 0.4667969 0.2167969
vt 0.4667969 0.2167969
vt 0.4667969 0.2167969
vt 0.4667969 0.2167969
vt 0.4667969 0.2167969
vt 0.4667969 0.2167969
vt 0.4667969 0.2167969
vt 0.4667969 0.2167969
vt 0.2226563 0.2167969
vt 0.2226563 0.2167969
vt 0.2226563 0.2167969
vt 0.2226563 0.2167969
vt 0.28125 0.2167969
vt 0.28125 0.2167969
vt 0.28125 0.2167969
vt 0.28125 0.2167969
vt 0.03125006 0.2167969
vt 0.03125006 0.2167969
vt 0.03125006 0.2167969
vt 0.03125006 0.2167969
vt 0.2226563 0.2167969
vt 0.2226563 0.2167969
vt 0.2226563 0.2167969
vt 0.2226563 0.2167969
vt 0.09179693 0.2167969
vt 0.09179693 0.2167969
vt 0.09179693 0.2167969
vt 0.09179693 0.2167969
vt 0.09179693 0.2167969
vt 0.09179693 0.2167969
vt 0.09179693 0.2167969
vt 0.09179693 0.2167969
vt 0.09179693 0.2167969
vt 0.1601563 0.2167969
vt 0.1601563 0.2167969
vt 0.1601563 0.2167969
vt 0.1601563 0.2167969
vt 0.59375 0.2167969
vt 0.59375 0.2167969
vt 0.59375 0.2167969
vt 0.59375 0.2167969
vt 0.4667969 0.2167969
vt 0.4667969 0.2167969
vt 0.4667969 0.2167969
vt 0.4667969 0.2167969
vt 0.09179693 0.2167969
vt 0.09179693 0.2167969
vt 0.09179693 0.2167969
vt 0.09179693 0.2167969
vt 0.40625 0.2167969
vt 0.40625 0.2167969
vt 0.40625 0.2167969
vt 0.40625 0.2167969
vt 0.03125006 0.2167969
vt 0.03125006 0.2167969
vt 0.03125006 0.2167969
vt 0.03125006 0.2167969
vt 0.40625 0.2167969
vt 0.40625 0.2167969
vt 0.40625 0.2167969
vt 0.40625 0.2167969
vt 0.4667969 0.2167969
vt 0.4667969 0.2167969
vt 0.4667969 0.2167969
vt 0.4667969 0.2167969
vt 0.4667969 0.2167969
vt 0.4667969 0.2167969
vt 0.4667969 0.2167969
vt 0.4667969 0.2167969
vt 0.4667969 0.2167969
vt 0.4667969 0.2167969
vt 0.4667969 0.2167969
vt 0.4667969 0.2167969
vt 0.4667969 0.2167969
vt 0.4667969 0.2167969
vt 0.4667969 0.2167969
vt 0.4667969 0.2167969
vt 0.40625 0.2167969
vt 0.40625 0.2167969
vt 0.40625 0.2167969
vt 0.40625 0.2167969
vt 0.4667969 0.2167969
vt 0.4667969 0.2167969
vt 0.4667969 0.2167969
vt 0.4667969 0.2167969
vt 0.4667969 0.2167969
vt 0.4667969 0.2167969
vt 0.4667969 0.2167969
vt 0.4667969 0.2167969
vt 0.4667969 0.2167969
vt 0.4667969 0.2167969
vt 0.4667969 0.2167969
vt 0.4667969 0.2167969
vt 0.40625 0.2167969
vt 0.40625 0.2167969
vt 0.40625 0.2167969
vt 0.40625 0.2167969
vt 0.40625 0.2167969
vt 0.40625 0.2167969
vt 0.40625 0.2167969
vt 0.40625 0.2167969
vt 0.3398438 0.2167969
vt 0.3398438 0.2167969
vt 0.3398438 0.2167969
vt 0.3398438 0.2167969
vt 0.3398438 0.2167969
vt 0.3398438 0.2167969
vt 0.3398438 0.2167969
vt 0.3398438 0.2167969
vt 0.3398438 0.2167969
vt 0.3398438 0.2167969
vt 0.3398438 0.2167969
vt 0.3398438 0.2167969
vt 0.3398438 0.2167969
vt 0.3398438 0.2167969
vt 0.3398438 0.2167969
vt 0.3398438 0.2167969
vt 0.3398438 0.2167969
vt 0.3398438 0.2167969
vt 0.3398438 0.2167969
vt 0.3398438 0.2167969
vt 0.3398438 0.2167969
vt 0.3398438 0.2167969
vt 0.3398438 0.2167969
vt 0.3398438 0.2167969
vt 0.3398438 0.2167969
vt 0.3398438 0.2167969
vt 0.3398438 0.2167969
vt 0.3398438 0.2167969
vt 0.3398438 0.2167969
vt 0.3398438 0.2167969
vt 0.3398438 0.2167969
vt 0.3398438 0.2167969
vt 0.03125006 0.2167969
vt 0.03125006 0.2167969
vt 0.03125006 0.2167969
vt 0.03125006 0.2167969
vn -0.3122602 0.8416961 -0.440501
vn -0.3122602 0.8416961 -0.440501
vn -0.3122602 0.8416961 -0.440501
vn -0.8111003 -0.3535439 -0.4659646
vn -0.8111003 -0.3535439 -0.4659646
vn -0.8111003 -0.3535439 -0.4659646
vn 0.3027109 -0.8479883 -0.4350656
vn 0.3027109 -0.8479883 -0.4350656
vn 0.3027109 -0.8479883 -0.4350656
vn 0.7985119 -0.3803574 -0.4665909
vn 0.7985119 -0.3803574 -0.4665909
vn 0.7985119 -0.3803574 -0.4665909
vn -0.2942809 -0.8503341 -0.436269
vn -0.2942809 -0.8503341 -0.436269
vn -0.2942809 -0.8503341 -0.436269
vn 0.327873 0.8370227 -0.4380552
vn 0.327873 0.8370227 -0.4380552
vn 0.327873 0.8370227 -0.4380552
vn -0.8111004 0.3535438 -0.4659646
vn -0.8111004 0.3535438 -0.4659646
vn -0.8111004 0.3535438 -0.4659646
vn 0.795587 0.3884925 -0.4648818
vn 0.795587 0.3884925 -0.4648818
vn 0.795587 0.3884925 -0.4648818
vn 0.9051949 0.4186295 -0.07329053
vn 0.9051949 0.4186295 -0.07329053
vn 0.9051949 0.4186295 -0.07329053
vn 0.9051949 0.4186295 -0.07329053
vn 0.3189156 0.7251495 0.6102875
vn 0.3189156 0.7251495 0.6102875
vn 0.3189156 0.7251495 0.6102875
vn 0.3189156 0.7251495 0.6102875
vn 0.9051951 -0.4186294 -0.0732905
vn 0.9051951 -0.4186294 -0.0732905
vn 0.9051951 -0.4186294 -0.0732905
vn 0.9051951 -0.4186294 -0.0732905
vn 0.3470235 -0.9354002 -0.06783283
vn 0.3470235 -0.9354002 -0.06783283
vn 0.3470235 -0.9354002 -0.06783283
vn 0.3470235 -0.9354002 -0.06783283
vn -0.9051951 0.4186294 -0.07329048
vn -0.9051951 0.4186294 -0.07329048
vn -0.9051951 0.4186294 -0.07329048
vn -0.9051951 0.4186294 -0.07329048
vn -0.3470234 -0.9354002 -0.06783284
vn -0.3470234 -0.9354002 -0.06783284
vn -0.3470234 -0.9354002 -0.06783284
vn -0.3470234 -0.9354002 -0.06783284
vn 0 0 1
vn 0 0 1
vn 0 0 1
vn 0 0 1
vn 0 0 1
vn 0 0 1
vn 0 0 1
vn 0 0 1
vn 0 0 1
vn -0.9051949 -0.4186295 -0.07329055
vn -0.9051949 -0.4186295 -0.07329055
vn -0.9051949 -0.4186295 -0.07329055
vn -0.9051949 -0.4186295 -0.07329055
vn 0.3470234 0.9354002 -0.06783284
vn 0.3470234 0.9354002 -0.06783284
vn 0.3470234 0.9354002 -0.06783284
vn 0.3470234 0.9354002 -0.06783284
vn -0.3470235 0.9354002 -0.06783283
vn -0.3470235 0.9354002 -0.06783283
vn -0.3470235 0.9354002 -0.06783283
vn -0.3470235 0.9354002 -0.06783283
vn 0.6887832 0.3549611 0.6321237
vn 0.6887832 0.3549611 0.6321237
vn 0.6887832 0.3549611 0.6321237
vn 0.6887832 0.3549611 0.6321237
vn -0.3060568 0.7274582 0.6141122
vn -0.3060568 0.7274582 0.6141122
vn -0.3060568 0.7274582 0.6141122
vn -0.3060568 0.7274582 0.6141122
vn 0.6954816 -0.3216421 0.6425354
vn 0.6954816 -0.3216421 0.6425354
vn 0.6954816 -0.3216421 0.6425354
vn 0.6954816 -0.3216421 0.6425354
vn 0.257249 -0.7529303 0.6057383
vn 0.257249 -0.7529303 0.6057383
vn 0.257249 -0.7529303 0.6057383
vn 0.257249 -0.7529303 0.6057383
vn -0.7028246 0.3250384 0.6327619
vn -0.7028246 0.3250384 0.6327619
vn -0.7028246 0.3250384 0.6327619
vn -0.7028246 0.3250384 0.6327619
vn -0.8719591 0.4032587 -0.2776143
vn -0.8719591 0.4032587 -0.2776143
vn -0.8719591 0.4032587 -0.2776143
vn -0.8719591 0.4032587 -0.2776143
vn 0.8719588 -0.4032593 -0.2776145
vn 0.8719588 -0.4032593 -0.2776145
vn 0.8719588 -0.4032593 -0.2776145
vn 0.8719588 -0.4032593 -0.2776145
vn 0.3360224 -0.9057489 -0.2582787
vn 0.3360224 -0.9057489 -0.2582787
vn 0.3360224 -0.9057489 -0.2582787
vn 0.3360224 -0.9057489 -0.2582787
vn -0.3360229 0.9057485 -0.2582795
vn -0.3360229 0.9057485 -0.2582795
vn -0.3360229 0.9057485 -0.2582795
vn -0.3360229 0.9057485 -0.2582795
vn -0.3360229 -0.9057486 -0.2582792
vn -0.3360229 -0.9057486 -0.2582792
vn -0.3360229 -0.9057486 -0.2582792
vn -0.3360229 -0.9057486 -0.2582792
vn 0.3360233 0.9057483 -0.2582798
vn 0.3360233 0.9057483 -0.2582798
vn 0.3360233 0.9057483 -0.2582798
vn 0.3360233 0.9057483 -0.2582798
vn -0.871959 -0.4032587 -0.2776143
vn -0.871959 -0.4032587 -0.2776143
vn -0.871959 -0.4032587 -0.2776143
vn -0.871959 -0.4032587 -0.2776143
vn 0.8719594 0.4032583 -0.277614
vn 0.8719594 0.4032583 -0.277614
vn 0.8719594 0.4032583 -0.277614
vn 0.8719594 0.4032583 -0.277614
vn -0.709809 -0.2859263 0.6437525
vn -0.709809 -0.2859263 0.6437525
vn -0.709809 -0.2859263 0.6437525
vn -0.709809 -0.2859263 0.6437525
vn -0.8609049 0.3981464 0.3167364
vn -0.8609049 0.3981464 0.3167364
vn -0.8609049 0.3981464 0.3167364
vn -0.8609049 0.3981464 0.3167364
vn 0.8609051 -0.3981463 0.3167363
vn 0.8609051 -0.3981463 0.3167363
vn 0.8609051 -0.3981463 0.3167363
vn 0.8609051 -0.3981463 0.3167363
vn 0.3323262 -0.8957845 0.295177
vn 0.3323262 -0.8957845 0.295177
vn 0.3323262 -0.8957845 0.295177
vn 0.3323262 -0.8957845 0.295177
vn -0.3323262 0.8957846 0.2951768
vn -0.3323262 0.8957846 0.2951768
vn -0.3323262 0.8957846 0.2951768
vn -0.3323262 0.8957846 0.2951768
vn -0.3323262 -0.8957845 0.295177
vn -0.3323262 -0.8957845 0.295177
vn -0.3323262 -0.8957845 0.295177
vn -0.3323262 -0.8957845 0.295177
vn 0.3323262 0.8957845 0.2951769
vn 0.3323262 0.8957845 0.2951769
vn 0.3323262 0.8957845 0.2951769
vn 0.3323262 0.8957845 0.2951769
vn -0.8609051 -0.3981465 0.3167361
vn -0.8609051 -0.3981465 0.3167361
vn -0.8609051 -0.3981465 0.3167361
vn -0.8609051 -0.3981465 0.3167361
vn 0.8609049 0.3981467 0.316736
vn 0.8609049 0.3981467 0.316736
vn 0.8609049 0.3981467 0.316736
vn 0.8609049 0.3981467 0.316736
vn -0.2395997 -0.7553501 0.6099494
vn -0.2395997 -0.7553501 0.6099494
vn -0.2395997 -0.7553501 0.6099494
vn -0.2395997 -0.7553501 0.6099494
g IceCrystal7_0
f 3/3/3 2/2/2 1/1/1
f 6/6/6 5/5/5 4/4/4
f 9/9/9 8/8/8 7/7/7
f 12/12/12 11/11/11 10/10/10
f 15/15/15 14/14/14 13/13/13
f 18/18/18 17/17/17 16/16/16
f 21/21/21 20/20/20 19/19/19
f 24/24/24 23/23/23 22/22/22
f 27/27/27 26/26/26 25/25/25
f 28/28/28 27/27/27 25/25/25
f 31/31/31 30/30/30 29/29/29
f 32/32/32 31/31/31 29/29/29
f 35/35/35 34/34/34 33/33/33
f 36/36/36 35/35/35 33/33/33
f 39/39/39 38/38/38 37/37/37
f 40/40/40 39/39/39 37/37/37
f 43/43/43 42/42/42 41/41/41
f 44/44/44 43/43/43 41/41/41
f 47/47/47 46/46/46 45/45/45
f 48/48/48 47/47/47 45/45/45
f 51/51/51 50/50/50 49/49/49
f 50/50/50 52/52/52 49/49/49
f 49/49/49 52/52/52 53/53/53
f 50/50/50 54/54/54 52/52/52
f 52/52/52 55/55/55 53/53/53
f 54/54/54 56/56/56 52/52/52
f 52/52/52 56/56/56 55/55/55
f 56/56/56 57/57/57 55/55/55
f 60/60/60 59/59/59 58/58/58
f 61/61/61 60/60/60 58/58/58
f 64/64/64 63/63/63 62/62/62
f 65/65/65 64/64/64 62/62/62
f 68/68/68 67/67/67 66/66/66
f 69/69/69 68/68/68 66/66/66
f 72/72/72 71/71/71 70/70/70
f 73/73/73 72/72/72 70/70/70
f 76/76/76 75/75/75 74/74/74
f 77/77/77 76/76/76 74/74/74
f 80/80/80 79/79/79 78/78/78
f 81/81/81 80/80/80 78/78/78
f 84/84/84 83/83/83 82/82/82
f 85/85/85 84/84/84 82/82/82
f 88/88/88 87/87/87 86/86/86
f 89/89/89 88/88/88 86/86/86
f 92/92/92 91/91/91 90/90/90
f 93/93/93 92/92/92 90/90/90
f 96/96/96 95/95/95 94/94/94
f 97/97/97 96/96/96 94/94/94
f 100/100/100 99/99/99 98/98/98
f 101/101/101 100/100/100 98/98/98
f 104/104/104 103/103/103 102/102/102
f 105/105/105 104/104/104 102/102/102
f 108/108/108 107/107/107 106/106/106
f 109/109/109 108/108/108 106/106/106
f 112/112/112 111/111/111 110/110/110
f 113/113/113 112/112/112 110/110/110
f 116/116/116 115/115/115 114/114/114
f 117/117/117 116/116/116 114/114/114
f 120/120/120 119/119/119 118/118/118
f 121/121/121 120/120/120 118/118/118
f 124/124/124 123/123/123 122/122/122
f 125/125/125 124/124/124 122/122/122
f 128/128/128 127/127/127 126/126/126
f 129/129/129 128/128/128 126/126/126
f 132/132/132 131/131/131 130/130/130
f 133/133/133 132/132/132 130/130/130
f 136/136/136 135/135/135 134/134/134
f 137/137/137 136/136/136 134/134/134
f 140/140/140 139/139/139 138/138/138
f 141/141/141 140/140/140 138/138/138
f 144/144/144 143/143/143 142/142/142
f 145/145/145 144/144/144 142/142/142
f 148/148/148 147/147/147 146/146/146
f 149/149/149 148/148/148 146/146/146
f 152/152/152 151/151/151 150/150/150
f 153/153/153 152/152/152 150/150/150
f 156/156/156 155/155/155 154/154/154
f 157/157/157 156/156/156 154/154/154
f 160/160/160 159/159/159 158/158/158
f 161/161/161 160/160/160 158/158/158
