g IceCube
v -0.3401464 -0.09078681 -0.2287064
v -0.3401464 -0.3628952 -0.2287064
v -0.3236988 -0.4136358 -0.2287064
v -0.2839906 -0.4346534 -0.2287064
v -9.943202E-11 -0.09078765 -0.2287064
v -1.813305E-11 -0.4346533 -0.2287064
v 0.2839906 -0.4346534 -0.2287064
v 0.3236988 -0.4136358 -0.2287064
v 0.3401464 -0.0907886 -0.2287064
v 0.3401464 -0.3628952 -0.2287064
v -0.3236988 -0.4136359 0.2287064
v -0.3401464 -0.3628952 0.2287064
v -0.3401464 -0.09078681 0.2287064
v -0.2839906 -0.4346534 0.2287064
v -9.943187E-11 -0.09078773 0.2287064
v -1.813308E-11 -0.4346533 0.2287064
v 0.2839906 -0.4346534 0.2287064
v 0.3236988 -0.4136359 0.2287064
v 0.3401464 -0.3628952 0.2287064
v 0.3401464 -0.09078858 0.2287064
v 0.4001668 -0.378151 -0.1944031
v 0.4001668 -0.09078874 0.1944031
v 0.4001668 -0.09078877 -0.1944031
v 0.4001668 -0.378151 0.1944031
v 0.3696364 -0.4723369 0.1944031
v 0.3696364 -0.4723369 -0.1944031
v 0.4001668 0.51135 -0.1944031
v 0.4001668 0.51135 0.1944031
v 0.311361 0.6311046 0.1944031
v 0.311361 0.6311046 -0.1944031
v -0.311361 0.6311046 -0.1944031
v -0.311361 0.6311046 0.1944031
v -0.4001668 0.51135 0.1944031
v -0.4001668 0.51135 -0.1944031
v -0.311361 0.6311046 -0.1944031
v -0.113966 0.7136402 0.1944031
v -0.311361 0.6311046 0.1944031
v -0.113966 0.7136402 -0.1944031
v 0.113966 0.7136402 0.1944031
v 0.113966 0.7136402 -0.1944031
v 0.311361 0.6311046 0.1944031
v 0.311361 0.6311046 -0.1944031
v -0.3696364 -0.4723369 -0.1944031
v -0.4001668 -0.378151 0.1944031
v -0.3696364 -0.4723369 0.1944031
v -0.4001668 -0.378151 -0.1944031
v -0.4001668 -0.0907866 -0.1944031
v -0.4001668 -0.09078663 0.1944031
v 0.2959294 -0.51135 0.1944031
v 0.3696364 -0.4723369 0.1944031
v 0.3696364 -0.4723369 -0.1944031
v 0.2959294 -0.51135 -0.1944031
v 0 -0.51135 -0.1944031
v 0 -0.51135 0.1944031
v -0.2959294 -0.51135 -0.1944031
v -0.2959294 -0.51135 0.1944031
v -0.3696364 -0.4723369 0.1944031
v -0.3696364 -0.4723369 -0.1944031
v -0.3401464 -0.3628952 0.2287064
v -0.4001668 -0.09078663 0.1944031
v -0.3401464 -0.09078681 0.2287064
v -0.4001668 -0.378151 0.1944031
v -0.3236988 -0.4136359 0.2287064
v -0.3696364 -0.4723369 0.1944031
v -0.2839906 -0.4346534 0.2287064
v -0.2959294 -0.51135 0.1944031
v -1.813308E-11 -0.4346533 0.2287064
v 0 -0.51135 0.1944031
v 0.2839906 -0.4346534 0.2287064
v 0.2959294 -0.51135 0.1944031
v 0.3236988 -0.4136359 0.2287064
v 0.3696364 -0.4723369 0.1944031
v 0.3401464 -0.3628952 0.2287064
v 0.4001668 -0.378151 0.1944031
v 0.4001668 -0.09078874 0.1944031
v 0.3401464 -0.09078858 0.2287064
v -0.3401464 0.4655955 -0.2287064
v -0.4001668 -0.0907866 -0.1944031
v -0.3401464 -0.09078681 -0.2287064
v -0.4001668 0.51135 -0.1944031
v -0.2453247 0.5934624 -0.2287064
v -0.311361 0.6311046 -0.1944031
v -0.08979509 0.658493 -0.2287064
v -0.113966 0.7136402 -0.1944031
v 0.08979511 0.658493 -0.2287064
v 0.113966 0.7136402 -0.1944031
v 0.2453247 0.5934623 -0.2287064
v 0.311361 0.6311046 -0.1944031
v 0.3401464 0.4655954 -0.2287064
v 0.4001668 0.51135 -0.1944031
v 0.4001668 -0.09078877 -0.1944031
v 0.3401464 -0.0907886 -0.2287064
v 0.3401464 -0.3628952 -0.2287064
v 0.4001668 -0.09078877 -0.1944031
v 0.3401464 -0.0907886 -0.2287064
v 0.4001668 -0.378151 -0.1944031
v 0.3236988 -0.4136358 -0.2287064
v 0.3696364 -0.4723369 -0.1944031
v 0.2839906 -0.4346534 -0.2287064
v 0.2959294 -0.51135 -0.1944031
v -1.813305E-11 -0.4346533 -0.2287064
v 0 -0.51135 -0.1944031
v -0.2839906 -0.4346534 -0.2287064
v -0.2959294 -0.51135 -0.1944031
v -0.3236988 -0.4136358 -0.2287064
v -0.3696364 -0.4723369 -0.1944031
v -0.3401464 -0.3628952 -0.2287064
v -0.4001668 -0.378151 -0.1944031
v -0.4001668 -0.0907866 -0.1944031
v -0.3401464 -0.09078681 -0.2287064
v 0.3401464 0.4655955 0.2287064
v 0.4001668 -0.09078874 0.1944031
v 0.3401464 -0.09078858 0.2287064
v 0.4001668 0.51135 0.1944031
v 0.2453247 0.5934624 0.2287064
v 0.311361 0.6311046 0.1944031
v 0.08979509 0.658493 0.2287064
v 0.113966 0.7136402 0.1944031
v -0.08979511 0.658493 0.2287064
v -0.113966 0.7136402 0.1944031
v -0.2453247 0.5934623 0.2287064
v -0.311361 0.6311046 0.1944031
v -0.3401464 0.4655954 0.2287064
v -0.4001668 0.51135 0.1944031
v -0.4001668 -0.09078663 0.1944031
v -0.3401464 -0.09078681 0.2287064
v 0.2453247 0.5934624 0.2287064
v 0.3401464 0.4655955 0.2287064
v 0.3401464 -0.09078858 0.2287064
v -9.943187E-11 -0.09078773 0.2287064
v -2.281443E-10 0.4536214 0.2287064
v 0.08979509 0.658493 0.2287064
v -0.08979511 0.658493 0.2287064
v -0.3401464 -0.09078681 0.2287064
v -0.2453247 0.5934623 0.2287064
v -0.3401464 0.4655954 0.2287064
v -0.4001668 -0.0907866 -0.1944031
v -0.4001668 0.51135 -0.1944031
v -0.4001668 0.51135 0.1944031
v -0.4001668 -0.09078663 0.1944031
v -9.943202E-11 -0.09078765 -0.2287064
v 0.3401464 -0.0907886 -0.2287064
v 0.3401464 0.4655954 -0.2287064
v 0.2453247 0.5934623 -0.2287064
v -2.281442E-10 0.4536214 -0.2287064
v 0.08979511 0.658493 -0.2287064
v -0.08979509 0.658493 -0.2287064
v -0.3401464 -0.09078681 -0.2287064
v -0.2453247 0.5934624 -0.2287064
v -0.3401464 0.4655955 -0.2287064
v 0.4001668 -0.09078874 0.1944031
v 0.4001668 0.51135 0.1944031
v 0.4001668 0.51135 -0.1944031
v 0.4001668 -0.09078877 -0.1944031
v -0.1415793 -0.9734895 -0.04985177
v -0.1191779 -1.013569 0.04984844
v -0.1191779 -1.013569 -0.04985178
v -0.1415793 -0.9734895 0.04984846
v -0.1415793 -0.481838 0.04984846
v -0.1415793 -0.481838 -0.04985177
v 0.1191775 -1.013569 -0.04985193
v 0.141579 -0.9734895 -0.04985195
v 0.141579 -0.481838 -0.04985195
v -1.908144E-07 -0.481838 -0.04985186
v -1.908144E-07 -0.929935 -0.04985186
v 0.0644983 -1.043255 -0.0498519
v -1.908144E-07 -1.05368 -0.04985186
v -0.06449868 -1.043255 -0.04985182
v -0.1191779 -1.013569 -0.04985178
v -0.1415793 -0.481838 -0.04985177
v -0.1415793 -0.9734895 -0.04985177
v -1.908144E-07 -0.481838 0.04984837
v 0.141579 -0.481838 0.04984828
v 0.141579 -0.9734895 0.04984828
v 0.1191775 -1.013569 0.04984829
v -1.908144E-07 -0.929935 0.04984837
v 0.0644983 -1.043255 0.04984833
v -1.908144E-07 -1.05368 0.04984837
v -0.06449868 -1.043255 0.04984841
v -0.1415793 -0.481838 0.04984846
v -0.1191779 -1.013569 0.04984844
v -0.1415793 -0.9734895 0.04984846
v 0.141579 -0.481838 -0.04985195
v 0.141579 -0.9734895 0.04984828
v 0.141579 -0.481838 0.04984828
v 0.141579 -0.9734895 -0.04985195
v 0.1191775 -1.013569 -0.04985193
v 0.1191775 -1.013569 0.04984829
v 0.1191775 -1.013569 -0.04985193
v 0.0644983 -1.043255 -0.0498519
v 0.0644983 -1.043255 0.04984833
v 0.1191775 -1.013569 0.04984829
v 0.0644983 -1.043255 -0.0498519
v -1.908144E-07 -1.05368 0.04984837
v 0.0644983 -1.043255 0.04984833
v -1.908144E-07 -1.05368 -0.04985186
v -0.06449868 -1.043255 0.04984841
v -0.06449868 -1.043255 -0.04985182
v -0.1191779 -1.013569 0.04984844
v -0.1191779 -1.013569 -0.04985178
vt 0.21875 0.4023438
vt 0.21875 0.4023438
vt 0.21875 0.4023438
vt 0.21875 0.4023438
vt 0.21875 0.4023438
vt 0.21875 0.4023438
vt 0.21875 0.4023438
vt 0.21875 0.4023438
vt 0.21875 0.4023438
vt 0.21875 0.4023438
vt 0.21875 0.4023438
vt 0.21875 0.4023438
vt 0.21875 0.4023438
vt 0.21875 0.4023438
vt 0.21875 0.4023438
vt 0.21875 0.4023438
vt 0.21875 0.4023438
vt 0.21875 0.4023438
vt 0.21875 0.4023438
vt 0.21875 0.4023438
vt 0.21875 0.4023438
vt 0.21875 0.4023438
vt 0.21875 0.4023438
vt 0.21875 0.4023438
vt 0.21875 0.4023438
vt 0.21875 0.4023438
vt 0.2792969 0.4042969
vt 0.2792969 0.4042969
vt 0.2792969 0.4042969
vt 0.2792969 0.4042969
vt 0.2792969 0.4042969
vt 0.2792969 0.4042969
vt 0.2792969 0.4042969
vt 0.2792969 0.4042969
vt 0.2792969 0.4042969
vt 0.2792969 0.4042969
vt 0.2792969 0.4042969
vt 0.2792969 0.4042969
vt 0.2792969 0.4042969
vt 0.2792969 0.4042969
vt 0.2792969 0.4042969
vt 0.2792969 0.4042969
vt 0.21875 0.4023438
vt 0.21875 0.4023438
vt 0.21875 0.4023438
vt 0.21875 0.4023438
vt 0.21875 0.4023438
vt 0.21875 0.4023438
vt 0.21875 0.4023438
vt 0.21875 0.4023438
vt 0.21875 0.4023438
vt 0.21875 0.4023438
vt 0.21875 0.4023438
vt 0.21875 0.4023438
vt 0.21875 0.4023438
vt 0.21875 0.4023438
vt 0.21875 0.4023438
vt 0.21875 0.4023438
vt 0.21875 0.4023438
vt 0.21875 0.4023438
vt 0.21875 0.4023438
vt 0.21875 0.4023438
vt 0.21875 0.4023438
vt 0.21875 0.4023438
vt 0.21875 0.4023438
vt 0.21875 0.4023438
vt 0.21875 0.4023438
vt 0.21875 0.4023438
vt 0.21875 0.4023438
vt 0.21875 0.4023438
vt 0.21875 0.4023438
vt 0.21875 0.4023438
vt 0.21875 0.4023438
vt 0.21875 0.4023438
vt 0.21875 0.4023438
vt 0.21875 0.4023438
vt 0.2792969 0.4042969
vt 0.2792969 0.4042969
vt 0.2792969 0.4042969
vt 0.2792969 0.4042969
vt 0.2792969 0.4042969
vt 0.2792969 0.4042969
vt 0.2792969 0.4042969
vt 0.2792969 0.4042969
vt 0.2792969 0.4042969
vt 0.2792969 0.4042969
vt 0.2792969 0.4042969
vt 0.2792969 0.4042969
vt 0.2792969 0.4042969
vt 0.2792969 0.4042969
vt 0.2792969 0.4042969
vt 0.2792969 0.4042969
vt 0.21875 0.4023438
vt 0.21875 0.4023438
vt 0.21875 0.4023438
vt 0.21875 0.4023438
vt 0.21875 0.4023438
vt 0.21875 0.4023438
vt 0.21875 0.4023438
vt 0.21875 0.4023438
vt 0.21875 0.4023438
vt 0.21875 0.4023438
vt 0.21875 0.4023438
vt 0.21875 0.4023438
vt 0.21875 0.4023438
vt 0.21875 0.4023438
vt 0.21875 0.4023438
vt 0.21875 0.4023438
vt 0.21875 0.4023438
vt 0.21875 0.4023438
vt 0.2792969 0.4042969
vt 0.2792969 0.4042969
vt 0.2792969 0.4042969
vt 0.2792969 0.4042969
vt 0.2792969 0.4042969
vt 0.2792969 0.4042969
vt 0.2792969 0.4042969
vt 0.2792969 0.4042969
vt 0.2792969 0.4042969
vt 0.2792969 0.4042969
vt 0.2792969 0.4042969
vt 0.2792969 0.4042969
vt 0.2792969 0.4042969
vt 0.2792969 0.4042969
vt 0.2792969 0.4042969
vt 0.2792969 0.4042969
vt 0.2792969 0.4042969
vt 0.2792969 0.4042969
vt 0.2792969 0.4042969
vt 0.2792969 0.4042969
vt 0.2792969 0.4042969
vt 0.2792969 0.4042969
vt 0.2792969 0.4042969
vt 0.2792969 0.4042969
vt 0.2792969 0.4042969
vt 0.2792969 0.4042969
vt 0.2792969 0.4042969
vt 0.2792969 0.4042969
vt 0.2792969 0.4042969
vt 0.2792969 0.4042969
vt 0.2792969 0.4042969
vt 0.2792969 0.4042969
vt 0.2792969 0.4042969
vt 0.2792969 0.4042969
vt 0.2792969 0.4042969
vt 0.2792969 0.4042969
vt 0.2792969 0.4042969
vt 0.2792969 0.4042969
vt 0.2792969 0.4042969
vt 0.2792969 0.4042969
vt 0.2792969 0.4042969
vt 0.2792969 0.4042969
vt 0.2792969 0.4042969
vt 0.2792969 0.4042969
vt 0.2305702 0.9683471
vt 0.2305702 0.9683471
vt 0.2305702 0.9683471
vt 0.2305702 0.9683471
vt 0.2305702 0.9683471
vt 0.2305702 0.9683471
vt 0.5948663 0.4071761
vt 0.5948663 0.4071761
vt 0.5948663 0.4071761
vt 0.5948663 0.4071761
vt 0.5948663 0.4071761
vt 0.5948663 0.4071761
vt 0.5948663 0.4071761
vt 0.5948663 0.4071761
vt 0.5948663 0.4071761
vt 0.5948663 0.4071761
vt 0.5948663 0.4071761
vt 0.5948663 0.4071761
vt 0.5948663 0.4071761
vt 0.5948663 0.4071761
vt 0.5948663 0.4071761
vt 0.5948663 0.4071761
vt 0.5948663 0.4071761
vt 0.5948663 0.4071761
vt 0.5948663 0.4071761
vt 0.5948663 0.4071761
vt 0.5948663 0.4071761
vt 0.5948663 0.4071761
vt 0.2305702 0.9683471
vt 0.2305702 0.9683471
vt 0.2305702 0.9683471
vt 0.2305702 0.9683471
vt 0.2305702 0.9683471
vt 0.2305702 0.9683471
vt 0.2305702 0.9683471
vt 0.2305702 0.9683471
vt 0.2305702 0.9683471
vt 0.2305702 0.9683471
vt 0.6583046 0.4136596
vt 0.6583046 0.4136596
vt 0.6583046 0.4136596
vt 0.6583046 0.4136596
vt 0.6583046 0.4136596
vt 0.6583046 0.4136596
vt 0.6583046 0.4136596
vt 0.6583046 0.4136596
vn 0 0 -1
vn 0 0 -1
vn 0 0 -1
vn 0 0 -1
vn 0 0 -1
vn 0 0 -1
vn 0 0 -1
vn 0 0 -1
vn 0 0 -1
vn 0 0 -1
vn 0 0 1
vn 0 0 1
vn 0 0 1
vn 0 0 1
vn 0 0 1
vn 0 0 1
vn 0 0 1
vn 0 0 1
vn 0 0 1
vn 0 0 1
vn 0.9877427 -0.1560911 0
vn 1 0 0
vn 1 0 0
vn 0.9877427 -0.1560911 0
vn 0.9512712 -0.3083556 0
vn 0.9512712 -0.3083556 0
vn 0.8032403 0.5956551 0
vn 0.8032403 0.5956551 0
vn 0.8032403 0.5956551 0
vn 0.8032403 0.5956551 0
vn -0.8032403 0.5956551 0
vn -0.8032403 0.5956551 0
vn -0.8032403 0.5956551 0
vn -0.8032403 0.5956551 0
vn -0.3857609 0.9225987 0
vn -0.1967247 0.9804587 0
vn -0.3857609 0.9225987 0
vn -0.1967247 0.9804587 0
vn 0.1967247 0.9804587 0
vn 0.1967247 0.9804587 0
vn 0.3857609 0.9225987 0
vn 0.3857609 0.9225987 0
vn -0.9512712 -0.3083556 0
vn -0.9877427 -0.1560911 0
vn -0.9512712 -0.3083556 0
vn -0.9877427 -0.1560911 0
vn -1 0 0
vn -1 0 0
vn 0.2410095 -0.9705228 0
vn 0.4678103 -0.8838289 0
vn 0.4678103 -0.8838289 0
vn 0.2410095 -0.9705228 0
vn 0 -1 0
vn 0 -1 0
vn -0.2410095 -0.9705228 0
vn -0.2410095 -0.9705228 0
vn -0.4678103 -0.8838289 0
vn -0.4678103 -0.8838289 0
vn -0.4811696 -0.07151494 0.8737056
vn -0.4962036 0 0.8682061
vn -0.4962037 0 0.8682061
vn -0.4793826 -0.0792527 0.8740202
vn -0.3479279 -0.2549401 0.9021928
vn -0.3145604 -0.283269 0.9059858
vn -0.1040648 -0.3925233 0.9138359
vn -0.09359087 -0.3943152 0.914197
vn 0 -0.4082835 0.9128552
vn 0 -0.4082835 0.9128552
vn 0.1040648 -0.3925233 0.9138359
vn 0.09359087 -0.3943152 0.914197
vn 0.3479279 -0.2549401 0.9021928
vn 0.3145604 -0.283269 0.9059858
vn 0.4811696 -0.07151494 0.8737056
vn 0.4793825 -0.0792527 0.8740202
vn 0.4962038 0 0.8682061
vn 0.4962038 0 0.8682061
vn -0.4321866 0.1045892 -0.8956985
vn -0.496204 0 -0.868206
vn -0.496204 0 -0.868206
vn -0.3995183 0.1535038 -0.903782
vn -0.2500245 0.3749063 -0.8927111
vn -0.2824472 0.3265003 -0.9020095
vn -0.08576128 0.4988676 -0.8624247
vn -0.1087061 0.4902675 -0.8647664
vn 0.08576127 0.4988673 -0.8624247
vn 0.1087061 0.4902672 -0.8647664
vn 0.2500244 0.3749058 -0.8927112
vn 0.282447 0.3265001 -0.9020096
vn 0.4321865 0.1045891 -0.8956986
vn 0.3995179 0.1535038 -0.9037821
vn 0.4962037 0 -0.8682061
vn 0.4962037 0 -0.8682061
vn 0.4811695 -0.07151492 -0.8737056
vn 0.4962037 0 -0.8682061
vn 0.4962037 0 -0.8682061
vn 0.4793826 -0.0792527 -0.8740202
vn 0.3479281 -0.2549402 -0.9021927
vn 0.3145606 -0.2832691 -0.9059857
vn 0.1040649 -0.3925235 -0.9138357
vn 0.09359097 -0.3943155 -0.9141969
vn 0 -0.4082838 -0.912855
vn 0 -0.4082838 -0.912855
vn -0.1040649 -0.3925235 -0.9138357
vn -0.09359097 -0.3943155 -0.9141969
vn -0.3479279 -0.2549402 -0.9021928
vn -0.3145604 -0.2832692 -0.9059858
vn -0.4811697 -0.07151498 -0.8737056
vn -0.4793826 -0.07925274 -0.8740202
vn -0.496204 0 -0.868206
vn -0.496204 0 -0.868206
vn 0.4321865 0.1045891 0.8956985
vn 0.4962038 0 0.8682061
vn 0.4962038 0 0.8682061
vn 0.3995181 0.1535037 0.903782
vn 0.2500244 0.3749062 0.8927112
vn 0.2824471 0.3265003 0.9020096
vn 0.08576123 0.4988676 0.8624247
vn 0.108706 0.4902675 0.8647664
vn -0.08576123 0.4988672 0.8624247
vn -0.1087061 0.4902671 0.8647665
vn -0.2500243 0.3749057 0.8927113
vn -0.2824469 0.3265 0.9020097
vn -0.4321864 0.1045891 0.8956987
vn -0.3995178 0.1535038 0.9037821
vn -0.4962036 0 0.8682061
vn -0.4962037 0 0.8682061
vn 0 0 1
vn 0 0 1
vn 0 0 1
vn 0 0 1
vn 0 0 1
vn 0 0 1
vn 0 0 1
vn 0 0 1
vn 0 0 1
vn 0 0 1
vn -1 0 0
vn -1 0 0
vn -1 0 0
vn -1 0 0
vn 0 0 -1
vn 0 0 -1
vn 0 0 -1
vn 0 0 -1
vn 0 0 -1
vn 0 0 -1
vn 0 0 -1
vn 0 0 -1
vn 0 0 -1
vn 0 0 -1
vn 1 0 0
vn 1 0 0
vn 1 0 0
vn 1 0 0
vn -0.9677047 -0.2520867 0
vn -0.8729046 -0.4878909 0
vn -0.8729046 -0.4878909 0
vn -0.9677047 -0.2520866 0
vn -1 0 0
vn -1 0 0
vn 0 0 -1
vn 0 0 -1
vn 0 0 -1
vn 0 0 -1
vn 0 0 -1
vn 0 0 -1
vn 0 0 -1
vn 0 0 -1
vn 0 0 -1
vn 0 0 -1
vn 0 0 -1
vn 0 0 1
vn 0 0 1
vn 0 0 1
vn 0 0 1
vn 0 0 1
vn 0 0 1
vn 0 0 1
vn 0 0 1
vn 0 0 1
vn 0 0 1
vn 0 0 1
vn 1 0 0
vn 0.9677046 -0.2520868 0
vn 1 0 0
vn 0.9677046 -0.2520868 0
vn 0.8729044 -0.4878911 0
vn 0.8729044 -0.4878911 0
vn 0.4771373 -0.8788288 0
vn 0.3229242 -0.9464248 0
vn 0.3229241 -0.9464248 0
vn 0.4771373 -0.8788288 0
vn 0.3229242 -0.9464248 0
vn 0 -1 0
vn 0.3229241 -0.9464248 0
vn 0 -1 0
vn -0.3229242 -0.9464248 0
vn -0.3229241 -0.9464248 0
vn -0.4771373 -0.8788288 0
vn -0.4771373 -0.8788288 0
g IceCube_0
f 3/3/3 2/2/2 1/1/1
f 4/4/4 3/3/3 1/1/1
f 4/4/4 1/1/1 5/5/5
f 5/5/5 6/6/6 4/4/4
f 7/7/7 6/6/6 5/5/5
f 8/8/8 7/7/7 5/5/5
f 8/8/8 5/5/5 9/9/9
f 9/9/9 10/10/10 8/8/8
f 13/13/13 12/12/12 11/11/11
f 13/13/13 11/11/11 14/14/14
f 15/15/15 13/13/13 14/14/14
f 14/14/14 16/16/16 15/15/15
f 15/15/15 16/16/16 17/17/17
f 15/15/15 17/17/17 18/18/18
f 15/15/15 18/18/18 19/19/19
f 19/19/19 20/20/20 15/15/15
f 23/23/23 22/22/22 21/21/21
f 22/22/22 24/24/24 21/21/21
f 21/21/21 24/24/24 25/25/25
f 26/26/26 21/21/21 25/25/25
f 29/29/29 28/28/28 27/27/27
f 30/30/30 29/29/29 27/27/27
f 33/33/33 32/32/32 31/31/31
f 34/34/34 33/33/33 31/31/31
f 37/37/37 36/36/36 35/35/35
f 36/36/36 38/38/38 35/35/35
f 36/36/36 39/39/39 38/38/38
f 39/39/39 40/40/40 38/38/38
f 39/39/39 41/41/41 40/40/40
f 41/41/41 42/42/42 40/40/40
f 45/45/45 44/44/44 43/43/43
f 44/44/44 46/46/46 43/43/43
f 47/47/47 46/46/46 44/44/44
f 48/48/48 47/47/47 44/44/44
f 51/51/51 50/50/50 49/49/49
f 52/52/52 51/51/51 49/49/49
f 52/52/52 49/49/49 53/53/53
f 49/49/49 54/54/54 53/53/53
f 53/53/53 54/54/54 55/55/55
f 54/54/54 56/56/56 55/55/55
f 56/56/56 57/57/57 55/55/55
f 57/57/57 58/58/58 55/55/55
f 61/61/61 60/60/60 59/59/59
f 60/60/60 62/62/62 59/59/59
f 59/59/59 62/62/62 63/63/63
f 62/62/62 64/64/64 63/63/63
f 63/63/63 64/64/64 65/65/65
f 64/64/64 66/66/66 65/65/65
f 65/65/65 66/66/66 67/67/67
f 66/66/66 68/68/68 67/67/67
f 67/67/67 68/68/68 69/69/69
f 68/68/68 70/70/70 69/69/69
f 69/69/69 70/70/70 71/71/71
f 70/70/70 72/72/72 71/71/71
f 71/71/71 72/72/72 73/73/73
f 72/72/72 74/74/74 73/73/73
f 73/73/73 74/74/74 75/75/75
f 76/76/76 73/73/73 75/75/75
f 79/79/79 78/78/78 77/77/77
f 78/78/78 80/80/80 77/77/77
f 81/81/81 77/77/77 80/80/80
f 82/82/82 81/81/81 80/80/80
f 83/83/83 81/81/81 82/82/82
f 84/84/84 83/83/83 82/82/82
f 85/85/85 83/83/83 84/84/84
f 86/86/86 85/85/85 84/84/84
f 87/87/87 85/85/85 86/86/86
f 88/88/88 87/87/87 86/86/86
f 87/87/87 88/88/88 89/89/89
f 88/88/88 90/90/90 89/89/89
f 89/89/89 90/90/90 91/91/91
f 92/92/92 89/89/89 91/91/91
f 95/95/95 94/94/94 93/93/93
f 94/94/94 96/96/96 93/93/93
f 93/93/93 96/96/96 97/97/97
f 96/96/96 98/98/98 97/97/97
f 97/97/97 98/98/98 99/99/99
f 98/98/98 100/100/100 99/99/99
f 99/99/99 100/100/100 101/101/101
f 100/100/100 102/102/102 101/101/101
f 101/101/101 102/102/102 103/103/103
f 102/102/102 104/104/104 103/103/103
f 103/103/103 104/104/104 105/105/105
f 104/104/104 106/106/106 105/105/105
f 105/105/105 106/106/106 107/107/107
f 106/106/106 108/108/108 107/107/107
f 107/107/107 108/108/108 109/109/109
f 110/110/110 107/107/107 109/109/109
f 113/113/113 112/112/112 111/111/111
f 112/112/112 114/114/114 111/111/111
f 111/111/111 114/114/114 115/115/115
f 114/114/114 116/116/116 115/115/115
f 117/117/117 115/115/115 116/116/116
f 118/118/118 117/117/117 116/116/116
f 119/119/119 117/117/117 118/118/118
f 120/120/120 119/119/119 118/118/118
f 121/121/121 119/119/119 120/120/120
f 122/122/122 121/121/121 120/120/120
f 121/121/121 122/122/122 123/123/123
f 122/122/122 124/124/124 123/123/123
f 123/123/123 124/124/124 125/125/125
f 126/126/126 123/123/123 125/125/125
f 129/129/129 128/128/128 127/127/127
f 127/127/127 130/130/130 129/129/129
f 127/127/127 131/131/131 130/130/130
f 132/132/132 131/131/131 127/127/127
f 133/133/133 131/131/131 132/132/132
f 134/134/134 130/130/130 131/131/131
f 135/135/135 131/131/131 133/133/133
f 131/131/131 135/135/135 134/134/134
f 135/135/135 136/136/136 134/134/134
f 139/139/139 138/138/138 137/137/137
f 140/140/140 139/139/139 137/137/137
f 143/143/143 142/142/142 141/141/141
f 141/141/141 144/144/144 143/143/143
f 141/141/141 145/145/145 144/144/144
f 144/144/144 145/145/145 146/146/146
f 146/146/146 145/145/145 147/147/147
f 145/145/145 141/141/141 148/148/148
f 147/147/147 145/145/145 149/149/149
f 148/148/148 149/149/149 145/145/145
f 148/148/148 150/150/150 149/149/149
f 153/153/153 152/152/152 151/151/151
f 154/154/154 153/153/153 151/151/151
f 157/157/157 156/156/156 155/155/155
f 156/156/156 158/158/158 155/155/155
f 155/155/155 158/158/158 159/159/159
f 160/160/160 155/155/155 159/159/159
f 163/163/163 162/162/162 161/161/161
f 161/161/161 164/164/164 163/163/163
f 161/161/161 165/165/165 164/164/164
f 166/166/166 165/165/165 161/161/161
f 167/167/167 165/165/165 166/166/166
f 168/168/168 165/165/165 167/167/167
f 169/169/169 165/165/165 168/168/168
f 164/164/164 165/165/165 169/169/169
f 169/169/169 170/170/170 164/164/164
f 169/169/169 171/171/171 170/170/170
f 174/174/174 173/173/173 172/172/172
f 172/172/172 175/175/175 174/174/174
f 172/172/172 176/176/176 175/175/175
f 175/175/175 176/176/176 177/177/177
f 177/177/177 176/176/176 178/178/178
f 178/178/178 176/176/176 179/179/179
f 176/176/176 172/172/172 180/180/180
f 179/179/179 176/176/176 181/181/181
f 180/180/180 181/181/181 176/176/176
f 180/180/180 182/182/182 181/181/181
f 185/185/185 184/184/184 183/183/183
f 184/184/184 186/186/186 183/183/183
f 186/186/186 184/184/184 187/187/187
f 184/184/184 188/188/188 187/187/187
f 191/191/191 190/190/190 189/189/189
f 192/192/192 191/191/191 189/189/189
f 195/195/195 194/194/194 193/193/193
f 194/194/194 196/196/196 193/193/193
f 194/194/194 197/197/197 196/196/196
f 197/197/197 198/198/198 196/196/196
f 197/197/197 199/199/199 198/198/198
f 199/199/199 200/200/200 198/198/198
