g IceManHand
v -0.0004800351 0.0003954629 0.0004635059
v -0.000480035 0.0003954629 -0.0001544035
v -0.0005392368 0.00134705 -0.0002929008
v -0.0005392369 0.001347051 0.0004635052
v -0.0003617291 0.0006152241 0.001012149
v -0.0004209411 0.001347051 0.0008918062
v -0.0003321279 -8.033188E-05 0.0009289377
v -0.0004504236 -8.033151E-05 0.0004635066
v -0.00107051 0.0003930437 0.0004635063
v -0.0007816849 0.0007722917 0.0004635059
v -0.0007816849 0.0007722917 -0.0001544031
v -0.00107051 0.0003930441 -0.0001240178
v -0.0003838205 -8.033151E-05 -5.77244E-05
v -0.0003690421 -0.001134188 0.0004604426
v -0.0004504236 -8.033151E-05 0.0004635066
v -0.0003321279 -8.033188E-05 0.0009289377
v -0.0002560113 -0.001133954 0.0008407697
v 0.0001152192 -0.00147189 0.0004475109
v 0.0001148648 -0.001134028 0.0009405636
v 0.0001217423 -8.033153E-05 0.001051032
v 0.0005433855 -8.033155E-05 0.0009530529
v 0.0004714252 -0.001134028 0.0008604944
v 0.000598785 -0.001134176 0.0004604422
v 0.0006939203 -8.033155E-05 0.000463507
v -0.000480035 0.0003954629 -0.0001544035
v 0.0001217423 0.001347051 -0.0002929005
v -0.0005392368 0.00134705 -0.0002929008
v 0.0001217423 0.0003954629 -0.0001544035
v 0.0007108633 0.001092455 -0.0001895523
v 0.000671863 0.0003954629 -8.810972E-05
v 0.0001217424 -8.033153E-05 -0.0001240182
v 0.0006452505 -8.033155E-05 -5.77244E-05
v -0.0003838205 -8.033151E-05 -5.77244E-05
v -0.0007816849 0.0007722917 -0.0001544031
v -0.00107051 0.0003930441 -0.0001240178
v -0.0007816849 0.0007722917 0.0004635059
v -0.0004800351 0.0003954629 0.0004635059
v 0.0005651942 0.0006266063 0.001040576
v 0.0001217422 0.001347051 0.001004154
v 0.0005971491 0.001201746 0.0009371653
v 0.0001217404 0.0006728719 0.001156066
v 0.0005433855 -8.033155E-05 0.0009530529
v -0.0004209411 0.001347051 0.0008918062
v 0.0001217423 -8.033153E-05 0.001051032
v -0.0003617291 0.0006152241 0.001012149
v -0.0003321279 -8.033188E-05 0.0009289377
v -0.0005392369 0.001347051 0.0004635052
v 0.0001217422 0.001347051 0.001004154
v -0.0004209411 0.001347051 0.0008918062
v 0.0001217423 0.001347051 0.0004635059
v -0.0005392368 0.00134705 -0.0002929008
v 0.0005971491 0.001201746 0.0009371653
v 0.0001217423 0.001347051 -0.0002929005
v 0.0007668807 0.001092455 0.0004635066
v 0.0007108633 0.001092455 -0.0001895523
v 0.0006939203 -8.033155E-05 0.000463507
v 0.0005433855 -8.033155E-05 0.0009530529
v 0.0005651942 0.0006266063 0.001040576
v 0.0007235197 0.0003954629 0.0004635059
v 0.0006452505 -8.033155E-05 -5.77244E-05
v 0.0005971491 0.001201746 0.0009371653
v 0.000671863 0.0003954629 -8.810972E-05
v 0.0007668807 0.001092455 0.0004635066
v 0.0007108633 0.001092455 -0.0001895523
v 0.000598785 -0.001134176 0.0004604422
v 0.0006939203 -8.033155E-05 0.000463507
v 0.0006452505 -8.033155E-05 -5.77244E-05
v 0.0005585499 -0.001133991 2.691531E-05
v 0.0001152192 -0.00147189 0.0004475109
v 0.0001148784 -0.001134175 -3.645522E-05
v 0.0001217424 -8.033153E-05 -0.0001240182
v -0.0003838205 -8.033151E-05 -5.77244E-05
v -0.000311696 -0.001133991 2.691494E-05
v -0.0003690421 -0.001134188 0.0004604426
v -0.0004504236 -8.033151E-05 0.0004635066
vt 0.9684703 0.3542364
vt 0.9684703 0.3542364
vt 0.9684703 0.3542364
vt 0.9684703 0.3542364
vt 0.9684703 0.3542364
vt 0.9684703 0.3542364
vt 0.9684703 0.3542364
vt 0.9684703 0.3542364
vt 0.9684703 0.3542364
vt 0.9684703 0.3542364
vt 0.9684703 0.3542364
vt 0.9684703 0.3542364
vt 0.9684703 0.3542364
vt 0.7224878 0.4083827
vt 0.7224878 0.4083827
vt 0.7224878 0.4083827
vt 0.7224878 0.4083827
vt 0.7224878 0.4083827
vt 0.7224878 0.4083827
vt 0.7224878 0.4083827
vt 0.7224878 0.4083827
vt 0.7224878 0.4083827
vt 0.7224878 0.4083827
vt 0.7224878 0.4083827
vt 0.1560622 0.4104056
vt 0.1560622 0.4104056
vt 0.1560622 0.4104056
vt 0.1560622 0.4104056
vt 0.1560622 0.4104056
vt 0.1560622 0.4104056
vt 0.1560622 0.4104056
vt 0.1560622 0.4104056
vt 0.1560622 0.4104056
vt 0.1560622 0.4104056
vt 0.1560622 0.4104056
vt 0.1560622 0.4104056
vt 0.1560622 0.4104056
vt 0.1560622 0.4104056
vt 0.1560622 0.4104056
vt 0.1560622 0.4104056
vt 0.1560622 0.4104056
vt 0.1560622 0.4104056
vt 0.1560622 0.4104056
vt 0.1560622 0.4104056
vt 0.1560622 0.4104056
vt 0.1560622 0.4104056
vt 0.8397655 0.2822893
vt 0.8397655 0.2822893
vt 0.8397655 0.2822893
vt 0.8397655 0.2822893
vt 0.8397655 0.2822893
vt 0.8397655 0.2822893
vt 0.8397655 0.2822893
vt 0.8397655 0.2822893
vt 0.8397655 0.2822893
vt 0.9684703 0.3542364
vt 0.9684703 0.3542364
vt 0.9684703 0.3542364
vt 0.9684703 0.3542364
vt 0.9684703 0.3542364
vt 0.9684703 0.3542364
vt 0.9684703 0.3542364
vt 0.9684703 0.3542364
vt 0.9684703 0.3542364
vt 0.6580347 0.4044764
vt 0.6580347 0.4044764
vt 0.6580347 0.4044764
vt 0.6580347 0.4044764
vt 0.6580347 0.4044764
vt 0.6580347 0.4044764
vt 0.6580347 0.4044764
vt 0.6580347 0.4044764
vt 0.6580347 0.4044764
vt 0.6580347 0.4044764
vt 0.6580347 0.4044764
vn -0.7092648 0.1457899 0.689702
vn -0.124397 0.01660254 -0.9920936
vn -0.5882837 0.5226068 -0.6170936
vn -0.7483709 0.6567206 0.09305424
vn -0.6871359 -0.01971529 0.7262613
vn -0.5829204 0.627082 0.5166933
vn -0.7127997 -0.1086473 0.6929014
vn -0.9295565 -0.2861794 0.2324349
vn -0.813525 -0.120338 0.5689426
vn -0.009949208 0.8246551 0.5655484
vn -0.01828091 0.7939833 -0.6076646
vn -0.8112212 -0.1533877 -0.5642627
vn -0.5109856 -0.3435563 -0.7879485
vn -0.8777635 -0.4750318 0.06225922
vn -0.9295565 -0.2861794 0.2324349
vn -0.7127997 -0.1086473 0.6929014
vn -0.6185331 -0.4773817 0.6241181
vn -0.00149543 -0.9999241 0.01223811
vn -0.01733488 -0.4851631 0.8742518
vn -0.01733491 -0.1191165 0.9927289
vn 0.6850355 -0.1099609 0.7201632
vn 0.5954918 -0.4789693 0.6449636
vn 0.8726739 -0.4797357 0.09107012
vn 0.9917594 -0.07700052 0.1023927
vn -0.124397 0.01660254 -0.9920936
vn 0.1796679 0.6650797 -0.7248368
vn -0.5882837 0.5226068 -0.6170936
vn 0.0444666 -0.1241524 -0.9912663
vn 0.6924213 0.3840545 -0.6107822
vn 0.721808 -0.1092585 -0.6834149
vn 0.01501553 -0.09473214 -0.9953895
vn 0.7168632 -0.09656244 -0.6904947
vn -0.5109856 -0.3435563 -0.7879485
vn -0.01828091 0.7939833 -0.6076646
vn -0.8112212 -0.1533877 -0.5642627
vn -0.009949208 0.8246551 0.5655484
vn -0.7092648 0.1457899 0.689702
vn 0.6570359 -0.008575739 0.7538105
vn 0.08914656 0.7627356 0.6405368
vn 0.6423368 0.5637195 0.5192531
vn -0.01257399 0.03702002 0.9992354
vn 0.6850355 -0.1099609 0.7201632
vn -0.5829204 0.627082 0.5166933
vn -0.01733491 -0.1191165 0.9927289
vn -0.6871359 -0.01971529 0.7262613
vn -0.7127997 -0.1086473 0.6929014
vn -0.7483709 0.6567206 0.09305424
vn 0.08914656 0.7627356 0.6405368
vn -0.5829204 0.627082 0.5166933
vn 0.1820456 0.9831682 -0.01547311
vn -0.5882837 0.5226068 -0.6170936
vn 0.6423368 0.5637195 0.5192531
vn 0.1796679 0.6650797 -0.7248368
vn 0.8724202 0.4840336 0.06778302
vn 0.6924213 0.3840545 -0.6107822
vn 0.9917594 -0.07700052 0.1023927
vn 0.6850355 -0.1099609 0.7201632
vn 0.6570359 -0.008575739 0.7538105
vn 0.9927744 -0.05816871 0.1049539
vn 0.7168632 -0.09656244 -0.6904947
vn 0.6423368 0.5637195 0.5192531
vn 0.721808 -0.1092585 -0.6834149
vn 0.8724202 0.4840336 0.06778302
vn 0.6924213 0.3840545 -0.6107822
vn 0.8726739 -0.4797357 0.09107012
vn 0.9917594 -0.07700052 0.1023927
vn 0.7168632 -0.09656244 -0.6904947
vn 0.6317137 -0.4850087 -0.6047349
vn -0.00149543 -0.9999241 0.01223811
vn -0.002533076 -0.4841533 -0.8749795
vn 0.01501553 -0.09473214 -0.9953895
vn -0.5109856 -0.3435563 -0.7879485
vn -0.6254642 -0.4796731 -0.6153928
vn -0.8777635 -0.4750318 0.06225922
vn -0.9295565 -0.2861794 0.2324349
g IceManHand_0
f 3/3/3 2/2/2 1/1/1
f 4/4/4 3/3/3 1/1/1
f 4/4/4 1/1/1 5/5/5
f 6/6/6 4/4/4 5/5/5
f 5/5/5 1/1/1 7/7/7
f 1/1/1 8/8/8 7/7/7
f 9/9/9 8/8/8 1/1/1
f 10/10/10 9/9/9 1/1/1
f 10/10/10 11/11/11 9/9/9
f 11/11/11 12/12/12 9/9/9
f 9/9/9 12/12/12 8/8/8
f 12/12/12 13/13/13 8/8/8
f 16/16/16 15/15/15 14/14/14
f 17/17/17 16/16/16 14/14/14
f 14/14/14 18/18/18 17/17/17
f 17/17/17 19/19/19 16/16/16
f 17/17/17 18/18/18 19/19/19
f 19/19/19 20/20/20 16/16/16
f 21/21/21 20/20/20 19/19/19
f 19/19/19 18/18/18 22/22/22
f 22/22/22 21/21/21 19/19/19
f 22/22/22 18/18/18 23/23/23
f 24/24/24 21/21/21 22/22/22
f 23/23/23 24/24/24 22/22/22
f 27/27/27 26/26/26 25/25/25
f 26/26/26 28/28/28 25/25/25
f 26/26/26 29/29/29 28/28/28
f 29/29/29 30/30/30 28/28/28
f 28/28/28 30/30/30 31/31/31
f 30/30/30 32/32/32 31/31/31
f 28/28/28 31/31/31 33/33/33
f 25/25/25 28/28/28 33/33/33
f 34/34/34 25/25/25 33/33/33
f 35/35/35 34/34/34 33/33/33
f 34/34/34 36/36/36 25/25/25
f 36/36/36 37/37/37 25/25/25
f 40/40/40 39/39/39 38/38/38
f 39/39/39 41/41/41 38/38/38
f 38/38/38 41/41/41 42/42/42
f 39/39/39 43/43/43 41/41/41
f 41/41/41 44/44/44 42/42/42
f 43/43/43 45/45/45 41/41/41
f 41/41/41 45/45/45 44/44/44
f 45/45/45 46/46/46 44/44/44
f 49/49/49 48/48/48 47/47/47
f 48/48/48 50/50/50 47/47/47
f 47/47/47 50/50/50 51/51/51
f 48/48/48 52/52/52 50/50/50
f 50/50/50 53/53/53 51/51/51
f 52/52/52 54/54/54 50/50/50
f 50/50/50 54/54/54 53/53/53
f 54/54/54 55/55/55 53/53/53
f 58/58/58 57/57/57 56/56/56
f 59/59/59 58/58/58 56/56/56
f 59/59/59 56/56/56 60/60/60
f 61/61/61 58/58/58 59/59/59
f 62/62/62 59/59/59 60/60/60
f 63/63/63 61/61/61 59/59/59
f 63/63/63 59/59/59 62/62/62
f 64/64/64 63/63/63 62/62/62
f 67/67/67 66/66/66 65/65/65
f 68/68/68 67/67/67 65/65/65
f 65/65/65 69/69/69 68/68/68
f 68/68/68 70/70/70 67/67/67
f 68/68/68 69/69/69 70/70/70
f 70/70/70 71/71/71 67/67/67
f 72/72/72 71/71/71 70/70/70
f 70/70/70 69/69/69 73/73/73
f 73/73/73 72/72/72 70/70/70
f 73/73/73 69/69/69 74/74/74
f 75/75/75 72/72/72 73/73/73
f 74/74/74 75/75/75 73/73/73
