g Mjolnir
v -4.700458E-08 0.225807 0.6347611
v -4.93601E-08 0.1763886 0.666793
v -0.04662527 0.2113327 0.6347611
v 0.06593793 0.1763887 0.634761
v -4.93601E-08 0.1763886 0.666793
v 0.04662515 0.2113327 0.6347611
v -4.12401E-08 0.1269702 0.634761
v -4.93601E-08 0.1763886 0.666793
v 0.04662515 0.1414445 0.634761
v -0.04662527 0.1414445 0.634761
v -4.93601E-08 0.1763886 0.666793
v -4.12401E-08 0.1269702 0.634761
v -0.04662527 0.2113327 0.6347611
v -4.93601E-08 0.1763886 0.666793
v -0.06593799 0.1763887 0.634761
v 0.04662515 0.2113327 0.6347611
v -4.93601E-08 0.1763886 0.666793
v -4.700458E-08 0.225807 0.6347611
v 0.04662515 0.1414445 0.634761
v -4.93601E-08 0.1763886 0.666793
v 0.06593793 0.1763887 0.634761
v -0.06593799 0.1763887 0.634761
v -4.93601E-08 0.1763886 0.666793
v -0.04662527 0.1414445 0.634761
v -4.22677E-08 0.135552 0.566855
v 0.03852844 0.1475128 0.566855
v 0.03852844 0.1475128 0.1377895
v -4.22677E-08 0.1355521 0.1377895
v 0.03852844 0.1475128 0.566855
v 0.05448747 0.1763887 0.566855
v 0.05448747 0.1763887 0.1377895
v 0.03852844 0.1475128 0.1377895
v 0.05448747 0.1763887 0.566855
v 0.03852844 0.2052645 0.5668551
v 0.03852844 0.2052646 0.1377895
v 0.05448747 0.1763887 0.1377895
v 0.03852844 0.2052645 0.5668551
v -4.703115E-08 0.2172253 0.5668551
v -4.703115E-08 0.2172254 0.1377895
v 0.03852844 0.2052646 0.1377895
v -4.703115E-08 0.2172253 0.5668551
v -0.03852856 0.2052645 0.5668551
v -0.03852856 0.2052646 0.1377895
v -4.703115E-08 0.2172254 0.1377895
v -0.03852856 0.2052645 0.5668551
v -0.05448753 0.1763887 0.566855
v -0.05448753 0.1763887 0.1377895
v -0.03852856 0.2052646 0.1377895
v -0.05448753 0.1763887 0.566855
v -0.03852856 0.1475128 0.566855
v -0.03852856 0.1475128 0.1377895
v -0.05448753 0.1763887 0.1377895
v -0.03852856 0.1475128 0.566855
v -4.22677E-08 0.135552 0.566855
v -4.22677E-08 0.1355521 0.1377895
v -0.03852856 0.1475128 0.1377895
v -0.03852856 0.1475128 0.566855
v -0.05764933 0.1331824 0.5969051
v -3.921011E-08 0.1152858 0.5969051
v -4.22677E-08 0.135552 0.566855
v -0.05764933 0.1331824 0.5969051
v -0.04662527 0.1414445 0.634761
v -4.12401E-08 0.1269702 0.634761
v -3.921011E-08 0.1152858 0.5969051
v -4.22677E-08 0.135552 0.566855
v -3.921011E-08 0.1152858 0.5969051
v 0.0576492 0.1331824 0.5969051
v 0.03852844 0.1475128 0.566855
v 0.05448747 0.1763887 0.566855
v 0.08152829 0.1763887 0.5969051
v 0.0576492 0.2195949 0.5969052
v 0.03852844 0.2052645 0.5668551
v -0.03852856 0.2052645 0.5668551
v -0.05764933 0.2195949 0.5969052
v -0.08152834 0.1763887 0.5969051
v -0.05448753 0.1763887 0.566855
v 0.03852844 0.2052645 0.5668551
v 0.0576492 0.2195949 0.5969052
v -4.633754E-08 0.2374915 0.5969052
v -4.703115E-08 0.2172253 0.5668551
v -0.05448753 0.1763887 0.566855
v -0.08152834 0.1763887 0.5969051
v -0.05764933 0.1331824 0.5969051
v -0.03852856 0.1475128 0.566855
v 0.03852844 0.1475128 0.566855
v 0.0576492 0.1331824 0.5969051
v 0.08152829 0.1763887 0.5969051
v 0.05448747 0.1763887 0.566855
v -4.703115E-08 0.2172253 0.5668551
v -4.633754E-08 0.2374915 0.5969052
v -0.05764933 0.2195949 0.5969052
v -0.03852856 0.2052645 0.5668551
v -0.05764933 0.2195949 0.5969052
v -0.04662527 0.2113327 0.6347611
v -0.06593799 0.1763887 0.634761
v -0.08152834 0.1763887 0.5969051
v 0.0576492 0.2195949 0.5969052
v 0.04662515 0.2113327 0.6347611
v -4.700458E-08 0.225807 0.6347611
v -4.633754E-08 0.2374915 0.5969052
v 0.0576492 0.1331824 0.5969051
v 0.04662515 0.1414445 0.634761
v 0.06593793 0.1763887 0.634761
v 0.08152829 0.1763887 0.5969051
v -0.08152834 0.1763887 0.5969051
v -0.06593799 0.1763887 0.634761
v -0.04662527 0.1414445 0.634761
v -0.05764933 0.1331824 0.5969051
v -4.633754E-08 0.2374915 0.5969052
v -4.700458E-08 0.225807 0.6347611
v -0.04662527 0.2113327 0.6347611
v -0.05764933 0.2195949 0.5969052
v 0.08152829 0.1763887 0.5969051
v 0.06593793 0.1763887 0.634761
v 0.04662515 0.2113327 0.6347611
v 0.0576492 0.2195949 0.5969052
v -3.921011E-08 0.1152858 0.5969051
v -4.12401E-08 0.1269702 0.634761
v 0.04662515 0.1414445 0.634761
v 0.0576492 0.1331824 0.5969051
v 0.0964897 0.1040728 -0.2294773
v 0.1364571 0.1763888 -0.2294773
v 0.0964897 0.2487047 -0.2294773
v -3.299914E-08 0.07411854 -0.2294773
v -4.49286E-08 0.278659 -0.2294773
v -0.09648986 0.1040728 -0.2294773
v -0.09648986 0.2487047 -0.2294773
v -0.1364571 0.1763888 -0.2294773
v -0.09648986 0.1040728 -0.1976113
v -3.299914E-08 0.07411853 -0.1976113
v -3.299914E-08 0.07411854 -0.2294773
v -0.09648986 0.1040728 -0.2294773
v -0.09648986 0.2487047 -0.1976113
v -0.1364571 0.1763888 -0.1976113
v -0.1364571 0.1763888 -0.2294773
v -0.09648986 0.2487047 -0.2294773
v 0.0964897 0.2487047 -0.1976113
v -4.49286E-08 0.278659 -0.1976113
v -4.49286E-08 0.278659 -0.2294773
v 0.0964897 0.2487047 -0.2294773
v 0.0964897 0.1040728 -0.1976113
v 0.1364571 0.1763888 -0.1976113
v 0.1364571 0.1763888 -0.2294773
v 0.0964897 0.1040728 -0.2294773
v -0.1364571 0.1763888 -0.1976113
v -0.09648986 0.1040728 -0.1976113
v -0.09648986 0.1040728 -0.2294773
v -0.1364571 0.1763888 -0.2294773
v -4.49286E-08 0.278659 -0.1976113
v -0.09648986 0.2487047 -0.1976113
v -0.09648986 0.2487047 -0.2294773
v -4.49286E-08 0.278659 -0.2294773
v 0.1364571 0.1763888 -0.1976113
v 0.0964897 0.2487047 -0.1976113
v 0.0964897 0.2487047 -0.2294773
v 0.1364571 0.1763888 -0.2294773
v -3.299914E-08 0.07411853 -0.1976113
v 0.0964897 0.1040728 -0.1976113
v 0.0964897 0.1040728 -0.2294773
v -3.299914E-08 0.07411854 -0.2294773
vt 0.09074816 0.9681903
vt 0.09074816 0.9681903
vt 0.09074816 0.9681903
vt 0.09074816 0.9681903
vt 0.09074816 0.9681903
vt 0.09074816 0.9681903
vt 0.09074816 0.9681903
vt 0.09074816 0.9681903
vt 0.09074816 0.9681903
vt 0.09074816 0.9681903
vt 0.09074816 0.9681903
vt 0.09074816 0.9681903
vt 0.09074816 0.9681903
vt 0.09074816 0.9681903
vt 0.09074816 0.9681903
vt 0.09074816 0.9681903
vt 0.09074816 0.9681903
vt 0.09074816 0.9681903
vt 0.09074816 0.9681903
vt 0.09074816 0.9681903
vt 0.09074816 0.9681903
vt 0.09074816 0.9681903
vt 0.09074816 0.9681903
vt 0.09074816 0.9681903
vt 0.0309543 0.7214705
vt 0.0309543 0.7214705
vt 0.0309543 0.7214705
vt 0.0309543 0.7214705
vt 0.0309543 0.7214705
vt 0.0309543 0.7214705
vt 0.0309543 0.7214705
vt 0.0309543 0.7214705
vt 0.0309543 0.7214705
vt 0.0309543 0.7214705
vt 0.0309543 0.7214705
vt 0.0309543 0.7214705
vt 0.0309543 0.7214705
vt 0.0309543 0.7214705
vt 0.0309543 0.7214705
vt 0.0309543 0.7214705
vt 0.0309543 0.7214705
vt 0.0309543 0.7214705
vt 0.0309543 0.7214705
vt 0.0309543 0.7214705
vt 0.0309543 0.7214705
vt 0.0309543 0.7214705
vt 0.0309543 0.7214705
vt 0.0309543 0.7214705
vt 0.0309543 0.7214705
vt 0.0309543 0.7214705
vt 0.0309543 0.7214705
vt 0.0309543 0.7214705
vt 0.0309543 0.7214705
vt 0.0309543 0.7214705
vt 0.0309543 0.7214705
vt 0.0309543 0.7214705
vt 0.09074816 0.9681903
vt 0.09074816 0.9681903
vt 0.09074816 0.9681903
vt 0.09074816 0.9681902
vt 0.2225148 0.9666401
vt 0.2225148 0.9666401
vt 0.2225148 0.9666401
vt 0.2225148 0.9666401
vt 0.09074816 0.9681902
vt 0.09074816 0.9681903
vt 0.09074816 0.9681903
vt 0.09074816 0.9681903
vt 0.09074816 0.9681903
vt 0.09074816 0.9681903
vt 0.09074816 0.9681903
vt 0.09074816 0.9681903
vt 0.09074816 0.9681903
vt 0.09074816 0.9681903
vt 0.09074816 0.9681903
vt 0.09074816 0.9681903
vt 0.09074816 0.9681903
vt 0.09074816 0.9681903
vt 0.09074816 0.9681903
vt 0.09074816 0.9681903
vt 0.09074816 0.9681903
vt 0.09074816 0.9681903
vt 0.09074816 0.9681903
vt 0.09074816 0.9681903
vt 0.09074816 0.9681903
vt 0.09074816 0.9681903
vt 0.09074816 0.9681903
vt 0.09074816 0.9681903
vt 0.09074816 0.9681903
vt 0.09074816 0.9681903
vt 0.09074816 0.9681903
vt 0.09074816 0.9681903
vt 0.2225148 0.9666401
vt 0.2225148 0.9666401
vt 0.2225148 0.9666401
vt 0.2225148 0.9666401
vt 0.2225148 0.9666401
vt 0.2225148 0.9666401
vt 0.2225148 0.9666401
vt 0.2225148 0.9666401
vt 0.2225148 0.9666401
vt 0.2225148 0.9666401
vt 0.2225148 0.9666401
vt 0.2225148 0.9666401
vt 0.2225148 0.9666401
vt 0.2225148 0.9666401
vt 0.2225148 0.9666401
vt 0.2225148 0.9666401
vt 0.2225148 0.9666401
vt 0.2225148 0.9666401
vt 0.2225148 0.9666401
vt 0.2225148 0.9666401
vt 0.2225148 0.9666401
vt 0.2225148 0.9666401
vt 0.2225148 0.9666401
vt 0.2225148 0.9666401
vt 0.2225148 0.9666401
vt 0.2225148 0.9666401
vt 0.2225148 0.9666401
vt 0.2225148 0.9666401
vt 0.0887827 0.7202401
vt 0.0887827 0.7202401
vt 0.0887827 0.7202401
vt 0.0887827 0.7202401
vt 0.0887827 0.7202401
vt 0.0887827 0.7202401
vt 0.0887827 0.7202401
vt 0.0887827 0.7202401
vt 0.0309543 0.7214705
vt 0.0309543 0.7214705
vt 0.0309543 0.7214705
vt 0.0309543 0.7214705
vt 0.0309543 0.7214705
vt 0.0309543 0.7214705
vt 0.0309543 0.7214705
vt 0.0309543 0.7214705
vt 0.0309543 0.7214705
vt 0.0309543 0.7214705
vt 0.0309543 0.7214705
vt 0.0309543 0.7214705
vt 0.0309543 0.7214705
vt 0.0309543 0.7214705
vt 0.0309543 0.7214705
vt 0.0309543 0.7214705
vt 0.0309543 0.7214705
vt 0.0309543 0.7214705
vt 0.0309543 0.7214705
vt 0.0309543 0.7214705
vt 0.0309543 0.7214705
vt 0.0309543 0.7214705
vt 0.0309543 0.7214705
vt 0.0309543 0.7214705
vt 0.0309543 0.7214705
vt 0.0309543 0.7214705
vt 0.0309543 0.7214705
vt 0.0309543 0.7214705
vt 0.0309543 0.7214705
vt 0.0309543 0.7214705
vt 0.0309543 0.7214705
vt 0.0309543 0.7214705
vn -0.1664955 0.536323 0.8274279
vn -0.1664955 0.536323 0.8274279
vn -0.1664955 0.536323 0.8274279
vn 0.4247487 0.2347482 0.8743465
vn 0.4247487 0.2347482 0.8743465
vn 0.4247487 0.2347482 0.8743465
vn 0.1664962 -0.5363213 0.8274288
vn 0.1664962 -0.5363213 0.8274288
vn 0.1664962 -0.5363213 0.8274288
vn -0.1664959 -0.5363228 0.827428
vn -0.1664959 -0.5363228 0.827428
vn -0.1664959 -0.5363228 0.827428
vn -0.4247493 0.2347443 0.8743473
vn -0.4247493 0.2347443 0.8743473
vn -0.4247493 0.2347443 0.8743473
vn 0.1664958 0.5363215 0.8274288
vn 0.1664958 0.5363215 0.8274288
vn 0.1664958 0.5363215 0.8274288
vn 0.4247486 -0.234752 0.8743456
vn 0.4247486 -0.234752 0.8743456
vn 0.4247486 -0.234752 0.8743456
vn -0.4247493 -0.2347467 0.8743466
vn -0.4247493 -0.2347467 0.8743466
vn -0.4247493 -0.2347467 0.8743466
vn 0.2964822 -0.9550384 0
vn 0.2964822 -0.9550384 0
vn 0.2964822 -0.9550384 0
vn 0.2964822 -0.9550384 0
vn 0.8752249 -0.4837163 0
vn 0.8752249 -0.4837163 0
vn 0.8752249 -0.4837163 0
vn 0.8752249 -0.4837163 0
vn 0.8752246 0.4837168 0
vn 0.8752246 0.4837168 0
vn 0.8752246 0.4837168 0
vn 0.8752246 0.4837168 0
vn 0.2964821 0.9550385 0
vn 0.2964821 0.9550385 0
vn 0.2964821 0.9550385 0
vn 0.2964821 0.9550385 0
vn -0.296482 0.9550385 0
vn -0.296482 0.9550385 0
vn -0.296482 0.9550385 0
vn -0.296482 0.9550385 0
vn -0.8752254 0.4837154 0
vn -0.8752254 0.4837154 0
vn -0.8752254 0.4837154 0
vn -0.8752254 0.4837154 0
vn -0.8752257 -0.4837149 0
vn -0.8752257 -0.4837149 0
vn -0.8752257 -0.4837149 0
vn -0.8752257 -0.4837149 0
vn -0.2964818 -0.9550385 0
vn -0.2964818 -0.9550385 0
vn -0.2964818 -0.9550385 0
vn -0.2964818 -0.9550385 0
vn -0.249254 -0.8029059 -0.5414929
vn -0.249254 -0.8029059 -0.5414929
vn -0.249254 -0.8029059 -0.5414929
vn -0.249254 -0.8029059 -0.5414929
vn -0.284383 -0.9160671 0.2827495
vn -0.284383 -0.9160671 0.2827495
vn -0.284383 -0.9160671 0.2827495
vn -0.284383 -0.9160671 0.2827495
vn 0.2492537 -0.8029068 -0.5414917
vn 0.2492537 -0.8029068 -0.5414917
vn 0.2492537 -0.8029068 -0.5414917
vn 0.2492537 -0.8029068 -0.5414917
vn 0.6875824 0.3800103 -0.6187266
vn 0.6875824 0.3800103 -0.6187266
vn 0.6875824 0.3800103 -0.6187266
vn 0.6875824 0.3800103 -0.6187266
vn -0.6875829 0.3800094 -0.6187266
vn -0.6875829 0.3800094 -0.6187266
vn -0.6875829 0.3800094 -0.6187266
vn -0.6875829 0.3800094 -0.6187266
vn 0.2492543 0.8029064 -0.541492
vn 0.2492543 0.8029064 -0.541492
vn 0.2492543 0.8029064 -0.541492
vn 0.2492543 0.8029064 -0.541492
vn -0.6875828 -0.380009 -0.6187268
vn -0.6875828 -0.380009 -0.6187268
vn -0.6875828 -0.380009 -0.6187268
vn -0.6875828 -0.380009 -0.6187268
vn 0.6875822 -0.3800104 -0.6187267
vn 0.6875822 -0.3800104 -0.6187267
vn 0.6875822 -0.3800104 -0.6187267
vn 0.6875822 -0.3800104 -0.6187267
vn -0.2492535 0.8029078 -0.5414904
vn -0.2492535 0.8029078 -0.5414904
vn -0.2492535 0.8029078 -0.5414904
vn -0.2492535 0.8029078 -0.5414904
vn -0.8233713 0.4550566 0.3390919
vn -0.8233713 0.4550566 0.3390919
vn -0.8233713 0.4550566 0.3390919
vn -0.8233713 0.4550566 0.3390919
vn 0.284383 0.9160671 0.2827495
vn 0.284383 0.9160671 0.2827495
vn 0.284383 0.9160671 0.2827495
vn 0.284383 0.9160671 0.2827495
vn 0.8233708 -0.4550573 0.3390921
vn 0.8233708 -0.4550573 0.3390921
vn 0.8233708 -0.4550573 0.3390921
vn 0.8233708 -0.4550573 0.3390921
vn -0.8233716 -0.4550557 0.3390921
vn -0.8233716 -0.4550557 0.3390921
vn -0.8233716 -0.4550557 0.3390921
vn -0.8233716 -0.4550557 0.3390921
vn -0.2843835 0.9160668 0.28275
vn -0.2843835 0.9160668 0.28275
vn -0.2843835 0.9160668 0.28275
vn -0.2843835 0.9160668 0.28275
vn 0.8233706 0.4550574 0.3390921
vn 0.8233706 0.4550574 0.3390921
vn 0.8233706 0.4550574 0.3390921
vn 0.8233706 0.4550574 0.3390921
vn 0.2843837 -0.9160668 0.28275
vn 0.2843837 -0.9160668 0.28275
vn 0.2843837 -0.9160668 0.28275
vn 0.2843837 -0.9160668 0.28275
vn 0 0 -1
vn 0 0 -1
vn 0 0 -1
vn 0 0 -1
vn 0 0 -1
vn 0 0 -1
vn 0 0 -1
vn 0 0 -1
vn -0.2964817 -0.9550385 0
vn -0.2964817 -0.9550385 0
vn -0.2964817 -0.9550385 0
vn -0.2964817 -0.9550385 0
vn -0.8752254 0.4837154 0
vn -0.8752254 0.4837154 0
vn -0.8752254 0.4837154 0
vn -0.8752254 0.4837154 0
vn 0.2964819 0.9550385 0
vn 0.2964819 0.9550385 0
vn 0.2964819 0.9550385 0
vn 0.2964819 0.9550385 0
vn 0.8752249 -0.4837163 0
vn 0.8752249 -0.4837163 0
vn 0.8752249 -0.4837163 0
vn 0.8752249 -0.4837163 0
vn -0.8752255 -0.4837149 0
vn -0.8752255 -0.4837149 0
vn -0.8752255 -0.4837149 0
vn -0.8752255 -0.4837149 0
vn -0.2964817 0.9550385 0
vn -0.2964817 0.9550385 0
vn -0.2964817 0.9550385 0
vn -0.2964817 0.9550385 0
vn 0.8752246 0.4837168 0
vn 0.8752246 0.4837168 0
vn 0.8752246 0.4837168 0
vn 0.8752246 0.4837168 0
vn 0.2964821 -0.9550385 0
vn 0.2964821 -0.9550385 0
vn 0.2964821 -0.9550385 0
vn 0.2964821 -0.9550385 0
g Mjolnir_0
f 3/3/3 2/2/2 1/1/1
f 6/6/6 5/5/5 4/4/4
f 9/9/9 8/8/8 7/7/7
f 12/12/12 11/11/11 10/10/10
f 15/15/15 14/14/14 13/13/13
f 18/18/18 17/17/17 16/16/16
f 21/21/21 20/20/20 19/19/19
f 24/24/24 23/23/23 22/22/22
f 27/27/27 26/26/26 25/25/25
f 28/28/28 27/27/27 25/25/25
f 31/31/31 30/30/30 29/29/29
f 32/32/32 31/31/31 29/29/29
f 35/35/35 34/34/34 33/33/33
f 36/36/36 35/35/35 33/33/33
f 39/39/39 38/38/38 37/37/37
f 40/40/40 39/39/39 37/37/37
f 43/43/43 42/42/42 41/41/41
f 44/44/44 43/43/43 41/41/41
f 47/47/47 46/46/46 45/45/45
f 48/48/48 47/47/47 45/45/45
f 51/51/51 50/50/50 49/49/49
f 52/52/52 51/51/51 49/49/49
f 55/55/55 54/54/54 53/53/53
f 56/56/56 55/55/55 53/53/53
f 59/59/59 58/58/58 57/57/57
f 60/60/60 59/59/59 57/57/57
f 63/63/63 62/62/62 61/61/61
f 64/64/64 63/63/63 61/61/61
f 67/67/67 66/66/66 65/65/65
f 68/68/68 67/67/67 65/65/65
f 71/71/71 70/70/70 69/69/69
f 72/72/72 71/71/71 69/69/69
f 75/75/75 74/74/74 73/73/73
f 76/76/76 75/75/75 73/73/73
f 79/79/79 78/78/78 77/77/77
f 80/80/80 79/79/79 77/77/77
f 83/83/83 82/82/82 81/81/81
f 84/84/84 83/83/83 81/81/81
f 87/87/87 86/86/86 85/85/85
f 88/88/88 87/87/87 85/85/85
f 91/91/91 90/90/90 89/89/89
f 92/92/92 91/91/91 89/89/89
f 95/95/95 94/94/94 93/93/93
f 96/96/96 95/95/95 93/93/93
f 99/99/99 98/98/98 97/97/97
f 100/100/100 99/99/99 97/97/97
f 103/103/103 102/102/102 101/101/101
f 104/104/104 103/103/103 101/101/101
f 107/107/107 106/106/106 105/105/105
f 108/108/108 107/107/107 105/105/105
f 111/111/111 110/110/110 109/109/109
f 112/112/112 111/111/111 109/109/109
f 115/115/115 114/114/114 113/113/113
f 116/116/116 115/115/115 113/113/113
f 119/119/119 118/118/118 117/117/117
f 120/120/120 119/119/119 117/117/117
f 123/123/123 122/122/122 121/121/121
f 121/121/121 124/124/124 123/123/123
f 124/124/124 125/125/125 123/123/123
f 124/124/124 126/126/126 125/125/125
f 126/126/126 127/127/127 125/125/125
f 126/126/126 128/128/128 127/127/127
f 131/131/131 130/130/130 129/129/129
f 132/132/132 131/131/131 129/129/129
f 135/135/135 134/134/134 133/133/133
f 136/136/136 135/135/135 133/133/133
f 139/139/139 138/138/138 137/137/137
f 140/140/140 139/139/139 137/137/137
f 143/143/143 142/142/142 141/141/141
f 144/144/144 143/143/143 141/141/141
f 147/147/147 146/146/146 145/145/145
f 148/148/148 147/147/147 145/145/145
f 151/151/151 150/150/150 149/149/149
f 152/152/152 151/151/151 149/149/149
f 155/155/155 154/154/154 153/153/153
f 156/156/156 155/155/155 153/153/153
f 159/159/159 158/158/158 157/157/157
f 160/160/160 159/159/159 157/157/157
