g Pacman
v 0.05161127 0.2025245 0.2594669
v 0.05161127 0.2094325 0.2594669
v 0.101239 0.2094325 0.2444124
v 0.101239 0.2025245 0.2444124
v 0.1469763 0.2094326 0.2199654
v 0.1469763 0.2025246 0.2199654
v 0.1870653 0.2094326 0.1870651
v 0.1870653 0.2025246 0.1870651
v 0.2199655 0.2094326 0.1469761
v 0.2199655 0.2025246 0.1469761
v 0.2444125 0.2094326 0.1012388
v 0.2444125 0.2025246 0.1012388
v 0.2594669 0.2094326 0.05161103
v 0.2594669 0.2025246 0.05161103
v 0.2645501 0.2094327 -1.530866E-07
v 0.2645501 0.2025247 -1.56463E-07
v 0.101239 0.0350052 0.2444123
v 0.1469763 0.03500521 0.2199653
v 0.1870653 0.03500523 0.187065
v 0.2199655 0.03500525 0.146976
v 0.2444125 0.03500527 0.1012388
v 0.2594669 0.03500529 0.05161095
v 0.05161127 0.03500519 0.2594668
v 0.101239 0.02637019 0.2444123
v 0.1469763 0.0263702 0.2199653
v 0.1870653 0.02637021 0.187065
v 0.2199655 0.02637023 0.146976
v 0.2444125 0.02637025 0.1012388
v 0.05161127 0.02637018 0.2594668
v 0.08865029 0.004976783 0.2140204
v 0.1287002 0.004976794 0.1926133
v 0.04519357 0.004976777 0.2272029
v 0.1638043 0.004976808 0.1638041
v 0.1926135 0.004976825 0.1287
v 7.430409E-08 0.004976775 0.2316541
v 0.2140206 0.004976844 0.08865002
v 8.620136E-08 0.02637018 0.2645501
v 7.430409E-08 0.01563004 0.2316541
v 0.2594669 0.02637028 0.05161094
v 0.227203 0.004976865 0.04519327
v 8.620136E-08 0.03500519 0.2645501
v 7.430409E-08 0.2223033 0.2316542
v 8.620136E-08 0.2025245 0.2645502
v 7.430409E-08 0.230826 0.2316542
v 0.05161127 0.2094325 0.2594669
v 8.620136E-08 0.2094325 0.2645502
v 0.04519357 0.230826 0.2272031
v 0.08865029 0.230826 0.2140206
v 0.101239 0.2094325 0.2444124
v 0.1287002 0.230826 0.1926134
v 0.1469763 0.2094326 0.2199654
v 0.1638043 0.230826 0.1638042
v 0.1870653 0.2094326 0.1870651
v 0.1926135 0.2308261 0.1287001
v 0.2199655 0.2094326 0.1469761
v 0.2140206 0.2308261 0.08865013
v 0.2444125 0.2094326 0.1012388
v 0.227203 0.2308261 0.04519338
v 0.2594669 0.2094326 0.05161103
v 0.2316541 0.2308261 -1.180727E-07
v 0.2645501 0.2094327 -1.530866E-07
v 0.2272029 0.2308261 -0.04519362
v 0.2594668 0.2094327 -0.05161133
v 0.2140204 0.2308261 -0.08865034
v 0.2444123 0.2094327 -0.1012391
v 0.1926132 0.2308261 -0.1287002
v 0.2594668 0.2025247 -0.05161134
v 0.2199652 0.2094328 -0.1469763
v 0.163804 0.2308262 -0.1638043
v 0.2645501 0.03500532 -2.383401E-07
v 0.2444123 0.2025247 -0.1012391
v 0.1870649 0.2094328 -0.1870653
v 0.1286999 0.2308262 -0.1926134
v 0.2645501 0.0263703 -2.425606E-07
v 0.2316541 0.004976888 -2.284592E-07
v 0.2594668 0.03500535 -0.05161142
v 0.2594668 0.02637033 -0.05161142
v 0.2272029 0.00497691 -0.04519373
v 0.2444123 0.03500537 -0.1012392
v 0.2444123 0.03500537 -0.1012392
v 0.2199652 0.2025248 -0.1469763
v 0.2199652 0.03500539 -0.1469764
v 0.2444123 0.02637035 -0.1012392
v 0.2140204 0.004976931 -0.08865045
v 0.2199652 0.02637038 -0.1469764
v 0.1926132 0.004976951 -0.1287004
v 0.2444123 0.02637035 -0.1012392
v 0.2199652 0.02637038 -0.1469764
v 0.1870649 0.02637039 -0.1870654
v 0.163804 0.004976967 -0.1638044
v 0.1469759 0.02637041 -0.2199655
v 0.1286999 0.004976981 -0.1926136
v 0.1012386 0.02637042 -0.2444126
v 0.08864988 0.004976992 -0.2140207
v 0.05161076 0.02637043 -0.2594669
v 0.04519313 0.004976998 -0.227203
v 0 0.02637043 -0.2645501
v -1.178415E-09 0.004977001 -0.2316541
v 0 0.03500545 -0.2645501
v 0.05161076 0.03500545 -0.2594669
v 0.1012386 0.03500544 -0.2444126
v -0.05161116 0.02637043 -0.2594668
v -0.04519348 0.004976998 -0.2272029
v -0.1012389 0.02637042 -0.2444124
v -0.0886502 0.004976992 -0.2140205
v -0.1469762 0.02637041 -0.2199654
v -0.1287001 0.004976981 -0.1926134
v -0.1870651 0.02637039 -0.1870651
v -0.1638042 0.004976967 -0.1638042
v -0.2199654 0.02637038 -0.1469761
v -0.1926134 0.004976951 -0.1287001
v -0.2199654 0.03500539 -0.1469761
v -0.1870651 0.03500541 -0.1870651
v -0.2444124 0.02637035 -0.1012389
v -0.2140205 0.004976931 -0.08865019
v -0.2444124 0.03500537 -0.1012389
v -0.2594668 0.02637033 -0.05161116
v -0.227203 0.00497691 -0.04519349
v -0.2594668 0.03500535 -0.05161115
v -0.2645501 0.03500532 -2.863703E-09
v -0.2645501 0.0263703 -7.084172E-09
v -0.2316541 0.004976888 -2.226361E-08
v -0.2316541 0.01563016 -1.70567E-08
v -0.2444124 0.2025247 -0.1012388
v -0.2199654 0.2025248 -0.146976
v -0.1870651 0.03500541 -0.1870651
v -0.2594668 0.2025247 -0.05161107
v -0.2594668 0.03500535 -0.05161115
v -0.1870651 0.2025248 -0.1870651
v -0.1469762 0.03500543 -0.2199654
v -0.2645501 0.2025247 7.901339E-08
v -0.2645501 0.03500532 -2.863703E-09
v -0.2316541 0.2223035 8.395738E-08
v -0.2645501 0.2094327 8.238978E-08
v -0.2316541 0.2308261 8.812292E-08
v -0.2594668 0.2094327 -0.05161107
v -0.227203 0.2308261 -0.04519338
v -0.2444124 0.2094327 -0.1012388
v -0.2140205 0.2308261 -0.08865008
v -0.2199654 0.2094328 -0.146976
v -0.1926134 0.2308261 -0.1287
v -0.1870651 0.2094328 -0.1870651
v -0.1638042 0.2308262 -0.1638041
v -0.1469762 0.2025248 -0.2199653
v -0.1469762 0.2094328 -0.2199653
v -0.1287001 0.2308262 -0.1926133
v -0.1012389 0.2094328 -0.2444123
v -0.0886502 0.2308262 -0.2140204
v -0.1012389 0.2025248 -0.2444123
v -0.05161116 0.2094328 -0.2594667
v -0.04519348 0.2308262 -0.2272028
v -0.1012389 0.03500544 -0.2444124
v -0.1469762 0.02637041 -0.2199654
v -0.05161116 0.03500545 -0.2594668
v -0.05161116 0.2025248 -0.2594667
v 0 0.2094328 -0.26455
v -1.178415E-09 0.2308262 -0.231654
v 0 0.2025248 -0.26455
v 0.05161076 0.2094328 -0.2594668
v 0.04519313 0.2308262 -0.2272029
v 0 0.03500545 -0.2645501
v -0.05161116 0.02637043 -0.2594668
v 0.05161076 0.2025248 -0.2594668
v 0.1012386 0.03500544 -0.2444126
v 0.1012386 0.2094328 -0.2444125
v 0.08864988 0.2308262 -0.2140205
v 0.1012386 0.2025248 -0.2444125
v 0.1469759 0.2094328 -0.2199655
v 0.1469759 0.2025248 -0.2199655
v 0.1870649 0.2025248 -0.1870653
v 0.1870649 0.03500541 -0.1870654
v 0.2199652 0.02637038 -0.1469764
v 0.1469759 0.03500543 -0.2199655
v 0.1469759 0.02637041 -0.2199655
v 0.1870649 0.02637039 -0.1870654
v 0.1870649 0.03500541 -0.1870654
v 0.1469759 0.02637041 -0.2199655
v -0.05161116 0.02637043 -0.2594668
v -0.1012389 0.03500544 -0.2444124
v -0.1012389 0.02637042 -0.2444124
v -0.1469762 0.02637041 -0.2199654
v -0.1870651 0.02637039 -0.1870651
vt 0.5975449 0.009607388
vt 0.5975449 0.009607388
vt 0.6913415 0.03806023
vt 0.6913415 0.03806031
vt 0.777785 0.08426528
vt 0.777785 0.08426528
vt 0.8535536 0.1464467
vt 0.8535536 0.1464467
vt 0.9157347 0.222215
vt 0.9157347 0.2222151
vt 0.9619399 0.3086587
vt 0.9619399 0.3086587
vt 0.9903927 0.4024553
vt 0.9903927 0.4024553
vt 1 0.5000004
vt 1 0.5000004
vt 0.6913415 0.03806036
vt 0.777785 0.08426528
vt 0.8535536 0.1464467
vt 0.9157347 0.2222151
vt 0.9619399 0.3086588
vt 0.9903927 0.4024553
vt 0.5975449 0.009607388
vt 0.6913415 0.0380604
vt 0.777785 0.08426528
vt 0.8535536 0.1464467
vt 0.9157347 0.2222152
vt 0.9619399 0.3086588
vt 0.5975449 0.009607388
vt 0.6675491 0.09550111
vt 0.7432433 0.1359606
vt 0.585416 0.07058617
vt 0.8095903 0.1904101
vt 0.8640394 0.2567567
vt 0.5 0.0621735
vt 0.9044992 0.3324513
vt 0.5 0
vt 0.5 0.06217346
vt 0.9903927 0.4024553
vt 0.929414 0.4145846
vt 0.5 0
vt 0.5 0.06217341
vt 0.5 0
vt 0.5 0.06217333
vt 0.5975449 0.009607388
vt 0.5 0
vt 0.585416 0.07058617
vt 0.6675491 0.09550077
vt 0.6913415 0.03806023
vt 0.7432433 0.1359605
vt 0.777785 0.08426528
vt 0.8095903 0.1904101
vt 0.8535536 0.1464467
vt 0.8640394 0.2567567
vt 0.9157347 0.222215
vt 0.9044992 0.3324513
vt 0.9619399 0.3086587
vt 0.929414 0.4145844
vt 0.9903927 0.4024553
vt 0.9378265 0.5000004
vt 1 0.5000004
vt 0.9294133 0.5854161
vt 0.9903924 0.5975457
vt 0.9044989 0.6675494
vt 0.9619396 0.6913422
vt 0.864039 0.7432438
vt 0.9903924 0.5975457
vt 0.9157344 0.7777855
vt 0.8095893 0.8095904
vt 1 0.5000004
vt 0.9619396 0.6913422
vt 0.8535529 0.8535538
vt 0.7432426 0.8640398
vt 1 0.5000004
vt 0.9378265 0.5000004
vt 0.9903924 0.5975457
vt 0.9903924 0.5975457
vt 0.9294133 0.5854163
vt 0.9619396 0.6913422
vt 0.9619396 0.6913422
vt 0.9157344 0.7777855
vt 0.9157344 0.7777856
vt 0.9619396 0.6913422
vt 0.9044989 0.6675494
vt 0.9157344 0.7777857
vt 0.864039 0.7432438
vt 0.9619396 0.6913422
vt 0.9157344 0.7777857
vt 0.8535529 0.8535538
vt 0.8095893 0.8095904
vt 0.7777843 0.9157352
vt 0.7432426 0.8640398
vt 0.6913409 0.9619401
vt 0.6675484 0.9044994
vt 0.5975442 0.9903927
vt 0.5854146 0.9294138
vt 0.4999996 0.9999999
vt 0.4999996 0.9378265
vt 0.4999996 0.9999999
vt 0.5975442 0.9903927
vt 0.6913409 0.9619401
vt 0.4024547 0.9903927
vt 0.414584 0.9294138
vt 0.3086581 0.9619396
vt 0.3324505 0.9044991
vt 0.2222146 0.9157349
vt 0.2567563 0.8640395
vt 0.1464464 0.8535532
vt 0.19041 0.8095901
vt 0.08426492 0.7777849
vt 0.1359603 0.7432434
vt 0.08426492 0.7777849
vt 0.1464464 0.8535532
vt 0.0380604 0.6913415
vt 0.09550074 0.6675491
vt 0.0380604 0.6913415
vt 0.009607214 0.5975451
vt 0.07058599 0.5854159
vt 0.009607214 0.5975451
vt 0 0.4999999
vt 0 0.4999999
vt 0.06217349 0.4999999
vt 0.06217349 0.4999999
vt 0.0380604 0.6913415
vt 0.08426492 0.7777849
vt 0.1464464 0.8535532
vt 0.009607214 0.5975451
vt 0.009607214 0.5975451
vt 0.1464464 0.8535532
vt 0.2222146 0.9157348
vt 0 0.4999999
vt 0 0.4999999
vt 0.06217349 0.4999999
vt 0 0.4999999
vt 0.06217349 0.4999999
vt 0.009607214 0.597545
vt 0.07058599 0.5854157
vt 0.0380604 0.6913415
vt 0.09550074 0.6675489
vt 0.08426492 0.7777849
vt 0.1359603 0.7432432
vt 0.1464464 0.8535532
vt 0.19041 0.8095901
vt 0.2222146 0.9157348
vt 0.2222146 0.9157347
vt 0.2567563 0.8640395
vt 0.3086581 0.9619396
vt 0.3324505 0.9044991
vt 0.3086581 0.9619396
vt 0.4024547 0.9903926
vt 0.414584 0.9294138
vt 0.3086581 0.9619396
vt 0.2222146 0.9157349
vt 0.4024547 0.9903927
vt 0.4024547 0.9903927
vt 0.4999996 0.9999999
vt 0.4999996 0.9378263
vt 0.4999996 0.9999999
vt 0.5975442 0.9903927
vt 0.5854146 0.9294138
vt 0.4999996 0.9999999
vt 0.4024547 0.9903927
vt 0.5975442 0.9903927
vt 0.6913409 0.9619401
vt 0.6913409 0.9619401
vt 0.6675484 0.9044992
vt 0.6913409 0.9619401
vt 0.7777843 0.915735
vt 0.7777843 0.9157351
vt 0.8535529 0.8535538
vt 0.8535529 0.8535538
vt 0.9157344 0.7777857
vt 0.7777843 0.9157351
vt 0.7777843 0.9157352
vt 0.8535529 0.8535538
vt 0.8535529 0.8535538
vt 0.7777843 0.9157352
vt 0.4024547 0.9903927
vt 0.3086581 0.9619396
vt 0.3086581 0.9619396
vt 0.2222146 0.9157349
vt 0.1464464 0.8535532
vn 0.1950909 0 0.9807851
vn 0.1727352 0.4648127 0.8683961
vn 0.3388321 0.4648125 0.8180111
vn 0.3826842 0 0.9238792
vn 0.4919075 0.4648129 0.7361903
vn 0.5555709 0 0.8314691
vn 0.6260789 0.4648128 0.6260785
vn 0.7071071 0 0.7071064
vn 0.7361907 0.4648128 0.4919069
vn 0.8314698 0 0.5555699
vn 0.8180112 0.464813 0.3388311
vn 0.9238797 0 0.3826829
vn 0.8683962 0.4648128 0.1727342
vn 0.9807854 0 0.1950895
vn 0.8854089 0.4648131 0
vn 1 0 0
vn 0.3826839 0 0.9238794
vn 0.5555707 0 0.8314693
vn 0.7071072 0 0.7071063
vn 0.83147 0 0.5555697
vn 0.9238799 0 0.3826826
vn 0.9807854 0 0.1950895
vn 0.1950909 0 0.9807851
vn 0.3388317 -0.4648133 0.8180109
vn 0.4919072 -0.4648133 0.7361901
vn 0.626079 -0.4648133 0.6260781
vn 0.7361907 -0.4648132 0.4919063
vn 0.8180115 -0.4648132 0.3388303
vn 0.1727352 -0.4648133 0.8683957
vn 0.1150025 -0.9537861 0.2776083
vn 0.1669515 -0.9537862 0.2498381
vn 0.05858631 -0.9537862 0.2947194
vn 0.2124676 -0.9537861 0.2124842
vn 0.2498388 -0.9537861 0.166951
vn -0.4049012 -0.838502 0.3646496
vn 0.2776088 -0.9537861 0.1150018
vn -0.5809926 -0.3783157 0.7206421
vn -0.9977998 -0.06125352 -0.02536566
vn 0.8683961 -0.4648132 0.1727335
vn 0.2947199 -0.9537861 0.0585855
vn -0.6715587 0 0.7409514
vn -0.9977998 -0.0612535 -0.02536569
vn -0.6715585 0 0.7409515
vn -0.5472522 0.6812311 0.4862502
vn 0.1727352 0.4648127 0.8683961
vn -0.5809926 0.3783151 0.7206422
vn 0.05858631 0.9537858 0.2947208
vn 0.1150028 0.9537857 0.2776098
vn 0.3388321 0.4648125 0.8180111
vn 0.1669518 0.9537859 0.2498393
vn 0.4919075 0.4648129 0.7361903
vn 0.2124681 0.9537858 0.2124852
vn 0.6260789 0.4648128 0.6260785
vn 0.249839 0.9537859 0.166952
vn 0.7361907 0.4648128 0.4919069
vn 0.277609 0.953786 0.1150027
vn 0.8180112 0.464813 0.3388311
vn 0.2947203 0.953786 0.05858631
vn 0.8683962 0.4648128 0.1727342
vn 0.3004866 0.9537861 1.227483E-05
vn 0.8854089 0.4648131 0
vn 0.2947194 0.9537862 -0.05858614
vn 0.8683956 0.4648136 -0.1727353
vn 0.277608 0.9537862 -0.1150021
vn 0.8180109 0.4648134 -0.3388315
vn 0.2498381 0.9537862 -0.1669511
vn 0.980785 0 -0.1950914
vn 0.73619 0.4648135 -0.4919071
vn 0.2124842 0.9537862 -0.2124671
vn 1 0 0
vn 0.9238793 0 -0.3826841
vn 0.6260778 0.4648134 -0.6260791
vn 0.166951 0.9537862 -0.2498382
vn 0.8854089 -0.4648131 0
vn 0.3004865 -0.9537861 1.138263E-05
vn 0.980785 0 -0.1950918
vn 0.8683957 -0.464813 -0.1727364
vn 0.2947199 -0.953786 -0.05858724
vn 0.9238791 0 -0.3826844
vn 0.9238791 0 -0.3826844
vn 0.8314691 0 -0.5555709
vn 0.8314691 0 -0.5555711
vn 0.8180107 -0.4648129 -0.3388324
vn 0.2776087 -0.953786 -0.1150034
vn 0.73619 -0.4648131 -0.4919077
vn 0.2498384 -0.9537861 -0.1669519
vn 0.8180107 -0.4648129 -0.3388324
vn 0.73619 -0.4648131 -0.4919077
vn 0.6260777 -0.4648132 -0.6260795
vn 0.2124842 -0.9537861 -0.2124679
vn 0.4919059 -0.4648131 -0.7361912
vn 0.1669512 -0.953786 -0.2498391
vn 0.3388299 -0.4648128 -0.8180118
vn 0.1150021 -0.9537859 -0.2776095
vn 0.1727336 -0.464813 -0.8683962
vn 0.05858587 -0.9537859 -0.2947204
vn 0 -0.4648131 -0.8854088
vn 1.2137E-05 -0.9537861 -0.3004866
vn 0 0 -1
vn 0.1950891 0 -0.9807854
vn 0.3826819 0 -0.9238801
vn -0.1727348 -0.4648129 -0.868396
vn -0.05858617 -0.9537859 -0.2947204
vn -0.3388312 -0.4648129 -0.8180112
vn -0.1150025 -0.9537859 -0.2776094
vn -0.4919069 -0.4648129 -0.7361906
vn -0.1669516 -0.9537859 -0.2498391
vn -0.6260786 -0.464813 -0.6260787
vn -0.2124847 -0.953786 -0.2124679
vn -0.7361905 -0.4648129 -0.4919069
vn -0.2498387 -0.953786 -0.1669518
vn -0.8314696 0 -0.5555702
vn -0.7071068 0 -0.7071067
vn -0.8180111 -0.464813 -0.3388314
vn -0.2776088 -0.953786 -0.115003
vn -0.9238795 0 -0.3826834
vn -0.8683958 -0.464813 -0.1727353
vn -0.2947198 -0.9537861 -0.05858693
vn -0.9807853 0 -0.1950906
vn -0.7409511 0 0.6715589
vn -0.7206419 -0.3783158 0.5809925
vn -0.4742528 -0.6706598 0.5703505
vn 0.04120194 0.07455066 0.9963657
vn -0.9238796 0 -0.3826833
vn -0.8314697 0 -0.5555701
vn -0.7071068 0 -0.7071067
vn -0.9807853 0 -0.1950905
vn -0.9807853 0 -0.1950906
vn -0.7071068 0 -0.7071066
vn -0.5555704 0 -0.8314695
vn -0.7409511 0 0.671559
vn -0.7409511 0 0.6715589
vn 0.04120194 0.07455066 0.9963657
vn -0.7206419 0.378315 0.5809931
vn -0.4626327 0.7786388 0.4239015
vn -0.8683958 0.4648134 -0.1727347
vn -0.2947198 0.9537861 -0.05858574
vn -0.8180111 0.4648134 -0.3388309
vn -0.2776084 0.9537862 -0.1150019
vn -0.7361906 0.4648134 -0.4919064
vn -0.2498385 0.9537862 -0.1669508
vn -0.6260787 0.4648133 -0.6260784
vn -0.2124675 0.9537861 -0.2124841
vn -0.5555704 0 -0.8314695
vn -0.4919069 0.4648132 -0.7361904
vn -0.1669514 0.9537862 -0.2498381
vn -0.3388311 0.4648138 -0.8180109
vn -0.1150023 0.9537863 -0.2776076
vn -0.3826833 0 -0.9238795
vn -0.1727348 0.4648138 -0.8683956
vn -0.05858626 0.9537864 -0.2947184
vn -0.3826834 0 -0.9238795
vn -0.4919069 -0.4648129 -0.7361906
vn -0.1950905 0 -0.9807853
vn -0.1950904 0 -0.9807853
vn 0 0.4648137 -0.8854085
vn 1.21519E-05 0.9537866 -0.3004851
vn 0 0 -1
vn 0.1727337 0.4648138 -0.8683958
vn 0.0585857 0.9537864 -0.2947188
vn 0 0 -1
vn -0.1727348 -0.4648129 -0.868396
vn 0.1950892 0 -0.9807854
vn 0.3826819 0 -0.9238801
vn 0.3388296 0.4648137 -0.8180114
vn 0.1150015 0.9537864 -0.2776076
vn 0.3826817 0 -0.9238802
vn 0.4919058 0.4648133 -0.7361911
vn 0.5555691 0 -0.8314704
vn 0.7071059 0 -0.7071076
vn 0.7071058 0 -0.7071077
vn 0.73619 -0.4648131 -0.4919077
vn 0.5555692 0 -0.8314703
vn 0.4919059 -0.4648131 -0.7361912
vn 0.6260777 -0.4648132 -0.6260795
vn 0.7071058 0 -0.7071077
vn 0.4919059 -0.4648131 -0.7361912
vn -0.1727348 -0.4648129 -0.868396
vn -0.3826834 0 -0.9238795
vn -0.3388312 -0.4648129 -0.8180112
vn -0.4919069 -0.4648129 -0.7361906
vn -0.6260786 -0.464813 -0.6260787
g Pacman_0
f 3/3/3 2/2/2 1/1/1
f 4/4/4 3/3/3 1/1/1
f 5/5/5 3/3/3 4/4/4
f 6/6/6 5/5/5 4/4/4
f 7/7/7 5/5/5 6/6/6
f 8/8/8 7/7/7 6/6/6
f 9/9/9 7/7/7 8/8/8
f 10/10/10 9/9/9 8/8/8
f 11/11/11 9/9/9 10/10/10
f 12/12/12 11/11/11 10/10/10
f 13/13/13 11/11/11 12/12/12
f 14/14/14 13/13/13 12/12/12
f 15/15/15 13/13/13 14/14/14
f 16/16/16 15/15/15 14/14/14
f 6/6/6 4/4/4 17/17/17
f 8/8/8 6/6/6 18/18/18
f 18/18/18 6/6/6 17/17/17
f 10/10/10 8/8/8 19/19/19
f 19/19/19 8/8/8 18/18/18
f 12/12/12 10/10/10 20/20/20
f 20/20/20 10/10/10 19/19/19
f 14/14/14 12/12/12 21/21/21
f 21/21/21 12/12/12 20/20/20
f 16/16/16 14/14/14 22/22/22
f 22/22/22 14/14/14 21/21/21
f 17/17/17 4/4/4 23/23/23
f 4/4/4 1/1/1 23/23/23
f 18/18/18 17/17/17 24/24/24
f 19/19/19 18/18/18 25/25/25
f 25/25/25 18/18/18 24/24/24
f 20/20/20 19/19/19 26/26/26
f 26/26/26 19/19/19 25/25/25
f 21/21/21 20/20/20 27/27/27
f 27/27/27 20/20/20 26/26/26
f 22/22/22 21/21/21 28/28/28
f 28/28/28 21/21/21 27/27/27
f 17/17/17 23/23/23 29/29/29
f 24/24/24 17/17/17 29/29/29
f 24/24/24 30/30/30 25/25/25
f 30/30/30 31/31/31 25/25/25
f 25/25/25 31/31/31 26/26/26
f 32/32/32 30/30/30 24/24/24
f 29/29/29 32/32/32 24/24/24
f 31/31/31 33/33/33 26/26/26
f 26/26/26 33/33/33 27/27/27
f 33/33/33 34/34/34 27/27/27
f 27/27/27 34/34/34 28/28/28
f 35/35/35 32/32/32 29/29/29
f 34/34/34 36/36/36 28/28/28
f 37/37/37 35/35/35 29/29/29
f 29/29/29 23/23/23 37/37/37
f 38/38/38 35/35/35 37/37/37
f 28/28/28 36/36/36 39/39/39
f 36/36/36 40/40/40 39/39/39
f 39/39/39 22/22/22 28/28/28
f 23/23/23 41/41/41 37/37/37
f 41/41/41 38/38/38 37/37/37
f 23/23/23 1/1/1 41/41/41
f 42/42/42 38/38/38 41/41/41
f 1/1/1 43/43/43 41/41/41
f 43/43/43 42/42/42 41/41/41
f 44/44/44 42/42/42 43/43/43
f 1/1/1 45/45/45 43/43/43
f 46/46/46 44/44/44 43/43/43
f 45/45/45 46/46/46 43/43/43
f 47/47/47 44/44/44 46/46/46
f 45/45/45 47/47/47 46/46/46
f 48/48/48 47/47/47 45/45/45
f 49/49/49 48/48/48 45/45/45
f 50/50/50 48/48/48 49/49/49
f 51/51/51 50/50/50 49/49/49
f 52/52/52 50/50/50 51/51/51
f 53/53/53 52/52/52 51/51/51
f 54/54/54 52/52/52 53/53/53
f 55/55/55 54/54/54 53/53/53
f 56/56/56 54/54/54 55/55/55
f 57/57/57 56/56/56 55/55/55
f 58/58/58 56/56/56 57/57/57
f 59/59/59 58/58/58 57/57/57
f 60/60/60 58/58/58 59/59/59
f 61/61/61 60/60/60 59/59/59
f 62/62/62 60/60/60 61/61/61
f 63/63/63 62/62/62 61/61/61
f 64/64/64 62/62/62 63/63/63
f 63/63/63 61/61/61 16/16/16
f 65/65/65 64/64/64 63/63/63
f 66/66/66 64/64/64 65/65/65
f 67/67/67 63/63/63 16/16/16
f 65/65/65 63/63/63 67/67/67
f 68/68/68 66/66/66 65/65/65
f 69/69/69 66/66/66 68/68/68
f 67/67/67 16/16/16 70/70/70
f 70/70/70 16/16/16 22/22/22
f 70/70/70 22/22/22 39/39/39
f 71/71/71 65/65/65 67/67/67
f 68/68/68 65/65/65 71/71/71
f 72/72/72 69/69/69 68/68/68
f 73/73/73 69/69/69 72/72/72
f 74/74/74 70/70/70 39/39/39
f 39/39/39 40/40/40 74/74/74
f 40/40/40 75/75/75 74/74/74
f 76/76/76 67/67/67 70/70/70
f 76/76/76 70/70/70 74/74/74
f 71/71/71 67/67/67 76/76/76
f 74/74/74 75/75/75 77/77/77
f 77/77/77 76/76/76 74/74/74
f 75/75/75 78/78/78 77/77/77
f 79/79/79 71/71/71 76/76/76
f 80/80/80 76/76/76 77/77/77
f 81/81/81 68/68/68 71/71/71
f 81/81/81 71/71/71 79/79/79
f 72/72/72 68/68/68 81/81/81
f 82/82/82 81/81/81 79/79/79
f 77/77/77 78/78/78 83/83/83
f 83/83/83 80/80/80 77/77/77
f 78/78/78 84/84/84 83/83/83
f 83/83/83 84/84/84 85/85/85
f 84/84/84 86/86/86 85/85/85
f 82/82/82 80/80/80 87/87/87
f 88/88/88 82/82/82 87/87/87
f 85/85/85 86/86/86 89/89/89
f 86/86/86 90/90/90 89/89/89
f 89/89/89 90/90/90 91/91/91
f 90/90/90 92/92/92 91/91/91
f 91/91/91 92/92/92 93/93/93
f 92/92/92 94/94/94 93/93/93
f 93/93/93 94/94/94 95/95/95
f 94/94/94 96/96/96 95/95/95
f 95/95/95 96/96/96 97/97/97
f 96/96/96 98/98/98 97/97/97
f 97/97/97 99/99/99 95/95/95
f 99/99/99 100/100/100 95/95/95
f 95/95/95 100/100/100 93/93/93
f 100/100/100 101/101/101 93/93/93
f 97/97/97 98/98/98 102/102/102
f 98/98/98 103/103/103 102/102/102
f 102/102/102 103/103/103 104/104/104
f 103/103/103 105/105/105 104/104/104
f 104/104/104 105/105/105 106/106/106
f 105/105/105 107/107/107 106/106/106
f 106/106/106 107/107/107 108/108/108
f 107/107/107 109/109/109 108/108/108
f 108/108/108 109/109/109 110/110/110
f 109/109/109 111/111/111 110/110/110
f 110/110/110 112/112/112 108/108/108
f 112/112/112 113/113/113 108/108/108
f 110/110/110 111/111/111 114/114/114
f 111/111/111 115/115/115 114/114/114
f 116/116/116 112/112/112 110/110/110
f 114/114/114 116/116/116 110/110/110
f 114/114/114 115/115/115 117/117/117
f 115/115/115 118/118/118 117/117/117
f 119/119/119 116/116/116 114/114/114
f 117/117/117 119/119/119 114/114/114
f 120/120/120 119/119/119 117/117/117
f 117/117/117 118/118/118 121/121/121
f 121/121/121 120/120/120 117/117/117
f 118/118/118 122/122/122 121/121/121
f 121/121/121 122/122/122 120/120/120
f 122/122/122 123/123/123 120/120/120
f 116/116/116 124/124/124 112/112/112
f 124/124/124 125/125/125 112/112/112
f 112/112/112 125/125/125 126/126/126
f 127/127/127 124/124/124 116/116/116
f 128/128/128 127/127/127 116/116/116
f 125/125/125 129/129/129 126/126/126
f 126/126/126 129/129/129 130/130/130
f 131/131/131 127/127/127 128/128/128
f 132/132/132 131/131/131 128/128/128
f 132/132/132 123/123/123 131/131/131
f 123/123/123 133/133/133 131/131/131
f 131/131/131 133/133/133 134/134/134
f 131/131/131 134/134/134 127/127/127
f 133/133/133 135/135/135 134/134/134
f 134/134/134 136/136/136 127/127/127
f 134/134/134 135/135/135 136/136/136
f 127/127/127 136/136/136 124/124/124
f 135/135/135 137/137/137 136/136/136
f 136/136/136 138/138/138 124/124/124
f 136/136/136 137/137/137 138/138/138
f 124/124/124 138/138/138 125/125/125
f 137/137/137 139/139/139 138/138/138
f 138/138/138 140/140/140 125/125/125
f 138/138/138 139/139/139 140/140/140
f 139/139/139 141/141/141 140/140/140
f 125/125/125 140/140/140 129/129/129
f 140/140/140 141/141/141 142/142/142
f 140/140/140 142/142/142 129/129/129
f 141/141/141 143/143/143 142/142/142
f 129/129/129 142/142/142 144/144/144
f 129/129/129 144/144/144 130/130/130
f 142/142/142 143/143/143 145/145/145
f 142/142/142 145/145/145 144/144/144
f 143/143/143 146/146/146 145/145/145
f 145/145/145 146/146/146 147/147/147
f 146/146/146 148/148/148 147/147/147
f 144/144/144 145/145/145 149/149/149
f 145/145/145 147/147/147 149/149/149
f 147/147/147 148/148/148 150/150/150
f 148/148/148 151/151/151 150/150/150
f 130/130/130 144/144/144 152/152/152
f 144/144/144 149/149/149 152/152/152
f 130/130/130 152/152/152 104/104/104
f 153/153/153 130/130/130 104/104/104
f 152/152/152 149/149/149 154/154/154
f 149/149/149 147/147/147 155/155/155
f 147/147/147 150/150/150 155/155/155
f 149/149/149 155/155/155 154/154/154
f 150/150/150 151/151/151 156/156/156
f 151/151/151 157/157/157 156/156/156
f 155/155/155 150/150/150 158/158/158
f 150/150/150 156/156/156 158/158/158
f 156/156/156 157/157/157 159/159/159
f 157/157/157 160/160/160 159/159/159
f 154/154/154 155/155/155 161/161/161
f 155/155/155 158/158/158 161/161/161
f 154/154/154 161/161/161 97/97/97
f 162/162/162 154/154/154 97/97/97
f 161/161/161 158/158/158 100/100/100
f 158/158/158 156/156/156 163/163/163
f 158/158/158 163/163/163 100/100/100
f 156/156/156 159/159/159 163/163/163
f 100/100/100 163/163/163 164/164/164
f 159/159/159 160/160/160 165/165/165
f 160/160/160 166/166/166 165/165/165
f 163/163/163 159/159/159 167/167/167
f 163/163/163 167/167/167 164/164/164
f 159/159/159 165/165/165 167/167/167
f 165/165/165 166/166/166 168/168/168
f 166/166/166 73/73/73 168/168/168
f 168/168/168 73/73/73 72/72/72
f 167/167/167 165/165/165 169/169/169
f 165/165/165 168/168/168 169/169/169
f 168/168/168 72/72/72 170/170/170
f 169/169/169 168/168/168 170/170/170
f 170/170/170 72/72/72 81/81/81
f 170/170/170 81/81/81 82/82/82
f 171/171/171 170/170/170 82/82/82
f 169/169/169 170/170/170 171/171/171
f 171/171/171 82/82/82 172/172/172
f 89/89/89 171/171/171 172/172/172
f 173/173/173 169/169/169 171/171/171
f 167/167/167 169/169/169 173/173/173
f 164/164/164 167/167/167 173/173/173
f 164/164/164 173/173/173 174/174/174
f 93/93/93 164/164/164 174/174/174
f 173/173/173 176/176/176 175/175/175
f 177/177/177 173/173/173 175/175/175
f 180/180/180 179/179/179 178/178/178
f 179/179/179 154/154/154 178/178/178
f 182/182/182 113/113/113 181/181/181
f 113/113/113 130/130/130 181/181/181
