g Pickaxe
v -0.05788485 0.7141888 -0.01544288
v -0.02864876 0.7141888 -0.04465737
v 0.02864876 0.7141888 -0.04465737
v 0.05788485 0.7141888 -0.01544288
v 0.05788485 0.7141888 0.01544287
v -0.05788485 0.7141888 0.01544287
v 0.02864876 0.7141888 0.04465736
v -0.02864876 0.7141888 0.04465736
v -0.09545255 0.4847789 0.0784594
v -0.09545255 0.6519173 0.0784594
v 0.09545255 0.6519173 0.0784594
v 0.09545255 0.4847789 0.0784594
v 0.09545255 0.4847789 -0.0784594
v 0.09545255 0.6519173 -0.0784594
v -0.09545255 0.6519173 -0.0784594
v -0.09545255 0.4847789 -0.0784594
v 0.08203294 0.6684086 -0.06196822
v 0.08203294 0.6684086 0.06196822
v -0.08203296 0.6684086 0.06196822
v -0.08203296 0.6684086 -0.06196822
v 0.09545255 0.4847789 0.0784594
v 0.09545255 0.6519173 0.0784594
v 0.09545255 0.6519173 -0.0784594
v 0.09545255 0.4847789 -0.0784594
v -0.08203296 0.6684086 0.06196822
v -0.09545255 0.6519173 0.0784594
v -0.09545255 0.6519173 -0.0784594
v -0.08203296 0.6684086 -0.06196822
v -0.08203296 0.6684086 -0.06196822
v -0.09545255 0.6519173 -0.0784594
v 0.09545255 0.6519173 -0.0784594
v 0.08203294 0.6684086 -0.06196822
v 0.08203294 0.6684086 -0.06196822
v 0.09545255 0.6519173 -0.0784594
v 0.09545255 0.6519173 0.0784594
v 0.08203294 0.6684086 0.06196822
v 0.08203294 0.6684086 0.06196822
v 0.09545255 0.6519173 0.0784594
v -0.09545255 0.6519173 0.0784594
v -0.08203296 0.6684086 0.06196822
v 0.07885327 0.4643803 -0.05806076
v -0.07885329 0.4643803 -0.05806076
v -0.07885329 0.4643803 0.05806075
v 0.07885327 0.4643803 0.05806075
v -0.09545255 0.4847789 0.0784594
v -0.07885329 0.4643803 0.05806075
v -0.07885329 0.4643803 -0.05806076
v -0.09545255 0.4847789 -0.0784594
v -0.09545255 0.4847789 -0.0784594
v -0.07885329 0.4643803 -0.05806076
v 0.07885327 0.4643803 -0.05806076
v 0.09545255 0.4847789 -0.0784594
v 0.09545255 0.4847789 -0.0784594
v 0.07885327 0.4643803 -0.05806076
v 0.07885327 0.4643803 0.05806075
v 0.09545255 0.4847789 0.0784594
v 0.09545255 0.4847789 0.0784594
v 0.07885327 0.4643803 0.05806075
v -0.07885329 0.4643803 0.05806075
v -0.09545255 0.4847789 0.0784594
v -0.09545255 0.4847789 -0.0784594
v -0.09545255 0.6519173 -0.0784594
v -0.09545255 0.6519173 0.0784594
v -0.09545255 0.4847789 0.0784594
v -0.02864876 0.7141888 0.04465736
v -0.03095965 0.708231 0.05056928
v -0.06361519 0.708231 0.01794
v -0.05788485 0.7141888 0.01544287
v -0.05788485 0.7141888 -0.01544288
v -0.06361519 0.708231 -0.01794
v -0.03095965 0.708231 -0.05056929
v -0.02864876 0.7141888 -0.04465737
v 0.02864876 0.7141888 -0.04465737
v 0.03095965 0.708231 -0.05056929
v 0.06361518 0.708231 -0.01794
v 0.05788485 0.7141888 -0.01544288
v 0.05788485 0.7141888 0.01544287
v 0.06361519 0.708231 0.01794
v 0.03095965 0.708231 0.05056928
v 0.02864876 0.7141888 0.04465736
v -0.05788485 0.7141888 0.01544287
v -0.06361519 0.708231 0.01794
v -0.06361519 0.708231 -0.01794
v -0.05788485 0.7141888 -0.01544288
v 0.02864876 0.7141888 0.04465736
v 0.03095965 0.708231 0.05056928
v -0.03095965 0.708231 0.05056928
v -0.02864876 0.7141888 0.04465736
v 0.06361519 0.708231 0.01794
v 0.05788485 0.7141888 0.01544287
v 0.05788485 0.7141888 -0.01544288
v 0.06361518 0.708231 -0.01794
v 0.03095965 0.708231 -0.05056929
v 0.02864876 0.7141888 -0.04465737
v -0.02864876 0.7141888 -0.04465737
v -0.03095965 0.708231 -0.05056929
v 0.08945175 0.4733712 -0.4205579
v 0.09326334 0.4568377 -0.4887688
v 0.09298408 0.4489625 -0.4837711
v 0.08881103 0.5108785 -0.4359566
v 0.08575264 0.4967395 -0.3543601
v 0.08516293 0.5531451 -0.3543897
v 0.07887153 0.5920402 -0.2329825
v 0.07896984 0.5274855 -0.2329776
v 0.07155475 0.5561013 -0.1002799
v 0.07155475 0.6222863 -0.1002799
v 0.06031775 0.5561013 0.1008135
v 0.06031775 0.6222863 0.1008135
v 0.0538712 0.532196 0.2161787
v 0.0538712 0.5983812 0.2161787
v 0.04611985 0.5499889 0.3548939
v 0.04611986 0.4967412 0.3548939
v 0.03784373 0.4472921 0.5030004
v 0.03860779 0.4722817 0.489327
v -0.04611985 0.4967411 0.3548939
v -0.03784373 0.4472921 0.5030004
v 0.03784373 0.4472921 0.5030004
v 0.04611986 0.4967412 0.3548939
v -0.0538712 0.532196 0.2161787
v 0.0538712 0.532196 0.2161787
v -0.06031775 0.5561013 0.1008135
v 0.06031775 0.5561013 0.1008135
v -0.07155475 0.5561013 -0.1002799
v 0.07155475 0.5561013 -0.1002799
v -0.07896984 0.5274854 -0.2329776
v 0.07896984 0.5274855 -0.2329776
v -0.08575264 0.4967395 -0.3543601
v 0.08575264 0.4967395 -0.3543601
v -0.08945175 0.4733712 -0.4205579
v 0.08945175 0.4733712 -0.4205579
v -0.09298408 0.4489625 -0.4837711
v 0.09298408 0.4489625 -0.4837711
v -0.09326334 0.4568377 -0.4887688
v 0.09326334 0.4568377 -0.4887688
v 0.08881103 0.5108785 -0.4359566
v -0.08881103 0.5108785 -0.4359566
v -0.08881103 0.5108785 -0.4359566
v 0.08881103 0.5108785 -0.4359566
v 0.08516293 0.5531451 -0.3543897
v -0.08516294 0.5531451 -0.3543898
v -0.07887153 0.5920402 -0.2329825
v 0.07887153 0.5920402 -0.2329825
v 0.07155475 0.6222863 -0.1002799
v -0.07155475 0.6222863 -0.1002799
v 0.06031775 0.6222863 0.1008135
v -0.06031775 0.6222863 0.1008135
v 0.0538712 0.5983812 0.2161787
v -0.0538712 0.5983812 0.2161787
v -0.04611985 0.5499889 0.3548939
v 0.04611985 0.5499889 0.3548939
v 0.03860779 0.4722817 0.489327
v -0.03860779 0.4722817 0.489327
v 0.03860779 0.4722817 0.489327
v 0.03784373 0.4472921 0.5030004
v -0.03784373 0.4472921 0.5030004
v -0.03860779 0.4722817 0.489327
v -0.08945175 0.4733712 -0.4205579
v -0.09298408 0.4489625 -0.4837711
v -0.09326334 0.4568377 -0.4887688
v -0.08881103 0.5108785 -0.4359566
v -0.08575264 0.4967395 -0.3543601
v -0.08516294 0.5531451 -0.3543898
v -0.07896984 0.5274854 -0.2329776
v -0.07887153 0.5920402 -0.2329825
v -0.07155475 0.5561013 -0.1002799
v -0.07155475 0.6222863 -0.1002799
v -0.06031775 0.5561013 0.1008135
v -0.06031775 0.6222863 0.1008135
v -0.0538712 0.532196 0.2161787
v -0.0538712 0.5983812 0.2161787
v -0.04611985 0.4967411 0.3548939
v -0.04611985 0.5499889 0.3548939
v -0.03784373 0.4472921 0.5030004
v -0.03860779 0.4722817 0.489327
v 0.09298408 0.4489625 -0.4837711
v 0.09326334 0.4568377 -0.4887688
v -0.09326334 0.4568377 -0.4887688
v -0.09298408 0.4489625 -0.4837711
v -0.03095965 0.708231 -0.05056929
v -0.06361519 0.708231 -0.01794
v -0.04636792 0.3533691 -0.01842786
v -0.01995886 0.3533682 -0.04469112
v 0.03095965 0.708231 -0.05056929
v -0.04636792 0.3533691 0.01842785
v -0.06361519 0.708231 0.01794
v 0.01995886 0.3533682 -0.04469112
v 0.06361518 0.708231 -0.01794
v -0.01995886 0.3533682 0.04469111
v -0.03095965 0.708231 0.05056928
v 0.04636792 0.3533691 -0.01842786
v 0.06361519 0.708231 0.01794
v 0.01995886 0.3533682 0.04469111
v 0.03095965 0.708231 0.05056928
v 0.04636792 0.3533691 0.01842785
v -0.01594897 0.1803726 -0.0447653
v 0.01594898 0.1803726 -0.0447653
v -0.0410633 0.180373 -0.01986394
v 0.0410633 0.180373 -0.01986394
v -0.04106331 0.180373 0.01986393
v 0.0410633 0.180373 0.01986393
v -0.01594898 0.1803727 0.0447653
v 0.01594897 0.1803727 0.04476529
vt 0.5292969 0.34375
vt 0.5292969 0.34375
vt 0.5292969 0.34375
vt 0.5292969 0.34375
vt 0.5292969 0.34375
vt 0.5292969 0.34375
vt 0.5292969 0.34375
vt 0.5292969 0.34375
vt 0.02539068 0.28125
vt 0.02539068 0.28125
vt 0.02539068 0.28125
vt 0.02539068 0.28125
vt 0.02539068 0.28125
vt 0.02539068 0.28125
vt 0.02539068 0.28125
vt 0.02539068 0.28125
vt 0.02539068 0.28125
vt 0.02539068 0.28125
vt 0.02539068 0.28125
vt 0.02539068 0.28125
vt 0.02539068 0.28125
vt 0.02539068 0.28125
vt 0.02539068 0.28125
vt 0.02539068 0.28125
vt 0.1582032 0.2695313
vt 0.1582032 0.2695313
vt 0.1582032 0.2695313
vt 0.1582032 0.2695313
vt 0.1582032 0.2695313
vt 0.1582032 0.2695313
vt 0.1582032 0.2695313
vt 0.1582032 0.2695313
vt 0.1582032 0.2695313
vt 0.1582032 0.2695313
vt 0.1582032 0.2695313
vt 0.1582032 0.2695313
vt 0.1582032 0.2695313
vt 0.1582032 0.2695313
vt 0.1582032 0.2695313
vt 0.1582032 0.2695313
vt 0.02539068 0.28125
vt 0.02539068 0.28125
vt 0.02539068 0.28125
vt 0.02539068 0.28125
vt 0.1582032 0.2695313
vt 0.1582032 0.2695313
vt 0.1582032 0.2695313
vt 0.1582032 0.2695313
vt 0.1582032 0.2695313
vt 0.1582032 0.2695313
vt 0.1582032 0.2695313
vt 0.1582032 0.2695313
vt 0.1582032 0.2695313
vt 0.1582032 0.2695313
vt 0.1582032 0.2695313
vt 0.1582032 0.2695313
vt 0.1582032 0.2695313
vt 0.1582032 0.2695313
vt 0.1582032 0.2695313
vt 0.1582032 0.2695313
vt 0.02539068 0.28125
vt 0.02539068 0.28125
vt 0.02539068 0.28125
vt 0.02539068 0.28125
vt 0.4003907 0.3417969
vt 0.4003907 0.3417969
vt 0.4003907 0.3417969
vt 0.4003907 0.3417969
vt 0.4003907 0.3417969
vt 0.4003907 0.3417969
vt 0.4003907 0.3417969
vt 0.4003907 0.3417969
vt 0.4003907 0.3417969
vt 0.4003907 0.3417969
vt 0.4003907 0.3417969
vt 0.4003907 0.3417969
vt 0.4003907 0.3417969
vt 0.4003907 0.3417969
vt 0.4003907 0.3417969
vt 0.4003907 0.3417969
vt 0.4003907 0.3417969
vt 0.4003907 0.3417969
vt 0.4003907 0.3417969
vt 0.4003907 0.3417969
vt 0.4003907 0.3417969
vt 0.4003907 0.3417969
vt 0.4003907 0.3417969
vt 0.4003907 0.3417969
vt 0.4003907 0.3417969
vt 0.4003907 0.3417969
vt 0.4003907 0.3417969
vt 0.4003907 0.3417969
vt 0.4003907 0.3417969
vt 0.4003907 0.3417969
vt 0.4003907 0.3417969
vt 0.4003907 0.3417969
vt 0.03125006 0.28125
vt 0.03125006 0.28125
vt 0.03125006 0.28125
vt 0.03125006 0.28125
vt 0.03125006 0.28125
vt 0.03125006 0.28125
vt 0.03125006 0.28125
vt 0.03125006 0.28125
vt 0.03125006 0.28125
vt 0.03125006 0.28125
vt 0.03125006 0.28125
vt 0.03125006 0.28125
vt 0.03125006 0.28125
vt 0.03125006 0.28125
vt 0.03125006 0.28125
vt 0.03125006 0.28125
vt 0.03125006 0.28125
vt 0.03125006 0.28125
vt 0.03125006 0.28125
vt 0.03125006 0.28125
vt 0.03125006 0.28125
vt 0.03125006 0.28125
vt 0.03125006 0.28125
vt 0.03125006 0.28125
vt 0.03125006 0.28125
vt 0.03125006 0.28125
vt 0.03125006 0.28125
vt 0.03125006 0.28125
vt 0.03125006 0.28125
vt 0.03125006 0.28125
vt 0.03125006 0.28125
vt 0.03125006 0.28125
vt 0.03125006 0.28125
vt 0.03125006 0.28125
vt 0.03125006 0.28125
vt 0.03125006 0.28125
vt 0.1542969 0.2714844
vt 0.1542969 0.2714844
vt 0.1542969 0.2714844
vt 0.1542969 0.2714844
vt 0.09960943 0.2753907
vt 0.09960943 0.2753907
vt 0.09960943 0.2753907
vt 0.09960943 0.2753907
vt 0.09960943 0.2753907
vt 0.09960943 0.2753907
vt 0.09960943 0.2753907
vt 0.09960943 0.2753907
vt 0.09960943 0.2753907
vt 0.09960943 0.2753907
vt 0.09960943 0.2753907
vt 0.09960943 0.2753907
vt 0.09960943 0.2753907
vt 0.09960943 0.2753907
vt 0.09960943 0.2753907
vt 0.09960943 0.2753907
vt 0.1542969 0.2714844
vt 0.1542969 0.2714844
vt 0.1542969 0.2714844
vt 0.1542969 0.2714844
vt 0.03125006 0.28125
vt 0.03125006 0.28125
vt 0.03125006 0.28125
vt 0.03125006 0.28125
vt 0.03125006 0.28125
vt 0.03125006 0.28125
vt 0.03125006 0.28125
vt 0.03125006 0.28125
vt 0.03125006 0.28125
vt 0.03125006 0.28125
vt 0.03125006 0.28125
vt 0.03125006 0.28125
vt 0.03125006 0.28125
vt 0.03125006 0.28125
vt 0.03125006 0.28125
vt 0.03125006 0.28125
vt 0.03125006 0.28125
vt 0.03125006 0.28125
vt 0.1601563 0.28125
vt 0.1601563 0.28125
vt 0.1601563 0.28125
vt 0.1601563 0.28125
vt 0.4609375 0.3476563
vt 0.4609375 0.3476563
vt 0.4609375 0.3476563
vt 0.4609375 0.3476563
vt 0.4609375 0.3476563
vt 0.4609375 0.3476563
vt 0.4609375 0.3476563
vt 0.4609375 0.3476563
vt 0.4609375 0.3476563
vt 0.4609375 0.3476563
vt 0.4609375 0.3476563
vt 0.4609375 0.3476563
vt 0.4609375 0.3476563
vt 0.4609375 0.3476563
vt 0.4609375 0.3476563
vt 0.4609375 0.3476563
vt 0.4609375 0.3476563
vt 0.4609375 0.3476563
vt 0.4609375 0.3476563
vt 0.4609375 0.3476563
vt 0.4609375 0.3476563
vt 0.4609375 0.3476563
vt 0.4609375 0.3476563
vt 0.4609375 0.3476563
vn 0 1 0
vn 0 1 0
vn 0 1 0
vn 0 1 0
vn 0 1 0
vn 0 1 0
vn 0 1 0
vn 0 1 0
vn 0 0 1
vn 0 0 1
vn 0 0 1
vn 0 0 1
vn 0 0 -1
vn 0 0 -1
vn 0 0 -1
vn 0 0 -1
vn 0 1 0
vn 0 1 0
vn 0 1 0
vn 0 1 0
vn 1 0 0
vn 1 0 0
vn 1 0 0
vn 1 0 0
vn -0.7756429 0.6311719 0
vn -0.7756429 0.6311719 0
vn -0.7756429 0.6311719 0
vn -0.7756429 0.6311719 0
vn 0 0.7071037 -0.7071098
vn 0 0.7071037 -0.7071098
vn 0 0.7071037 -0.7071098
vn 0 0.7071037 -0.7071098
vn 0.7756427 0.6311723 0
vn 0.7756427 0.6311723 0
vn 0.7756427 0.6311723 0
vn 0.7756427 0.6311723 0
vn 0 0.7071037 0.7071098
vn 0 0.7071037 0.7071098
vn 0 0.7071037 0.7071098
vn 0 0.7071037 0.7071098
vn 0 -1 0
vn 0 -1 0
vn 0 -1 0
vn 0 -1 0
vn -0.7756416 -0.6311736 0
vn -0.7756416 -0.6311736 0
vn -0.7756416 -0.6311736 0
vn -0.7756416 -0.6311736 0
vn 0 -0.7071071 -0.7071064
vn 0 -0.7071071 -0.7071064
vn 0 -0.7071071 -0.7071064
vn 0 -0.7071071 -0.7071064
vn 0.7756414 -0.6311738 0
vn 0.7756414 -0.6311738 0
vn 0.7756414 -0.6311738 0
vn 0.7756414 -0.6311738 0
vn 0 -0.7071072 0.7071063
vn 0 -0.7071072 0.7071063
vn 0 -0.7071072 0.7071063
vn 0 -0.7071072 0.7071063
vn -1 0 0
vn -1 0 0
vn -1 0 0
vn -1 0 0
vn -0.5057945 0.6985417 0.5061734
vn -0.5057945 0.6985417 0.5061734
vn -0.5057945 0.6985417 0.5061734
vn -0.5057945 0.6985417 0.5061734
vn -0.5057894 0.6985443 -0.5061749
vn -0.5057894 0.6985443 -0.5061749
vn -0.5057894 0.6985443 -0.5061749
vn -0.5057894 0.6985443 -0.5061749
vn 0.5057945 0.6985417 -0.5061733
vn 0.5057945 0.6985417 -0.5061733
vn 0.5057945 0.6985417 -0.5061733
vn 0.5057945 0.6985417 -0.5061733
vn 0.5057895 0.6985441 0.506175
vn 0.5057895 0.6985441 0.506175
vn 0.5057895 0.6985441 0.506175
vn 0.5057895 0.6985441 0.506175
vn -0.7207277 0.6932183 0
vn -0.7207277 0.6932183 0
vn -0.7207277 0.6932183 0
vn -0.7207277 0.6932183 0
vn 0 0.7043688 0.7098342
vn 0 0.7043688 0.7098342
vn 0 0.7043688 0.7098342
vn 0 0.7043688 0.7098342
vn 0.8686493 0.3421859 0.3582698
vn 0.4125872 0.8951241 0.1688925
vn 0.4125872 0.8951241 -0.1688925
vn 0.8686493 0.3421859 -0.3582698
vn 0.3595791 0.35317 -0.8636978
vn 0.1709376 0.8971097 -0.4073998
vn -0.1709376 0.8971097 -0.4073998
vn -0.3595791 0.35317 -0.8636978
vn 0.9983757 0.02978076 0.04857022
vn 0.9983757 0.02978076 0.04857022
vn 0.9983757 0.02978076 0.04857022
vn 0.9983757 0.02978076 0.04857022
vn 0.998968 0.0198034 0.04087456
vn 0.998968 0.0198034 0.04087456
vn 0.9984719 0.0007529104 0.05525633
vn 0.9984719 0.0007529104 0.05525633
vn 0.9984424 0 0.05579241
vn 0.9984424 0 0.05579241
vn 0.9984424 0 0.05579241
vn 0.9984424 0 0.05579241
vn 0.9984424 0 0.05579251
vn 0.9984424 0 0.05579251
vn 0.9984424 0 0.05579261
vn 0.9984424 0 0.05579261
vn 0.9984424 0 0.05579261
vn 0.9984424 0 0.05579261
vn -0.7197078 -0.6760956 -0.1578462
vn -0.5254814 -0.5443119 0.6539067
vn 0.5254814 -0.5443119 0.6539067
vn 0.7197078 -0.6760956 -0.1578462
vn -0.7156233 -0.6883388 -0.1186296
vn 0.7156233 -0.6883388 -0.1186296
vn -0.7315148 -0.6813107 -0.02649067
vn 0.7315148 -0.6813107 -0.02649067
vn -0.7286658 -0.6751359 0.1150557
vn 0.7286658 -0.6751359 0.1150557
vn -0.7070774 -0.6788469 0.198011
vn 0.7070774 -0.6788469 0.198011
vn -0.7169042 -0.6562618 0.2353057
vn 0.7169042 -0.6562618 0.2353057
vn -0.7122531 -0.6449586 0.2769907
vn 0.7122531 -0.6449586 0.2769907
vn -0.60324 -0.7588567 -0.2454344
vn 0.60324 -0.7588567 -0.2454344
vn -0.6135929 0.09720435 -0.7836166
vn 0.6135929 0.09720435 -0.7836166
vn 0.6724343 0.6119753 -0.4163153
vn -0.6724343 0.6119753 -0.4163153
vn -0.6724343 0.6119753 -0.4163153
vn 0.6724343 0.6119753 -0.4163153
vn 0.691907 0.6782343 -0.247513
vn -0.691907 0.6782343 -0.247513
vn -0.7011421 0.6963811 -0.153144
vn 0.7011421 0.6963811 -0.153144
vn 0.6840829 0.7279081 -0.04669404
vn -0.6840829 0.7279081 -0.04669404
vn 0.6818348 0.7232497 0.1095953
vn -0.6818348 0.7232497 0.1095953
vn 0.6863107 0.6907054 0.2278242
vn -0.6863107 0.6907054 0.2278242
vn -0.6772285 0.654766 0.3356233
vn 0.6772285 0.654766 0.3356233
vn 0.6352595 0.5252984 0.5661333
vn -0.6352595 0.5252984 0.5661333
vn 0.6352595 0.5252984 0.5661333
vn 0.5254814 -0.5443119 0.6539067
vn -0.5254814 -0.5443119 0.6539067
vn -0.6352595 0.5252984 0.5661333
vn -0.998968 0.01980332 0.04087466
vn -0.9983757 0.02978077 0.04857031
vn -0.9983757 0.02978077 0.04857031
vn -0.998968 0.01980332 0.04087466
vn -0.998968 0.01980332 0.04087466
vn -0.998968 0.01980332 0.04087466
vn -0.9984719 0.0007529079 0.05525636
vn -0.9984719 0.0007529079 0.05525636
vn -0.9984424 0 0.05579241
vn -0.9984424 0 0.05579241
vn -0.9984424 0 0.05579251
vn -0.9984424 0 0.05579251
vn -0.9984424 0 0.05579251
vn -0.9984424 0 0.05579251
vn -0.9984424 0 0.05579258
vn -0.9984424 0 0.05579258
vn -0.9984424 0 0.05579258
vn -0.9984424 0 0.05579258
vn 0.60324 -0.7588567 -0.2454344
vn 0.6135929 0.09720435 -0.7836166
vn -0.6135929 0.09720435 -0.7836166
vn -0.60324 -0.7588567 -0.2454344
vn -0.3595791 0.35317 -0.8636978
vn -0.8686493 0.3421859 -0.3582698
vn -0.9227903 -0.03485338 -0.3837228
vn -0.3813345 -0.01773152 -0.9242671
vn 0.3595791 0.35317 -0.8636978
vn -0.9227903 -0.03485338 0.3837228
vn -0.8686493 0.3421859 0.3582698
vn 0.3813345 -0.01773152 -0.9242671
vn 0.8686493 0.3421859 -0.3582698
vn -0.3813345 -0.01773152 0.9242671
vn -0.3595791 0.35317 0.8636978
vn 0.9227903 -0.03485338 -0.3837228
vn 0.8686493 0.3421859 0.3582698
vn 0.3813345 -0.01773152 0.9242671
vn 0.3595791 0.35317 0.8636978
vn 0.9227903 -0.03485338 0.3837228
vn -0.3761826 -0.008209729 -0.9265091
vn 0.3761826 -0.008209729 -0.9265091
vn -0.9210653 -0.02508667 -0.3885992
vn 0.9210653 -0.02508667 -0.3885992
vn -0.9210653 -0.02508667 0.3885992
vn 0.9210653 -0.02508667 0.3885992
vn -0.3761826 -0.008209729 0.9265091
vn 0.3761826 -0.008209729 0.9265091
g Pickaxe_0
f 3/3/3 2/2/2 1/1/1
f 1/1/1 4/4/4 3/3/3
f 1/1/1 5/5/5 4/4/4
f 1/1/1 6/6/6 5/5/5
f 6/6/6 7/7/7 5/5/5
f 6/6/6 8/8/8 7/7/7
f 11/11/11 10/10/10 9/9/9
f 12/12/12 11/11/11 9/9/9
f 15/15/15 14/14/14 13/13/13
f 16/16/16 15/15/15 13/13/13
f 19/19/19 18/18/18 17/17/17
f 20/20/20 19/19/19 17/17/17
f 23/23/23 22/22/22 21/21/21
f 24/24/24 23/23/23 21/21/21
f 27/27/27 26/26/26 25/25/25
f 28/28/28 27/27/27 25/25/25
f 31/31/31 30/30/30 29/29/29
f 32/32/32 31/31/31 29/29/29
f 35/35/35 34/34/34 33/33/33
f 36/36/36 35/35/35 33/33/33
f 39/39/39 38/38/38 37/37/37
f 40/40/40 39/39/39 37/37/37
f 43/43/43 42/42/42 41/41/41
f 44/44/44 43/43/43 41/41/41
f 47/47/47 46/46/46 45/45/45
f 48/48/48 47/47/47 45/45/45
f 51/51/51 50/50/50 49/49/49
f 52/52/52 51/51/51 49/49/49
f 55/55/55 54/54/54 53/53/53
f 56/56/56 55/55/55 53/53/53
f 59/59/59 58/58/58 57/57/57
f 60/60/60 59/59/59 57/57/57
f 63/63/63 62/62/62 61/61/61
f 64/64/64 63/63/63 61/61/61
f 67/67/67 66/66/66 65/65/65
f 68/68/68 67/67/67 65/65/65
f 71/71/71 70/70/70 69/69/69
f 72/72/72 71/71/71 69/69/69
f 75/75/75 74/74/74 73/73/73
f 76/76/76 75/75/75 73/73/73
f 79/79/79 78/78/78 77/77/77
f 80/80/80 79/79/79 77/77/77
f 83/83/83 82/82/82 81/81/81
f 84/84/84 83/83/83 81/81/81
f 87/87/87 86/86/86 85/85/85
f 88/88/88 87/87/87 85/85/85
f 91/91/91 90/90/90 89/89/89
f 92/92/92 91/91/91 89/89/89
f 95/95/95 94/94/94 93/93/93
f 96/96/96 95/95/95 93/93/93
f 99/99/99 98/98/98 97/97/97
f 98/98/98 100/100/100 97/97/97
f 97/97/97 100/100/100 101/101/101
f 100/100/100 102/102/102 101/101/101
f 102/102/102 103/103/103 101/101/101
f 103/103/103 104/104/104 101/101/101
f 104/104/104 103/103/103 105/105/105
f 103/103/103 106/106/106 105/105/105
f 105/105/105 106/106/106 107/107/107
f 106/106/106 108/108/108 107/107/107
f 107/107/107 108/108/108 109/109/109
f 108/108/108 110/110/110 109/109/109
f 110/110/110 111/111/111 109/109/109
f 111/111/111 112/112/112 109/109/109
f 112/112/112 111/111/111 113/113/113
f 111/111/111 114/114/114 113/113/113
f 117/117/117 116/116/116 115/115/115
f 118/118/118 117/117/117 115/115/115
f 118/118/118 115/115/115 119/119/119
f 120/120/120 118/118/118 119/119/119
f 120/120/120 119/119/119 121/121/121
f 122/122/122 120/120/120 121/121/121
f 122/122/122 121/121/121 123/123/123
f 124/124/124 122/122/122 123/123/123
f 124/124/124 123/123/123 125/125/125
f 126/126/126 124/124/124 125/125/125
f 126/126/126 125/125/125 127/127/127
f 128/128/128 126/126/126 127/127/127
f 128/128/128 127/127/127 129/129/129
f 130/130/130 128/128/128 129/129/129
f 130/130/130 129/129/129 131/131/131
f 132/132/132 130/130/130 131/131/131
f 135/135/135 134/134/134 133/133/133
f 136/136/136 135/135/135 133/133/133
f 139/139/139 138/138/138 137/137/137
f 140/140/140 139/139/139 137/137/137
f 140/140/140 141/141/141 139/139/139
f 141/141/141 142/142/142 139/139/139
f 143/143/143 142/142/142 141/141/141
f 144/144/144 143/143/143 141/141/141
f 145/145/145 143/143/143 144/144/144
f 146/146/146 145/145/145 144/144/144
f 147/147/147 145/145/145 146/146/146
f 148/148/148 147/147/147 146/146/146
f 148/148/148 149/149/149 147/147/147
f 149/149/149 150/150/150 147/147/147
f 151/151/151 150/150/150 149/149/149
f 152/152/152 151/151/151 149/149/149
f 155/155/155 154/154/154 153/153/153
f 156/156/156 155/155/155 153/153/153
f 159/159/159 158/158/158 157/157/157
f 160/160/160 159/159/159 157/157/157
f 160/160/160 157/157/157 161/161/161
f 162/162/162 160/160/160 161/161/161
f 162/162/162 161/161/161 163/163/163
f 164/164/164 162/162/162 163/163/163
f 164/164/164 163/163/163 165/165/165
f 166/166/166 164/164/164 165/165/165
f 166/166/166 165/165/165 167/167/167
f 168/168/168 166/166/166 167/167/167
f 168/168/168 167/167/167 169/169/169
f 170/170/170 168/168/168 169/169/169
f 170/170/170 169/169/169 171/171/171
f 172/172/172 170/170/170 171/171/171
f 172/172/172 171/171/171 173/173/173
f 174/174/174 172/172/172 173/173/173
f 177/177/177 176/176/176 175/175/175
f 178/178/178 177/177/177 175/175/175
f 181/181/181 180/180/180 179/179/179
f 182/182/182 181/181/181 179/179/179
f 179/179/179 183/183/183 182/182/182
f 180/180/180 181/181/181 184/184/184
f 185/185/185 180/180/180 184/184/184
f 183/183/183 186/186/186 182/182/182
f 186/186/186 183/183/183 187/187/187
f 185/185/185 184/184/184 188/188/188
f 189/189/189 185/185/185 188/188/188
f 190/190/190 186/186/186 187/187/187
f 187/187/187 191/191/191 190/190/190
f 189/189/189 188/188/188 192/192/192
f 193/193/193 189/189/189 192/192/192
f 194/194/194 191/191/191 193/193/193
f 191/191/191 194/194/194 190/190/190
f 192/192/192 194/194/194 193/193/193
f 181/181/181 182/182/182 195/195/195
f 196/196/196 195/195/195 182/182/182
f 186/186/186 196/196/196 182/182/182
f 197/197/197 181/181/181 195/195/195
f 181/181/181 197/197/197 184/184/184
f 196/196/196 186/186/186 198/198/198
f 186/186/186 190/190/190 198/198/198
f 197/197/197 199/199/199 184/184/184
f 184/184/184 199/199/199 188/188/188
f 200/200/200 198/198/198 190/190/190
f 194/194/194 200/200/200 190/190/190
f 199/199/199 201/201/201 188/188/188
f 188/188/188 201/201/201 192/192/192
f 200/200/200 194/194/194 202/202/202
f 201/201/201 202/202/202 192/192/192
f 194/194/194 192/192/192 202/202/202
