g PickaxePart
v 0.03491099 -9.536743E-08 -0.02149191
v 0.01138384 -9.536743E-08 -0.04475042
v -0.01138384 -9.536743E-08 -0.04475042
v -0.03491098 -9.536743E-08 -0.02149191
v 0.03491098 -9.536743E-08 0.02149191
v -0.03491099 -9.536743E-08 0.02149191
v 0.01138384 -9.536743E-08 0.04475042
v -0.01138384 -9.536743E-08 0.04475042
v 0.01439182 0.006878853 0.0516873
v -0.01439182 0.006878853 0.0516873
v -0.01594898 0.1803727 0.0447653
v 0.01594897 0.1803727 0.04476529
v -0.04106331 0.180373 0.01986393
v 0.04205752 0.006878948 0.02433412
v -0.04205753 0.006878948 0.02433412
v 0.0410633 0.180373 0.01986393
v -0.0410633 0.180373 -0.01986394
v 0.04205752 0.006878948 -0.02433412
v -0.04205752 0.006878948 -0.02433412
v 0.0410633 0.180373 -0.01986394
v -0.01594897 0.1803726 -0.0447653
v 0.01439182 0.006878853 -0.0516873
v -0.01439182 0.006878853 -0.0516873
v 0.01594898 0.1803726 -0.0447653
v -0.03491099 -9.536743E-08 0.02149191
v -0.04205753 0.006878948 0.02433412
v -0.01439182 0.006878853 0.0516873
v -0.01138384 -9.536743E-08 0.04475042
v -0.03491098 -9.536743E-08 -0.02149191
v 0.01439182 0.006878853 0.0516873
v -0.04205752 0.006878948 -0.02433412
v 0.01138384 -9.536743E-08 0.04475042
v -0.01138384 -9.536743E-08 -0.04475042
v 0.04205752 0.006878948 0.02433412
v -0.01439182 0.006878853 -0.0516873
v 0.03491098 -9.536743E-08 0.02149191
v 0.01138384 -9.536743E-08 -0.04475042
v 0.04205752 0.006878948 -0.02433412
v 0.01439182 0.006878853 -0.0516873
v 0.03491099 -9.536743E-08 -0.02149191
vt 0.6796875 0.6074219
vt 0.6796875 0.6074219
vt 0.6796875 0.6074219
vt 0.6796875 0.6074219
vt 0.6796875 0.6074219
vt 0.6796875 0.6074219
vt 0.6796875 0.6074219
vt 0.6796875 0.6074219
vt 0.6796875 0.6074219
vt 0.6796875 0.6074219
vt 0.6796875 0.6074219
vt 0.6796875 0.6074219
vt 0.6796875 0.6074219
vt 0.6796875 0.6074219
vt 0.6796875 0.6074219
vt 0.6796875 0.6074219
vt 0.6796875 0.6074219
vt 0.6796875 0.6074219
vt 0.6796875 0.6074219
vt 0.6796875 0.6074219
vt 0.6796875 0.6074219
vt 0.6796875 0.6074219
vt 0.6796875 0.6074219
vt 0.6796875 0.6074219
vt 0 0
vt 0 0
vt 0 0
vt 0 0
vt 0 0
vt 0 0
vt 0 0
vt 0 0
vt 0 0
vt 0 0
vt 0 0
vt 0 0
vt 0 0
vt 0 0
vt 0 0
vt 0 0
vn 0 -1 0
vn 0 -1 0
vn 0 -1 0
vn 0 -1 0
vn 0 -1 0
vn 0 -1 0
vn 0 -1 0
vn 0 -1 0
vn 0.3749551 0.03366234 0.9264315
vn -0.3749551 0.03366234 0.9264315
vn -0.3854626 0.03338844 0.9221192
vn 0.3854626 0.03338844 0.9221192
vn -0.9248547 0.01498494 0.3800254
vn 0.9207799 0.01522884 0.389785
vn -0.9207799 0.01522884 0.389785
vn 0.9248547 0.01498494 0.3800254
vn -0.9248547 0.01498494 -0.3800254
vn 0.9207799 0.01522884 -0.389785
vn -0.9207799 0.01522884 -0.389785
vn 0.9248547 0.01498494 -0.3800254
vn -0.3854626 0.03338844 -0.9221192
vn 0.3749551 0.03366234 -0.9264315
vn -0.3749551 0.03366234 -0.9264315
vn 0.3854626 0.03338844 -0.9221192
vn -0.6141396 -0.7453116 0.2595055
vn -0.6158265 -0.7453521 0.2553583
vn -0.2574926 -0.7396082 0.6218337
vn -0.2528796 -0.7395645 0.6237757
vn -0.6141396 -0.7453116 -0.2595055
vn 0.2574926 -0.7396082 0.6218337
vn -0.6158265 -0.7453521 -0.2553583
vn 0.2528796 -0.7395645 0.6237757
vn -0.2528796 -0.7395645 -0.6237757
vn 0.6158265 -0.7453521 0.2553583
vn -0.2574926 -0.7396082 -0.6218337
vn 0.6141396 -0.7453116 0.2595055
vn 0.2528796 -0.7395645 -0.6237757
vn 0.6158265 -0.7453521 -0.2553583
vn 0.2574926 -0.7396082 -0.6218337
vn 0.6141396 -0.7453116 -0.2595055
g PickaxePart_0
f 3/3/3 2/2/2 1/1/1
f 1/1/1 4/4/4 3/3/3
f 1/1/1 5/5/5 4/4/4
f 5/5/5 6/6/6 4/4/4
f 5/5/5 7/7/7 6/6/6
f 7/7/7 8/8/8 6/6/6
f 11/11/11 10/10/10 9/9/9
f 12/12/12 11/11/11 9/9/9
f 11/11/11 13/13/13 10/10/10
f 9/9/9 14/14/14 12/12/12
f 13/13/13 15/15/15 10/10/10
f 14/14/14 16/16/16 12/12/12
f 13/13/13 17/17/17 15/15/15
f 16/16/16 14/14/14 18/18/18
f 17/17/17 19/19/19 15/15/15
f 20/20/20 16/16/16 18/18/18
f 19/19/19 17/17/17 21/21/21
f 18/18/18 22/22/22 20/20/20
f 23/23/23 19/19/19 21/21/21
f 22/22/22 24/24/24 20/20/20
f 21/21/21 24/24/24 23/23/23
f 24/24/24 22/22/22 23/23/23
f 27/27/27 26/26/26 25/25/25
f 28/28/28 27/27/27 25/25/25
f 29/29/29 25/25/25 26/26/26
f 27/27/27 28/28/28 30/30/30
f 31/31/31 29/29/29 26/26/26
f 28/28/28 32/32/32 30/30/30
f 29/29/29 31/31/31 33/33/33
f 34/34/34 30/30/30 32/32/32
f 31/31/31 35/35/35 33/33/33
f 36/36/36 34/34/34 32/32/32
f 37/37/37 33/33/33 35/35/35
f 34/34/34 36/36/36 38/38/38
f 39/39/39 37/37/37 35/35/35
f 36/36/36 40/40/40 38/38/38
f 37/37/37 39/39/39 40/40/40
f 39/39/39 38/38/38 40/40/40
