g PigAnimalHand
v 7.540996E-05 -0.001634718 0.0004575363
v 0.0005223929 -0.001350641 5.142996E-05
v 7.872038E-05 -0.001350825 -1.194095E-05
v 0.0006090926 -0.0002969807 -3.321049E-05
v 0.0005626272 -0.001350825 0.0004849565
v 7.540996E-05 -0.001634718 0.0004575363
v 0.00065776 -0.0002969807 0.0004880209
v 0.0004352676 -0.001350678 0.0008850087
v 7.540996E-05 -0.001634718 0.0004575363
v 0.0005072254 -0.0002969808 0.0009775673
v 7.870737E-05 -0.001350678 0.0009650786
v 7.540996E-05 -0.001634718 0.0004575363
v 0.0006873594 0.000178813 0.0004880209
v 0.0005290353 0.0004099567 0.001065091
v 8.558224E-05 -0.000296981 -9.950389E-05
v -0.0004199803 -0.0002969812 -3.321049E-05
v 0.000635705 0.000178813 -6.359545E-05
v -0.0003478541 -0.001350641 5.142996E-05
v 7.540996E-05 -0.001634718 0.0004575363
v -0.0004051995 -0.001350838 0.0004849565
v 8.558203E-05 0.0001788127 -0.0001298889
v -0.0004865828 -0.0002969813 0.0004880209
v 0.000730722 0.0008758054 0.0004880209
v 0.0005609908 0.0009850968 0.0009616789
v 0.000674703 0.0008758054 -0.0001650377
v 8.558158E-05 0.001130401 -0.0002683855
v 8.558146E-05 0.001130401 0.0004880209
v 8.558137E-05 0.001130401 0.001028668
v -0.0005161955 0.0001788124 -0.0001298889
v -0.0005753951 0.0011304 -0.0002683855
v -0.0005161955 0.0001788124 0.0004880209
v -0.0005753952 0.0011304 0.0004880209
v 8.558168E-05 0.0004562224 0.00118058
v -0.0004570998 0.001130401 0.0009163205
v -0.0003978874 0.0003985744 0.001036663
v 8.558206E-05 -0.000296981 0.001075545
v -0.0003682874 -0.0002969812 0.000953452
v -0.0002921698 -0.001350604 0.000865284
v 7.540996E-05 -0.001634718 0.0004575363
v 7.540996E-05 -0.001634718 0.0004575363
v -0.001106669 0.0001763933 0.0004880205
v -0.0008178441 0.0005556413 0.0004880209
v -0.0008178439 0.0005556413 -0.0001298889
v -0.001106669 0.0001763933 -9.950426E-05
vt 0.7198488 0.4001628
vt 0.7198488 0.4001628
vt 0.7198488 0.4001628
vt 0.7198488 0.4001628
vt 0.7198488 0.4001628
vt 0.7198488 0.4001628
vt 0.7198488 0.4001628
vt 0.7198488 0.4001628
vt 0.7198488 0.4001628
vt 0.7198488 0.4001628
vt 0.7198488 0.4001628
vt 0.7198488 0.4001628
vt 0.7198488 0.4001628
vt 0.7198488 0.4001628
vt 0.7198488 0.4001628
vt 0.7198488 0.4001628
vt 0.7198488 0.4001628
vt 0.7198488 0.4001628
vt 0.7198488 0.4001628
vt 0.7198488 0.4001628
vt 0.7198488 0.4001628
vt 0.7198488 0.4001628
vt 0.7198488 0.4001628
vt 0.7198488 0.4001628
vt 0.7198488 0.4001628
vt 0.7198488 0.4001628
vt 0.7198488 0.4001628
vt 0.7198488 0.4001628
vt 0.7198488 0.4001628
vt 0.7198488 0.4001628
vt 0.7198488 0.4001628
vt 0.7198488 0.4001628
vt 0.7198488 0.4001628
vt 0.7198488 0.4001628
vt 0.7198488 0.4001628
vt 0.7198488 0.4001628
vt 0.7198488 0.4001628
vt 0.7198488 0.4001628
vt 0.7198488 0.4001628
vt 0.7198488 0.4001628
vt 0.7198488 0.4001628
vt 0.7198488 0.4001628
vt 0.7198488 0.4001628
vt 0.7198488 0.4001628
vn -0.001535932 -0.8557079 -0.5174569
vn 0.6238093 -0.5057544 -0.5958813
vn -0.002367865 -0.5104722 -0.8598909
vn 0.7168621 -0.09657295 -0.6904944
vn 0.8540191 -0.5124123 0.08991612
vn 0.5003812 -0.8640606 0.05493574
vn 0.9917575 -0.07700872 0.102405
vn 0.5843982 -0.5074425 0.6332305
vn 0.3097594 -0.8911917 0.3314007
vn 0.6850389 -0.1099866 0.7201559
vn -0.01676644 -0.5197524 0.8541523
vn -0.01094459 -0.8725583 0.4883875
vn 0.9927729 -0.05819027 0.104957
vn 0.6570337 -0.008582754 0.7538123
vn 0.01503793 -0.09475301 -0.9953873
vn -0.5109869 -0.3435668 -0.7879431
vn 0.7218018 -0.109268 -0.6834199
vn -0.6178743 -0.4997832 -0.6069992
vn -0.3090731 -0.8999822 -0.3074179
vn -0.8609589 -0.5049145 0.06173437
vn 0.04447026 -0.124166 -0.9912645
vn -0.9295549 -0.2861732 0.2324489
vn 0.8724067 0.4840542 0.06780984
vn 0.6423329 0.5637319 0.5192447
vn 0.6924229 0.3840482 -0.6107843
vn 0.1796672 0.6650806 -0.7248362
vn 0.1820439 0.9831684 -0.01548597
vn 0.0891562 0.7627265 0.6405461
vn -0.1243945 0.01661782 -0.9920936
vn -0.5882747 0.5226004 -0.6171076
vn -0.7092502 0.1457871 0.6897175
vn -0.7483686 0.6567225 0.09306008
vn -0.01259997 0.03704406 0.9992342
vn -0.5829244 0.6270794 0.5166919
vn -0.6871312 -0.01974208 0.7262651
vn -0.01733686 -0.1191366 0.9927264
vn -0.7128038 -0.1086712 0.6928934
vn -0.6071336 -0.5049756 0.6135051
vn -0.3238321 -0.8879014 0.3267475
vn -0.5064523 -0.8613228 0.04036178
vn -0.8135318 -0.1203606 0.5689284
vn -0.009968592 0.8246508 0.5655543
vn -0.01830273 0.7939709 -0.6076801
vn -0.811215 -0.1534052 -0.5642667
g PigAnimalHand_0
f 3/3/3 2/2/2 1/1/1
f 2/2/2 3/3/3 4/4/4
f 2/2/2 4/4/4 5/5/5
f 2/2/2 5/5/5 6/6/6
f 4/4/4 7/7/7 5/5/5
f 5/5/5 7/7/7 8/8/8
f 5/5/5 8/8/8 9/9/9
f 7/7/7 10/10/10 8/8/8
f 8/8/8 10/10/10 11/11/11
f 8/8/8 11/11/11 12/12/12
f 13/13/13 7/7/7 4/4/4
f 14/14/14 10/10/10 7/7/7
f 13/13/13 14/14/14 7/7/7
f 3/3/3 15/15/15 4/4/4
f 16/16/16 15/15/15 3/3/3
f 17/17/17 4/4/4 15/15/15
f 17/17/17 13/13/13 4/4/4
f 18/18/18 16/16/16 3/3/3
f 18/18/18 3/3/3 19/19/19
f 20/20/20 18/18/18 19/19/19
f 21/21/21 15/15/15 16/16/16
f 21/21/21 17/17/17 15/15/15
f 22/22/22 16/16/16 18/18/18
f 20/20/20 22/22/22 18/18/18
f 23/23/23 13/13/13 17/17/17
f 24/24/24 14/14/14 13/13/13
f 23/23/23 24/24/24 13/13/13
f 25/25/25 17/17/17 21/21/21
f 25/25/25 23/23/23 17/17/17
f 26/26/26 25/25/25 21/21/21
f 23/23/23 25/25/25 26/26/26
f 24/24/24 23/23/23 27/27/27
f 27/27/27 23/23/23 26/26/26
f 24/24/24 28/28/28 14/14/14
f 28/28/28 24/24/24 27/27/27
f 26/26/26 21/21/21 29/29/29
f 29/29/29 21/21/21 16/16/16
f 27/27/27 26/26/26 30/30/30
f 30/30/30 26/26/26 29/29/29
f 30/30/30 29/29/29 31/31/31
f 32/32/32 27/27/27 30/30/30
f 28/28/28 27/27/27 32/32/32
f 32/32/32 30/30/30 31/31/31
f 28/28/28 33/33/33 14/14/14
f 14/14/14 33/33/33 10/10/10
f 34/34/34 28/28/28 32/32/32
f 28/28/28 34/34/34 33/33/33
f 34/34/34 32/32/32 35/35/35
f 34/34/34 35/35/35 33/33/33
f 32/32/32 31/31/31 35/35/35
f 33/33/33 36/36/36 10/10/10
f 33/33/33 35/35/35 36/36/36
f 10/10/10 36/36/36 11/11/11
f 35/35/35 37/37/37 36/36/36
f 11/11/11 36/36/36 37/37/37
f 35/35/35 31/31/31 37/37/37
f 38/38/38 11/11/11 37/37/37
f 11/11/11 38/38/38 39/39/39
f 38/38/38 37/37/37 20/20/20
f 38/38/38 20/20/20 40/40/40
f 37/37/37 22/22/22 20/20/20
f 31/31/31 22/22/22 37/37/37
f 41/41/41 22/22/22 31/31/31
f 42/42/42 41/41/41 31/31/31
f 42/42/42 31/31/31 29/29/29
f 43/43/43 42/42/42 29/29/29
f 42/42/42 43/43/43 41/41/41
f 43/43/43 29/29/29 16/16/16
f 44/44/44 16/16/16 22/22/22
f 41/41/41 44/44/44 22/22/22
f 43/43/43 44/44/44 41/41/41
f 44/44/44 43/43/43 16/16/16
