g PortalBlue
v 0.09358514 0.4538619 0.3881902
v -0.09358535 0.4538619 0.3881902
v -0.09372973 0.3370864 0.426201
v 0.09372952 0.3370864 0.426201
v -0.09386817 0.2073525 0.4269983
v 0.09386796 0.2073525 0.4269983
v 0.09412483 0.4816476 0.426434
v -0.09412505 0.4816476 0.426434
v -0.09386817 0.5801904 0.2933374
v 0.09386796 0.5801904 0.2933374
v 0.09412483 0.4816476 0.426434
v -0.09400008 0.3407058 0.4721901
v -0.09412505 0.4816476 0.426434
v 0.09399986 0.3407058 0.4721901
v 0.09386796 0.2073525 0.4727526
v -0.09386817 0.2073525 0.4727526
v 0.09386796 0.5801904 0
v 0.09386796 0.5801904 0.2933374
v -0.09386817 0.5801904 0.2933374
v -0.09386817 0.5801904 0
v -0.09386817 0.5801904 -0.2933374
v 0.09386796 0.5801904 -0.2933374
v 0.09386796 0.2073525 0.4269983
v 0.09386796 0.2073525 0.4727526
v 0.09399986 0.3407058 0.4721901
v 0.09372952 0.3370864 0.426201
v 0.09412483 0.4816476 0.426434
v 0.09358514 0.4538619 0.3881902
v 0.09386796 0.5801904 0.2933374
v 0.09386796 0.5344362 0.2933374
v 0.09386796 0.5801904 0
v 0.09386796 0.5344362 0
v 0.09386796 0.5344362 -0.2933374
v 0.09386796 0.5801904 -0.2933374
v 0.09358514 0.4538619 -0.3881902
v 0.09412483 0.4816476 -0.426434
v 0.09372952 0.3370864 -0.426201
v 0.09399986 0.3407058 -0.4721901
v 0.09386796 0.2073525 -0.4269983
v 0.09386796 0.2073525 -0.4727526
v 0.1130598 0.0002114773 0.5
v -0.11306 0.0002114773 0.5
v -0.11306 0.2073525 0.5
v 0.1130598 0.2073525 0.5
v 0.09386796 0.5344362 0.2933374
v -0.09386817 0.5344362 0.2933374
v -0.09358535 0.4538619 0.3881902
v 0.09358514 0.4538619 0.3881902
v -0.11306 0.2073525 0.399751
v -0.11306 0.2073525 0.5
v -0.11306 0.0002114773 0.5
v -0.11306 -0.0002114773 0.401889
v 0.1130598 -0.0002114773 0.401889
v 0.1130598 0.2073525 0.399751
v -0.11306 0.2073525 0.399751
v -0.11306 -0.0002114773 0.401889
v 0.1130598 0.0002114773 0.5
v 0.1130598 0.2073525 0.5
v 0.1130598 0.2073525 0.399751
v 0.1130598 -0.0002114773 0.401889
v -0.09372973 0.3370864 0.426201
v -0.09386817 0.2073525 0.4727526
v -0.09386817 0.2073525 0.4269983
v -0.09400008 0.3407058 0.4721901
v -0.09358535 0.4538619 0.3881902
v -0.09412505 0.4816476 0.426434
v -0.09386817 0.5344362 0.2933374
v -0.09386817 0.5801904 0.2933374
v -0.09386817 0.5344362 0
v -0.09386817 0.5801904 0
v -0.09386817 0.5801904 -0.2933374
v -0.09386817 0.5344362 -0.2933374
v -0.09412505 0.4816476 -0.426434
v -0.09358535 0.4538619 -0.3881902
v -0.09400008 0.3407058 -0.4721901
v -0.09372973 0.3370864 -0.426201
v -0.09386817 0.2073525 -0.4727526
v -0.09386817 0.2073525 -0.4269983
v -0.09386817 0.5344362 0.2933374
v 0.09386796 0.5344362 0.2933374
v 0.09386796 0.5344362 0
v -0.09386817 0.5344362 0
v -0.09386817 0.5344362 -0.2933374
v 0.09386796 0.5344362 -0.2933374
v 0.09358514 0.4538619 -0.3881902
v -0.09372973 0.3370864 -0.426201
v -0.09358535 0.4538619 -0.3881902
v 0.09372952 0.3370864 -0.426201
v -0.09386817 0.2073525 -0.4269983
v 0.09386796 0.2073525 -0.4269983
v 0.09412483 0.4816476 -0.426434
v 0.09386796 0.5801904 -0.2933374
v -0.09386817 0.5801904 -0.2933374
v -0.09412505 0.4816476 -0.426434
v 0.09412483 0.4816476 -0.426434
v -0.09412505 0.4816476 -0.426434
v -0.09400008 0.3407058 -0.4721901
v 0.09399986 0.3407058 -0.4721901
v 0.09386796 0.2073525 -0.4727526
v -0.09386817 0.2073525 -0.4727526
v 0.1130598 0.0002114773 -0.5
v 0.1130598 0.2073525 -0.5
v -0.11306 0.2073525 -0.5
v -0.11306 0.0002114773 -0.5
v 0.09386796 0.5344362 -0.2933374
v 0.09358514 0.4538619 -0.3881902
v -0.09358535 0.4538619 -0.3881902
v -0.09386817 0.5344362 -0.2933374
v -0.11306 0.2073525 -0.399751
v -0.11306 -0.0002114773 -0.401889
v -0.11306 0.0002114773 -0.5
v -0.11306 0.2073525 -0.5
v 0.1130598 -0.0002114773 -0.401889
v -0.11306 -0.0002114773 -0.401889
v -0.11306 0.2073525 -0.399751
v 0.1130598 0.2073525 -0.399751
v 0.1130598 0.0002114773 -0.5
v 0.1130598 -0.0002114773 -0.401889
v 0.1130598 0.2073525 -0.399751
v 0.1130598 0.2073525 -0.5
v -0.11306 0.2073525 0.399751
v 0.1130598 0.2073525 0.399751
v 0.09386796 0.2073525 0.4269983
v -0.09386817 0.2073525 0.4269983
v 0.09386796 0.2073525 0.4727526
v -0.11306 0.2073525 0.5
v 0.1130598 0.2073525 0.5
v -0.09386817 0.2073525 0.4727526
v -0.11306 0.2073525 -0.399751
v -0.09386817 0.2073525 -0.4269983
v 0.09386796 0.2073525 -0.4269983
v 0.1130598 0.2073525 -0.399751
v -0.11306 0.2073525 -0.5
v 0.09386796 0.2073525 -0.4727526
v -0.09386817 0.2073525 -0.4727526
v 0.1130598 0.2073525 -0.5
vt 0.3442917 0.4669686
vt 0.3442917 0.4669686
vt 0.3442917 0.4669686
vt 0.3442917 0.4669686
vt 0.3442917 0.4669686
vt 0.3442917 0.4669686
vt 0.3480417 0.7819685
vt 0.3480417 0.7819685
vt 0.3480417 0.7819685
vt 0.3480417 0.7819685
vt 0.3480417 0.7819685
vt 0.3480417 0.7819685
vt 0.3480417 0.7819685
vt 0.3480417 0.7819685
vt 0.3480417 0.7819685
vt 0.3480417 0.7819685
vt 0.3480417 0.7819685
vt 0.3480417 0.7819685
vt 0.3480417 0.7819685
vt 0.3480417 0.7819685
vt 0.3480417 0.7819685
vt 0.3480417 0.7819685
vt 0.2180417 0.4632186
vt 0.2180417 0.4632186
vt 0.2180417 0.4632186
vt 0.2180417 0.4632186
vt 0.2180417 0.4632186
vt 0.2180417 0.4632186
vt 0.2180417 0.4632186
vt 0.2180417 0.4632186
vt 0.2180417 0.4632186
vt 0.2180417 0.4632186
vt 0.2180417 0.4632186
vt 0.2180417 0.4632186
vt 0.2180417 0.4632186
vt 0.2180417 0.4632186
vt 0.2180417 0.4632186
vt 0.2180417 0.4632186
vt 0.2180417 0.4632186
vt 0.2180417 0.4632186
vt 0.2306919 0.908268
vt 0.2306919 0.908268
vt 0.2306919 0.908268
vt 0.2306919 0.908268
vt 0.3442917 0.4669686
vt 0.3442917 0.4669686
vt 0.3442917 0.4669686
vt 0.3442917 0.4669686
vt 0.1629711 0.9051182
vt 0.1629711 0.9051182
vt 0.1629711 0.9051182
vt 0.1629711 0.9051182
vt 0.2306919 0.908268
vt 0.2306919 0.908268
vt 0.2306919 0.908268
vt 0.2306919 0.908268
vt 0.1629711 0.9051182
vt 0.1629711 0.9051182
vt 0.1629711 0.9051182
vt 0.1629711 0.9051182
vt 0.2180417 0.4632186
vt 0.2180417 0.4632186
vt 0.2180417 0.4632186
vt 0.2180417 0.4632186
vt 0.2180417 0.4632186
vt 0.2180417 0.4632186
vt 0.2180417 0.4632186
vt 0.2180417 0.4632186
vt 0.2180417 0.4632186
vt 0.2180417 0.4632186
vt 0.2180417 0.4632186
vt 0.2180417 0.4632186
vt 0.2180417 0.4632186
vt 0.2180417 0.4632186
vt 0.2180417 0.4632186
vt 0.2180417 0.4632186
vt 0.2180417 0.4632186
vt 0.2180417 0.4632186
vt 0.3442917 0.4669686
vt 0.3442917 0.4669686
vt 0.3442917 0.4669686
vt 0.3442917 0.4669686
vt 0.3442917 0.4669686
vt 0.3442917 0.4669686
vt 0.3442917 0.4669686
vt 0.3442917 0.4669686
vt 0.3442917 0.4669686
vt 0.3442917 0.4669686
vt 0.3442917 0.4669686
vt 0.3442917 0.4669686
vt 0.3480417 0.7819685
vt 0.3480417 0.7819685
vt 0.3480417 0.7819685
vt 0.3480417 0.7819685
vt 0.3480417 0.7819685
vt 0.3480417 0.7819685
vt 0.3480417 0.7819685
vt 0.3480417 0.7819685
vt 0.3480417 0.7819685
vt 0.3480417 0.7819685
vt 0.2306919 0.908268
vt 0.2306919 0.908268
vt 0.2306919 0.908268
vt 0.2306919 0.908268
vt 0.3442917 0.4669686
vt 0.3442917 0.4669686
vt 0.3442917 0.4669686
vt 0.3442917 0.4669686
vt 0.1629711 0.9051182
vt 0.1629711 0.9051182
vt 0.1629711 0.9051182
vt 0.1629711 0.9051182
vt 0.2306919 0.908268
vt 0.2306919 0.908268
vt 0.2306919 0.908268
vt 0.2306919 0.908268
vt 0.1629711 0.9051182
vt 0.1629711 0.9051182
vt 0.1629711 0.9051182
vt 0.1629711 0.9051182
vt 0.2152007 0.9697933
vt 0.2152007 0.9697933
vt 0.2152007 0.9697933
vt 0.2152007 0.9697933
vt 0.2152007 0.9697933
vt 0.2152007 0.9697933
vt 0.2152007 0.9697933
vt 0.2152007 0.9697933
vt 0.2252007 0.9685434
vt 0.2252007 0.9685434
vt 0.2252007 0.9685434
vt 0.2252007 0.9685434
vt 0.2252007 0.9685434
vt 0.2252007 0.9685434
vt 0.2252007 0.9685434
vt 0.2252007 0.9685434
vn 0 -0.3095193 -0.9508932
vn 0 -0.3095193 -0.9508932
vn 0 -0.1596197 -0.9871787
vn 0 -0.1596197 -0.9871787
vn 0 -0.006145293 -0.9999812
vn 0 -0.006145293 -0.9999812
vn 0 0.8036937 0.5950432
vn 0 0.8036937 0.5950432
vn 0 0.8036937 0.5950432
vn 0 0.8036937 0.5950432
vn 0 0.3087808 0.9511333
vn 0 0.1584846 0.9873614
vn 0 0.3087808 0.9511333
vn 0 0.1584846 0.9873614
vn 0 0.0042184 0.9999912
vn 0 0.0042184 0.9999912
vn 0 1 0
vn 0 1 0
vn 0 1 0
vn 0 1 0
vn 0 1 0
vn 0 1 0
vn 0.9999957 9.603417E-06 -0.002947022
vn 0.9999957 9.603417E-06 -0.002947022
vn 0.9999834 -0.001277877 -0.005613755
vn 0.9999815 -0.0014203 -0.005908754
vn 0.9999722 -0.003990807 -0.006298975
vn 0.999972 -0.003960353 -0.006354194
vn 0.999997 -0.001957608 -0.001495764
vn 0.9999924 -0.003106682 -0.002373745
vn 1 0 0
vn 1 0 0
vn 0.9999924 -0.00310668 0.002373744
vn 0.999997 -0.001957607 0.001495763
vn 0.999972 -0.003960352 0.006354173
vn 0.9999722 -0.003990806 0.006298956
vn 0.9999815 -0.001420301 0.005908752
vn 0.9999834 -0.001277877 0.005613758
vn 0.9999957 9.603417E-06 0.00294706
vn 0.9999957 9.603417E-06 0.00294706
vn 0 0 1
vn 0 0 1
vn 0 0 1
vn 0 0 1
vn 0 -0.76214 -0.6474123
vn 0 -0.76214 -0.6474123
vn 0 -0.76214 -0.6474123
vn 0 -0.76214 -0.6474123
vn -1 0 0
vn -1 0 0
vn -1 0 0
vn -1 0 0
vn 0 -0.01029992 -0.999947
vn 0 -0.01029992 -0.999947
vn 0 -0.01029992 -0.999947
vn 0 -0.01029992 -0.999947
vn 1 0 0
vn 1 0 0
vn 1 0 0
vn 1 0 0
vn -0.9999815 -0.0014203 -0.005908826
vn -0.9999957 9.603417E-06 -0.002947176
vn -0.9999957 9.603417E-06 -0.002947176
vn -0.9999834 -0.001277877 -0.005613837
vn -0.999972 -0.003960394 -0.006354347
vn -0.9999722 -0.003990849 -0.006299133
vn -0.9999924 -0.003106731 -0.002373931
vn -0.999997 -0.00195764 -0.001495881
vn -1 0 0
vn -1 0 0
vn -0.999997 -0.001957641 0.001495868
vn -0.9999924 -0.003106733 0.002373909
vn -0.9999722 -0.00399085 0.006299081
vn -0.999972 -0.003960395 0.006354294
vn -0.9999834 -0.001277877 0.005613805
vn -0.9999815 -0.0014203 0.005908791
vn -0.9999957 9.603417E-06 0.002947176
vn -0.9999957 9.603417E-06 0.002947176
vn 0 -1 0
vn 0 -1 0
vn 0 -1 0
vn 0 -1 0
vn 0 -1 0
vn 0 -1 0
vn 0 -0.3095193 0.9508931
vn 0 -0.1596196 0.9871787
vn 0 -0.3095193 0.9508931
vn 0 -0.1596196 0.9871787
vn 0 -0.006145185 0.9999812
vn 0 -0.006145185 0.9999812
vn 0 0.8036937 -0.5950433
vn 0 0.8036937 -0.5950433
vn 0 0.8036937 -0.5950433
vn 0 0.8036937 -0.5950433
vn 0 0.3087808 -0.9511333
vn 0 0.3087808 -0.9511333
vn 0 0.1584847 -0.9873614
vn 0 0.1584847 -0.9873614
vn 0 0.004218509 -0.9999912
vn 0 0.004218509 -0.9999912
vn 0 0 -1
vn 0 0 -1
vn 0 0 -1
vn 0 0 -1
vn 0 -0.76214 0.6474123
vn 0 -0.76214 0.6474123
vn 0 -0.76214 0.6474123
vn 0 -0.76214 0.6474123
vn -1 0 0
vn -1 0 0
vn -1 0 0
vn -1 0 0
vn 0 -0.01029992 0.999947
vn 0 -0.01029992 0.999947
vn 0 -0.01029992 0.999947
vn 0 -0.01029992 0.999947
vn 1 0 0
vn 1 0 0
vn 1 0 0
vn 1 0 0
vn 0 1 0
vn 0 1 0
vn 0 1 0
vn 0 1 0
vn 0 1 0
vn 0 1 0
vn 0 1 0
vn 0 1 0
vn 0 1 0
vn 0 1 0
vn 0 1 0
vn 0 1 0
vn 0 1 0
vn 0 1 0
vn 0 1 0
vn 0 1 0
g PortalBlue_0
f 3/3/3 2/2/2 1/1/1
f 4/4/4 3/3/3 1/1/1
f 3/3/3 4/4/4 5/5/5
f 4/4/4 6/6/6 5/5/5
f 9/9/9 8/8/8 7/7/7
f 10/10/10 9/9/9 7/7/7
f 13/13/13 12/12/12 11/11/11
f 12/12/12 14/14/14 11/11/11
f 14/14/14 12/12/12 15/15/15
f 12/12/12 16/16/16 15/15/15
f 19/19/19 18/18/18 17/17/17
f 20/20/20 19/19/19 17/17/17
f 21/21/21 20/20/20 17/17/17
f 22/22/22 21/21/21 17/17/17
f 25/25/25 24/24/24 23/23/23
f 26/26/26 25/25/25 23/23/23
f 27/27/27 25/25/25 26/26/26
f 28/28/28 27/27/27 26/26/26
f 29/29/29 27/27/27 28/28/28
f 30/30/30 29/29/29 28/28/28
f 31/31/31 29/29/29 30/30/30
f 32/32/32 31/31/31 30/30/30
f 31/31/31 32/32/32 33/33/33
f 34/34/34 31/31/31 33/33/33
f 34/34/34 33/33/33 35/35/35
f 36/36/36 34/34/34 35/35/35
f 36/36/36 35/35/35 37/37/37
f 38/38/38 36/36/36 37/37/37
f 38/38/38 37/37/37 39/39/39
f 40/40/40 38/38/38 39/39/39
f 43/43/43 42/42/42 41/41/41
f 44/44/44 43/43/43 41/41/41
f 47/47/47 46/46/46 45/45/45
f 48/48/48 47/47/47 45/45/45
f 51/51/51 50/50/50 49/49/49
f 52/52/52 51/51/51 49/49/49
f 55/55/55 54/54/54 53/53/53
f 56/56/56 55/55/55 53/53/53
f 59/59/59 58/58/58 57/57/57
f 60/60/60 59/59/59 57/57/57
f 63/63/63 62/62/62 61/61/61
f 62/62/62 64/64/64 61/61/61
f 61/61/61 64/64/64 65/65/65
f 64/64/64 66/66/66 65/65/65
f 65/65/65 66/66/66 67/67/67
f 66/66/66 68/68/68 67/67/67
f 67/67/67 68/68/68 69/69/69
f 68/68/68 70/70/70 69/69/69
f 70/70/70 71/71/71 69/69/69
f 71/71/71 72/72/72 69/69/69
f 71/71/71 73/73/73 72/72/72
f 73/73/73 74/74/74 72/72/72
f 73/73/73 75/75/75 74/74/74
f 75/75/75 76/76/76 74/74/74
f 75/75/75 77/77/77 76/76/76
f 77/77/77 78/78/78 76/76/76
f 81/81/81 80/80/80 79/79/79
f 82/82/82 81/81/81 79/79/79
f 81/81/81 82/82/82 83/83/83
f 84/84/84 81/81/81 83/83/83
f 87/87/87 86/86/86 85/85/85
f 86/86/86 88/88/88 85/85/85
f 88/88/88 86/86/86 89/89/89
f 90/90/90 88/88/88 89/89/89
f 93/93/93 92/92/92 91/91/91
f 94/94/94 93/93/93 91/91/91
f 97/97/97 96/96/96 95/95/95
f 98/98/98 97/97/97 95/95/95
f 97/97/97 98/98/98 99/99/99
f 100/100/100 97/97/97 99/99/99
f 103/103/103 102/102/102 101/101/101
f 104/104/104 103/103/103 101/101/101
f 107/107/107 106/106/106 105/105/105
f 108/108/108 107/107/107 105/105/105
f 111/111/111 110/110/110 109/109/109
f 112/112/112 111/111/111 109/109/109
f 115/115/115 114/114/114 113/113/113
f 116/116/116 115/115/115 113/113/113
f 119/119/119 118/118/118 117/117/117
f 120/120/120 119/119/119 117/117/117
f 123/123/123 122/122/122 121/121/121
f 124/124/124 123/123/123 121/121/121
f 123/123/123 125/125/125 122/122/122
f 121/121/121 126/126/126 124/124/124
f 125/125/125 127/127/127 122/122/122
f 126/126/126 128/128/128 124/124/124
f 128/128/128 126/126/126 127/127/127
f 125/125/125 128/128/128 127/127/127
f 131/131/131 130/130/130 129/129/129
f 132/132/132 131/131/131 129/129/129
f 133/133/133 129/129/129 130/130/130
f 134/134/134 131/131/131 132/132/132
f 135/135/135 133/133/133 130/130/130
f 136/136/136 134/134/134 132/132/132
f 133/133/133 135/135/135 136/136/136
f 135/135/135 134/134/134 136/136/136
