g RabbitAnimalHand
v 2.070707E-05 0.0001736812 -0.0001576167
v 0.0005712117 0.0001736822 -9.127929E-05
v 0.0006102344 0.0008711541 -0.0001927864
v 2.070661E-05 0.001125911 -0.0002962
v 0.0006662885 0.0008711541 0.0004607241
v -0.0005814804 0.0001736806 -0.0001576167
v -0.000485203 -0.0003024342 -6.086267E-05
v 2.070731E-05 -0.0003024336 -0.0001272008
v 0.0005445736 -0.0003024329 -6.086267E-05
v 0.0006228946 0.0001736823 0.0004607241
v 1.38319E-05 -0.001356998 -3.95786E-05
v 2.070661E-05 0.001125911 0.0004607241
v -0.0006407254 0.001125911 -0.0002962
v -0.0005814804 0.0001736806 0.0004607241
v 0.0004964424 0.0009805227 0.0009347073
v -0.0006407254 0.001125911 0.0004607241
v 2.070661E-05 0.001125911 0.001001744
v 0.000464465 0.0004049907 0.001038183
v 0.0005932724 -0.0003024329 0.0004607234
v -0.0005223478 0.001125911 0.0008893139
v 2.070694E-05 0.000451285 0.001153759
v -0.000463103 0.0003935957 0.001009739
v 0.0004426364 -0.000302433 0.0009506009
v 2.070731E-05 -0.0003024336 0.001048648
v -0.0004334804 -0.0003024342 0.0009264714
v 1.382018E-05 -0.00135686 0.00093811
v 0.0003706357 -0.001356852 0.0008579827
v 1.052676E-05 -0.001641088 0.0004302147
v 0.0004980827 -0.001357009 0.0004576579
v 0.0004578127 -0.001356817 2.382807E-05
v -0.0003573062 -0.001356777 0.0008382447
v -0.0004130289 -0.001356818 2.382807E-05
v -0.0004704169 -0.00135701 0.0004576579
v -0.0005518579 -0.0003024342 0.0004607234
v -0.001172362 0.0001712633 -0.0001272008
v -0.001172362 0.0001712633 0.0004607234
v -0.0008833408 0.0005507755 -0.0001576167
v -0.0008833408 0.0005507755 0.0004607241
vt 0.7186161 0.3463027
vt 0.7186161 0.3463027
vt 0.7186161 0.3463027
vt 0.7186161 0.3463027
vt 0.7186161 0.3463027
vt 0.7186161 0.3463027
vt 0.7186161 0.3463027
vt 0.7186161 0.3463027
vt 0.7186161 0.3463027
vt 0.7186161 0.3463027
vt 0.7186161 0.3463027
vt 0.7186161 0.3463027
vt 0.7186161 0.3463027
vt 0.7186161 0.3463027
vt 0.7186161 0.3463027
vt 0.7186161 0.3463027
vt 0.7186161 0.3463027
vt 0.7186161 0.3463027
vt 0.7186161 0.3463027
vt 0.7186161 0.3463027
vt 0.7186161 0.3463027
vt 0.7186161 0.3463027
vt 0.7186161 0.3463027
vt 0.7186161 0.3463027
vt 0.7186161 0.3463027
vt 0.7186161 0.3463027
vt 0.7186161 0.3463027
vt 0.7186161 0.3463027
vt 0.7186161 0.3463027
vt 0.7186161 0.3463027
vt 0.7186161 0.3463027
vt 0.7186161 0.3463027
vt 0.7186161 0.3463027
vt 0.7186161 0.3463027
vt 0.7186161 0.3463027
vt 0.7186161 0.3463027
vt 0.7186161 0.3463027
vt 0.7186161 0.3463027
vn 0.04446916 -0.1241736 -0.9912635
vn 0.7218023 -0.1092766 -0.6834179
vn 0.6924199 0.3840581 -0.6107815
vn 0.1796595 0.6650833 -0.7248355
vn 0.8724025 0.4840614 0.06781198
vn -0.124401 0.01660405 -0.992093
vn -0.5109844 -0.3435715 -0.7879427
vn 0.0150378 -0.0947621 -0.9953864
vn 0.7168618 -0.09658247 -0.6904933
vn 0.992772 -0.05819496 0.1049615
vn -0.00236856 -0.5104665 -0.8598943
vn 0.1820336 0.9831703 -0.01548724
vn -0.5882768 0.5226007 -0.6171053
vn -0.7092566 0.1457877 0.6897109
vn 0.6423286 0.5637397 0.5192412
vn -0.7483705 0.6567206 0.09305695
vn 0.08914901 0.7627258 0.6405482
vn 0.6570385 -0.008586152 0.7538081
vn 0.9917572 -0.07701006 0.1024059
vn -0.5829264 0.627082 0.5166864
vn -0.01259741 0.03704239 0.9992343
vn -0.6871361 -0.01974076 0.7262605
vn 0.6850406 -0.1099852 0.7201546
vn -0.01733249 -0.1191363 0.9927266
vn -0.712805 -0.10867 0.6928925
vn -0.01676866 -0.5197597 0.854148
vn 0.5844015 -0.5074358 0.6332327
vn -0.004575133 -0.9999889 -0.001161441
vn 0.8540153 -0.5124193 0.08991309
vn 0.6238011 -0.5057512 -0.5958925
vn -0.6071355 -0.5049731 0.6135052
vn -0.6178676 -0.4997838 -0.6070055
vn -0.8609594 -0.5049134 0.06173635
vn -0.9295553 -0.2861737 0.2324471
vn -0.8112192 -0.1534113 -0.5642592
vn -0.8135316 -0.1203633 0.5689279
vn -0.01830784 0.7939658 -0.6076866
vn -0.009970586 0.8246509 0.5655542
g RabbitAnimalHand_0
f 3/3/3 2/2/2 1/1/1
f 4/4/4 3/3/3 1/1/1
f 3/3/3 5/5/5 2/2/2
f 5/5/5 3/3/3 4/4/4
f 4/4/4 1/1/1 6/6/6
f 6/6/6 1/1/1 7/7/7
f 1/1/1 2/2/2 8/8/8
f 1/1/1 8/8/8 7/7/7
f 2/2/2 9/9/9 8/8/8
f 5/5/5 10/10/10 2/2/2
f 2/2/2 10/10/10 9/9/9
f 7/7/7 8/8/8 11/11/11
f 11/11/11 8/8/8 9/9/9
f 12/12/12 5/5/5 4/4/4
f 13/13/13 4/4/4 6/6/6
f 12/12/12 4/4/4 13/13/13
f 13/13/13 6/6/6 14/14/14
f 5/5/5 15/15/15 10/10/10
f 15/15/15 5/5/5 12/12/12
f 16/16/16 12/12/12 13/13/13
f 16/16/16 13/13/13 14/14/14
f 17/17/17 15/15/15 12/12/12
f 17/17/17 12/12/12 16/16/16
f 15/15/15 18/18/18 10/10/10
f 15/15/15 17/17/17 18/18/18
f 10/10/10 19/19/19 9/9/9
f 10/10/10 18/18/18 19/19/19
f 20/20/20 17/17/17 16/16/16
f 17/17/17 21/21/21 18/18/18
f 17/17/17 20/20/20 21/21/21
f 20/20/20 16/16/16 22/22/22
f 16/16/16 14/14/14 22/22/22
f 20/20/20 22/22/22 21/21/21
f 18/18/18 21/21/21 23/23/23
f 18/18/18 23/23/23 19/19/19
f 21/21/21 22/22/22 24/24/24
f 21/21/21 24/24/24 23/23/23
f 22/22/22 25/25/25 24/24/24
f 22/22/22 14/14/14 25/25/25
f 23/23/23 24/24/24 26/26/26
f 26/26/26 24/24/24 25/25/25
f 19/19/19 23/23/23 27/27/27
f 27/27/27 23/23/23 26/26/26
f 27/27/27 26/26/26 28/28/28
f 29/29/29 19/19/19 27/27/27
f 29/29/29 27/27/27 28/28/28
f 9/9/9 19/19/19 29/29/29
f 30/30/30 9/9/9 29/29/29
f 30/30/30 29/29/29 28/28/28
f 30/30/30 11/11/11 9/9/9
f 11/11/11 30/30/30 28/28/28
f 31/31/31 26/26/26 25/25/25
f 26/26/26 31/31/31 28/28/28
f 32/32/32 11/11/11 28/28/28
f 32/32/32 7/7/7 11/11/11
f 31/31/31 33/33/33 28/28/28
f 31/31/31 25/25/25 33/33/33
f 33/33/33 32/32/32 28/28/28
f 25/25/25 34/34/34 33/33/33
f 33/33/33 34/34/34 32/32/32
f 34/34/34 7/7/7 32/32/32
f 14/14/14 34/34/34 25/25/25
f 35/35/35 7/7/7 34/34/34
f 36/36/36 34/34/34 14/14/14
f 36/36/36 35/35/35 34/34/34
f 35/35/35 37/37/37 7/7/7
f 37/37/37 35/35/35 36/36/36
f 37/37/37 6/6/6 7/7/7
f 38/38/38 36/36/36 14/14/14
f 38/38/38 14/14/14 6/6/6
f 38/38/38 37/37/37 36/36/36
f 37/37/37 38/38/38 6/6/6
