g SmallFire
v -0.09149113 0.0986601 1.489726E-08
v -0.0662557 0.08304986 -0.06164959
v -0.03383942 0.1795441 -0.06153353
v -0.04484971 0.2374987 3.586131E-08
v -0.0662557 0.08304986 -0.06164959
v 0.05051164 0.08711539 -0.06182409
v -0.03383942 0.178484 -0.06153353
v -0.03383942 0.1795441 -0.06153353
v -0.03767658 0.002660596 -0.06164961
v -0.01938877 -0.009933431 -0.06164962
v 0.02000318 -0.009220337 -0.06182409
v 0.03554901 0.003647893 -0.0618241
v -0.04484971 0.2374987 3.586131E-08
v -0.03383942 0.1795441 -0.06153353
v -0.03383942 0.178484 -0.06153353
v -0.04484971 0.2359734 3.563099E-08
v -0.05515222 0.03897457 -0.06574173
v 0.04783155 0.04123541 -0.06574176
v 0.05051164 0.08711539 -0.06182409
v -0.0662557 0.08304986 -0.06164959
v -0.07551515 0.03524335 0.002733759
v -0.05515222 0.03897457 -0.06574173
v -0.0662557 0.08304986 -0.06164959
v -0.09149113 0.0986601 1.489726E-08
v -0.05037072 -0.01700619 -2.567863E-09
v -0.03767658 0.002660596 -0.06164961
v -0.05515222 0.03897457 -0.06574173
v -0.07551515 0.03524335 0.002733759
v -0.03767658 0.002660596 -0.06164961
v 0.03554901 0.003647893 -0.0618241
v 0.04783155 0.04123541 -0.06574176
v -0.05515222 0.03897457 -0.06574173
v 0.03262051 -0.0341008 -5.149078E-09
v 0.02000318 -0.009220337 -0.06182409
v -0.01938877 -0.009933431 -0.06164962
v -0.02405771 -0.03512682 -5.304003E-09
v -0.05037072 -0.01700619 -2.567863E-09
v -0.02405771 -0.03512682 -5.304003E-09
v -0.01938877 -0.009933431 -0.06164962
v -0.03767658 0.002660596 -0.06164961
v 0.03554901 0.003647893 -0.0618241
v 0.02000318 -0.009220337 -0.06182409
v 0.03262051 -0.0341008 -5.149078E-09
v 0.05741548 -0.01582837 -2.390017E-09
v 0.03554901 0.003647893 -0.0618241
v 0.05741548 -0.01582837 -2.390017E-09
v 0.07581608 0.03825359 0.00273371
v 0.04783155 0.04123541 -0.06574176
v 0.04783155 0.04123541 -0.06574176
v 0.07581608 0.03825359 0.00273371
v 0.07651694 0.1045097 1.578052E-08
v 0.05051164 0.08711539 -0.06182409
v 0.05051164 0.08711539 -0.06182409
v 0.07651694 0.1045097 1.578052E-08
v -0.04484971 0.2359734 3.563099E-08
v -0.03383942 0.178484 -0.06153353
v -0.09149113 0.0986601 1.489726E-08
v -0.04484971 0.2374987 3.586131E-08
v -0.03383942 0.1795441 0.06153358
v -0.0662557 0.08304985 0.06164961
v -0.0662557 0.08304985 0.06164961
v -0.03383942 0.1795441 0.06153358
v -0.03383942 0.178484 0.06153358
v 0.05051164 0.08711538 0.06182412
v -0.03767658 0.002660578 0.06164961
v 0.03554901 0.003647874 0.0618241
v 0.02000318 -0.009220356 0.06182409
v -0.01938877 -0.009933449 0.06164962
v -0.04484971 0.2374987 3.586131E-08
v -0.04484971 0.2359734 3.563099E-08
v -0.03383942 0.178484 0.06153358
v -0.03383942 0.1795441 0.06153358
v -0.05515222 0.03897455 0.06574175
v -0.0662557 0.08304985 0.06164961
v 0.05051164 0.08711538 0.06182412
v 0.04783155 0.04123539 0.06574178
v -0.07551515 0.03524335 -0.002733748
v -0.09149113 0.0986601 1.489726E-08
v -0.0662557 0.08304985 0.06164961
v -0.05515222 0.03897455 0.06574175
v -0.05037072 -0.01700619 -2.567863E-09
v -0.07551515 0.03524335 -0.002733748
v -0.05515222 0.03897455 0.06574175
v -0.03767658 0.002660578 0.06164961
v -0.03767658 0.002660578 0.06164961
v -0.05515222 0.03897455 0.06574175
v 0.04783155 0.04123539 0.06574178
v 0.03554901 0.003647874 0.0618241
v 0.03262051 -0.0341008 -5.149078E-09
v -0.02405771 -0.03512682 -5.304003E-09
v -0.01938877 -0.009933449 0.06164962
v 0.02000318 -0.009220356 0.06182409
v -0.05037072 -0.01700619 -2.567863E-09
v -0.03767658 0.002660578 0.06164961
v -0.01938877 -0.009933449 0.06164962
v -0.02405771 -0.03512682 -5.304003E-09
v 0.03554901 0.003647874 0.0618241
v 0.05741548 -0.01582837 -2.390017E-09
v 0.03262051 -0.0341008 -5.149078E-09
v 0.02000318 -0.009220356 0.06182409
v 0.03554901 0.003647874 0.0618241
v 0.04783155 0.04123539 0.06574178
v 0.07581608 0.03825359 -0.002733698
v 0.05741548 -0.01582837 -2.390017E-09
v 0.04783155 0.04123539 0.06574178
v 0.05051164 0.08711538 0.06182412
v 0.07651694 0.1045097 1.578052E-08
v 0.07581608 0.03825359 -0.002733698
v 0.05051164 0.08711538 0.06182412
v -0.03383942 0.178484 0.06153358
v -0.04484971 0.2359734 3.563099E-08
v 0.07651694 0.1045097 1.578052E-08
vt 0.2785295 0.9109508
vt 0.2785295 0.9109508
vt 0.2785295 0.9109508
vt 0.2785295 0.9109507
vt 0.2194707 0.9060292
vt 0.2194707 0.9060292
vt 0.2194707 0.9060292
vt 0.2194707 0.9060292
vt 0.2194707 0.9060292
vt 0.2194707 0.9060292
vt 0.2194707 0.9060292
vt 0.2194707 0.9060292
vt 0.2785295 0.9109507
vt 0.2785295 0.9109508
vt 0.2785295 0.9109508
vt 0.2785295 0.9109509
vt 0.2194707 0.9060292
vt 0.2194707 0.9060292
vt 0.2194707 0.9060292
vt 0.2194707 0.9060292
vt 0.2785295 0.9109508
vt 0.2785295 0.9109508
vt 0.2785295 0.9109508
vt 0.2785295 0.9109508
vt 0.2785296 0.9109508
vt 0.2785295 0.9109508
vt 0.2785295 0.9109508
vt 0.2785295 0.9109508
vt 0.2194707 0.9060292
vt 0.2194707 0.9060292
vt 0.2194707 0.9060292
vt 0.2194707 0.9060292
vt 0.2785295 0.9109507
vt 0.2785295 0.9109508
vt 0.2785295 0.9109508
vt 0.2785295 0.9109508
vt 0.2785296 0.9109508
vt 0.2785295 0.9109508
vt 0.2785295 0.9109508
vt 0.2785295 0.9109508
vt 0.2785295 0.9109508
vt 0.2785295 0.9109508
vt 0.2785295 0.9109507
vt 0.2785295 0.9109508
vt 0.2785295 0.9109508
vt 0.2785295 0.9109508
vt 0.2785295 0.9109508
vt 0.2785295 0.9109508
vt 0.2785295 0.9109508
vt 0.2785295 0.9109508
vt 0.2785295 0.9109507
vt 0.2785295 0.9109508
vt 0.2785295 0.9109508
vt 0.2785295 0.9109507
vt 0.2785295 0.9109509
vt 0.2785295 0.9109508
vt 0.2785295 0.9109508
vt 0.2785295 0.9109507
vt 0.2785295 0.9109508
vt 0.2785295 0.9109508
vt 0.2194707 0.9060292
vt 0.2194707 0.9060292
vt 0.2194707 0.9060292
vt 0.2194707 0.9060292
vt 0.2194707 0.9060292
vt 0.2194707 0.9060292
vt 0.2194707 0.9060292
vt 0.2194707 0.9060292
vt 0.2785295 0.9109507
vt 0.2785295 0.9109509
vt 0.2785295 0.9109508
vt 0.2785295 0.9109508
vt 0.2194707 0.9060292
vt 0.2194707 0.9060292
vt 0.2194707 0.9060292
vt 0.2194707 0.9060292
vt 0.2785295 0.9109508
vt 0.2785295 0.9109508
vt 0.2785295 0.9109508
vt 0.2785295 0.9109508
vt 0.2785296 0.9109508
vt 0.2785295 0.9109508
vt 0.2785295 0.9109508
vt 0.2785295 0.9109508
vt 0.2194707 0.9060292
vt 0.2194707 0.9060292
vt 0.2194707 0.9060292
vt 0.2194707 0.9060292
vt 0.2785295 0.9109507
vt 0.2785295 0.9109508
vt 0.2785295 0.9109508
vt 0.2785295 0.9109508
vt 0.2785296 0.9109508
vt 0.2785295 0.9109508
vt 0.2785295 0.9109508
vt 0.2785295 0.9109508
vt 0.2785295 0.9109508
vt 0.2785295 0.9109508
vt 0.2785295 0.9109507
vt 0.2785295 0.9109508
vt 0.2785295 0.9109508
vt 0.2785295 0.9109508
vt 0.2785295 0.9109508
vt 0.2785295 0.9109508
vt 0.2785295 0.9109508
vt 0.2785295 0.9109508
vt 0.2785295 0.9109507
vt 0.2785295 0.9109508
vt 0.2785295 0.9109508
vt 0.2785295 0.9109508
vt 0.2785295 0.9109509
vt 0.2785295 0.9109507
vn -0.8581065 0.2884817 -0.4247723
vn -0.8581065 0.2884817 -0.4247723
vn -0.8581065 0.2884817 -0.4247723
vn -0.8581065 0.2884817 -0.4247723
vn -0.001539181 0.001738927 -0.9999974
vn -0.001539181 0.001738927 -0.9999974
vn -0.001539181 0.001738927 -0.9999974
vn -0.001539181 0.001738927 -0.9999974
vn -0.00309364 -0.0003336605 -0.9999952
vn -0.00309364 -0.0003336605 -0.9999952
vn -0.00309364 -0.0003336605 -0.9999952
vn -0.00309364 -0.0003336605 -0.9999952
vn 0.9843657 0 0.1761368
vn 0.9843657 0 0.1761368
vn 0.9843657 0 0.1761368
vn 0.9843657 0 0.1761368
vn -0.003335486 0.088381 -0.9960812
vn -0.003335486 0.088381 -0.9960812
vn -0.003335486 0.088381 -0.9960812
vn -0.003335486 0.088381 -0.9960812
vn -0.9249563 -0.2291838 -0.3032007
vn -0.9249563 -0.2291838 -0.3032007
vn -0.9249563 -0.2291838 -0.3032007
vn -0.9249563 -0.2291838 -0.3032007
vn -0.859616 -0.418182 -0.2935714
vn -0.859616 -0.418182 -0.2935714
vn -0.859616 -0.418182 -0.2935714
vn -0.859616 -0.418182 -0.2935714
vn 0.001000337 -0.1076839 -0.9941847
vn 0.001000337 -0.1076839 -0.9941847
vn 0.001000337 -0.1076839 -0.9941847
vn 0.001000337 -0.1076839 -0.9941847
vn 0.0160828 -0.9262141 -0.3766547
vn 0.0160828 -0.9262141 -0.3766547
vn 0.0160828 -0.9262141 -0.3766547
vn 0.0160828 -0.9262141 -0.3766547
vn -0.5302709 -0.7700072 -0.3548262
vn -0.5302709 -0.7700072 -0.3548262
vn -0.5302709 -0.7700072 -0.3548262
vn -0.5302709 -0.7700072 -0.3548262
vn 0.5563197 -0.7206777 -0.4136811
vn 0.5563197 -0.7206777 -0.4136811
vn 0.5563197 -0.7206777 -0.4136811
vn 0.5563197 -0.7206777 -0.4136811
vn 0.8735066 -0.2973538 -0.3854437
vn 0.8735066 -0.2973538 -0.3854437
vn 0.8735066 -0.2973538 -0.3854437
vn 0.8735066 -0.2973538 -0.3854437
vn 0.924502 -0.02385739 -0.38043
vn 0.924502 -0.02385739 -0.38043
vn 0.924502 -0.02385739 -0.38043
vn 0.924502 -0.02385739 -0.38043
vn 0.6565655 0.6067222 -0.448118
vn 0.6565655 0.6067222 -0.448118
vn 0.6565655 0.6067222 -0.448118
vn 0.6565655 0.6067222 -0.448118
vn -0.8581066 0.2884816 0.4247723
vn -0.8581066 0.2884816 0.4247723
vn -0.8581066 0.2884816 0.4247723
vn -0.8581066 0.2884816 0.4247723
vn -0.001539237 0.001738589 0.9999974
vn -0.001539237 0.001738589 0.9999974
vn -0.001539237 0.001738589 0.9999974
vn -0.001539237 0.001738589 0.9999974
vn -0.00309364 -0.0003337416 0.9999952
vn -0.00309364 -0.0003337416 0.9999952
vn -0.00309364 -0.0003337416 0.9999952
vn -0.00309364 -0.0003337416 0.9999952
vn 0.9843658 0 -0.1761365
vn 0.9843658 0 -0.1761365
vn 0.9843658 0 -0.1761365
vn 0.9843658 0 -0.1761365
vn -0.003335506 0.08838058 0.9960812
vn -0.003335506 0.08838058 0.9960812
vn -0.003335506 0.08838058 0.9960812
vn -0.003335506 0.08838058 0.9960812
vn -0.9249563 -0.2291839 0.3032006
vn -0.9249563 -0.2291839 0.3032006
vn -0.9249563 -0.2291839 0.3032006
vn -0.9249563 -0.2291839 0.3032006
vn -0.8596159 -0.4181822 0.2935714
vn -0.8596159 -0.4181822 0.2935714
vn -0.8596159 -0.4181822 0.2935714
vn -0.8596159 -0.4181822 0.2935714
vn 0.001000343 -0.1076842 0.9941847
vn 0.001000343 -0.1076842 0.9941847
vn 0.001000343 -0.1076842 0.9941847
vn 0.001000343 -0.1076842 0.9941847
vn 0.01608271 -0.9262142 0.3766544
vn 0.01608271 -0.9262142 0.3766544
vn 0.01608271 -0.9262142 0.3766544
vn 0.01608271 -0.9262142 0.3766544
vn -0.5302709 -0.7700074 0.3548259
vn -0.5302709 -0.7700074 0.3548259
vn -0.5302709 -0.7700074 0.3548259
vn -0.5302709 -0.7700074 0.3548259
vn 0.5563197 -0.7206779 0.4136809
vn 0.5563197 -0.7206779 0.4136809
vn 0.5563197 -0.7206779 0.4136809
vn 0.5563197 -0.7206779 0.4136809
vn 0.8735066 -0.2973539 0.3854436
vn 0.8735066 -0.2973539 0.3854436
vn 0.8735066 -0.2973539 0.3854436
vn 0.8735066 -0.2973539 0.3854436
vn 0.924502 -0.02385754 0.38043
vn 0.924502 -0.02385754 0.38043
vn 0.924502 -0.02385754 0.38043
vn 0.924502 -0.02385754 0.38043
vn 0.6565655 0.6067222 0.4481183
vn 0.6565655 0.6067222 0.4481183
vn 0.6565655 0.6067222 0.4481183
vn 0.6565655 0.6067222 0.4481183
g SmallFire_0
f 3/3/3 2/2/2 1/1/1
f 4/4/4 3/3/3 1/1/1
f 7/7/7 6/6/6 5/5/5
f 8/8/8 7/7/7 5/5/5
f 11/11/11 10/10/10 9/9/9
f 12/12/12 11/11/11 9/9/9
f 15/15/15 14/14/14 13/13/13
f 16/16/16 15/15/15 13/13/13
f 19/19/19 18/18/18 17/17/17
f 20/20/20 19/19/19 17/17/17
f 23/23/23 22/22/22 21/21/21
f 24/24/24 23/23/23 21/21/21
f 27/27/27 26/26/26 25/25/25
f 28/28/28 27/27/27 25/25/25
f 31/31/31 30/30/30 29/29/29
f 32/32/32 31/31/31 29/29/29
f 35/35/35 34/34/34 33/33/33
f 36/36/36 35/35/35 33/33/33
f 39/39/39 38/38/38 37/37/37
f 40/40/40 39/39/39 37/37/37
f 43/43/43 42/42/42 41/41/41
f 44/44/44 43/43/43 41/41/41
f 47/47/47 46/46/46 45/45/45
f 48/48/48 47/47/47 45/45/45
f 51/51/51 50/50/50 49/49/49
f 52/52/52 51/51/51 49/49/49
f 55/55/55 54/54/54 53/53/53
f 56/56/56 55/55/55 53/53/53
f 59/59/59 58/58/58 57/57/57
f 60/60/60 59/59/59 57/57/57
f 63/63/63 62/62/62 61/61/61
f 64/64/64 63/63/63 61/61/61
f 67/67/67 66/66/66 65/65/65
f 68/68/68 67/67/67 65/65/65
f 71/71/71 70/70/70 69/69/69
f 72/72/72 71/71/71 69/69/69
f 75/75/75 74/74/74 73/73/73
f 76/76/76 75/75/75 73/73/73
f 79/79/79 78/78/78 77/77/77
f 80/80/80 79/79/79 77/77/77
f 83/83/83 82/82/82 81/81/81
f 84/84/84 83/83/83 81/81/81
f 87/87/87 86/86/86 85/85/85
f 88/88/88 87/87/87 85/85/85
f 91/91/91 90/90/90 89/89/89
f 92/92/92 91/91/91 89/89/89
f 95/95/95 94/94/94 93/93/93
f 96/96/96 95/95/95 93/93/93
f 99/99/99 98/98/98 97/97/97
f 100/100/100 99/99/99 97/97/97
f 103/103/103 102/102/102 101/101/101
f 104/104/104 103/103/103 101/101/101
f 107/107/107 106/106/106 105/105/105
f 108/108/108 107/107/107 105/105/105
f 111/111/111 110/110/110 109/109/109
f 112/112/112 111/111/111 109/109/109
