g SmallRocket3Color
v 0.0007974264 0.01576819 -0.004260656
v -0.001429791 0.01970189 -0.002118612
v -0.002430878 0.01576819 -0.003570413
v -0.004223194 0.01576819 -0.0007997613
v 0.0004779642 0.01970189 -0.002526509
v 0.00356643 0.01576819 -0.002464863
v 0.002114298 0.01970189 -0.001465291
v 0.00425546 0.01576819 0.000756329
v 0.002521477 0.01970189 0.000438262
v 0.002461146 0.01576819 0.003526452
v 0.001461134 0.01970189 0.002075257
v -0.0007619022 0.01576819 0.004216657
v -0.0004435158 0.01970189 0.002483131
v -0.003530786 0.01576819 0.002426316
v -0.002079778 0.01970189 0.001425135
v -0.0001011919 0.0236356 0.0006192735
v 0.0003859373 0.0236356 0.0005149563
v 0.000657129 0.0236356 9.628152E-05
v -0.002488955 0.01970189 -0.0004813044
v -0.0005196793 0.0236356 0.0003486822
v -0.0006243296 0.0236356 -0.000138905
v 1.654908E-05 0.0236356 -2.134905E-05
v 0.0005529893 0.0236356 -0.0003905675
v 0.000134484 0.0236356 -0.0006619823
v -0.0003534399 0.0236356 -0.0005576597
vn 0.1654653 0.4090448 -0.8973871
vn -0.5150341 0.4203873 -0.7470036
vn -0.517965 0.4090765 -0.7512448
vn -0.8975491 0.4090273 -0.1646277
vn 0.164548 0.4203551 -0.8923147
vn 0.7515749 0.408963 -0.5175756
vn 0.747317 0.4202745 -0.5146715
vn 0.8974826 0.4089645 0.1651451
vn 0.8924032 0.4202746 0.1642731
vn 0.5179059 0.4088622 0.7514022
vn 0.514992 0.4201717 0.7471539
vn -0.1647437 0.408889 0.8975908
vn -0.1638006 0.4201992 0.8925256
vn -0.7510386 0.4089607 0.5183553
vn -0.7467891 0.4202709 0.51544
vn -0.1108464 0.7892153 0.6040301
vn 0.3485424 0.7891974 0.5056538
vn 0.603977 0.7892036 0.1112183
vn -0.8924832 0.4203381 -0.1636757
vn -0.5054184 0.7892103 0.3488543
vn -0.6040385 0.7892206 -0.1107626
vn 0 1 0
vn 0.5057235 0.7892576 -0.3483048
vn 0.1113829 0.7892019 -0.6039488
vn -0.3485876 0.7892148 -0.5055955
g SmallRocket3Color_0
f 3/3/3 2/2/2 1/1/1
f 3/3/3 4/4/4 2/2/2
f 2/2/2 5/5/5 1/1/1
f 1/1/1 5/5/5 6/6/6
f 5/5/5 7/7/7 6/6/6
f 6/6/6 7/7/7 8/8/8
f 7/7/7 9/9/9 8/8/8
f 8/8/8 9/9/9 10/10/10
f 9/9/9 11/11/11 10/10/10
f 10/10/10 11/11/11 12/12/12
f 11/11/11 13/13/13 12/12/12
f 12/12/12 13/13/13 14/14/14
f 14/14/14 15/15/15 4/4/4
f 13/13/13 15/15/15 14/14/14
f 13/13/13 11/11/11 16/16/16
f 13/13/13 16/16/16 15/15/15
f 11/11/11 9/9/9 17/17/17
f 11/11/11 17/17/17 16/16/16
f 9/9/9 7/7/7 18/18/18
f 9/9/9 18/18/18 17/17/17
f 15/15/15 19/19/19 4/4/4
f 4/4/4 19/19/19 2/2/2
f 15/15/15 20/20/20 19/19/19
f 16/16/16 20/20/20 15/15/15
f 20/20/20 21/21/21 19/19/19
f 19/19/19 21/21/21 2/2/2
f 21/21/21 20/20/20 16/16/16
f 22/22/22 16/16/16 17/17/17
f 18/18/18 22/22/22 17/17/17
f 22/22/22 21/21/21 16/16/16
f 7/7/7 23/23/23 18/18/18
f 23/23/23 7/7/7 5/5/5
f 24/24/24 22/22/22 18/18/18
f 23/23/23 24/24/24 18/18/18
f 21/21/21 22/22/22 24/24/24
f 24/24/24 23/23/23 5/5/5
f 21/21/21 25/25/25 2/2/2
f 2/2/2 25/25/25 5/5/5
f 25/25/25 24/24/24 5/5/5
f 25/25/25 21/21/21 24/24/24
