g Star
v 0.1256217 0.1575918 -0.1729033
v 0.1040114 0.1575917 -0.0769967
v 0.04108698 0.1575917 -0.122714
v -0.04108696 -0.01073902 -0.122714
v -0.1256216 -0.01073899 -0.1729034
v -0.1040114 -0.01073903 -0.07699677
v -0.1294045 -0.01073905 0.001155306
v -0.2032601 -0.01073908 0.06604324
v -0.1053696 -0.01073908 0.07512742
v -0.03888945 -0.01073909 0.123428
v -1.960464E-08 -0.01073912 0.2137204
v 0.03888942 -0.01073909 0.1234281
v 0.1053695 -0.01073908 0.07512742
v 0.2032601 -0.01073908 0.06604322
v 0.1294045 -0.01073905 0.001155318
v 0.1040114 -0.01073903 -0.07699675
v 0.1256217 -0.01073899 -0.1729034
v 0.04108698 -0.01073902 -0.122714
v 0.03888942 0.1575917 0.1234281
v -1.960464E-08 0.1575917 0.2137204
v -0.03888945 0.1575917 0.1234281
v 0.1053695 0.1575917 0.07512747
v 0.1294045 0.1575917 0.001155364
v 0.2032601 0.1575917 0.06604327
v -0.1053696 0.1575917 0.07512747
v -0.2032601 0.1575917 0.06604329
v -0.1294045 0.1575917 0.001155352
v -0.1040114 0.1575917 -0.07699671
v -0.1256216 0.1575918 -0.1729034
v -0.04108696 0.1575917 -0.122714
v -1.810227E-09 0.008753297 -0.121468
v 0.1551971 0.008753334 -0.2136105
v 0.1551971 0.1414772 -0.2136105
v -1.810227E-09 0.1414772 -0.1214679
v 0.1551971 0.008753334 -0.2136105
v 0.1155229 0.008753276 -0.03753566
v 0.1155229 0.1414771 -0.03753562
v 0.1551971 0.1414772 -0.2136105
v 0.1155229 0.008753276 -0.03753566
v 0.2511142 0.008753235 0.08159198
v 0.2511142 0.1414771 0.08159202
v 0.1155229 0.1414771 -0.03753562
v 0.2511142 0.008753235 0.08159198
v 0.07139706 0.008753232 0.09826964
v 0.07139706 0.1414771 0.09826969
v 0.2511142 0.1414771 0.08159202
v 0.07139706 0.008753232 0.09826964
v -2.319353E-08 0.008753182 0.2640372
v -2.319353E-08 0.141477 0.2640372
v 0.07139706 0.1414771 0.09826969
v -2.319353E-08 0.008753182 0.2640372
v -0.07139709 0.008753232 0.09826963
v -0.07139709 0.1414771 0.09826968
v -2.319353E-08 0.141477 0.2640372
v -0.07139709 0.008753232 0.09826963
v -0.2511142 0.008753235 0.08159199
v -0.2511142 0.1414771 0.08159204
v -0.07139709 0.1414771 0.09826968
v -0.2511142 0.008753235 0.08159199
v -0.1155229 0.008753276 -0.03753568
v -0.1155229 0.1414771 -0.03753564
v -0.2511142 0.1414771 0.08159204
v -0.1155229 0.008753276 -0.03753568
v -0.1551971 0.008753334 -0.2136106
v -0.1551971 0.1414772 -0.2136105
v -0.1155229 0.1414771 -0.03753564
v -0.1551971 0.008753334 -0.2136106
v -1.810227E-09 0.008753297 -0.121468
v -1.810227E-09 0.1414772 -0.1214679
v -0.1551971 0.1414772 -0.2136105
v -1.810227E-09 0.1414772 -0.1214679
v 0.1551971 0.1414772 -0.2136105
v 0.1256217 0.1575918 -0.1729033
v 0.04108698 0.1575917 -0.122714
v 0.1155229 0.1414771 -0.03753562
v -1.810227E-09 0.1414772 -0.1214679
v 0.04108698 0.1575917 -0.122714
v 0.1040114 0.1575917 -0.0769967
v 0.1551971 0.1414772 -0.2136105
v 0.1155229 0.1414771 -0.03753562
v 0.1040114 0.1575917 -0.0769967
v 0.1256217 0.1575918 -0.1729033
v -0.1155229 0.008753276 -0.03753568
v -1.810227E-09 0.008753297 -0.121468
v -0.04108696 -0.01073902 -0.122714
v -0.1040114 -0.01073903 -0.07699677
v -0.1551971 0.008753334 -0.2136106
v -0.1155229 0.008753276 -0.03753568
v -0.1040114 -0.01073903 -0.07699677
v -0.1256216 -0.01073899 -0.1729034
v -1.810227E-09 0.008753297 -0.121468
v -0.1551971 0.008753334 -0.2136106
v -0.1256216 -0.01073899 -0.1729034
v -0.04108696 -0.01073902 -0.122714
v -0.07139709 0.008753232 0.09826963
v -0.1155229 0.008753276 -0.03753568
v -0.1294045 -0.01073905 0.001155306
v -0.1053696 -0.01073908 0.07512742
v -0.2511142 0.008753235 0.08159199
v -0.07139709 0.008753232 0.09826963
v -0.1053696 -0.01073908 0.07512742
v -0.2032601 -0.01073908 0.06604324
v -0.1155229 0.008753276 -0.03753568
v -0.2511142 0.008753235 0.08159199
v -0.2032601 -0.01073908 0.06604324
v -0.1294045 -0.01073905 0.001155306
v 0.07139706 0.008753232 0.09826964
v -0.07139709 0.008753232 0.09826963
v -0.03888945 -0.01073909 0.123428
v 0.03888942 -0.01073909 0.1234281
v -2.319353E-08 0.008753182 0.2640372
v 0.07139706 0.008753232 0.09826964
v 0.03888942 -0.01073909 0.1234281
v -1.960464E-08 -0.01073912 0.2137204
v -0.07139709 0.008753232 0.09826963
v -2.319353E-08 0.008753182 0.2640372
v -1.960464E-08 -0.01073912 0.2137204
v -0.03888945 -0.01073909 0.123428
v 0.1155229 0.008753276 -0.03753566
v 0.07139706 0.008753232 0.09826964
v 0.1053695 -0.01073908 0.07512742
v 0.1294045 -0.01073905 0.001155318
v 0.2511142 0.008753235 0.08159198
v 0.1155229 0.008753276 -0.03753566
v 0.1294045 -0.01073905 0.001155318
v 0.2032601 -0.01073908 0.06604322
v 0.07139706 0.008753232 0.09826964
v 0.2511142 0.008753235 0.08159198
v 0.2032601 -0.01073908 0.06604322
v 0.1053695 -0.01073908 0.07512742
v -1.810227E-09 0.008753297 -0.121468
v 0.1155229 0.008753276 -0.03753566
v 0.1040114 -0.01073903 -0.07699675
v 0.04108698 -0.01073902 -0.122714
v 0.1551971 0.008753334 -0.2136105
v -1.810227E-09 0.008753297 -0.121468
v 0.04108698 -0.01073902 -0.122714
v 0.1256217 -0.01073899 -0.1729034
v 0.1155229 0.008753276 -0.03753566
v 0.1551971 0.008753334 -0.2136105
v 0.1256217 -0.01073899 -0.1729034
v 0.1040114 -0.01073903 -0.07699675
v 0.07862221 -0.01073905 -0.02554591
v -2.486467E-09 -0.01073903 -0.0826683
v -0.07862221 -0.01073905 -0.02554592
v -0.04859121 -0.01073908 0.06688005
v 0.04859119 -0.01073908 0.06688005
v 0.07139706 0.008753232 0.09826964
v 0.1155229 0.008753276 -0.03753566
v 0.07862221 -0.01073905 -0.02554591
v 0.04859119 -0.01073908 0.06688005
v -0.07139709 0.008753232 0.09826963
v 0.07139706 0.008753232 0.09826964
v 0.04859119 -0.01073908 0.06688005
v -0.04859121 -0.01073908 0.06688005
v -0.1155229 0.008753276 -0.03753568
v -0.07139709 0.008753232 0.09826963
v -0.04859121 -0.01073908 0.06688005
v -0.07862221 -0.01073905 -0.02554592
v -1.810227E-09 0.008753297 -0.121468
v -0.1155229 0.008753276 -0.03753568
v -0.07862221 -0.01073905 -0.02554592
v -2.486467E-09 -0.01073903 -0.0826683
v 0.1155229 0.008753276 -0.03753566
v -1.810227E-09 0.008753297 -0.121468
v -2.486467E-09 -0.01073903 -0.0826683
v 0.07862221 -0.01073905 -0.02554591
v -0.07862221 0.1575917 -0.02554587
v -2.56708E-09 0.1575917 -0.08266824
v 0.07862221 0.1575917 -0.02554586
v -0.04859121 0.1575917 0.0668801
v 0.04859119 0.1575917 0.06688011
v -1.810227E-09 0.1414772 -0.1214679
v 0.1155229 0.1414771 -0.03753562
v 0.07862221 0.1575917 -0.02554586
v -2.56708E-09 0.1575917 -0.08266824
v -0.1155229 0.1414771 -0.03753564
v -1.810227E-09 0.1414772 -0.1214679
v -2.56708E-09 0.1575917 -0.08266824
v -0.07862221 0.1575917 -0.02554587
v -0.07139709 0.1414771 0.09826968
v -0.1155229 0.1414771 -0.03753564
v -0.07862221 0.1575917 -0.02554587
v -0.04859121 0.1575917 0.0668801
v 0.07139706 0.1414771 0.09826969
v -0.07139709 0.1414771 0.09826968
v -0.04859121 0.1575917 0.0668801
v 0.04859119 0.1575917 0.06688011
v 0.1155229 0.1414771 -0.03753562
v 0.07139706 0.1414771 0.09826969
v 0.04859119 0.1575917 0.06688011
v 0.07862221 0.1575917 -0.02554586
v -0.07139709 0.1414771 0.09826968
v 0.07139706 0.1414771 0.09826969
v 0.03888942 0.1575917 0.1234281
v -0.03888945 0.1575917 0.1234281
v -2.319353E-08 0.141477 0.2640372
v -0.07139709 0.1414771 0.09826968
v -0.03888945 0.1575917 0.1234281
v -1.960464E-08 0.1575917 0.2137204
v 0.07139706 0.1414771 0.09826969
v -2.319353E-08 0.141477 0.2640372
v -1.960464E-08 0.1575917 0.2137204
v 0.03888942 0.1575917 0.1234281
v 0.2511142 0.1414771 0.08159202
v 0.07139706 0.1414771 0.09826969
v 0.1053695 0.1575917 0.07512747
v 0.2032601 0.1575917 0.06604327
v 0.1155229 0.1414771 -0.03753562
v 0.2511142 0.1414771 0.08159202
v 0.2032601 0.1575917 0.06604327
v 0.1294045 0.1575917 0.001155364
v 0.07139706 0.1414771 0.09826969
v 0.1155229 0.1414771 -0.03753562
v 0.1294045 0.1575917 0.001155364
v 0.1053695 0.1575917 0.07512747
v -0.1155229 0.1414771 -0.03753564
v -0.07139709 0.1414771 0.09826968
v -0.1053696 0.1575917 0.07512747
v -0.1294045 0.1575917 0.001155352
v -0.2511142 0.1414771 0.08159204
v -0.1155229 0.1414771 -0.03753564
v -0.1294045 0.1575917 0.001155352
v -0.2032601 0.1575917 0.06604329
v -0.07139709 0.1414771 0.09826968
v -0.2511142 0.1414771 0.08159204
v -0.2032601 0.1575917 0.06604329
v -0.1053696 0.1575917 0.07512747
v -1.810227E-09 0.1414772 -0.1214679
v -0.1155229 0.1414771 -0.03753564
v -0.1040114 0.1575917 -0.07699671
v -0.04108696 0.1575917 -0.122714
v -0.1551971 0.1414772 -0.2136105
v -1.810227E-09 0.1414772 -0.1214679
v -0.04108696 0.1575917 -0.122714
v -0.1256216 0.1575918 -0.1729034
v -0.1155229 0.1414771 -0.03753564
v -0.1551971 0.1414772 -0.2136105
v -0.1256216 0.1575918 -0.1729034
v -0.1040114 0.1575917 -0.07699671
vn 0 1 0
vn 0 1 0
vn 0 1 0
vn 0 -1 0
vn 0 -1 0
vn 0 -1 0
vn 0 -1 0
vn 0 -1 0
vn 0 -1 0
vn 0 -1 0
vn 0 -1 0
vn 0 -1 0
vn 0 -1 0
vn 0 -1 0
vn 0 -1 0
vn 0 -1 0
vn 0 -1 0
vn 0 -1 0
vn 0 1 0
vn 0 1 0
vn 0 1 0
vn 0 1 0
vn 0 1 0
vn 0 1 0
vn 0 1 0
vn 0 1 0
vn 0 1 0
vn 0 1 0
vn 0 1 0
vn 0 1 0
vn -0.5105154 0 -0.8598687
vn -0.5105154 0 -0.8598687
vn -0.5105154 0 -0.8598687
vn -0.5105154 0 -0.8598687
vn 0.9755416 0 0.219815
vn 0.9755416 0 0.219815
vn 0.9755416 0 0.219815
vn 0.9755416 0 0.219815
vn 0.6600258 0 -0.7512429
vn 0.6600258 0 -0.7512429
vn 0.6600258 0 -0.7512429
vn 0.6600258 0 -0.7512429
vn 0.09240247 0 0.9957217
vn 0.09240247 0 0.9957217
vn 0.09240247 0 0.9957217
vn 0.09240247 0 0.9957217
vn 0.9184337 0 0.395575
vn 0.9184337 0 0.395575
vn 0.9184337 0 0.395575
vn 0.9184337 0 0.395575
vn -0.9184337 0 0.3955749
vn -0.9184337 0 0.3955749
vn -0.9184337 0 0.3955749
vn -0.9184337 0 0.3955749
vn -0.09240235 0 0.9957217
vn -0.09240235 0 0.9957217
vn -0.09240235 0 0.9957217
vn -0.09240235 0 0.9957217
vn -0.660026 0 -0.7512428
vn -0.660026 0 -0.7512428
vn -0.660026 0 -0.7512428
vn -0.660026 0 -0.7512428
vn -0.9755417 0 0.2198145
vn -0.9755417 0 0.2198145
vn -0.9755417 0 0.2198145
vn -0.9755417 0 0.2198145
vn 0.5105156 0 -0.8598685
vn 0.5105156 0 -0.8598685
vn 0.5105156 0 -0.8598685
vn 0.5105156 0 -0.8598685
vn -0.3212371 0.7772107 -0.5410638
vn -0.3212371 0.7772107 -0.5410638
vn -0.3212371 0.7772107 -0.5410638
vn -0.3212371 0.7772107 -0.5410638
vn -0.3170326 0.8420703 0.4363577
vn -0.3170326 0.8420703 0.4363577
vn -0.3170326 0.8420703 0.4363577
vn -0.3170326 0.8420703 0.4363577
vn 0.6138504 0.7772105 0.1383169
vn 0.6138504 0.7772105 0.1383169
vn 0.6138504 0.7772105 0.1383169
vn 0.6138504 0.7772105 0.1383169
vn 0.3599978 -0.790498 0.4954943
vn 0.3599978 -0.790498 0.4954943
vn 0.3599978 -0.790498 0.4954943
vn 0.3599978 -0.790498 0.4954943
vn -0.6825654 -0.7144579 0.1537992
vn -0.6825654 -0.7144579 0.1537992
vn -0.6825654 -0.7144579 0.1537992
vn -0.6825654 -0.7144579 0.1537992
vn 0.3571966 -0.7144581 -0.6016312
vn 0.3571966 -0.7144581 -0.6016312
vn 0.3571966 -0.7144581 -0.6016312
vn 0.3571966 -0.7144581 -0.6016312
vn 0.5824886 -0.7904979 -0.189262
vn 0.5824886 -0.7904979 -0.189262
vn 0.5824886 -0.7904979 -0.189262
vn 0.5824886 -0.7904979 -0.189262
vn -0.06465191 -0.7144582 0.6966847
vn -0.06465191 -0.7144582 0.6966847
vn -0.06465191 -0.7144582 0.6966847
vn -0.06465191 -0.7144582 0.6966847
vn -0.4618055 -0.7144582 -0.5256284
vn -0.4618055 -0.7144582 -0.5256284
vn -0.4618055 -0.7144582 -0.5256284
vn -0.4618055 -0.7144582 -0.5256284
vn 0 -0.7904978 -0.6124649
vn 0 -0.7904978 -0.6124649
vn 0 -0.7904978 -0.6124649
vn 0 -0.7904978 -0.6124649
vn 0.6426079 -0.7144582 0.2767749
vn 0.6426079 -0.7144582 0.2767749
vn 0.6426079 -0.7144582 0.2767749
vn 0.6426079 -0.7144582 0.2767749
vn -0.642608 -0.7144583 0.2767749
vn -0.642608 -0.7144583 0.2767749
vn -0.642608 -0.7144583 0.2767749
vn -0.642608 -0.7144583 0.2767749
vn -0.5824886 -0.7904979 -0.1892622
vn -0.5824886 -0.7904979 -0.1892622
vn -0.5824886 -0.7904979 -0.1892622
vn -0.5824886 -0.7904979 -0.1892622
vn 0.4618054 -0.714458 -0.5256285
vn 0.4618054 -0.714458 -0.5256285
vn 0.4618054 -0.714458 -0.5256285
vn 0.4618054 -0.714458 -0.5256285
vn 0.06465198 -0.7144583 0.6966846
vn 0.06465198 -0.7144583 0.6966846
vn 0.06465198 -0.7144583 0.6966846
vn 0.06465198 -0.7144583 0.6966846
vn -0.3599977 -0.7904981 0.4954942
vn -0.3599977 -0.7904981 0.4954942
vn -0.3599977 -0.7904981 0.4954942
vn -0.3599977 -0.7904981 0.4954942
vn -0.3571963 -0.7144581 -0.6016314
vn -0.3571963 -0.7144581 -0.6016314
vn -0.3571963 -0.7144581 -0.6016314
vn -0.3571963 -0.7144581 -0.6016314
vn 0.6825652 -0.7144581 0.1537995
vn 0.6825652 -0.7144581 0.1537995
vn 0.6825652 -0.7144581 0.1537995
vn 0.6825652 -0.7144581 0.1537995
vn 0 -1 0
vn 0 -1 0
vn 0 -1 0
vn 0 -1 0
vn 0 -1 0
vn 0.5017215 -0.8495294 0.1630189
vn 0.5017215 -0.8495294 0.1630189
vn 0.5017215 -0.8495294 0.1630189
vn 0.5017215 -0.8495294 0.1630189
vn 0 -0.8495295 0.527541
vn 0 -0.8495295 0.527541
vn 0 -0.8495295 0.527541
vn 0 -0.8495295 0.527541
vn -0.5017215 -0.8495295 0.1630188
vn -0.5017215 -0.8495295 0.1630188
vn -0.5017215 -0.8495295 0.1630188
vn -0.5017215 -0.8495295 0.1630188
vn -0.3100809 -0.8495294 -0.4267899
vn -0.3100809 -0.8495294 -0.4267899
vn -0.3100809 -0.8495294 -0.4267899
vn -0.3100809 -0.8495294 -0.4267899
vn 0.3100809 -0.8495294 -0.4267898
vn 0.3100809 -0.8495294 -0.4267898
vn 0.3100809 -0.8495294 -0.4267898
vn 0.3100809 -0.8495294 -0.4267898
vn 0 1 0
vn 0 1 0
vn 0 1 0
vn 0 1 0
vn 0 1 0
vn 0.2684455 0.8896174 -0.3694832
vn 0.2684455 0.8896174 -0.3694832
vn 0.2684455 0.8896174 -0.3694832
vn 0.2684455 0.8896174 -0.3694832
vn -0.2684452 0.8896175 -0.3694832
vn -0.2684452 0.8896175 -0.3694832
vn -0.2684452 0.8896175 -0.3694832
vn -0.2684452 0.8896175 -0.3694832
vn -0.4343538 0.8896173 0.1411302
vn -0.4343538 0.8896173 0.1411302
vn -0.4343538 0.8896173 0.1411302
vn -0.4343538 0.8896173 0.1411302
vn 0 0.8896173 0.4567068
vn 0 0.8896173 0.4567068
vn 0 0.8896173 0.4567068
vn 0 0.8896173 0.4567068
vn 0.4343536 0.8896174 0.1411304
vn 0.4343536 0.8896174 0.1411304
vn 0.4343536 0.8896174 0.1411304
vn 0.4343536 0.8896174 0.1411304
vn 0 0.8420705 -0.5393674
vn 0 0.8420705 -0.5393674
vn 0 0.8420705 -0.5393674
vn 0 0.8420705 -0.5393674
vn -0.5779157 0.7772105 0.2489121
vn -0.5779157 0.7772105 0.2489121
vn -0.5779157 0.7772105 0.2489121
vn -0.5779157 0.7772105 0.2489121
vn 0.5779158 0.7772104 0.2489122
vn 0.5779158 0.7772104 0.2489122
vn 0.5779158 0.7772104 0.2489122
vn 0.5779158 0.7772104 0.2489122
vn 0.05814337 0.7772106 0.6265486
vn 0.05814337 0.7772106 0.6265486
vn 0.05814337 0.7772106 0.6265486
vn 0.05814337 0.7772106 0.6265486
vn 0.4153149 0.7772109 -0.4727122
vn 0.4153149 0.7772109 -0.4727122
vn 0.4153149 0.7772109 -0.4727122
vn 0.4153149 0.7772109 -0.4727122
vn -0.5129692 0.8420703 -0.1666737
vn -0.5129692 0.8420703 -0.1666737
vn -0.5129692 0.8420703 -0.1666737
vn -0.5129692 0.8420703 -0.1666737
vn 0.5129694 0.8420703 -0.1666735
vn 0.5129694 0.8420703 -0.1666735
vn 0.5129694 0.8420703 -0.1666735
vn 0.5129694 0.8420703 -0.1666735
vn -0.4153148 0.777211 -0.472712
vn -0.4153148 0.777211 -0.472712
vn -0.4153148 0.777211 -0.472712
vn -0.4153148 0.777211 -0.472712
vn -0.05814333 0.7772106 0.6265486
vn -0.05814333 0.7772106 0.6265486
vn -0.05814333 0.7772106 0.6265486
vn -0.05814333 0.7772106 0.6265486
vn 0.3170323 0.8420703 0.4363578
vn 0.3170323 0.8420703 0.4363578
vn 0.3170323 0.8420703 0.4363578
vn 0.3170323 0.8420703 0.4363578
vn 0.3212372 0.7772109 -0.5410637
vn 0.3212372 0.7772109 -0.5410637
vn 0.3212372 0.7772109 -0.5410637
vn 0.3212372 0.7772109 -0.5410637
vn -0.6138504 0.7772105 0.1383167
vn -0.6138504 0.7772105 0.1383167
vn -0.6138504 0.7772105 0.1383167
vn -0.6138504 0.7772105 0.1383167
g Star_0
f 3/3/3 2/2/2 1/1/1
f 6/6/6 5/5/5 4/4/4
f 9/9/9 8/8/8 7/7/7
f 12/12/12 11/11/11 10/10/10
f 15/15/15 14/14/14 13/13/13
f 18/18/18 17/17/17 16/16/16
f 21/21/21 20/20/20 19/19/19
f 24/24/24 23/23/23 22/22/22
f 27/27/27 26/26/26 25/25/25
f 30/30/30 29/29/29 28/28/28
f 33/33/33 32/32/32 31/31/31
f 34/34/34 33/33/33 31/31/31
f 37/37/37 36/36/36 35/35/35
f 38/38/38 37/37/37 35/35/35
f 41/41/41 40/40/40 39/39/39
f 42/42/42 41/41/41 39/39/39
f 45/45/45 44/44/44 43/43/43
f 46/46/46 45/45/45 43/43/43
f 49/49/49 48/48/48 47/47/47
f 50/50/50 49/49/49 47/47/47
f 53/53/53 52/52/52 51/51/51
f 54/54/54 53/53/53 51/51/51
f 57/57/57 56/56/56 55/55/55
f 58/58/58 57/57/57 55/55/55
f 61/61/61 60/60/60 59/59/59
f 62/62/62 61/61/61 59/59/59
f 65/65/65 64/64/64 63/63/63
f 66/66/66 65/65/65 63/63/63
f 69/69/69 68/68/68 67/67/67
f 70/70/70 69/69/69 67/67/67
f 73/73/73 72/72/72 71/71/71
f 74/74/74 73/73/73 71/71/71
f 77/77/77 76/76/76 75/75/75
f 78/78/78 77/77/77 75/75/75
f 81/81/81 80/80/80 79/79/79
f 82/82/82 81/81/81 79/79/79
f 85/85/85 84/84/84 83/83/83
f 86/86/86 85/85/85 83/83/83
f 89/89/89 88/88/88 87/87/87
f 90/90/90 89/89/89 87/87/87
f 93/93/93 92/92/92 91/91/91
f 94/94/94 93/93/93 91/91/91
f 97/97/97 96/96/96 95/95/95
f 98/98/98 97/97/97 95/95/95
f 101/101/101 100/100/100 99/99/99
f 102/102/102 101/101/101 99/99/99
f 105/105/105 104/104/104 103/103/103
f 106/106/106 105/105/105 103/103/103
f 109/109/109 108/108/108 107/107/107
f 110/110/110 109/109/109 107/107/107
f 113/113/113 112/112/112 111/111/111
f 114/114/114 113/113/113 111/111/111
f 117/117/117 116/116/116 115/115/115
f 118/118/118 117/117/117 115/115/115
f 121/121/121 120/120/120 119/119/119
f 122/122/122 121/121/121 119/119/119
f 125/125/125 124/124/124 123/123/123
f 126/126/126 125/125/125 123/123/123
f 129/129/129 128/128/128 127/127/127
f 130/130/130 129/129/129 127/127/127
f 133/133/133 132/132/132 131/131/131
f 134/134/134 133/133/133 131/131/131
f 137/137/137 136/136/136 135/135/135
f 138/138/138 137/137/137 135/135/135
f 141/141/141 140/140/140 139/139/139
f 142/142/142 141/141/141 139/139/139
f 145/145/145 144/144/144 143/143/143
f 143/143/143 146/146/146 145/145/145
f 143/143/143 147/147/147 146/146/146
f 150/150/150 149/149/149 148/148/148
f 151/151/151 150/150/150 148/148/148
f 154/154/154 153/153/153 152/152/152
f 155/155/155 154/154/154 152/152/152
f 158/158/158 157/157/157 156/156/156
f 159/159/159 158/158/158 156/156/156
f 162/162/162 161/161/161 160/160/160
f 163/163/163 162/162/162 160/160/160
f 166/166/166 165/165/165 164/164/164
f 167/167/167 166/166/166 164/164/164
f 170/170/170 169/169/169 168/168/168
f 168/168/168 171/171/171 170/170/170
f 171/171/171 172/172/172 170/170/170
f 175/175/175 174/174/174 173/173/173
f 176/176/176 175/175/175 173/173/173
f 179/179/179 178/178/178 177/177/177
f 180/180/180 179/179/179 177/177/177
f 183/183/183 182/182/182 181/181/181
f 184/184/184 183/183/183 181/181/181
f 187/187/187 186/186/186 185/185/185
f 188/188/188 187/187/187 185/185/185
f 191/191/191 190/190/190 189/189/189
f 192/192/192 191/191/191 189/189/189
f 195/195/195 194/194/194 193/193/193
f 196/196/196 195/195/195 193/193/193
f 199/199/199 198/198/198 197/197/197
f 200/200/200 199/199/199 197/197/197
f 203/203/203 202/202/202 201/201/201
f 204/204/204 203/203/203 201/201/201
f 207/207/207 206/206/206 205/205/205
f 208/208/208 207/207/207 205/205/205
f 211/211/211 210/210/210 209/209/209
f 212/212/212 211/211/211 209/209/209
f 215/215/215 214/214/214 213/213/213
f 216/216/216 215/215/215 213/213/213
f 219/219/219 218/218/218 217/217/217
f 220/220/220 219/219/219 217/217/217
f 223/223/223 222/222/222 221/221/221
f 224/224/224 223/223/223 221/221/221
f 227/227/227 226/226/226 225/225/225
f 228/228/228 227/227/227 225/225/225
f 231/231/231 230/230/230 229/229/229
f 232/232/232 231/231/231 229/229/229
f 235/235/235 234/234/234 233/233/233
f 236/236/236 235/235/235 233/233/233
f 239/239/239 238/238/238 237/237/237
f 240/240/240 239/239/239 237/237/237
