g StickmanHand
v -3.979039E-12 -0.07779648 -0.000154014
v -0.01239894 -0.06624427 0.03852171
v 0.03246151 -0.06624427 0.02374869
v -0.04012479 -0.06624404 -0.000154014
v 0.03246151 -0.06624427 -0.02405671
v -0.01239894 -0.06624427 -0.03882973
v -0.05252403 -0.04111114 0.03852183
v 0.02006269 -0.04111125 0.06242479
v -0.02109451 -0.03503773 0.06564554
v 0.06492321 -0.04111112 -0.000154014
v 0.05522721 -0.03503771 0.04051198
v -3.979039E-12 -0.0004443139 0.07719815
v 0.04486101 -0.0004443139 0.06242518
v -0.04486101 -0.0004443139 0.06242518
v 0.07258671 -0.0004443139 0.02374878
v -0.06826447 -0.03503741 -0.000154014
v -0.05252403 -0.04111114 -0.03882986
v -0.07258671 -0.0004443139 0.02374878
v -0.07258671 -0.0004443139 -0.02405681
v -0.01553536 0.02479787 0.04632985
v 0.02109451 0.03414911 0.06564554
v -0.05522721 0.03414908 0.04051198
v 0.04571158 0.03340608 0.03719012
v -0.06492321 0.04022249 -0.000154014
v -0.02946961 0.04658661 0.01462703
v 0.01239895 0.06535564 0.03852171
v -0.04486101 -0.0004443139 -0.0627332
v -0.05522721 0.03414908 -0.04082
v -0.03305892 0.04653255 -0.01824857
v -3.979039E-12 0.07690785 -0.000154014
v 0.04012479 0.06535541 -0.000154014
v 0.06826447 0.03414879 -0.000154014
v -0.02006269 0.04022263 -0.06273282
v 0.01239895 0.06535564 -0.03882973
v -0.02109451 -0.03503773 -0.06595357
v 0.07258671 -0.0004443139 -0.02405681
v 0.05252403 0.04022252 -0.03882986
v 0.02109451 0.03414911 -0.06595357
v -3.979039E-12 -0.0004443139 -0.07750618
v 0.02006269 -0.04111125 -0.06273282
v 0.05522721 -0.03503771 -0.04082
v 0.04486101 -0.0004443139 -0.0627332
vn 0 -1 0
vn -0.1640709 -0.8504161 0.4998731
vn 0.4290145 -0.8489648 0.3085535
vn -0.5298783 -0.8480738 0
vn 0.4290145 -0.8489648 -0.3085535
vn -0.1640709 -0.8504161 -0.4998731
vn -0.6920485 -0.523187 0.4973374
vn 0.2655456 -0.5253537 0.8083867
vn -0.2791282 -0.446831 0.8499585
vn 0.8530396 -0.5218462 0
vn 0.7273371 -0.4446669 0.5227354
vn -0.0755349 0.1382823 0.9875082
vn 0.6129804 0.05075362 0.7884664
vn -0.5231029 0.1407556 0.840566
vn 0.9418088 0.05295004 0.3319525
vn -0.8963477 -0.4433518 0
vn -0.6920485 -0.523187 -0.4973374
vn -0.9519987 -9.155595E-05 0.306102
vn -0.9519987 -9.155595E-05 -0.306102
vn -0.3011359 0.6324861 0.7136375
vn 0.1502143 0.527276 0.8363108
vn -0.4798573 0.6516818 0.5874078
vn 0.6940404 0.5140068 0.504088
vn -0.7082819 0.7059014 0.006317406
vn -0.3974853 0.8590921 0.322438
vn -0.002594127 0.8107715 0.5853571
vn -0.5917896 0.0001220751 -0.8060924
vn -0.6536885 0.5935354 -0.4694753
vn -0.412315 0.8974184 -0.1569605
vn -0.2434803 0.9698011 0.01425236
vn 0.5561133 0.8292869 0.05496433
vn 0.8812483 0.46594 0.07938101
vn -0.3074211 0.6109968 -0.7295033
vn 0.04870848 0.8757455 -0.4803096
vn -0.2791282 -0.446831 -0.8499585
vn 0.9519987 9.155595E-05 -0.306102
vn 0.6920485 0.523187 -0.4973374
vn 0.2791282 0.446831 -0.8499585
vn 0 0 -1
vn 0.2655456 -0.5253537 -0.8083867
vn 0.7273371 -0.4446669 -0.5227354
vn 0.5917896 -0.0001220751 -0.8060924
g StickmanHand_0
f 3/3/3 2/2/2 1/1/1
f 2/2/2 4/4/4 1/1/1
f 1/1/1 5/5/5 3/3/3
f 4/4/4 6/6/6 1/1/1
f 6/6/6 5/5/5 1/1/1
f 2/2/2 7/7/7 4/4/4
f 3/3/3 8/8/8 2/2/2
f 9/9/9 7/7/7 2/2/2
f 8/8/8 9/9/9 2/2/2
f 3/3/3 5/5/5 10/10/10
f 11/11/11 8/8/8 3/3/3
f 3/3/3 10/10/10 11/11/11
f 8/8/8 12/12/12 9/9/9
f 11/11/11 13/13/13 8/8/8
f 8/8/8 13/13/13 12/12/12
f 9/9/9 14/14/14 7/7/7
f 12/12/12 14/14/14 9/9/9
f 10/10/10 15/15/15 11/11/11
f 15/15/15 13/13/13 11/11/11
f 7/7/7 16/16/16 4/4/4
f 4/4/4 17/17/17 6/6/6
f 16/16/16 17/17/17 4/4/4
f 7/7/7 18/18/18 16/16/16
f 7/7/7 14/14/14 18/18/18
f 16/16/16 19/19/19 17/17/17
f 18/18/18 19/19/19 16/16/16
f 12/12/12 20/20/20 14/14/14
f 13/13/13 21/21/21 12/12/12
f 21/21/21 20/20/20 12/12/12
f 14/14/14 22/22/22 18/18/18
f 20/20/20 22/22/22 14/14/14
f 23/23/23 21/21/21 13/13/13
f 15/15/15 23/23/23 13/13/13
f 22/22/22 24/24/24 18/18/18
f 18/18/18 24/24/24 19/19/19
f 20/20/20 25/25/25 22/22/22
f 22/22/22 25/25/25 24/24/24
f 21/21/21 26/26/26 20/20/20
f 23/23/23 26/26/26 21/21/21
f 20/20/20 26/26/26 25/25/25
f 17/17/17 19/19/19 27/27/27
f 24/24/24 28/28/28 19/19/19
f 19/19/19 28/28/28 27/27/27
f 24/24/24 25/25/25 29/29/29
f 24/24/24 29/29/29 28/28/28
f 26/26/26 30/30/30 25/25/25
f 25/25/25 30/30/30 29/29/29
f 23/23/23 31/31/31 26/26/26
f 31/31/31 30/30/30 26/26/26
f 32/32/32 23/23/23 15/15/15
f 32/32/32 31/31/31 23/23/23
f 28/28/28 29/29/29 33/33/33
f 28/28/28 33/33/33 27/27/27
f 29/29/29 30/30/30 34/34/34
f 34/34/34 30/30/30 31/31/31
f 33/33/33 29/29/29 34/34/34
f 17/17/17 27/27/27 35/35/35
f 17/17/17 35/35/35 6/6/6
f 36/36/36 32/32/32 15/15/15
f 10/10/10 36/36/36 15/15/15
f 37/37/37 31/31/31 32/32/32
f 37/37/37 34/34/34 31/31/31
f 37/37/37 32/32/32 36/36/36
f 33/33/33 34/34/34 38/38/38
f 38/38/38 34/34/34 37/37/37
f 27/27/27 33/33/33 39/39/39
f 27/27/27 39/39/39 35/35/35
f 33/33/33 38/38/38 39/39/39
f 35/35/35 40/40/40 6/6/6
f 35/35/35 39/39/39 40/40/40
f 6/6/6 40/40/40 5/5/5
f 5/5/5 41/41/41 10/10/10
f 41/41/41 36/36/36 10/10/10
f 40/40/40 41/41/41 5/5/5
f 42/42/42 37/37/37 36/36/36
f 38/38/38 37/37/37 42/42/42
f 39/39/39 38/38/38 42/42/42
f 42/42/42 36/36/36 41/41/41
f 40/40/40 42/42/42 41/41/41
f 40/40/40 39/39/39 42/42/42
