g VodoMaskDiskColor
v 0.1321196 0.04279189 0.07077147
v 0.1336067 0.009591234 0.07864591
v 0.1179662 0.009591234 0.1102471
v 0.1149079 0.04279189 0.1005356
v 0.09899537 0.05428059 0.0578541
v -0.1348859 0.04279189 0.07077146
v -0.1144748 0.009591234 0.1153219
v -0.1345612 0.009591234 0.06903516
v -0.1130992 0.04279189 0.1084469
v -0.1050201 0.05428059 0.05785409
v -0.01231343 0.04279189 0.1700405
v -0.002253236 0.04892748 0.1480047
v 0.009525165 0.04279189 0.1700457
v 0.01759983 0.009591234 0.1753872
v -0.0171306 0.009591234 0.1753841
vt 0.1620573 0.4077554
vt 0.1620573 0.4077554
vt 0.1620573 0.4077554
vt 0.1620573 0.4077554
vt 0.1620573 0.4077554
vt 0.1620573 0.4077554
vt 0.1620573 0.4077554
vt 0.1620573 0.4077554
vt 0.1620573 0.4077554
vt 0.1620573 0.4077554
vt 0.1558564 0.4019187
vt 0.1558564 0.4019187
vt 0.1558564 0.4019187
vt 0.1558564 0.4019187
vt 0.1558564 0.4019187
vn 0.6563384 0.6640292 0.3581693
vn 0.8668458 0.182232 0.4640797
vn 0.8668458 0.182232 0.4640797
vn 0.7589623 0.5052221 0.4107638
vn 0.2689978 0.9504957 0.1555573
vn -0.7299563 0.569975 0.3772163
vn -0.893833 0.04861636 0.4457568
vn -0.893833 0.04861636 0.4457568
vn -0.8321049 0.3589664 0.4227819
vn -0.2899325 0.9422501 0.167642
vn -0.0001220775 0.5694305 0.8220394
vn -6.103801E-05 0.9633629 0.2682011
vn -0.000122077 0.5426628 0.8399507
vn -0.0001220776 0.1588534 0.9873022
vn -0.0001220776 0.1588534 0.9873022
g VodoMaskDiskColor_0
f 3/3/3 2/2/2 1/1/1
f 4/4/4 3/3/3 1/1/1
f 5/5/5 4/4/4 1/1/1
f 8/8/8 7/7/7 6/6/6
f 7/7/7 9/9/9 6/6/6
f 9/9/9 10/10/10 6/6/6
f 13/13/13 12/12/12 11/11/11
f 14/14/14 13/13/13 11/11/11
f 15/15/15 14/14/14 11/11/11
